<svg xmlns="http://www.w3.org/2000/svg" xmlns:xlink="http://www.w3.org/1999/xlink" width="145" height="145" viewBox="0 0 145 145">
  <defs>
    <filter id="Elipse_4259" x="0" y="0" width="145" height="145" filterUnits="userSpaceOnUse">
      <feOffset dx="-6" dy="6" input="SourceAlpha"/>
      <feGaussianBlur stdDeviation="3" result="blur"/>
      <feFlood flood-opacity="0.161"/>
      <feComposite operator="in" in2="blur"/>
      <feComposite in="SourceGraphic"/>
    </filter>
    <clipPath id="clip-path">
      <rect id="Rect치ngulo_46781" data-name="Rect치ngulo 46781" width="72.53" height="71.146" transform="translate(0 0)" fill="none"/>
    </clipPath>
    <clipPath id="clip-path-2">
      <rect id="Rect치ngulo_46782" data-name="Rect치ngulo 46782" width="72.53" height="71.147" transform="translate(0 -0.001)" fill="none"/>
    </clipPath>
  </defs>
  <g id="Grupo_143275" data-name="Grupo 143275" transform="translate(-302.285 -5422)">
    <g id="Grupo_141448" data-name="Grupo 141448" transform="translate(70 -1184)">
      <g id="Grupo_126001" data-name="Grupo 126001" transform="translate(247.285 6609.5)">
        <g transform="matrix(1, 0, 0, 1, -15, -3.5)" filter="url(#Elipse_4259)">
          <g id="Elipse_4259-2" data-name="Elipse 4259" transform="translate(15 3)" fill="#fff" stroke="#ca6432" stroke-width="4">
            <circle cx="63.5" cy="63.5" r="63.5" stroke="none"/>
            <circle cx="63.5" cy="63.5" r="61.5" fill="none"/>
          </g>
        </g>
      </g>
    </g>
    <g id="Grupo_141462" data-name="Grupo 141462" transform="translate(344.285 5453)">
      <g id="Grupo_141457" data-name="Grupo 141457">
        <g id="Grupo_141456" data-name="Grupo 141456" clip-path="url(#clip-path)">
          <path id="Trazado_224461" data-name="Trazado 224461" d="M55.929,10.672A2.372,2.372,0,1,1,53.557,8.3a2.371,2.371,0,0,1,2.372,2.372" fill="#cdb47a"/>
          <path id="Trazado_224462" data-name="Trazado 224462" d="M54.743,13.044H52.371A2.378,2.378,0,0,0,50,15.416v4.743l1.186,1.185v7.115L55.929,27.1V21.344l1.186-1.185V15.416a2.378,2.378,0,0,0-2.372-2.372" fill="#cdb47a"/>
          <path id="Trazado_224463" data-name="Trazado 224463" d="M44.071,14.229A2.372,2.372,0,1,1,41.7,11.857a2.371,2.371,0,0,1,2.372,2.372" fill="#cdb47a"/>
          <path id="Trazado_224464" data-name="Trazado 224464" d="M42.886,16.6H40.514a2.378,2.378,0,0,0-2.371,2.372v4.743L39.328,24.9v7.115l4.743-1.292V24.9l1.186-1.185V18.973A2.378,2.378,0,0,0,42.886,16.6" fill="#cdb47a"/>
          <path id="Trazado_224465" data-name="Trazado 224465" d="M32.214,17.787a2.372,2.372,0,1,1-2.373-2.372,2.372,2.372,0,0,1,2.373,2.372" fill="#cdb47a"/>
          <path id="Trazado_224466" data-name="Trazado 224466" d="M31.028,20.158H28.656a2.378,2.378,0,0,0-2.371,2.372v4.743l1.186,1.185v7.115l4.743-1.233V28.458L33.4,27.273V22.53a2.378,2.378,0,0,0-2.372-2.372" fill="#cdb47a"/>
          <path id="Trazado_224467" data-name="Trazado 224467" d="M20.356,21.344a2.372,2.372,0,1,1-2.372-2.372,2.371,2.371,0,0,1,2.372,2.372" fill="#cdb47a"/>
          <path id="Trazado_224468" data-name="Trazado 224468" d="M14.427,26.087V30.83l1.186,1.186v7.115l4.743-1.186V32.016l1.186-1.186V26.087a2.372,2.372,0,0,0-2.372-2.372H16.8a2.371,2.371,0,0,0-2.372,2.372" fill="#cdb47a"/>
          <path id="Trazado_224469" data-name="Trazado 224469" d="M8.5,24.9a2.372,2.372,0,1,1-2.372-2.372A2.371,2.371,0,0,1,8.5,24.9" fill="#cdb47a"/>
          <path id="Trazado_224470" data-name="Trazado 224470" d="M2.569,29.644v4.743l1.186,1.186v7.115L8.5,41.5V35.573l1.186-1.186V29.644a2.372,2.372,0,0,0-2.372-2.372H4.941a2.371,2.371,0,0,0-2.372,2.372" fill="#cdb47a"/>
          <path id="Trazado_224471" data-name="Trazado 224471" d="M61.858,22.53,63.044,24.9.2,43.874V64.032l66.4-33.2L67.787,33.2l3.557-9.486Z" fill="#ca6432"/>
          <path id="Trazado_224472" data-name="Trazado 224472" d="M67.787,53.36a16.6,16.6,0,1,1-16.6-16.6,16.6,16.6,0,0,1,16.6,16.6" fill="#4f97aa"/>
          <path id="Trazado_224473" data-name="Trazado 224473" d="M46.073,69.149a16.588,16.588,0,0,0,20.9-20.9,28.493,28.493,0,0,1-20.9,20.9" fill="#41917d"/>
          <path id="Trazado_224474" data-name="Trazado 224474" d="M51.186,69.961a16.511,16.511,0,0,0,9.01-2.67,14.452,14.452,0,0,0-4.16-1.551,22.792,22.792,0,0,0-9.7,0,14.422,14.422,0,0,0-4.16,1.551,16.511,16.511,0,0,0,9.01,2.67" fill="#d9d9d7"/>
          <path id="Trazado_224475" data-name="Trazado 224475" d="M54.642,65.483a28.307,28.307,0,0,1-8.556,3.664A16.494,16.494,0,0,0,60.2,67.291a14.447,14.447,0,0,0-4.161-1.552c-.449-.1-.916-.183-1.393-.256" fill="#bfbfbd"/>
        </g>
      </g>
      <g id="Grupo_141459" data-name="Grupo 141459">
        <g id="Grupo_141458" data-name="Grupo 141458" clip-path="url(#clip-path-2)">
          <path id="Trazado_224476" data-name="Trazado 224476" d="M51.186,36.759a16.511,16.511,0,0,0-9.01,2.67,14.452,14.452,0,0,0,4.16,1.551,22.792,22.792,0,0,0,9.7,0,14.422,14.422,0,0,0,4.16-1.551,16.511,16.511,0,0,0-9.01-2.67" fill="#d9d9d7"/>
          <path id="Trazado_224477" data-name="Trazado 224477" d="M66.725,33.732a1.187,1.187,0,0,0,2.172-.114l3.557-9.487a1.188,1.188,0,0,0-.964-1.593L62,21.352A1.187,1.187,0,0,0,60.8,23.06l.56,1.12-4.243,1.3V21.835L57.951,21a1.174,1.174,0,0,0,.349-.838V15.415a3.549,3.549,0,0,0-1.661-3,3.517,3.517,0,0,0,.476-1.744,3.558,3.558,0,0,0-7.115,0,3.516,3.516,0,0,0,.475,1.744,3.549,3.549,0,0,0-1.661,3v4.743a1.177,1.177,0,0,0,.348.838l.838.839v5.831L45.257,29.12V25.392l.838-.838a1.184,1.184,0,0,0,.348-.839V18.972a3.552,3.552,0,0,0-1.662-3,3.517,3.517,0,0,0,.476-1.744,3.558,3.558,0,0,0-7.115,0,3.517,3.517,0,0,0,.476,1.744,3.552,3.552,0,0,0-1.662,3v4.743a1.184,1.184,0,0,0,.348.839l.838.838v5.9L33.4,32.739v-3.79l.838-.838a1.177,1.177,0,0,0,.348-.838V22.53a3.553,3.553,0,0,0-1.661-3,3.51,3.51,0,0,0,.475-1.743,3.557,3.557,0,1,0-7.115,0,3.51,3.51,0,0,0,.476,1.743,3.553,3.553,0,0,0-1.661,3v4.743a1.18,1.18,0,0,0,.347.838l.838.838v5.958l-4.743,1.439V32.507l.839-.839a1.18,1.18,0,0,0,.347-.838V26.087a3.549,3.549,0,0,0-1.661-3,3.516,3.516,0,0,0,.475-1.744,3.557,3.557,0,0,0-7.114,0,3.516,3.516,0,0,0,.475,1.744,3.549,3.549,0,0,0-1.661,3V30.83a1.18,1.18,0,0,0,.347.838l.839.839V38.5c-1.784.537-3.357,1.009-4.743,1.423V36.063l.838-.839a1.174,1.174,0,0,0,.347-.837V29.644a3.551,3.551,0,0,0-1.661-3A3.517,3.517,0,0,0,9.684,24.9a3.558,3.558,0,0,0-7.115,0,3.516,3.516,0,0,0,.475,1.744,3.551,3.551,0,0,0-1.661,3v4.743a1.179,1.179,0,0,0,.348.839l.838.838v5.954c-1.6.46-2.3.645-2.5.678L.2,45.059,63.392,26.034a1.183,1.183,0,0,0,.711-1.663l-.195-.39,5.8.725L67.63,30.241a1.186,1.186,0,0,0-1.56-.472L53.98,35.814a17.585,17.585,0,0,0-18.521,9.261L.2,62.97v2.122L34.118,48.4A17.783,17.783,0,1,0,57.447,36.733l8.623-4.312ZM6.126,23.715A1.186,1.186,0,1,1,4.94,24.9a1.189,1.189,0,0,1,1.186-1.186M8.5,33.9l-.839.838a1.18,1.18,0,0,0-.347.838v5l-2.372.592V35.573a1.18,1.18,0,0,0-.347-.838L3.755,33.9V29.644A1.187,1.187,0,0,1,4.94,28.459H7.312A1.188,1.188,0,0,1,8.5,29.644Zm9.486-13.739A1.186,1.186,0,1,1,16.8,21.344a1.189,1.189,0,0,1,1.186-1.186m2.372,10.181-.839.839a1.18,1.18,0,0,0-.347.838v5l-2.372.593v-5.6a1.18,1.18,0,0,0-.347-.838l-.839-.839V26.087A1.189,1.189,0,0,1,16.8,24.9H19.17a1.189,1.189,0,0,1,1.186,1.186ZM29.842,16.6a1.186,1.186,0,1,1-1.186,1.186A1.188,1.188,0,0,1,29.842,16.6m2.371,10.181-.838.838a1.183,1.183,0,0,0-.347.839v5q-1.189.365-2.372.723V28.459a1.183,1.183,0,0,0-.347-.839l-.839-.838V22.53a1.189,1.189,0,0,1,1.186-1.186h2.372a1.188,1.188,0,0,1,1.185,1.186ZM41.7,13.044a1.186,1.186,0,1,1-1.185,1.185A1.187,1.187,0,0,1,41.7,13.044m2.372,10.181-.838.838a1.181,1.181,0,0,0-.348.838v4.943l-2.371.724V24.9a1.181,1.181,0,0,0-.348-.838l-.838-.838V18.972a1.188,1.188,0,0,1,1.186-1.185h2.371a1.188,1.188,0,0,1,1.186,1.185ZM53.557,9.486a1.186,1.186,0,1,1-1.186,1.186,1.189,1.189,0,0,1,1.186-1.186m2.372,10.181-.839.839a1.18,1.18,0,0,0-.347.838v4.867l-2.372.728V21.344a1.18,1.18,0,0,0-.347-.838l-.838-.839V15.415a1.188,1.188,0,0,1,1.185-1.186h2.372a1.189,1.189,0,0,1,1.186,1.186ZM50,48.6v3.577H44.109a23.187,23.187,0,0,1,.528-3.924c1.737.2,3.531.312,5.363.347m-4.729-2.659A19.1,19.1,0,0,1,46.927,42.3,22.892,22.892,0,0,0,50,42.657v3.569c-1.611-.033-3.194-.127-4.727-.288m-3-5.128a14.649,14.649,0,0,0,2.252.907,21.768,21.768,0,0,0-1.63,3.908,42.759,42.759,0,0,1-4.454-.917,15.481,15.481,0,0,1,3.832-3.9m-5.027,6.022a44.147,44.147,0,0,0,5.038,1.1,25.616,25.616,0,0,0-.54,4.244H35.831a15.277,15.277,0,0,1,1.41-5.34m-1.41,7.714h5.908a25.561,25.561,0,0,0,.54,4.245,44.129,44.129,0,0,0-5.037,1.1,15.234,15.234,0,0,1-1.411-5.34m6.433,11.362a15.528,15.528,0,0,1-3.828-3.9,43.093,43.093,0,0,1,4.455-.917A21.782,21.782,0,0,0,44.522,65a14.9,14.9,0,0,0-2.258.9m1.845-11.362H50v3.576c-1.832.036-3.626.151-5.363.348a23.132,23.132,0,0,1-.528-3.924M50,60.494v3.571a23.456,23.456,0,0,0-3.071.352,19.02,19.02,0,0,1-1.658-3.637c1.533-.161,3.116-.253,4.729-.286m1.186,8.281a15.307,15.307,0,0,1-6.343-1.381,15.808,15.808,0,0,1,1.752-.5,21.684,21.684,0,0,1,9.186,0,15.877,15.877,0,0,1,1.749.5,15.319,15.319,0,0,1-6.344,1.381m1.185-4.708V60.495c1.613.032,3.2.125,4.73.288a19.032,19.032,0,0,1-1.659,3.636,23.119,23.119,0,0,0-3.071-.352m0-5.945V54.546h5.892a23.406,23.406,0,0,1-.528,3.924c-1.737-.2-3.532-.312-5.364-.348m7.737,7.786A14.988,14.988,0,0,0,57.85,65a21.8,21.8,0,0,0,1.632-3.911,43,43,0,0,1,4.453.917,15.507,15.507,0,0,1-3.827,3.9m5.022-6.02a43.865,43.865,0,0,0-5.037-1.1,25.7,25.7,0,0,0,.54-4.244H66.54a15.255,15.255,0,0,1-1.41,5.341m0-13.056a15.249,15.249,0,0,1,1.41,5.342H60.633a25.653,25.653,0,0,0-.54-4.245,44.033,44.033,0,0,0,5.037-1.1M60.1,40.81a15.51,15.51,0,0,1,3.831,3.9,42.832,42.832,0,0,1-4.455.917,21.872,21.872,0,0,0-1.63-3.91,14.631,14.631,0,0,0,2.254-.9M58.263,52.174H52.371V48.6c1.832-.035,3.627-.15,5.364-.347a23.322,23.322,0,0,1,.528,3.924m-5.892-5.948V42.657a22.8,22.8,0,0,0,3.071-.354A18.873,18.873,0,0,1,57.1,45.938c-1.531.163-3.115.255-4.728.288m5.155-6.9a15.5,15.5,0,0,1-1.752.5,21.982,21.982,0,0,1-9.183,0,15.687,15.687,0,0,1-1.747-.5,15.258,15.258,0,0,1,12.682,0" fill="#2d1b12"/>
        </g>
      </g>
      <g id="Grupo_141461" data-name="Grupo 141461">
        <g id="Grupo_141460" data-name="Grupo 141460" clip-path="url(#clip-path)">
          <path id="Trazado_224478" data-name="Trazado 224478" d="M3.755,9.486H6.127V5.929H9.684V3.557H6.127V0H3.755V3.557H.2V5.929H3.755Z" fill="#2d1b12"/>
        </g>
      </g>
    </g>
  </g>
</svg>
