<svg xmlns="http://www.w3.org/2000/svg" xmlns:xlink="http://www.w3.org/1999/xlink" width="145" height="145" viewBox="0 0 145 145">
  <defs>
    <filter id="Elipse_4259" x="0" y="0" width="145" height="145" filterUnits="userSpaceOnUse">
      <feOffset dx="-6" dy="6" input="SourceAlpha"/>
      <feGaussianBlur stdDeviation="3" result="blur"/>
      <feFlood flood-opacity="0.161"/>
      <feComposite operator="in" in2="blur"/>
      <feComposite in="SourceGraphic"/>
    </filter>
    <clipPath id="clip-path">
      <rect id="Rectángulo_46778" data-name="Rectángulo 46778" width="71.146" height="71.146" transform="translate(0 0)" fill="none"/>
    </clipPath>
  </defs>
  <g id="Grupo_143276" data-name="Grupo 143276" transform="translate(-722.285 -5422)">
    <g id="Grupo_141447" data-name="Grupo 141447" transform="translate(243 -1184)">
      <g id="Grupo_131299" data-name="Grupo 131299" transform="translate(494.645 6609.5)">
        <g transform="matrix(1, 0, 0, 1, -15.36, -3.5)" filter="url(#Elipse_4259)">
          <g id="Elipse_4259-2" data-name="Elipse 4259" transform="translate(15 3)" fill="#fff" stroke="#d2984d" stroke-width="4">
            <circle cx="63.5" cy="63.5" r="63.5" stroke="none"/>
            <circle cx="63.5" cy="63.5" r="61.5" fill="none"/>
          </g>
        </g>
      </g>
    </g>
    <g id="Grupo_141450" data-name="Grupo 141450" transform="translate(765.285 5453)">
      <g id="Grupo_141449" data-name="Grupo 141449" clip-path="url(#clip-path)">
        <path id="Trazado_224426" data-name="Trazado 224426" d="M36.759,29.644A17.786,17.786,0,1,1,18.972,11.857,17.786,17.786,0,0,1,36.759,29.644" fill="#ca6432"/>
        <path id="Trazado_224427" data-name="Trazado 224427" d="M32.016,29.644A13.043,13.043,0,1,1,18.972,16.6,13.045,13.045,0,0,1,32.016,29.644" fill="#d9d9d7"/>
        <path id="Trazado_224428" data-name="Trazado 224428" d="M14.344,41.827a13,13,0,0,0,17.65-11.769,30.843,30.843,0,0,1-17.65,11.769" fill="#bfbfbd"/>
        <path id="Trazado_224429" data-name="Trazado 224429" d="M22.53,52.174H15.415V69.961h7.137Z" fill="#ca6432"/>
        <rect id="Rectángulo_46773" data-name="Rectángulo 46773" width="11.858" height="5.929" transform="translate(13.044 46.245)" fill="#bf5b34"/>
        <path id="Trazado_224430" data-name="Trazado 224430" d="M43.874,45.059A3.558,3.558,0,1,1,40.317,41.5a3.557,3.557,0,0,1,3.557,3.557" fill="#cdb47a"/>
        <path id="Trazado_224431" data-name="Trazado 224431" d="M34.388,53.36v5.929l2.371,1.186v9.486h7.115V60.475l2.371-1.186V53.36A4.744,4.744,0,0,0,41.5,48.617H39.131a4.743,4.743,0,0,0-4.743,4.743" fill="#cdb47a"/>
        <path id="Trazado_224432" data-name="Trazado 224432" d="M55.731,45.059A3.557,3.557,0,1,1,52.174,41.5a3.557,3.557,0,0,1,3.557,3.557" fill="#cdb47a"/>
        <path id="Trazado_224433" data-name="Trazado 224433" d="M46.245,53.36v5.929l2.372,1.186v9.486h7.114V60.475L58.1,59.289V53.36a4.744,4.744,0,0,0-4.743-4.743H50.988a4.744,4.744,0,0,0-4.743,4.743" fill="#cdb47a"/>
        <path id="Trazado_224434" data-name="Trazado 224434" d="M67.589,45.059A3.557,3.557,0,1,1,64.032,41.5a3.557,3.557,0,0,1,3.557,3.557" fill="#cdb47a"/>
        <path id="Trazado_224435" data-name="Trazado 224435" d="M58.1,53.36v5.929l2.372,1.186v9.486h7.114V60.475l2.372-1.186V53.36a4.744,4.744,0,0,0-4.743-4.743H62.846A4.744,4.744,0,0,0,58.1,53.36" fill="#cdb47a"/>
        <path id="Trazado_224436" data-name="Trazado 224436" d="M49.8,40.316a3.558,3.558,0,1,1-3.558-3.557A3.558,3.558,0,0,1,49.8,40.316" fill="#cdb47a"/>
        <path id="Trazado_224437" data-name="Trazado 224437" d="M61.66,40.316A3.558,3.558,0,1,1,58.1,36.759a3.557,3.557,0,0,1,3.557,3.557" fill="#cdb47a"/>
        <path id="Trazado_224438" data-name="Trazado 224438" d="M69.961,16.6A15.415,15.415,0,1,1,54.546,1.186,15.416,15.416,0,0,1,69.961,16.6" fill="#4f97aa"/>
        <path id="Trazado_224439" data-name="Trazado 224439" d="M49.8,31.263a15.406,15.406,0,0,0,19.41-19.41A26.46,26.46,0,0,1,49.8,31.263" fill="#41917d"/>
        <path id="Trazado_224440" data-name="Trazado 224440" d="M54.546,32.016a15.328,15.328,0,0,0,8.365-2.478A13.364,13.364,0,0,0,59.05,28.1a21.156,21.156,0,0,0-9.008,0,13.364,13.364,0,0,0-3.861,1.441,15.328,15.328,0,0,0,8.365,2.478" fill="#d9d9d7"/>
        <path id="Trazado_224441" data-name="Trazado 224441" d="M57.756,27.857a26.287,26.287,0,0,1-7.947,3.4,15.3,15.3,0,0,0,13.1-1.721A13.335,13.335,0,0,0,59.049,28.1c-.417-.095-.852-.171-1.293-.24" fill="#bfbfbd"/>
        <path id="Trazado_224442" data-name="Trazado 224442" d="M54.546,1.186a15.328,15.328,0,0,0-8.365,2.478,13.364,13.364,0,0,0,3.861,1.441,20.715,20.715,0,0,0,4.5.485,20.715,20.715,0,0,0,4.5-.485,13.364,13.364,0,0,0,3.861-1.441,15.328,15.328,0,0,0-8.365-2.478" fill="#d9d9d7"/>
        <path id="Trazado_224443" data-name="Trazado 224443" d="M18.972,10.672A18.965,18.965,0,0,0,11.857,47.22v4.954a1.186,1.186,0,0,0,1.186,1.186h1.186v16.6a1.185,1.185,0,0,0,1.186,1.186h7.138a1.185,1.185,0,0,0,1.186-1.187l-.022-16.6H24.9a1.186,1.186,0,0,0,1.186-1.186V47.22a18.965,18.965,0,0,0-7.115-36.548M16.6,68.775V53.36h4.745l.02,15.415Zm7.115-17.787H14.229v-3a18.309,18.309,0,0,0,9.486,0Zm-4.743-4.743a16.6,16.6,0,1,1,16.6-16.6,16.62,16.62,0,0,1-16.6,16.6" fill="#2d1b12"/>
        <path id="Trazado_224444" data-name="Trazado 224444" d="M18.972,15.415A14.23,14.23,0,1,0,33.2,29.644,14.245,14.245,0,0,0,18.972,15.415m0,26.087A11.857,11.857,0,1,1,30.83,29.644,11.871,11.871,0,0,1,18.972,41.5" fill="#2d1b12"/>
        <rect id="Rectángulo_46774" data-name="Rectángulo 46774" width="2.372" height="3.557" transform="translate(10.672 30.954)" fill="#2d1b12"/>
        <rect id="Rectángulo_46775" data-name="Rectángulo 46775" width="2.372" height="5.929" transform="translate(15.415 28.582)" fill="#2d1b12"/>
        <rect id="Rectángulo_46776" data-name="Rectángulo 46776" width="2.372" height="8.3" transform="translate(20.158 26.211)" fill="#2d1b12"/>
        <rect id="Rectángulo_46777" data-name="Rectángulo 46777" width="2.372" height="10.672" transform="translate(24.901 23.715)" fill="#2d1b12"/>
        <path id="Trazado_224445" data-name="Trazado 224445" d="M67.72,48a4.694,4.694,0,0,0,1.055-2.945,4.749,4.749,0,0,0-4.743-4.743,4.615,4.615,0,0,0-1.2.175c0-.06.018-.115.018-.175a4.743,4.743,0,0,0-9.486,0c0,.06.015.115.018.175a4.226,4.226,0,0,0-2.407,0c0-.06.017-.115.017-.175a4.743,4.743,0,0,0-9.486,0c0,.06.016.115.018.175a4.609,4.609,0,0,0-1.2-.175,4.749,4.749,0,0,0-4.743,4.743A4.694,4.694,0,0,0,36.628,48,5.925,5.925,0,0,0,33.2,53.36v5.929a1.188,1.188,0,0,0,.655,1.061l1.716.857v8.754a1.185,1.185,0,0,0,1.186,1.185h7.115a1.185,1.185,0,0,0,1.186-1.185V61.207l1.185-.593,1.186.593v8.754a1.185,1.185,0,0,0,1.186,1.185h7.114a1.185,1.185,0,0,0,1.186-1.185V61.207l1.186-.593,1.186.593v8.754a1.185,1.185,0,0,0,1.186,1.185h7.114a1.185,1.185,0,0,0,1.186-1.185V61.207l1.716-.859a1.181,1.181,0,0,0,.656-1.059V53.36A5.924,5.924,0,0,0,67.72,48m-3.688-5.316a2.372,2.372,0,1,1-2.372,2.371,2.374,2.374,0,0,1,2.372-2.371M58.1,37.945a2.372,2.372,0,1,1-2.372,2.371A2.374,2.374,0,0,1,58.1,37.945m-5.929,4.743A2.372,2.372,0,1,1,49.8,45.059a2.374,2.374,0,0,1,2.371-2.371m-5.929-4.743a2.372,2.372,0,1,1-2.371,2.371,2.374,2.374,0,0,1,2.371-2.371m-5.929,4.743a2.372,2.372,0,1,1-2.371,2.371,2.374,2.374,0,0,1,2.371-2.371M45.06,58.556l-1.717.858a1.185,1.185,0,0,0-.655,1.06v8.3H37.945v-8.3a1.188,1.188,0,0,0-.655-1.061l-1.717-.857v-5.2A3.562,3.562,0,0,1,39.131,49.8H41.5A3.562,3.562,0,0,1,45.06,53.36Zm1.185-8.716A5.956,5.956,0,0,0,44.005,48a4.694,4.694,0,0,0,1.055-2.945c0-.059-.016-.115-.018-.174a4.249,4.249,0,0,0,2.407,0c0,.059-.018.115-.018.174A4.694,4.694,0,0,0,48.486,48a5.959,5.959,0,0,0-2.241,1.836m10.672,8.716-1.716.858a1.185,1.185,0,0,0-.655,1.06v8.3H49.8v-8.3a1.187,1.187,0,0,0-.656-1.061l-1.716-.857v-5.2A3.562,3.562,0,0,1,50.988,49.8H53.36a3.561,3.561,0,0,1,3.557,3.558ZM58.1,49.84A5.964,5.964,0,0,0,55.863,48a4.694,4.694,0,0,0,1.054-2.945c0-.059-.015-.115-.018-.174a4.253,4.253,0,0,0,2.408,0c0,.059-.018.115-.018.174A4.694,4.694,0,0,0,60.343,48,5.964,5.964,0,0,0,58.1,49.84m10.672,8.716-1.716.858a1.184,1.184,0,0,0-.656,1.06v8.3H61.66v-8.3a1.188,1.188,0,0,0-.655-1.061l-1.716-.857v-5.2A3.561,3.561,0,0,1,62.846,49.8h2.372a3.562,3.562,0,0,1,3.557,3.558Z" fill="#2d1b12"/>
        <path id="Trazado_224446" data-name="Trazado 224446" d="M54.546,0a16.6,16.6,0,1,0,16.6,16.6A16.62,16.62,0,0,0,54.546,0m0,2.371A14.153,14.153,0,0,1,60.525,3.7c-.317.1-.619.21-.959.293a3.244,3.244,0,0,1-.43.11A21.641,21.641,0,0,1,49.918,4.1a4.167,4.167,0,0,1-.491-.13c-.294-.07-.573-.173-.858-.263a14.1,14.1,0,0,1,5.977-1.336M60.455,9.16c-1.535.162-3.113.257-4.723.291V6.942a22.689,22.689,0,0,0,3.59-.455A19.546,19.546,0,0,1,60.455,9.16M55.732,23.737c1.609.032,3.2.128,4.73.292a19.34,19.34,0,0,1-1.134,2.688,23.3,23.3,0,0,0-3.6-.456ZM53.36,6.942V9.451c-1.61-.034-3.19-.13-4.724-.291A19.782,19.782,0,0,1,49.77,6.487a23.083,23.083,0,0,0,3.59.455M48,11.481c1.738.2,3.533.306,5.36.341v3.593H47.469A23.293,23.293,0,0,1,48,11.481m-6.225-1.116c1.236.311,2.528.569,3.868.783a25.669,25.669,0,0,0-.545,4.267H40.376a14.133,14.133,0,0,1,1.4-5.05m0,12.47a14.1,14.1,0,0,1-1.4-5.048H45.1a25.854,25.854,0,0,0,.544,4.267c-1.348.215-2.641.474-3.868.781M46,27.951a14.344,14.344,0,0,1-2.94-2.985c1.022-.235,2.083-.439,3.19-.611a22.337,22.337,0,0,0,1.18,3.01c-.505.177-.977.375-1.43.586m.252-19.106q-1.65-.257-3.189-.613a14.28,14.28,0,0,1,2.942-2.985,14.054,14.054,0,0,0,1.431.589,22.05,22.05,0,0,0-1.184,3.009m1.217,8.942H53.36v3.578c-1.829.036-3.637.152-5.362.349a23.372,23.372,0,0,1-.529-3.927m5.891,5.95v2.525a23.541,23.541,0,0,0-3.6.456,19.162,19.162,0,0,1-1.135-2.691c1.529-.162,3.12-.258,4.73-.29m1.186,7.093a14.14,14.14,0,0,1-5.987-1.338c.294-.094.572-.2.887-.279l.509-.12a21.845,21.845,0,0,1,9.154-.007l.549.129c.311.079.584.183.875.275a14.111,14.111,0,0,1-5.987,1.34m6.546-9.115c-1.726-.2-3.531-.314-5.36-.35V17.787h5.891a23.325,23.325,0,0,1-.531,3.928m-5.36-6.3V11.822c1.827-.035,3.622-.144,5.36-.341a23.25,23.25,0,0,1,.529,3.934ZM63.087,5.247a14.3,14.3,0,0,1,2.942,2.985q-1.541.358-3.189.614a22.273,22.273,0,0,0-1.184-3.01,14.641,14.641,0,0,0,1.431-.589m0,22.7a15.018,15.018,0,0,0-1.43-.586,22.442,22.442,0,0,0,1.18-3.01c1.107.17,2.168.376,3.19.611a14.344,14.344,0,0,1-2.94,2.985m4.225-5.116c-1.229-.307-2.521-.566-3.868-.781a25.656,25.656,0,0,0,.545-4.267h4.722a14.1,14.1,0,0,1-1.4,5.048m1.4-7.42H63.993a25.733,25.733,0,0,0-.545-4.268c1.338-.214,2.632-.471,3.867-.782a14.073,14.073,0,0,1,1.4,5.05" fill="#2d1b12"/>
      </g>
    </g>
  </g>
</svg>
