<svg xmlns="http://www.w3.org/2000/svg" xmlns:xlink="http://www.w3.org/1999/xlink" width="144" height="145" viewBox="0 0 144 145">
  <defs>
    <filter id="Elipse_4259" x="0" y="0" width="144" height="145" filterUnits="userSpaceOnUse">
      <feOffset dx="-6" dy="6" input="SourceAlpha"/>
      <feGaussianBlur stdDeviation="3" result="blur"/>
      <feFlood flood-opacity="0.161"/>
      <feComposite operator="in" in2="blur"/>
      <feComposite in="SourceGraphic"/>
    </filter>
  </defs>
  <g id="_51" data-name="51" transform="translate(-1143.285 -6911)">
    <g id="Grupo_141446" data-name="Grupo 141446" transform="translate(403 305)">
      <g id="Grupo_131300" data-name="Grupo 131300" transform="translate(754.896 6609.5)">
        <g transform="matrix(1, 0, 0, 1, -14.61, -3.5)" filter="url(#Elipse_4259)">
          <g id="Elipse_4259-2" data-name="Elipse 4259" transform="translate(15 3)" fill="#fff" stroke="#cdb47a" stroke-width="4">
            <ellipse cx="63" cy="63.5" rx="63" ry="63.5" stroke="none"/>
            <ellipse cx="63" cy="63.5" rx="61" ry="61.5" fill="none"/>
          </g>
        </g>
      </g>
    </g>
    <g id="crecimiento" transform="translate(1188.285 6942)">
      <g id="Grupo_142715" data-name="Grupo 142715" transform="translate(1.251 1.039)">
        <path id="Trazado_225906" data-name="Trazado 225906" d="M90.262,187.043a1.321,1.321,0,0,1,1.321,1.321v37.022a5.465,5.465,0,0,1-5.465,5.465H33.64a5.465,5.465,0,0,1-5.465-5.465V188.364a1.321,1.321,0,0,1,1.321-1.321Z" transform="translate(-28.175 -162.162)" fill="#e79098"/>
        <path id="Trazado_225907" data-name="Trazado 225907" d="M57.085,187.043V224.4a4.488,4.488,0,0,0,4.482,4.484H108.14a4.488,4.488,0,0,0,4.482-4.484V187.043Z" transform="translate(-53.079 -162.162)" fill="#e17983"/>
        <path id="Trazado_225908" data-name="Trazado 225908" d="M126.258,167.775H78.627A1.124,1.124,0,0,0,77.5,168.9v33.8L92.853,208.3l9.59,1.1,22.984-4.149,1.955-2.561V168.9A1.124,1.124,0,0,0,126.258,167.775Z" transform="translate(-70.668 -145.564)" fill="#f9f7f7"/>
        <g id="Grupo_142712" data-name="Grupo 142712" transform="translate(6.836 22.211)">
          <g id="XMLID_294_">
            <g id="Grupo_142711" data-name="Grupo 142711">
              <g id="Grupo_142709" data-name="Grupo 142709">
                <path id="Trazado_225909" data-name="Trazado 225909" d="M83.395,203.89V167.775H78.627A1.124,1.124,0,0,0,77.5,168.9v33.8l6.082,2.221a2.893,2.893,0,0,1-.191-1.029Z" transform="translate(-77.504 -167.775)" fill="#f8f3f2"/>
              </g>
              <g id="Grupo_142710" data-name="Grupo 142710" transform="translate(0 34.922)">
                <path id="Trazado_225910" data-name="Trazado 225910" d="M102.444,426.488v.047H79.158a1.653,1.653,0,0,1-1.653-1.654v-5.1H95.734A6.709,6.709,0,0,1,102.444,426.488Z" transform="translate(-77.505 -419.779)" fill="#f2eae7"/>
                <path id="Trazado_225911" data-name="Trazado 225911" d="M282.4,419.777v5.1a1.653,1.653,0,0,1-1.653,1.654H257.466v-.047a6.709,6.709,0,0,1,6.709-6.709H282.4Z" transform="translate(-232.527 -419.777)" fill="#f2eae7"/>
              </g>
            </g>
          </g>
        </g>
        <path id="Trazado_225912" data-name="Trazado 225912" d="M257.994,449.329a6.687,6.687,0,0,0-.528,2.614v.047h23.286a1.653,1.653,0,0,0,1.653-1.654v-1.007h-24.41Z" transform="translate(-225.691 -388.101)" fill="#ede2dd"/>
        <path id="Trazado_225913" data-name="Trazado 225913" d="M86.3,423.873a2.9,2.9,0,0,1-2.9-2.9v-1.192H77.505v5.1a1.653,1.653,0,0,0,1.653,1.654h23.286v-.047a6.689,6.689,0,0,0-.528-2.614H86.3Z" transform="translate(-70.669 -362.645)" fill="#ede2dd"/>
        <g id="Grupo_142714" data-name="Grupo 142714" transform="translate(19.035)">
          <path id="Trazado_225914" data-name="Trazado 225914" d="M209.292,262.943h-6.66a4.548,4.548,0,0,1-4.548-4.548v-5.076a1.4,1.4,0,0,1,1.4-1.4h12.947a1.4,1.4,0,0,1,1.4,1.4v5.076A4.548,4.548,0,0,1,209.292,262.943Z" transform="translate(-193.573 -218.043)" fill="#a59ca6"/>
          <path id="Trazado_225915" data-name="Trazado 225915" d="M212.457,260.691H205.8a4.548,4.548,0,0,1-4.548-4.548v-4.228h-1.76a1.4,1.4,0,0,0-1.4,1.4V258.4a4.548,4.548,0,0,0,4.548,4.548h6.66a4.546,4.546,0,0,0,3.967-2.325A4.579,4.579,0,0,1,212.457,260.691Z" transform="translate(-193.573 -218.044)" fill="#8f8390"/>
          <path id="Trazado_225916" data-name="Trazado 225916" d="M178.8,8l3.152,6.387a.9.9,0,0,0,.678.493l7.049,1.024a.9.9,0,0,1,.5,1.536l-5.1,4.972a.9.9,0,0,0-.259.8l1.2,7.02a.9.9,0,0,1-1.306.949l-6.3-3.315a.9.9,0,0,0-.838,0l-6.3,3.315a.9.9,0,0,1-1.306-.949l1.2-7.02a.9.9,0,0,0-.259-.8l-5.1-4.972a.9.9,0,0,1,.5-1.536l7.049-1.024a.9.9,0,0,0,.678-.493L177.185,8A.9.9,0,0,1,178.8,8Z" transform="translate(-165.534 -7.5)" fill="#fbe88c"/>
          <path id="Trazado_225917" data-name="Trazado 225917" d="M186.02,30.231l-.184-1.072L178.694,25.4a1.058,1.058,0,0,0-.985,0l-3.839,2.018a.512.512,0,0,1-.744-.54l.9-5.246a.9.9,0,0,0-.259-.8l-2.49-2.427a.786.786,0,0,1,.436-1.341l4.064-.59a.9.9,0,0,0,.678-.493L179.6,9.623,178.8,8a.9.9,0,0,0-1.615,0l-3.152,6.387a.9.9,0,0,1-.678.493L166.3,15.907a.9.9,0,0,0-.5,1.536l5.1,4.972a.9.9,0,0,1,.259.8l-1.2,7.02a.9.9,0,0,0,1.307.949l6.3-3.314a.9.9,0,0,1,.838,0l6.3,3.315A.9.9,0,0,0,186.02,30.231Z" transform="translate(-165.532 -7.501)" fill="#fbe372"/>
          <g id="Grupo_142713" data-name="Grupo 142713" transform="translate(6.972 26.003)">
            <path id="Trazado_225918" data-name="Trazado 225918" d="M257.413,199.738h-2.48v-1.663a2.937,2.937,0,0,1,2.937-2.937h1.836a.643.643,0,0,1,.643.643v1.02a2.937,2.937,0,0,1-2.937,2.937Z" transform="translate(-249.516 -195.138)" fill="#b8de9c"/>
            <path id="Trazado_225919" data-name="Trazado 225919" d="M218.782,199.738h2.48v-1.663a2.937,2.937,0,0,0-2.937-2.937h-1.836a.643.643,0,0,0-.643.643v1.02a2.937,2.937,0,0,0,2.937,2.937Z" transform="translate(-215.845 -195.138)" fill="#b8de9c"/>
          </g>
        </g>
      </g>
      <g id="Grupo_142716" data-name="Grupo 142716" transform="translate(0 0)">
        <path id="Trazado_225920" data-name="Trazado 225920" d="M82.407,24.949H78.062v-.509A2.169,2.169,0,0,0,75.9,22.273H67.373a1.039,1.039,0,0,0,0,2.079H75.9a.088.088,0,0,1,.088.088V43.123a1.039,1.039,0,0,0,2.079,0v-16.1h4.345a.285.285,0,0,1,.285.285v37.1a4.443,4.443,0,0,1-4.438,4.438h-52.6a4.443,4.443,0,0,1-4.438-4.438v-37.1a.285.285,0,0,1,.285-.285h4.487v36.4a2.7,2.7,0,0,0,2.7,2.7H75.366a2.7,2.7,0,0,0,2.7-2.7V47.552a1.039,1.039,0,0,0-2.079,0v9.72H58.752a7.743,7.743,0,0,0-5.685,2.484V46.978h2.081a5.594,5.594,0,0,0,5.588-5.587V36.315a2.447,2.447,0,0,0-2.444-2.444H52.857V32.682H54.3A3.981,3.981,0,0,0,58.274,28.7v-1.02A1.685,1.685,0,0,0,56.591,26H54.755a3.952,3.952,0,0,0-1.9.483V22.868l5.27,2.77a1.94,1.94,0,0,0,2.814-2.045l-1.192-6.948L64.8,11.725a1.94,1.94,0,0,0-1.075-3.309L56.746,7.4l-3.12-6.322a1.94,1.94,0,0,0-3.479,0L47.028,7.4l-1.306.19a1.039,1.039,0,1,0,.3,2.057l1.378-.2a1.939,1.939,0,0,0,1.46-1.061l3.028-6.135,3.028,6.134a1.939,1.939,0,0,0,1.46,1.061l6.77.984-4.9,4.775a1.939,1.939,0,0,0-.558,1.717l1.156,6.743L52.79,20.485a1.939,1.939,0,0,0-1.805,0l-6.055,3.183,1.157-6.743a1.94,1.94,0,0,0-.558-1.717l-4.9-4.775,1-.145a1.039,1.039,0,1,0-.3-2.057l-1.275.185a1.94,1.94,0,0,0-1.075,3.308l5.048,4.921-1.192,6.948a1.94,1.94,0,0,0,2.814,2.045l5.131-2.7v3.544a3.951,3.951,0,0,0-1.9-.483H47.044a1.685,1.685,0,0,0-1.683,1.683v1.02a3.981,3.981,0,0,0,3.977,3.977h1.44v1.189H45.344A2.447,2.447,0,0,0,42.9,36.315v5.076a5.594,5.594,0,0,0,5.588,5.587h2.5V59.757A7.742,7.742,0,0,0,45.3,57.273h-7.01a1.039,1.039,0,1,0,0,2.079H45.3a5.693,5.693,0,0,1,5.6,4.692H28.688a.618.618,0,0,1-.617-.617V59.351h5.792a1.039,1.039,0,1,0,0-2.079H28.071V24.439a.088.088,0,0,1,.088-.088h8.522a1.039,1.039,0,1,0,0-2.079H28.159a2.169,2.169,0,0,0-2.166,2.166v.509H21.506a2.366,2.366,0,0,0-2.364,2.364v37.1a6.524,6.524,0,0,0,6.517,6.517H78.254a6.524,6.524,0,0,0,6.517-6.517v-37.1a2.366,2.366,0,0,0-2.363-2.364Zm-23.655,34.4H75.983v4.075a.618.618,0,0,1-.617.617H53.155A5.693,5.693,0,0,1,58.752,59.351ZM52.857,29.979a1.9,1.9,0,0,1,1.9-1.9H56.2V28.7a1.9,1.9,0,0,1-1.9,1.9h-1.44Zm-3.519.624a1.9,1.9,0,0,1-1.9-1.9v-.624h1.44a1.9,1.9,0,0,1,1.9,1.9V30.6Zm-.85,14.3a3.513,3.513,0,0,1-3.509-3.509V36.315a.366.366,0,0,1,.365-.365H58.291a.366.366,0,0,1,.365.365v5.076A3.513,3.513,0,0,1,55.148,44.9Z" transform="translate(-19.142 0)"/>
        <path id="Trazado_225921" data-name="Trazado 225921" d="M378.234,18.765a1.037,1.037,0,0,0,.758-.328l2.335-2.486a1.039,1.039,0,1,0-1.515-1.423l-2.335,2.486a1.039,1.039,0,0,0,.757,1.751Z" transform="translate(-327.577 -12.233)"/>
        <path id="Trazado_225922" data-name="Trazado 225922" d="M385.621,86.856A1.039,1.039,0,0,0,386.66,87.9h2.448a1.039,1.039,0,1,0,0-2.079H386.66A1.039,1.039,0,0,0,385.621,86.856Z" transform="translate(-334.835 -73.925)"/>
        <path id="Trazado_225923" data-name="Trazado 225923" d="M104.436,18.436a1.039,1.039,0,1,0,1.515-1.423l-2.335-2.486A1.039,1.039,0,1,0,102.1,15.95Z" transform="translate(-90.362 -12.231)"/>
        <path id="Trazado_225924" data-name="Trazado 225924" d="M93.619,87.9h2.448a1.039,1.039,0,0,0,0-2.079H93.619a1.039,1.039,0,1,0,0,2.079Z" transform="translate(-82.403 -73.925)"/>
        <path id="Trazado_225925" data-name="Trazado 225925" d="M350.267,249.237h-8.152a1.039,1.039,0,1,0,0,2.079h8.152a1.039,1.039,0,0,0,0-2.079Z" transform="translate(-296.462 -214.698)"/>
        <path id="Trazado_225926" data-name="Trazado 225926" d="M350.267,287.266h-8.152a1.039,1.039,0,1,0,0,2.079h8.152a1.039,1.039,0,0,0,0-2.079Z" transform="translate(-296.462 -247.457)"/>
        <path id="Trazado_225927" data-name="Trazado 225927" d="M339.153,325.294h-9.94a1.039,1.039,0,0,0,0,2.079h9.94a1.039,1.039,0,0,0,0-2.079Z" transform="translate(-285.349 -280.215)"/>
        <path id="Trazado_225928" data-name="Trazado 225928" d="M311.593,363.321H297.219a1.039,1.039,0,0,0,0,2.079h14.374a1.039,1.039,0,1,0,0-2.079Z" transform="translate(-257.788 -312.973)"/>
        <path id="Trazado_225929" data-name="Trazado 225929" d="M107.179,249.237H99.026a1.039,1.039,0,0,0,0,2.079h8.152a1.039,1.039,0,1,0,0-2.079Z" transform="translate(-87.061 -214.698)"/>
        <path id="Trazado_225930" data-name="Trazado 225930" d="M99.026,289.345h8.152a1.039,1.039,0,0,0,0-2.079H99.026a1.039,1.039,0,0,0,0,2.079Z" transform="translate(-87.061 -247.457)"/>
        <path id="Trazado_225931" data-name="Trazado 225931" d="M108.965,325.294h-9.94a1.039,1.039,0,0,0,0,2.079h9.94a1.039,1.039,0,0,0,0-2.079Z" transform="translate(-87.06 -280.215)"/>
        <path id="Trazado_225932" data-name="Trazado 225932" d="M97.987,364.36a1.039,1.039,0,0,0,1.039,1.039H113.4a1.039,1.039,0,0,0,0-2.079H99.026A1.039,1.039,0,0,0,97.987,364.36Z" transform="translate(-87.061 -312.973)"/>
      </g>
    </g>
  </g>
</svg>
