<svg xmlns="http://www.w3.org/2000/svg" width="84" height="81.301" viewBox="0 0 84 81.301">
  <g id="analisis" transform="translate(0)">
    <path id="Trazado_227208" data-name="Trazado 227208" d="M309.63,294.556l-3.945,3.945-2.464,2.462-6.259-6.407,6.333-6.4,2.435,2.462Z" transform="translate(-248.242 -242.227)" fill="#213847"/>
    <path id="Trazado_227209" data-name="Trazado 227209" d="M343.384,307.1l-3.945,3.945-.855-.876a4.366,4.366,0,0,1,.019-6.12l.881-.891Z" transform="translate(-281.996 -254.772)" fill="#324a5e"/>
    <path id="Trazado_227210" data-name="Trazado 227210" d="M351.517,333.02l-6.291,6.291-3.619,3.62-19.584-19.815,9.8-9.9,4.642,4.667Z" transform="translate(-269.191 -263.176)" fill="#d1ab0d"/>
    <path id="Trazado_227211" data-name="Trazado 227211" d="M411.918,356.8l-6.291,6.291-8.769-8.871a8.932,8.932,0,0,1,0-12.559l2.942,2.958Z" transform="translate(-329.593 -286.958)" fill="#f8ce19"/>
    <path id="Trazado_227212" data-name="Trazado 227212" d="M432.159,369.628l-.032.032a3.957,3.957,0,0,1-5.592,0l-4.4-4.387a3.956,3.956,0,0,1-.018-5.585h0Z" transform="translate(-351.909 -302.03)" fill="#f9d84e"/>
    <path id="Trazado_227213" data-name="Trazado 227213" d="M81.923,43.27a28.309,28.309,0,1,1-6.965-18.6A28.308,28.308,0,0,1,81.923,43.27Z" transform="translate(-21.155 -13.857)" fill="#d1ab0d"/>
    <path id="Trazado_227214" data-name="Trazado 227214" d="M109.441,67.726a28.311,28.311,0,0,1-44.25,23.395,28.309,28.309,0,0,1,37.285-41.99A28.194,28.194,0,0,1,109.441,67.726Z" transform="translate(-48.673 -38.313)" fill="#f8ce19"/>
    <ellipse id="Elipse_5665" data-name="Elipse 5665" cx="21.17" cy="21.17" rx="21.17" ry="21.17" transform="translate(13.656 9.579)" fill="#f9d84e"/>
    <path id="Trazado_227215" data-name="Trazado 227215" d="M116.63,86.453A19.832,19.832,0,1,1,109.468,71.2,19.832,19.832,0,0,1,116.63,86.453Z" transform="translate(-64.338 -57.04)" fill="#aeb9cc"/>
    <path id="Trazado_227216" data-name="Trazado 227216" d="M112.628,81.937A19.831,19.831,0,0,1,80.121,97.189,19.834,19.834,0,0,1,109.469,71.2,19.741,19.741,0,0,1,112.628,81.937Z" transform="translate(-64.339 -57.04)" fill="#c8d0e2"/>
    <path id="Trazado_227217" data-name="Trazado 227217" d="M244.973,211.962a3.371,3.371,0,0,1-6.493,1.273,3.335,3.335,0,0,1-.25-1.273,3.372,3.372,0,0,1,3.372-3.373,3.319,3.319,0,0,1,.766.089A3.372,3.372,0,0,1,244.973,211.962Z" transform="translate(-199.146 -175.717)" fill="#c62e1e"/>
    <path id="Trazado_227218" data-name="Trazado 227218" d="M242.618,209.953a3.372,3.372,0,0,1-3.373,3.372.892.892,0,0,1-1.015-1.362,3.372,3.372,0,0,1,3.372-3.373.893.893,0,0,1,1.016,1.364Z" transform="translate(-199.146 -175.717)" fill="#ef4c35"/>
    <path id="Trazado_227219" data-name="Trazado 227219" d="M387.778,71.476a3.371,3.371,0,0,1-6.493,1.273,3.336,3.336,0,0,1-.25-1.273,3.372,3.372,0,0,1,3.372-3.373,3.319,3.319,0,0,1,.766.089A3.372,3.372,0,0,1,387.778,71.476Z" transform="translate(-318.522 -58.28)" fill="#579e2e"/>
    <path id="Trazado_227220" data-name="Trazado 227220" d="M385.423,69.467a3.372,3.372,0,0,1-3.373,3.372,3.3,3.3,0,0,1-.764-.089,3.336,3.336,0,0,1-.25-1.273,3.372,3.372,0,0,1,3.372-3.373,3.319,3.319,0,0,1,.766.089A3.344,3.344,0,0,1,385.423,69.467Z" transform="translate(-318.522 -58.28)" fill="#75bf4d"/>
    <path id="Trazado_227221" data-name="Trazado 227221" d="M11.5,307.509a3.371,3.371,0,0,1-6.493,1.273,3.336,3.336,0,0,1-.25-1.273,3.372,3.372,0,0,1,3.372-3.373,3.32,3.32,0,0,1,.766.089A3.372,3.372,0,0,1,11.5,307.509Z" transform="translate(-3.976 -255.588)" fill="#c62e1e"/>
    <path id="Trazado_227222" data-name="Trazado 227222" d="M9.144,305.5a3.372,3.372,0,0,1-3.373,3.372,3.306,3.306,0,0,1-.764-.089,3.336,3.336,0,0,1-.25-1.273,3.372,3.372,0,0,1,3.372-3.373,3.32,3.32,0,0,1,.766.089A3.345,3.345,0,0,1,9.144,305.5Z" transform="translate(-3.976 -255.588)" fill="#ef4c35"/>
    <path id="Trazado_227223" data-name="Trazado 227223" d="M139.157,179.113a3.371,3.371,0,0,1-6.493,1.273,3.336,3.336,0,0,1-.25-1.273,3.372,3.372,0,0,1,3.372-3.373,3.318,3.318,0,0,1,.766.089A3.372,3.372,0,0,1,139.157,179.113Z" transform="translate(-110.69 -148.257)" fill="#579e2e"/>
    <path id="Trazado_227224" data-name="Trazado 227224" d="M136.8,177.1a3.372,3.372,0,0,1-3.373,3.372,3.306,3.306,0,0,1-.764-.089,3.336,3.336,0,0,1-.25-1.273,3.372,3.372,0,0,1,3.372-3.373,3.318,3.318,0,0,1,.766.089A3.345,3.345,0,0,1,136.8,177.1Z" transform="translate(-110.69 -148.257)" fill="#75bf4d"/>
    <path id="Trazado_227225" data-name="Trazado 227225" d="M104.5,64.038a21.278,21.278,0,1,0,6.232,15.046A21.139,21.139,0,0,0,104.5,64.038Zm-15.046,33.9A18.868,18.868,0,0,1,74.2,90.175l5.507-5.708A4.311,4.311,0,0,0,85.3,83.04l9.708,3.046c0,.028,0,.056,0,.084a4.318,4.318,0,1,0,8.128-2.031l5.169-5.055A18.856,18.856,0,0,1,89.451,97.939Zm13.332-32.187a18.714,18.714,0,0,1,5.263,10.2l-6.6,6.459a4.311,4.311,0,0,0-5.7,1.366l-9.708-3.046c0-.028,0-.056,0-.084a4.318,4.318,0,1,0-8.067,2.14l-5.094,5.28a18.855,18.855,0,0,1,29.913-22.312ZM101.222,86.17a1.895,1.895,0,1,1-1.895-1.895A1.9,1.9,0,0,1,101.222,86.17ZM83.608,80.643a1.9,1.9,0,1,1-1.895-1.895A1.9,1.9,0,0,1,83.608,80.643Z" transform="translate(-56.997 -49.672)"/>
    <path id="Trazado_227226" data-name="Trazado 227226" d="M147.754,90.983l.8-2.289a16.418,16.418,0,0,0-16.137,3.087L134,93.611A13.988,13.988,0,0,1,147.754,90.983Z" transform="translate(-110.69 -74.731)"/>
    <path id="Trazado_227227" data-name="Trazado 227227" d="M245.455,103.855a16.332,16.332,0,0,0-2.149-1.563l-1.261,2.07a13.915,13.915,0,0,1,1.829,1.331Z" transform="translate(-202.335 -86.859)"/>
    <path id="Trazado_227228" data-name="Trazado 227228" d="M161.5,266.357l-.9,2.249a16.363,16.363,0,0,0,6.094,1.178,16.529,16.529,0,0,0,3.411-.357l-.5-2.371A13.971,13.971,0,0,1,161.5,266.357Z" transform="translate(-134.25 -224.008)"/>
    <path id="Trazado_227229" data-name="Trazado 227229" d="M62.809,57.107l-1.759,1.759L56.684,54.2a29.441,29.441,0,0,0,3.73-25.464l3.463-3.387a4.316,4.316,0,0,0,5.892-5.762l7.435-7.27v3.758h2.423V8.227H71.778V10.65h3.665l-7.337,7.174a4.315,4.315,0,0,0-5.955,5.823l-2.654,2.6A29.349,29.349,0,1,0,8.363,54.4L6.323,56.52A4.325,4.325,0,1,0,8.066,58.2l1.783-1.848q.871,1.051,1.853,2.037A29.4,29.4,0,0,0,48.95,61.914l4.375,4.677-1.819,1.819L72.7,89.528,84,78.224Zm1.219-35.56a1.895,1.895,0,1,1,1.895,1.895A1.9,1.9,0,0,1,64.028,21.548ZM6.213,60.343a1.895,1.895,0,1,1-1.895-1.895A1.9,1.9,0,0,1,6.213,60.343Zm7.2-3.664a26.925,26.925,0,1,1,38.077,0A26.955,26.955,0,0,1,13.416,56.678ZM50.908,60.46a29.523,29.523,0,0,0,4.3-4.287l4.124,4.408-4.3,4.3ZM72.694,86.1l-17.758-17.7,7.876-7.876,17.758,17.7Z" transform="translate(0 -8.227)"/>
    <path id="Trazado_227230" data-name="Trazado 227230" d="M361.709,351.945l1.714,1.714,1.754-1.754,6.688,6.688,1.713-1.713-8.4-8.4Z" transform="translate(-302.366 -292.656)"/>
    <rect id="Rectángulo_47657" data-name="Rectángulo 47657" width="2.423" height="2.54" transform="translate(75.087 68.094) rotate(135)"/>
    <rect id="Rectángulo_47658" data-name="Rectángulo 47658" width="2.423" height="2.64" transform="translate(13.129 59.988)"/>
    <rect id="Rectángulo_47659" data-name="Rectángulo 47659" width="2.423" height="2.64" transform="translate(13.129 74.786)"/>
    <rect id="Rectángulo_47660" data-name="Rectángulo 47660" width="2.423" height="2.64" transform="translate(33.088 65.08)"/>
    <rect id="Rectángulo_47661" data-name="Rectángulo 47661" width="2.423" height="2.64" transform="translate(67.818 43.285)"/>
    <rect id="Rectángulo_47662" data-name="Rectángulo 47662" width="2.423" height="2.64" transform="translate(70.567 22.257)"/>
    <rect id="Rectángulo_47663" data-name="Rectángulo 47663" width="2.423" height="2.64" transform="translate(78.598 33.391)"/>
  </g>
</svg>
