<svg id="_60" data-name="60" xmlns="http://www.w3.org/2000/svg" width="77.397" height="84" viewBox="0 0 77.397 84">
  <path id="Trazado_227253" data-name="Trazado 227253" d="M141.068,180.154v13.08l-38.626.492V180.154a19.3,19.3,0,0,1,19.312-19.314h0a19.3,19.3,0,0,1,19.312,19.314Z" transform="translate(-88.936 -134.452)" fill="#579e2e"/>
  <path id="Trazado_227254" data-name="Trazado 227254" d="M141.068,215.382v7.3l-38.626.492v-7.792a19.3,19.3,0,0,1,19.312-19.314h0a19.3,19.3,0,0,1,19.312,19.314Z" transform="translate(-88.936 -163.901)" fill="#75bf4d"/>
  <path id="Trazado_227255" data-name="Trazado 227255" d="M191.355,162.141l-2.409,2.783-4.569,5.28-4.6-5.273-2.42-2.774a19.244,19.244,0,0,1,7.021-1.317h0A19.249,19.249,0,0,1,191.355,162.141Z" transform="translate(-151.557 -134.453)" fill="#eaa96e"/>
  <g id="Grupo_143160" data-name="Grupo 143160" transform="translate(20.259 1.34)">
    <path id="Trazado_227256" data-name="Trazado 227256" d="M201.279,182.956l-4.569,5.28-4.6-5.273a19.317,19.317,0,0,1,4.6-.552h0A19.357,19.357,0,0,1,201.279,182.956Z" transform="translate(-184.149 -153.825)" fill="#fbcb99"/>
    <path id="Trazado_227257" data-name="Trazado 227257" d="M168.725,20.725c0,.258-.007.514-.024.769a12.528,12.528,0,0,1-1.122,4.476,12.56,12.56,0,0,1-22.952-.284,12.329,12.329,0,0,1-.821-2.742,12.555,12.555,0,0,1-.172-1.438c-.019-.258-.026-.518-.026-.78a12.559,12.559,0,1,1,25.118,0Z" transform="translate(-143.607 -8.165)" fill="#fbcb99"/>
  </g>
  <path id="Trazado_227258" data-name="Trazado 227258" d="M169.538,45.64a12.4,12.4,0,0,1-.948,3.021c-10.5.056-15.089-4.609-15.089-4.609a19.053,19.053,0,0,1-7.863,4.324,12.328,12.328,0,0,1-.821-2.742,12.561,12.561,0,0,1,24.721.006Z" transform="translate(-124.359 -29.517)" fill="#eaa96e"/>
  <path id="Trazado_227259" data-name="Trazado 227259" d="M168.726,20.726c0,.258-.007.514-.024.769-11.292.41-16.211-4.586-16.211-4.586a15.048,15.048,0,0,1-2.267,1.805,21.993,21.993,0,0,1-6.589,2.793c-.019-.258-.026-.518-.026-.78a12.559,12.559,0,1,1,25.118,0Z" transform="translate(-123.349 -6.826)" fill="#694b4b"/>
  <path id="Trazado_227260" data-name="Trazado 227260" d="M202.434,43.417c0,.258-.007.514-.024.769C191.118,44.6,186.2,39.6,186.2,39.6a15.047,15.047,0,0,1-2.267,1.805,12.564,12.564,0,0,1,16.575-4.672A12.481,12.481,0,0,1,202.434,43.417Z" transform="translate(-157.057 -29.518)" fill="#563939"/>
  <path id="Trazado_227261" data-name="Trazado 227261" d="M137.536,275.191v5.768h-4.382a16.269,16.269,0,0,1-2.673,6.449l3.1,3.1-4.078,4.078-3.1-3.1a16.257,16.257,0,0,1-6.448,2.673v4.381h-5.768v-4.381a16.253,16.253,0,0,1-6.447-2.673l-.379.379-2.721,2.72-4.078-4.078,3.1-3.1a16.225,16.225,0,0,1-2.673-6.449H96.605v-5.768h4.383a16.216,16.216,0,0,1,2.673-6.448l-3.1-3.1,4.078-4.078,3.1,3.1a16.25,16.25,0,0,1,6.447-2.673v-4.383h5.768v4.383a16.259,16.259,0,0,1,6.448,2.673l3.1-3.1,4.078,4.078-2.807,2.807-.294.294a16.258,16.258,0,0,1,2.673,6.448h4.382Z" transform="translate(-84.057 -215.344)" fill="#c8d0e2"/>
  <path id="Trazado_227262" data-name="Trazado 227262" d="M167.432,324.8l3.1,3.1-4.078,4.078-3.1-3.1a16.257,16.257,0,0,1-6.448,2.673V335.7a16.525,16.525,0,0,1-5.768-1.244v-2.91a16.253,16.253,0,0,1-6.447-2.673l-.379.379a16.689,16.689,0,0,1,23.415-23.416l-.294.294a16.258,16.258,0,0,1,2.673,6.448H172.9a16.538,16.538,0,0,1,1.276,5.768h-4.067A16.269,16.269,0,0,1,167.432,324.8Z" transform="translate(-121.009 -252.733)" fill="#aeb9cc"/>
  <path id="Trazado_227263" data-name="Trazado 227263" d="M181.788,333.653a9.658,9.658,0,1,1-4.622-8.245A9.661,9.661,0,0,1,181.788,333.653Z" transform="translate(-139.114 -270.836)" fill="#213847"/>
  <path id="Trazado_227264" data-name="Trazado 227264" d="M178.583,330.446a9.664,9.664,0,0,1-14.7,8.245,9.662,9.662,0,0,1,13.282-13.283A9.6,9.6,0,0,1,178.583,330.446Z" transform="translate(-139.114 -270.836)" fill="#324a5e"/>
  <path id="Trazado_227265" data-name="Trazado 227265" d="M165.431,337.541a10.974,10.974,0,1,0-10.974-10.974A10.987,10.987,0,0,0,165.431,337.541Zm8.725-10.974a8.725,8.725,0,1,1-8.725-8.725A8.735,8.735,0,0,1,174.156,326.566Z" transform="translate(-132.418 -263.815)"/>
  <path id="Trazado_227266" data-name="Trazado 227266" d="M331.255,127.533v4.284H328a12.081,12.081,0,0,1-1.985,4.789l2.3,2.3-3.029,3.029-2.3-2.3a12.073,12.073,0,0,1-4.789,1.985v3.254h-4.284V141.62a12.069,12.069,0,0,1-4.788-1.985l-.282.282-2.021,2.02-3.029-3.029,2.3-2.3a12.05,12.05,0,0,1-1.985-4.789h-3.255v-4.284h3.255a12.041,12.041,0,0,1,1.985-4.789l-2.3-2.3,3.029-3.029,2.3,2.3a12.07,12.07,0,0,1,4.788-1.985v-3.255H318.2v3.255a12.074,12.074,0,0,1,4.789,1.985l2.3-2.3,3.029,3.029-2.084,2.085-.218.218A12.074,12.074,0,0,1,328,127.532Z" transform="translate(-254.797 -95.693)" fill="#c8d0e2"/>
  <path id="Trazado_227267" data-name="Trazado 227267" d="M353.46,164.373l2.3,2.3-3.029,3.029-2.3-2.3a12.073,12.073,0,0,1-4.789,1.985v3.086a12.269,12.269,0,0,1-4.284-.924v-2.161a12.068,12.068,0,0,1-4.788-1.985l-.282.282a12.395,12.395,0,0,1,17.39-17.391l-.218.218a12.074,12.074,0,0,1,1.985,4.789h2.073a12.286,12.286,0,0,1,.948,4.284h-3.021A12.081,12.081,0,0,1,353.46,164.373Z" transform="translate(-282.243 -123.46)" fill="#aeb9cc"/>
  <path id="Trazado_227268" data-name="Trazado 227268" d="M364.122,170.953a7.173,7.173,0,1,1-3.433-6.123A7.175,7.175,0,0,1,364.122,170.953Z" transform="translate(-295.69 -136.907)" fill="#213847"/>
  <path id="Trazado_227269" data-name="Trazado 227269" d="M361.742,168.57a7.178,7.178,0,0,1-10.917,6.123,7.176,7.176,0,0,1,9.865-9.865A7.133,7.133,0,0,1,361.742,168.57Z" transform="translate(-295.69 -136.906)" fill="#324a5e"/>
  <path id="Trazado_227270" data-name="Trazado 227270" d="M351.974,173.839a8.151,8.151,0,1,0-8.151-8.151A8.16,8.16,0,0,0,351.974,173.839Zm6.48-8.151a6.48,6.48,0,1,1-6.48-6.48A6.488,6.488,0,0,1,358.454,165.689Z" transform="translate(-290.716 -131.692)"/>
  <path id="Trazado_227271" data-name="Trazado 227271" d="M353.827,161.4a7.375,7.375,0,1,0,7.375,7.375A7.384,7.384,0,0,0,353.827,161.4Zm-4.952,7.375a4.952,4.952,0,1,1,4.952,4.952A4.958,4.958,0,0,1,348.875,168.772Z" transform="translate(-292.914 -134.918)"/>
  <path id="Trazado_227272" data-name="Trazado 227272" d="M405.318,331.786l1.78,1.644a31.38,31.38,0,0,0,7.312-13.372l-2.346-.608A28.95,28.95,0,0,1,405.318,331.786Z" transform="translate(-342.122 -267.04)"/>
  <path id="Trazado_227273" data-name="Trazado 227273" d="M371.356,414.723l1.315,2.035c.863-.557,1.708-1.165,2.513-1.8l-1.509-1.9C372.932,413.649,372.152,414.209,371.356,414.723Z" transform="translate(-313.732 -345.291)"/>
  <rect id="Rectángulo_47670" data-name="Rectángulo 47670" width="2.423" height="2.664" transform="translate(72.549 78.818)"/>
  <rect id="Rectángulo_47671" data-name="Rectángulo 47671" width="2.423" height="2.664" transform="translate(57.071 77.485)"/>
  <rect id="Rectángulo_47672" data-name="Rectángulo 47672" width="2.423" height="2.664" transform="translate(74.974 66.051)"/>
  <rect id="Rectángulo_47673" data-name="Rectángulo 47673" width="2.423" height="2.664" transform="translate(53.54 8.629)"/>
  <rect id="Rectángulo_47674" data-name="Rectángulo 47674" width="2.423" height="2.664" transform="translate(0 33.495)"/>
  <rect id="Rectángulo_47675" data-name="Rectángulo 47675" width="2.423" height="2.664" transform="translate(5.097 66.522)"/>
  <rect id="Rectángulo_47676" data-name="Rectángulo 47676" width="2.423" height="2.664" transform="translate(0 78.818)"/>
  <rect id="Rectángulo_47677" data-name="Rectángulo 47677" width="2.423" height="2.664" transform="translate(14.984 23.686)"/>
  <rect id="Rectángulo_47678" data-name="Rectángulo 47678" width="2.423" height="2.664" transform="translate(2.689 14.07)"/>
  <rect id="Rectángulo_47679" data-name="Rectángulo 47679" width="2.423" height="2.664" transform="translate(11.809 4.434)"/>
  <rect id="Rectángulo_47680" data-name="Rectángulo 47680" width="2.423" height="2.664" transform="translate(65.867 2.377)"/>
  <rect id="Rectángulo_47681" data-name="Rectángulo 47681" width="2.423" height="2.664" transform="translate(72.549 10.351)"/>
  <path id="Trazado_227274" data-name="Trazado 227274" d="M169.832,320.819a10.138,10.138,0,1,0,10.138,10.138A10.149,10.149,0,0,0,169.832,320.819Zm7.715,10.138a7.715,7.715,0,1,1-7.715-7.715A7.723,7.723,0,0,1,177.546,330.957Z" transform="translate(-136.795 -268.185)"/>
  <path id="Trazado_227275" data-name="Trazado 227275" d="M154.181,30.491a13.2,13.2,0,0,0-1.424-3.434l2.48-2.48-4.757-4.757L148,22.3a13.2,13.2,0,0,0-3.434-1.424V17.371H137.84v3.506a13.2,13.2,0,0,0-3.434,1.424l-2.48-2.48-4.757,4.757,2.48,2.48a13.191,13.191,0,0,0-1.424,3.434h-1a21.165,21.165,0,0,0-7.674-4.283,13.848,13.848,0,1,0-12.462,0A21.211,21.211,0,0,0,92.152,46.445V58.74H92.1V66.8h4.513a16.937,16.937,0,0,0,2.046,4.935l-3.193,3.193,5.7,5.7,3.193-3.193a16.938,16.938,0,0,0,4.935,2.046V84h8.064V79.487a16.94,16.94,0,0,0,4.935-2.046l3.193,3.193,5.7-5.7-3.193-3.193a16.937,16.937,0,0,0,2.046-4.935h4.513V58.74H134.5V46.446c0-.335-.009-.667-.024-1a13.2,13.2,0,0,0,3.365,1.385v3.506h6.727V46.832A13.2,13.2,0,0,0,148,45.409l2.48,2.48,4.757-4.757-2.48-2.48a13.191,13.191,0,0,0,1.424-3.433h3.506V30.491Zm1.083,4.3h-3.073l-.178,1a10.847,10.847,0,0,1-1.8,4.331l-.58.832,2.174,2.174-1.33,1.33-2.174-2.174-.832.58a10.848,10.848,0,0,1-4.331,1.8l-1,.178v3.073h-1.881V44.842l-1-.178a10.848,10.848,0,0,1-4.331-1.8l-.832-.58-2.174,2.174-1.33-1.33,2.174-2.174-.58-.832a10.85,10.85,0,0,1-1.8-4.331l-.178-1h-3.073V32.914h3.073l.178-1a10.85,10.85,0,0,1,1.8-4.331l.58-.832L130.6,24.577l1.33-1.33,2.174,2.174.832-.58a10.848,10.848,0,0,1,4.332-1.8l1-.178V19.794h1.881v3.073l1,.178a10.849,10.849,0,0,1,4.331,1.8l.832.58,2.174-2.174,1.33,1.33-2.174,2.174.58.832a10.847,10.847,0,0,1,1.8,4.331l.178,1h3.073V34.8ZM128.041,61.163h4.089v3.218h-4.089l-.178,1a14.588,14.588,0,0,1-2.416,5.826l-.58.832,2.893,2.893-2.275,2.275-2.893-2.893-.832.58a14.591,14.591,0,0,1-5.826,2.416l-1,.178v4.089h-3.218V77.488l-1-.178a14.589,14.589,0,0,1-5.826-2.416l-.832-.58-2.893,2.893-2.275-2.275,2.893-2.893-.58-.832a14.591,14.591,0,0,1-2.416-5.826l-.178-1H94.521V61.163H98.61l.178-1a14.59,14.59,0,0,1,2.416-5.826l.58-.832-2.893-2.893,2.275-2.275,2.893,2.893.832-.58a14.591,14.591,0,0,1,5.826-2.416l1-.178V43.967h3.218v4.089l1,.178a14.59,14.59,0,0,1,5.826,2.416l.832.58,2.893-2.893,2.275,2.275-2.893,2.893.58.832a14.588,14.588,0,0,1,2.416,5.826Zm-.047-7.358,3.193-3.193-5.7-5.7-2.168,2.168h-.088v.088l-.936.936a16.947,16.947,0,0,0-4.935-2.046V41.545h-2.82v-4.81l6.455-7.4a18.777,18.777,0,0,1,3.728,2.23v5.653h3.506a13.2,13.2,0,0,0,1.424,3.433l-2.48,2.48,4.757,4.757.15-.15V58.724h-2.04A16.93,16.93,0,0,0,127.994,53.806ZM113.326,2.423a11.436,11.436,0,0,1,11.423,11.349c-7.317-.233-11.762-2.622-13.627-3.9a9.951,9.951,0,0,0,1.167-1.738l-2.177-1.064c-.087.174-2.058,3.99-8.2,6.251A11.438,11.438,0,0,1,113.326,2.423ZM102.078,15.836a20.643,20.643,0,0,0,7.35-4.178c1.975,1.435,6.854,4.241,15.08,4.532a11.423,11.423,0,0,1-22.429-.354Zm16.48,12.6-5.232,6-5.233-6a18.776,18.776,0,0,1,10.465,0ZM94.575,46.446a18.777,18.777,0,0,1,11.084-17.11l6.455,7.4v4.81h-2.82v4.513a16.942,16.942,0,0,0-4.935,2.046l-.936-.936V47.08h-.088l-2.168-2.168-5.7,5.7,3.193,3.193a16.942,16.942,0,0,0-2.042,4.918h-2.04S94.575,46.446,94.575,46.446Z" transform="translate(-80.289)"/>
</svg>
