<svg xmlns="http://www.w3.org/2000/svg" width="100.465" height="100.914" viewBox="0 0 100.465 100.914">
  <g id="_61" data-name="61" transform="translate(-904.285 -10627)">
    <g id="Grupo_143164" data-name="Grupo 143164" transform="translate(0 -0.244)">
      <path id="Trazado_227286" data-name="Trazado 227286" d="M109.828,11.656v3.827h-2.719V4.2h4.5a5.243,5.243,0,0,1,2.289.476,3.591,3.591,0,0,1,1.542,1.356,3.7,3.7,0,0,1,.546,1.995,3.264,3.264,0,0,1-1.181,2.638,4.9,4.9,0,0,1-3.242.988Zm0-2.1h1.782a1.68,1.68,0,0,0,1.2-.4,1.468,1.468,0,0,0,.414-1.116,1.814,1.814,0,0,0-.426-1.263,1.509,1.509,0,0,0-1.162-.48h-1.813Z" transform="translate(843.177 10623.041)" fill="#5c523b"/>
      <path id="Trazado_227287" data-name="Trazado 227287" d="M111.28,12.415,113.527,4.2h3.037l-3.8,11.28h-2.975L106.028,4.2h3.014Z" transform="translate(843.257 10712.676)" fill="#5c523b"/>
    </g>
    <g id="Grupo_143163" data-name="Grupo 143163">
      <g id="Grupo_143162" data-name="Grupo 143162" transform="translate(-0.268 -3)">
        <path id="Trazado_227289" data-name="Trazado 227289" d="M116.071,15.483h-2.7v-4.71h-4.005v4.71h-2.719V4.2h2.719V8.681h4.005V4.2h2.7Z" transform="translate(888.946 10670.797)" fill="#5c523b"/>
        <path id="Trazado_227288" data-name="Trazado 227288" d="M113.126,13.376H109.4l-.651,2.107h-2.905L109.98,4.2h2.557l4.168,11.28h-2.921Zm-3.076-2.1h2.425l-1.216-3.912Z" transform="translate(798.709 10670.797)" fill="#5c523b"/>
      </g>
      <g id="Grupo_143161" data-name="Grupo 143161" transform="translate(164 -461)">
        <path id="Trazado_227276" data-name="Trazado 227276" d="M22.111,49.08A20.131,20.131,0,0,1,20.1,25.72l4.32,4.32V11H5.38l4.415,4.415A34.51,34.51,0,0,0,12.52,59.778V49.08Z" transform="translate(753.476 11102.712)" fill="#7ed63e"/>
        <path id="Trazado_227277" data-name="Trazado 227277" d="M22.708,22.111A20.131,20.131,0,0,1,46.068,20.1l-4.32,4.32h19.04V5.38L56.373,9.795A34.51,34.51,0,0,0,12.01,12.52h10.7Z" transform="translate(755.188 11101.191)" fill="#d06a01"/>
        <path id="Trazado_227278" data-name="Trazado 227278" d="M54.9,22.708H45.309a20.131,20.131,0,0,1,2.011,23.36L43,41.748v19.04H62.04l-4.415-4.415A34.51,34.51,0,0,0,54.9,12.01Z" transform="translate(761.076 11102.903)" fill="#005ece"/>
        <path id="Trazado_227279" data-name="Trazado 227279" d="M49.08,54.9V45.309A20.131,20.131,0,0,1,25.72,47.32L30.04,43H11V62.04l4.415-4.415A34.51,34.51,0,0,0,59.778,54.9Z" transform="translate(754.996 11108.791)" fill="#ffcd00"/>
        <path id="Trazado_227280" data-name="Trazado 227280" d="M49.08,53.948A27.382,27.382,0,0,1,17.556,50.14C15.314,48.1,11,43,11,43V62.04l4.415-4.415A34.51,34.51,0,0,0,59.778,54.9H49.08Z" transform="translate(754.996 11108.791)" fill="#ebbf00"/>
        <path id="Trazado_227281" data-name="Trazado 227281" d="M13.472,49.08A27.382,27.382,0,0,1,17.28,17.556C19.324,15.314,24.42,11,24.42,11H5.38l4.415,4.415A34.51,34.51,0,0,0,12.52,59.778V49.08Z" transform="translate(753.476 11102.712)" fill="#5eac24"/>
        <path id="Trazado_227282" data-name="Trazado 227282" d="M22.708,13.472a27.382,27.382,0,0,1,32.13,4.38c1.98,1.915,5.95,6.568,5.95,6.568V5.38L56.373,9.795A34.51,34.51,0,0,0,12.01,12.52h10.7Z" transform="translate(755.188 11101.191)" fill="#ffac57"/>
        <path id="Trazado_227283" data-name="Trazado 227283" d="M64.42,35.8A34.3,34.3,0,0,0,54.9,12.01v10.7h-.952A27.382,27.382,0,0,1,50.14,54.232C48.1,56.474,43,60.788,43,60.788H62.04l-4.415-4.415A34.334,34.334,0,0,0,64.42,35.8Z" transform="translate(761.076 11102.903)" fill="#006df0"/>
        <path id="Trazado_227284" data-name="Trazado 227284" d="M17.82,24.96a20.131,20.131,0,0,0,2.011,23.36H29.28l-4.32,4.32a20.131,20.131,0,0,0,23.36-2.011V41.18l4.32,4.32a20.131,20.131,0,0,0-2.011-23.36H41.18l4.32-4.32a20.131,20.131,0,0,0-23.36,2.011V29.28Z" transform="translate(755.756 11103.472)" fill="none"/>
        <path id="Trazado_227285" data-name="Trazado 227285" d="M66.974,58.156A35.7,35.7,0,0,0,63.88,13.448V5.57a1.175,1.175,0,0,0-.738-1.095,1.19,1.19,0,0,0-1.3.25l-3.689,3.7A35.7,35.7,0,0,0,13.448,11.52H5.57a1.175,1.175,0,0,0-1.095.738,1.19,1.19,0,0,0,.25,1.3l3.7,3.689A35.7,35.7,0,0,0,11.52,61.952V69.83a1.175,1.175,0,0,0,.738,1.095,1.19,1.19,0,0,0,1.3-.25l3.689-3.7A35.7,35.7,0,0,0,61.952,63.88H69.83a1.175,1.175,0,0,0,1.095-.738,1.19,1.19,0,0,0-.25-1.3ZM37.7,4.38a33.034,33.034,0,0,1,19.861,6.557,1.19,1.19,0,0,0,1.559-.107L61.5,8.438V23.42H46.518l2.3-2.285a1.2,1.2,0,0,0-.238-1.868,21.28,21.28,0,0,0-22.777.654V12.71a1.19,1.19,0,0,0-1.19-1.19H17.089A33.062,33.062,0,0,1,37.7,4.38ZM32.845,50.338A1.175,1.175,0,0,0,31.75,49.6H22.885a18.908,18.908,0,0,1-2.309-20.206l3.189,3.2a1.19,1.19,0,0,0,1.3.25A1.175,1.175,0,0,0,25.8,31.75V22.885a18.908,18.908,0,0,1,20.206-2.309l-3.2,3.189a1.19,1.19,0,0,0-.25,1.3,1.175,1.175,0,0,0,1.095.738h8.865a18.908,18.908,0,0,1,2.309,20.206l-3.189-3.2a1.19,1.19,0,0,0-1.3-.25A1.175,1.175,0,0,0,49.6,43.65v8.865a18.908,18.908,0,0,1-20.206,2.309l3.2-3.189A1.19,1.19,0,0,0,32.845,50.338ZM12.71,49.6a1.19,1.19,0,0,0-1.19,1.19v7.521a33.338,33.338,0,0,1-.583-40.472,1.19,1.19,0,0,0-.107-1.559L8.438,13.9H23.42V28.882l-2.285-2.3a1.2,1.2,0,0,0-1.868.238A21.28,21.28,0,0,0,19.922,49.6ZM37.7,71.02a33.035,33.035,0,0,1-19.861-6.557,1.19,1.19,0,0,0-1.559.107L13.9,66.962V51.98H28.882l-2.3,2.285a1.2,1.2,0,0,0,.238,1.868A21.28,21.28,0,0,0,49.6,55.479V62.69a1.19,1.19,0,0,0,1.19,1.19h7.521A33.062,33.062,0,0,1,37.7,71.02ZM51.98,61.5V46.518l2.285,2.3a1.2,1.2,0,0,0,1.868-.238A21.28,21.28,0,0,0,55.479,25.8H62.69a1.19,1.19,0,0,0,1.19-1.19V17.089a33.338,33.338,0,0,1,.583,40.472,1.19,1.19,0,0,0,.107,1.559l2.392,2.38Z" transform="translate(753.286 11101.001)" fill="#231f20"/>
      </g>
    </g>
  </g>
</svg>
