<svg xmlns="http://www.w3.org/2000/svg" width="75.493" height="84" viewBox="0 0 75.493 84">
  <g id="_62" data-name="62" transform="translate(0)">
    <path id="Trazado_227231" data-name="Trazado 227231" d="M139.163,171.46v54.949H96.788V198.35a26.89,26.89,0,0,1,26.89-26.89Z" transform="translate(-85.162 -143.33)" fill="#c8d0e2"/>
    <ellipse id="Elipse_5666" data-name="Elipse 5666" cx="17.088" cy="17.088" rx="17.088" ry="17.088" transform="translate(16.489 35.776)" fill="#edf3f9"/>
    <path id="Trazado_227232" data-name="Trazado 227232" d="M224.988,445.606H243.53v-8.051h-2.423v5.628H224.988Z" transform="translate(-192.33 -365.769)"/>
    <rect id="Rectángulo_47664" data-name="Rectángulo 47664" width="3.042" height="2.423" transform="translate(25.88 77.414)"/>
    <rect id="Rectángulo_47665" data-name="Rectángulo 47665" width="53.481" height="68.886" transform="translate(0.52 14.193)" fill="#aeb9cc"/>
    <path id="Trazado_227233" data-name="Trazado 227233" d="M141.549,167.492v55.6H99.643V194.358a26.866,26.866,0,0,1,26.866-26.866Z" transform="translate(-87.549 -140.013)" fill="#c8d0e2"/>
    <path id="Trazado_227234" data-name="Trazado 227234" d="M199.628,319.763l8.128,7.7-12.068,4.654Z" transform="translate(-167.836 -267.302)" fill="#fbcb99"/>
    <path id="Trazado_227235" data-name="Trazado 227235" d="M257.547,121.632l-1.244,1.229-3.773,3.728-3.354,3.314-19.432,19.2-4.181,4.13-5.012-4.826-3.562-3.427,30.88-30.69,1.211-1.2a6.015,6.015,0,1,1,8.468,8.545Z" transform="translate(-185.643 -93.072)" fill="#ef4c35"/>
    <path id="Trazado_227236" data-name="Trazado 227236" d="M312.995,223l-19.432,19.2a4.272,4.272,0,0,1,1.02-4.407l13.835-13.833A4.273,4.273,0,0,1,312.995,223Z" transform="translate(-249.461 -186.171)" fill="#ff7061"/>
    <path id="Trazado_227237" data-name="Trazado 227237" d="M257.549,121.631,256.3,122.86l-3.773,3.728h0a7.186,7.186,0,0,0-10.163,0l-21.816,21.817-3.562-3.427,30.879-30.69,1.211-1.2a6.027,6.027,0,0,1,5.261-1.661l4.907,4.907A6.009,6.009,0,0,1,257.549,121.631Z" transform="translate(-185.645 -93.072)" fill="#c62e1e"/>
    <path id="Trazado_227238" data-name="Trazado 227238" d="M414.886,121.631l-1.244,1.229-.11-.111-8.185-8.321-.139-.141,1.212-1.2a6.015,6.015,0,1,1,8.466,8.546Z" transform="translate(-342.982 -93.072)" fill="#694b4b"/>
    <path id="Trazado_227239" data-name="Trazado 227239" d="M414.241,134.265l-8.185-8.321a6.016,6.016,0,0,1,8.185,8.321Z" transform="translate(-343.691 -104.587)" fill="#563939"/>
    <rect id="Rectángulo_47666" data-name="Rectángulo 47666" width="9.994" height="9.994" transform="translate(7.705 28.34)" fill="#579e2e"/>
    <path id="Trazado_227240" data-name="Trazado 227240" d="M102.186,195.819v6.208H95.98v-3.138a3.07,3.07,0,0,1,3.07-3.07Z" transform="translate(-84.487 -163.692)" fill="#75bf4d"/>
    <rect id="Rectángulo_47667" data-name="Rectángulo 47667" width="9.994" height="9.994" transform="translate(7.705 44.316)" fill="#579e2e"/>
    <path id="Trazado_227241" data-name="Trazado 227241" d="M102.186,293.2V299.4H95.98v-3.138a3.07,3.07,0,0,1,3.07-3.07Z" transform="translate(-84.487 -245.094)" fill="#75bf4d"/>
    <rect id="Rectángulo_47668" data-name="Rectángulo 47668" width="9.994" height="9.994" transform="translate(7.705 60.293)" fill="#579e2e"/>
    <path id="Trazado_227242" data-name="Trazado 227242" d="M102.186,390.573v6.208H95.98v-3.138a3.07,3.07,0,0,1,3.07-3.07Z" transform="translate(-84.487 -326.495)" fill="#75bf4d"/>
    <path id="Trazado_227243" data-name="Trazado 227243" d="M131.608,14.935V29.054H99.643V14.935h10.524a6.2,6.2,0,0,1,12.4,0Z" transform="translate(-87.549 -7.472)" fill="#563939"/>
    <path id="Trazado_227244" data-name="Trazado 227244" d="M144.358,48.856V62.422H114.895a7.57,7.57,0,0,1,7.57-7.57h.09a3.635,3.635,0,0,0,3.35-2.211,6.2,6.2,0,0,1,5.713-3.785Z" transform="translate(-100.299 -40.841)" fill="#694b4b"/>
    <path id="Trazado_227245" data-name="Trazado 227245" d="M230.589,65.9h5.187v1.355H238.2V63.477h-7.61Z" transform="translate(-197.012 -53.063)"/>
    <path id="Trazado_227246" data-name="Trazado 227246" d="M186.843,33.654a2.891,2.891,0,1,0-2.89-2.891A2.894,2.894,0,0,0,186.843,33.654Zm0-3.358a.467.467,0,1,1-.467.467A.468.468,0,0,1,186.843,30.3Z" transform="translate(-158.027 -23.3)"/>
    <path id="Trazado_227247" data-name="Trazado 227247" d="M68.539,179.811H79.961V168.389H68.539v11.422Zm2.423-9h6.576v6.576H70.962Z" transform="translate(-61.548 -140.763)"/>
    <path id="Trazado_227248" data-name="Trazado 227248" d="M68.539,277.188H79.961V265.766H68.539v11.422Zm2.423-9h6.576v6.576H70.962Z" transform="translate(-61.548 -222.164)"/>
    <path id="Trazado_227249" data-name="Trazado 227249" d="M68.539,374.563H79.961V363.141H68.539v11.422Zm2.423-9h6.576v6.576H70.962Z" transform="translate(-61.548 -303.563)"/>
    <path id="Trazado_227250" data-name="Trazado 227250" d="M192.648,198.237v-2.423H169.825v2.423Z" transform="translate(-146.217 -163.688)"/>
    <path id="Trazado_227251" data-name="Trazado 227251" d="M383.074,172.647l6.72-6.72-3.233-3.233-1.714,1.713,1.52,1.52-5.007,5.007Z" transform="translate(-323.048 -136.002)"/>
    <rect id="Rectángulo_47669" data-name="Rectángulo 47669" width="2.294" height="2.423" transform="translate(55.167 38.079) rotate(-45)"/>
    <path id="Trazado_227252" data-name="Trazado 227252" d="M99.466,19.573l-.943-.943a6.687,6.687,0,0,0-9.445,0l-2.62,2.62h0l-5.169,5.169V12.6H71.276V6.252H62.109a7.466,7.466,0,0,0-14.733,0h-10.6V12.6H25.926V84H81.288V47.2L96.846,31.638h0l.13-.13,1.583-1.583h0l.907-.907A6.686,6.686,0,0,0,99.466,19.573ZM63.793,60.1l-8.238,2.442L58,54.3Zm2.3-1.13-6.962-6.962L88.171,22.963l6.962,6.962ZM49.7,7.464a5.04,5.04,0,1,1,10.081,0V8.675h9.069V20H39.2V8.675H49.7V7.464ZM78.865,81.577H28.349V15.024h8.426v7.395h34.5V15.024h7.589V28.842L59.605,48.1H49.534v2.423h7.648l-.843.843-3.768,12.71H49.534V66.5H72.357V64.078H58.9l7.832-2.322L78.865,49.619ZM97.753,27.3l-.907.907L89.884,21.25l.907-.906a4.261,4.261,0,0,1,6.019,0l.943.943A4.261,4.261,0,0,1,97.753,27.3Z" transform="translate(-25.926)"/>
  </g>
</svg>
