<svg xmlns="http://www.w3.org/2000/svg" xmlns:xlink="http://www.w3.org/1999/xlink" width="400" height="396.373" viewBox="0 0 400 396.373">
  <defs>
    <clipPath id="clip-path">
      <rect id="Rectángulo_47703" data-name="Rectángulo 47703" width="400" height="396.373" fill="none"/>
    </clipPath>
    <clipPath id="clip-path-2">
      <path id="Trazado_227338" data-name="Trazado 227338" d="M70.421,157.6A88.324,88.324,0,1,0,158.745,69.27,88.325,88.325,0,0,0,70.421,157.6" transform="translate(-70.421 -69.27)" fill="none"/>
    </clipPath>
    <radialGradient id="radial-gradient" cx="0.531" cy="0.492" r="0.675" gradientTransform="matrix(1, 0, 0, -1, 0, 3.317)" gradientUnits="objectBoundingBox">
      <stop offset="0" stop-color="#fff"/>
      <stop offset="0.219" stop-color="#f7f7f7"/>
      <stop offset="0.554" stop-color="#e2e2e2"/>
      <stop offset="0.959" stop-color="#bfbfbf"/>
      <stop offset="1" stop-color="#bcbcbc"/>
    </radialGradient>
    <filter id="Trazado_227375" x="38.243" y="81" width="110.997" height="31.676" filterUnits="userSpaceOnUse">
      <feOffset dy="3" input="SourceAlpha"/>
      <feGaussianBlur stdDeviation="3" result="blur"/>
      <feFlood flood-opacity="0.161"/>
      <feComposite operator="in" in2="blur"/>
      <feComposite in="SourceGraphic"/>
    </filter>
    <filter id="Trazado_227378" x="43.064" y="285" width="101.355" height="31.676" filterUnits="userSpaceOnUse">
      <feOffset dy="3" input="SourceAlpha"/>
      <feGaussianBlur stdDeviation="3" result="blur-2"/>
      <feFlood flood-opacity="0.161"/>
      <feComposite operator="in" in2="blur-2"/>
      <feComposite in="SourceGraphic"/>
    </filter>
    <filter id="Trazado_227376" x="233.42" y="81" width="136.257" height="35.156" filterUnits="userSpaceOnUse">
      <feOffset dy="3" input="SourceAlpha"/>
      <feGaussianBlur stdDeviation="3" result="blur-3"/>
      <feFlood flood-opacity="0.161"/>
      <feComposite operator="in" in2="blur-3"/>
      <feComposite in="SourceGraphic"/>
    </filter>
    <filter id="Trazado_227379" x="250.163" y="285.703" width="102.076" height="30.973" filterUnits="userSpaceOnUse">
      <feOffset dy="3" input="SourceAlpha"/>
      <feGaussianBlur stdDeviation="3" result="blur-4"/>
      <feFlood flood-opacity="0.161"/>
      <feComposite operator="in" in2="blur-4"/>
      <feComposite in="SourceGraphic"/>
    </filter>
  </defs>
  <g id="Grupo_143280" data-name="Grupo 143280" transform="translate(-285 -6606)">
    <g id="Grupo_143204" data-name="Grupo 143204" transform="translate(-105.285 -13)">
      <g id="Grupo_143203" data-name="Grupo 143203" transform="translate(390.285 6619)">
        <g id="Grupo_143198" data-name="Grupo 143198">
          <g id="Grupo_143197" data-name="Grupo 143197" clip-path="url(#clip-path)">
            <path id="Trazado_227330" data-name="Trazado 227330" d="M300.835,193.788h-2.424a.746.746,0,1,1,0-1.492h2.424a.746.746,0,0,1,0,1.492m-6.056,0h-2.422a.746.746,0,1,1,0-1.492h2.422a.746.746,0,0,1,0,1.492m-6.058,0H286.3a.746.746,0,0,1,0-1.492h2.422a.746.746,0,1,1,0,1.492m-6.056,0H280.24a.746.746,0,1,1,0-1.492h2.424a.746.746,0,0,1,0,1.492m-6.057,0h-2.424a.746.746,0,0,1,0-1.492h2.424a.746.746,0,1,1,0,1.492m-6.058,0h-2.424a.746.746,0,0,1,0-1.492h2.424a.746.746,0,0,1,0,1.492m-6.057,0h-2.422a.746.746,0,0,1,0-1.492h2.422a.746.746,0,0,1,0,1.492m-6.058,0h-2.422a.746.746,0,0,1,0-1.492h2.422a.746.746,0,0,1,0,1.492m-6.057,0h-2.424a.746.746,0,0,1,0-1.492h2.424a.746.746,0,1,1,0,1.492m-6.056,0H243.9a.746.746,0,0,1,0-1.492h2.424a.746.746,0,1,1,0,1.492m-6.058,0H237.84a.746.746,0,1,1,0-1.492h2.424a.746.746,0,1,1,0,1.492m-6.056,0h-2.422a.746.746,0,1,1,0-1.492h2.422a.746.746,0,1,1,0,1.492m-6.058,0h-2.422a.746.746,0,1,1,0-1.492h2.422a.746.746,0,1,1,0,1.492m-6.056,0h-2.424a.746.746,0,1,1,0-1.492h2.424a.746.746,0,1,1,0,1.492m-6.056,0h-2.424a.746.746,0,1,1,0-1.492h2.424a.746.746,0,1,1,0,1.492m-6.058,0h-2.424a.746.746,0,1,1,0-1.492h2.424a.746.746,0,1,1,0,1.492m-6.056,0H201.5a.746.746,0,1,1,0-1.492h2.422a.746.746,0,0,1,0,1.492m-6.058,0h-2.422a.746.746,0,1,1,0-1.492h2.422a.746.746,0,1,1,0,1.492m-6.056,0h-2.424a.746.746,0,1,1,0-1.492h2.424a.746.746,0,1,1,0,1.492m-6.058,0h-2.422a.746.746,0,1,1,0-1.492h2.422a.746.746,0,0,1,0,1.492m-6.056,0h-2.424a.746.746,0,1,1,0-1.492h2.424a.746.746,0,0,1,0,1.492m-6.056,0h-2.422a.746.746,0,1,1,0-1.492h2.422a.746.746,0,0,1,0,1.492m-6.058,0h-2.422a.746.746,0,0,1,0-1.492h2.422a.746.746,0,1,1,0,1.492m136.886-.081a.746.746,0,0,1-.055-1.49c.782-.061,1.57-.157,2.336-.287a.746.746,0,0,1,.248,1.472c-.81.136-1.64.239-2.47.3-.019,0-.037,0-.058,0m-142.938-.027a.474.474,0,0,1-.066,0c-.827-.073-1.658-.185-2.469-.331a.746.746,0,1,1,.266-1.469c.767.139,1.552.245,2.333.313a.746.746,0,0,1-.064,1.489M310.4,192.569a.746.746,0,0,1-.222-1.458c.749-.233,1.492-.5,2.212-.8a.746.746,0,1,1,.572,1.379c-.76.315-1.548.6-2.337.846a.736.736,0,0,1-.224.034m-154.793-.1a.778.778,0,0,1-.231-.036c-.784-.255-1.567-.551-2.331-.878a.746.746,0,1,1,.588-1.372c.722.309,1.464.588,2.2.828a.747.747,0,0,1-.23,1.457m160.318-2.342a.746.746,0,0,1-.376-1.391c.673-.393,1.339-.822,1.977-1.278a.747.747,0,0,1,.866,1.218c-.676.479-1.381.933-2.091,1.349a.746.746,0,0,1-.376.1m-165.819-.166a.744.744,0,0,1-.384-.106c-.706-.424-1.4-.887-2.075-1.375a.746.746,0,1,1,.879-1.206c.634.463,1.3.9,1.963,1.3a.745.745,0,0,1-.384,1.385M320.77,186.52a.748.748,0,0,1-.51-1.292c.569-.531,1.122-1.1,1.645-1.684a.747.747,0,0,1,1.115.994c-.554.619-1.139,1.218-1.739,1.781a.75.75,0,0,1-.51.2M145.3,186.295a.736.736,0,0,1-.515-.207c-.6-.576-1.179-1.182-1.719-1.8a.746.746,0,1,1,1.125-.979c.51.585,1.057,1.158,1.625,1.7a.746.746,0,0,1-.516,1.285m179.39-4.371a.746.746,0,0,1-.618-1.166c.439-.648.852-1.322,1.231-2.007a.746.746,0,0,1,1.306.722c-.4.724-.839,1.437-1.3,2.122a.749.749,0,0,1-.618.328m-183.256-.272a.744.744,0,0,1-.624-.336c-.455-.691-.884-1.409-1.273-2.136a.746.746,0,1,1,1.313-.706c.37.687.775,1.369,1.207,2.022a.745.745,0,0,1-.624,1.155M327.5,176.568a.746.746,0,0,1-.7-1.016c.282-.731.534-1.482.749-2.231a.746.746,0,1,1,1.434.41c-.227.793-.492,1.585-.794,2.36a.742.742,0,0,1-.694.478m-188.8-.3a.747.747,0,0,1-.7-.485c-.29-.776-.546-1.573-.764-2.37a.746.746,0,0,1,1.44-.393c.2.752.448,1.507.722,2.24a.746.746,0,0,1-.439.96.72.72,0,0,1-.26.048m190.327-5.546a.651.651,0,0,1-.107-.007.746.746,0,0,1-.633-.845c.112-.778.19-1.566.231-2.343a.756.756,0,0,1,.785-.706.745.745,0,0,1,.7.785c-.043.822-.125,1.655-.243,2.476a.747.747,0,0,1-.737.64M137.24,170.4a.746.746,0,0,1-.739-.648c-.107-.815-.181-1.648-.215-2.479A.744.744,0,0,1,137,166.5a.734.734,0,0,1,.778.713c.033.787.1,1.576.2,2.346a.746.746,0,0,1-.642.837.726.726,0,0,1-.1.006M329.3,164.679a.745.745,0,0,1-.746-.746V161.51a.746.746,0,1,1,1.492,0v2.422a.746.746,0,0,1-.746.746m-192.3-.319a.746.746,0,0,1-.746-.746v-2.424a.746.746,0,0,1,1.492,0v2.424a.746.746,0,0,1-.746.746m192.3-5.737a.745.745,0,0,1-.746-.746v-2.422a.746.746,0,0,1,1.492,0v2.422a.746.746,0,0,1-.746.746m-192.3-.321a.746.746,0,0,1-.746-.746v-2.422a.746.746,0,0,1,1.492,0v2.422a.747.747,0,0,1-.746.746m192.3-5.736a.746.746,0,0,1-.746-.746V149.4a.746.746,0,1,1,1.492,0v2.424a.746.746,0,0,1-.746.746m-192.3-.321a.746.746,0,0,1-.746-.746v-2.424a.746.746,0,0,1,1.492,0V151.5a.747.747,0,0,1-.746.746m192.3-5.737a.746.746,0,0,1-.746-.746v-2.422a.746.746,0,1,1,1.492,0v2.422a.746.746,0,0,1-.746.746m-192.3-.321a.745.745,0,0,1-.746-.746v-2.422a.746.746,0,1,1,1.492,0v2.422a.746.746,0,0,1-.746.746m192.3-5.736a.746.746,0,0,1-.746-.746v-2.424a.746.746,0,1,1,1.492,0v2.424a.746.746,0,0,1-.746.746m-192.3-.321a.746.746,0,0,1-.746-.746v-2.422a.746.746,0,1,1,1.492,0v2.422a.746.746,0,0,1-.746.746m192.3-5.737a.745.745,0,0,1-.746-.746v-2.422a.746.746,0,1,1,1.492,0v2.422a.746.746,0,0,1-.746.746m-192.3-.319a.746.746,0,0,1-.746-.746V130.9a.746.746,0,1,1,1.492,0v2.424a.746.746,0,0,1-.746.746m192.3-5.737a.745.745,0,0,1-.746-.746v-2.422a.746.746,0,0,1,1.492,0v2.422a.746.746,0,0,1-.746.746m-192.3-.321a.746.746,0,0,1-.746-.746v-2.422a.746.746,0,1,1,1.492,0v2.422a.747.747,0,0,1-.746.746m192.3-5.736a.746.746,0,0,1-.746-.746V119.11a.746.746,0,0,1,1.492,0v2.424a.746.746,0,0,1-.746.746m-192.3-.321a.746.746,0,0,1-.746-.746V118.79a.746.746,0,1,1,1.492,0v2.424a.747.747,0,0,1-.746.746m192.3-5.737a.746.746,0,0,1-.746-.746v-2.422a.746.746,0,0,1,1.492,0v2.422a.746.746,0,0,1-.746.746m-192.3-.321a.745.745,0,0,1-.746-.746v-2.422a.746.746,0,1,1,1.492,0v2.422a.746.746,0,0,1-.746.746m192.3-5.736a.746.746,0,0,1-.746-.746V107a.746.746,0,0,1,1.492,0v2.424a.746.746,0,0,1-.746.746m-192.3-.321a.746.746,0,0,1-.746-.746v-2.422a.746.746,0,1,1,1.492,0V109.1a.747.747,0,0,1-.746.746m192.3-5.737a.745.745,0,0,1-.746-.746V100.94a.746.746,0,0,1,1.492,0v2.422a.746.746,0,0,1-.746.746m-192.3-.319a.746.746,0,0,1-.746-.746v-2.424a.746.746,0,1,1,1.492,0v2.424a.747.747,0,0,1-.746.746m192.3-5.737a.745.745,0,0,1-.746-.746V94.883a.746.746,0,0,1,1.492,0v2.422a.746.746,0,0,1-.746.746m-192.3-.321a.746.746,0,0,1-.746-.746V94.562a.746.746,0,1,1,1.492,0v2.422a.747.747,0,0,1-.746.746M329.3,92a.746.746,0,0,1-.746-.746V88.825a.746.746,0,1,1,1.492,0v2.424A.746.746,0,0,1,329.3,92m-192.3-.321a.746.746,0,0,1-.746-.746V88.5a.746.746,0,1,1,1.492,0v2.424a.747.747,0,0,1-.746.746m192.3-5.737a.746.746,0,0,1-.746-.746V82.769a.746.746,0,1,1,1.492,0v2.422a.746.746,0,0,1-.746.746m-192.3-.321a.745.745,0,0,1-.746-.746V82.448a.746.746,0,1,1,1.492,0V84.87a.746.746,0,0,1-.746.746m192.3-5.736a.746.746,0,0,1-.746-.746V76.711a.746.746,0,0,1,1.492,0v2.424a.746.746,0,0,1-.746.746m-192.3-.321a.746.746,0,0,1-.746-.746V76.391a.746.746,0,1,1,1.492,0v2.422a.747.747,0,0,1-.746.746m192.3-5.737a.745.745,0,0,1-.746-.746V70.654a.746.746,0,0,1,1.492,0v2.422a.746.746,0,0,1-.746.746m-192.3-.319a.746.746,0,0,1-.746-.746V70.333a.746.746,0,1,1,1.492,0v2.424a.747.747,0,0,1-.746.746m192.3-5.737a.745.745,0,0,1-.746-.746V64.6a.746.746,0,0,1,1.492,0V67.02a.746.746,0,0,1-.746.746m-192.3-.321a.746.746,0,0,1-.746-.746V64.277a.746.746,0,1,1,1.492,0V66.7a.747.747,0,0,1-.746.746M329.3,61.71a.746.746,0,0,1-.746-.746V58.54a.746.746,0,0,1,1.492,0v2.424a.746.746,0,0,1-.746.746m-192.3-.321a.746.746,0,0,1-.746-.746V58.219a.746.746,0,1,1,1.492,0v2.424a.747.747,0,0,1-.746.746m192.3-5.737a.746.746,0,0,1-.746-.746V52.483a.746.746,0,0,1,1.492,0v2.422a.746.746,0,0,1-.746.746m-192.3-.321a.745.745,0,0,1-.746-.746V52.162a.746.746,0,1,1,1.492,0v2.422a.746.746,0,0,1-.746.746M329.3,49.6a.746.746,0,0,1-.746-.746V46.425a.746.746,0,0,1,1.492,0v2.424a.746.746,0,0,1-.746.746m-192.3-.321a.745.745,0,0,1-.746-.746V46.106a.746.746,0,1,1,1.492,0v2.422a.746.746,0,0,1-.746.746m192.3-5.737a.745.745,0,0,1-.746-.746V40.369a.746.746,0,0,1,1.492,0v2.422a.746.746,0,0,1-.746.746m-192.3-.319a.746.746,0,0,1-.746-.746V40.048a.746.746,0,1,1,1.492,0v2.424a.747.747,0,0,1-.746.746m192.3-5.737a.745.745,0,0,1-.746-.746V34.312a.746.746,0,0,1,1.492,0v2.422a.746.746,0,0,1-.746.746m-192.3-.321a.746.746,0,0,1-.746-.746V33.991a.746.746,0,1,1,1.492,0v2.422a.747.747,0,0,1-.746.746m192.3-5.736a.746.746,0,0,1-.746-.746V28.254a.746.746,0,0,1,1.492,0v2.424a.746.746,0,0,1-.746.746m-192.3-.321a.746.746,0,0,1-.746-.746V27.933a.746.746,0,1,1,1.492,0v2.424a.747.747,0,0,1-.746.746m192.3-5.737a.746.746,0,0,1-.746-.746V22.2a.746.746,0,0,1,1.492,0V24.62a.746.746,0,0,1-.746.746m-192.087-.309c-.03,0-.061,0-.093-.006a.747.747,0,0,1-.648-.833c.1-.819.243-1.645.419-2.454a.747.747,0,0,1,1.46.318c-.167.766-.3,1.546-.4,2.321a.747.747,0,0,1-.74.654M329.3,19.31a.746.746,0,0,1-.746-.746V16.14a.746.746,0,0,1,1.492,0v2.424a.746.746,0,0,1-.746.746M138.64,19.18a.775.775,0,0,1-.257-.045.749.749,0,0,1-.445-.958c.285-.776.607-1.549.961-2.3a.746.746,0,1,1,1.349.637c-.334.707-.64,1.439-.907,2.173a.746.746,0,0,1-.7.49m2.7-5.406a.747.747,0,0,1-.625-1.152c.452-.7.939-1.376,1.451-2.024a.746.746,0,1,1,1.172.922c-.482.613-.943,1.258-1.37,1.913a.744.744,0,0,1-.627.34M329.3,13.253a.744.744,0,0,1-.746-.74c-.007-.849-.04-1.636-.1-2.366a.746.746,0,0,1,1.487-.119c.061.763.1,1.585.1,2.472a.749.749,0,0,1-.742.754ZM145.181,9.106a.746.746,0,0,1-.519-1.281c.59-.575,1.216-1.131,1.863-1.654a.747.747,0,0,1,.939,1.161c-.612.494-1.2,1.019-1.761,1.561a.744.744,0,0,1-.521.212M328.588,7.264a.743.743,0,0,1-.715-.536A8.281,8.281,0,0,0,327,4.7a.745.745,0,1,1,1.267-.785,9.614,9.614,0,0,1,1.04,2.394.748.748,0,0,1-.716.957M149.957,5.406a.746.746,0,0,1-.387-1.384c.706-.431,1.442-.834,2.182-1.2a.746.746,0,1,1,.658,1.339c-.7.345-1.4.725-2.066,1.133a.735.735,0,0,1-.388.109m5.482-2.542a.747.747,0,0,1-.236-1.455c.782-.258,1.588-.487,2.4-.678a.746.746,0,0,1,.34,1.454c-.764.179-1.524.4-2.263.642a.772.772,0,0,1-.237.037m169.532-.2a.752.752,0,0,1-.327-.075,8.844,8.844,0,0,0-2.118-.688.746.746,0,1,1,.3-1.461,10.378,10.378,0,0,1,2.471.806.747.747,0,0,1-.327,1.418M161.349,1.616a.746.746,0,0,1-.07-1.489C162.1.049,162.936.006,163.764,0a.713.713,0,0,1,.751.743.744.744,0,0,1-.742.749c-.784.006-1.575.046-2.351.121-.024,0-.048,0-.073,0m157.719-.084h-.028c-.755-.028-1.552-.039-2.394-.039a.747.747,0,0,0-1.451,0h-2.422a.746.746,0,0,1,0-1.492H315.2a.747.747,0,0,0,1.451,0c.861,0,1.679.01,2.452.04a.747.747,0,0,1-.03,1.492m-9.93-.04h-2.422a.746.746,0,0,1,0-1.492h2.422a.746.746,0,1,1,0,1.492m-6.056,0h-2.424a.746.746,0,1,1,0-1.492h2.424a.746.746,0,0,1,0,1.492m-6.057,0H294.6A.746.746,0,0,1,294.6,0h2.422a.746.746,0,1,1,0,1.492m-6.058,0h-2.422a.746.746,0,1,1,0-1.492h2.422a.746.746,0,0,1,0,1.492m-6.058,0h-2.422a.746.746,0,1,1,0-1.492h2.422a.746.746,0,0,1,0,1.492m-6.057,0h-2.422a.746.746,0,0,1,0-1.492h2.422a.746.746,0,0,1,0,1.492m-6.057,0h-2.424a.746.746,0,0,1,0-1.492H272.8a.746.746,0,1,1,0,1.492m-6.056,0h-2.422a.746.746,0,0,1,0-1.492h2.422a.746.746,0,0,1,0,1.492m-6.058,0H258.26a.746.746,0,0,1,0-1.492h2.422a.746.746,0,0,1,0,1.492m-6.058,0H252.2A.746.746,0,1,1,252.2,0h2.422a.746.746,0,1,1,0,1.492m-6.056,0h-2.422a.746.746,0,1,1,0-1.492h2.422a.746.746,0,1,1,0,1.492m-6.056,0h-2.424a.746.746,0,1,1,0-1.492h2.424a.746.746,0,1,1,0,1.492m-6.056,0h-2.422a.746.746,0,1,1,0-1.492h2.422a.746.746,0,1,1,0,1.492m-6.058,0h-2.422a.746.746,0,1,1,0-1.492H230.4a.746.746,0,1,1,0,1.492m-6.058,0h-2.422a.746.746,0,1,1,0-1.492h2.422a.746.746,0,1,1,0,1.492m-6.056,0h-2.422a.746.746,0,1,1,0-1.492h2.422a.746.746,0,1,1,0,1.492m-6.056,0H209.8A.746.746,0,1,1,209.8,0h2.424a.746.746,0,1,1,0,1.492m-6.056,0h-2.422a.746.746,0,1,1,0-1.492h2.422a.746.746,0,1,1,0,1.492m-6.058,0H197.69a.746.746,0,1,1,0-1.492h2.422a.746.746,0,1,1,0,1.492m-6.058,0h-2.422a.746.746,0,1,1,0-1.492h2.422a.746.746,0,0,1,0,1.492m-6.057,0h-2.422a.746.746,0,0,1,0-1.492H188a.746.746,0,1,1,0,1.492m-6.056,0h-2.424a.746.746,0,0,1,0-1.492h2.424a.746.746,0,1,1,0,1.492m-6.056,0h-2.424a.746.746,0,0,1,0-1.492h2.424a.746.746,0,1,1,0,1.492m-6.058,0H167.4A.746.746,0,0,1,167.4,0h2.422a.746.746,0,1,1,0,1.492" transform="translate(67.107)" fill="#4f2f1f"/>
            <path id="Trazado_227331" data-name="Trazado 227331" d="M315.815,329.525h-2.422a.746.746,0,1,1,0-1.492h2.422a.746.746,0,0,1,0,1.492m-6.058,0h-2.422a.746.746,0,0,1,0-1.492h2.422a.746.746,0,1,1,0,1.492m-6.058,0h-2.422a.746.746,0,1,1,0-1.492H303.7a.746.746,0,1,1,0,1.492m-6.056,0H295.22a.746.746,0,1,1,0-1.492h2.422a.746.746,0,1,1,0,1.492m-6.056,0h-2.424a.746.746,0,1,1,0-1.492h2.424a.746.746,0,1,1,0,1.492m-6.056,0h-2.422a.746.746,0,1,1,0-1.492h2.422a.746.746,0,1,1,0,1.492m-6.058,0h-2.422a.746.746,0,1,1,0-1.492h2.422a.746.746,0,1,1,0,1.492m-6.058,0h-2.422a.746.746,0,0,1,0-1.492h2.422a.746.746,0,1,1,0,1.492m-6.056,0h-2.422a.746.746,0,0,1,0-1.492h2.422a.746.746,0,1,1,0,1.492m-6.056,0h-2.424a.746.746,0,1,1,0-1.492H261.3a.746.746,0,1,1,0,1.492m-6.056,0h-2.422a.746.746,0,0,1,0-1.492h2.422a.746.746,0,0,1,0,1.492m-6.058,0h-2.422a.746.746,0,1,1,0-1.492h2.422a.746.746,0,1,1,0,1.492m-6.058,0h-2.422a.746.746,0,1,1,0-1.492h2.422a.746.746,0,1,1,0,1.492m-6.056,0h-2.422a.746.746,0,1,1,0-1.492h2.422a.746.746,0,1,1,0,1.492m-6.056,0h-2.424a.746.746,0,1,1,0-1.492h2.424a.746.746,0,1,1,0,1.492m-6.056,0h-2.422a.746.746,0,1,1,0-1.492h2.422a.746.746,0,1,1,0,1.492m-6.058,0h-2.422a.746.746,0,1,1,0-1.492H218.9a.746.746,0,1,1,0,1.492m-6.058,0H210.42a.746.746,0,1,1,0-1.492h2.422a.746.746,0,1,1,0,1.492m-6.056,0h-2.422a.746.746,0,1,1,0-1.492h2.422a.746.746,0,1,1,0,1.492m-6.056,0h-2.424a.746.746,0,1,1,0-1.492h2.424a.746.746,0,1,1,0,1.492m-6.057,0h-2.422a.746.746,0,1,1,0-1.492h2.422a.746.746,0,1,1,0,1.492m-6.058,0h-2.422a.746.746,0,1,1,0-1.492h2.422a.746.746,0,0,1,0,1.492m-6.058,0h-2.422a.746.746,0,1,1,0-1.492h2.422a.746.746,0,0,1,0,1.492m-6.056,0h-2.422a.746.746,0,1,1,0-1.492H176.5a.746.746,0,0,1,0,1.492m-6.056,0H168.02a.746.746,0,1,1,0-1.492h2.424a.746.746,0,0,1,0,1.492m149,0a.746.746,0,0,1-.006-1.492c.849-.007,1.634-.04,2.364-.1a.746.746,0,0,1,.119,1.487q-1.142.092-2.472.1Zm-155.061-.039h-.04c-.822-.043-1.654-.125-2.476-.243a.747.747,0,0,1-.633-.845.756.756,0,0,1,.846-.633c.778.112,1.566.19,2.342.231a.746.746,0,0,1-.039,1.491m161.051-.676a.746.746,0,0,1-.212-1.461,8.4,8.4,0,0,0,2.03-.876.746.746,0,1,1,.787,1.267,9.8,9.8,0,0,1-2.394,1.04.788.788,0,0,1-.21.03m-167.01-.321a.7.7,0,0,1-.2-.028c-.788-.224-1.582-.491-2.36-.791a.747.747,0,0,1,.539-1.394c.734.285,1.487.537,2.231.751a.746.746,0,0,1-.206,1.463m-5.586-2.307a.754.754,0,0,1-.361-.094c-.725-.4-1.44-.839-2.122-1.3a.746.746,0,1,1,.837-1.236c.645.437,1.321.851,2.007,1.231a.746.746,0,0,1-.361,1.4m177.2-.987a.743.743,0,0,1-.672-1.07,8.984,8.984,0,0,0,.685-2.121.747.747,0,1,1,1.463.3,10.478,10.478,0,0,1-.8,2.47.745.745,0,0,1-.672.421m-182.128-2.51a.745.745,0,0,1-.5-.19c-.621-.555-1.221-1.142-1.781-1.739a.747.747,0,0,1,1.091-1.021c.528.567,1.1,1.119,1.685,1.646a.746.746,0,0,1-.5,1.3m183.256-3.394h-.031a.747.747,0,0,1-.715-.776c.03-.754.04-1.551.04-2.392a.746.746,0,0,0,0-1.446v-2.424a.746.746,0,0,1,1.492,0v2.424a.746.746,0,0,0,0,1.446c0,.861-.01,1.679-.04,2.452a.747.747,0,0,1-.746.716m-187.284-1.109a.745.745,0,0,1-.609-.315c-.478-.675-.933-1.378-1.348-2.089a.746.746,0,1,1,1.288-.752c.394.673.824,1.339,1.278,1.979a.746.746,0,0,1-.609,1.178m-2.928-5.283a.747.747,0,0,1-.69-.46c-.313-.761-.6-1.549-.848-2.34a.746.746,0,1,1,1.424-.446c.234.749.506,1.494.8,2.215a.745.745,0,0,1-.69,1.031m190.253-3.534a.747.747,0,0,1-.746-.746v-2.424a.746.746,0,0,1,1.492,0v2.424a.747.747,0,0,1-.746.746M139.287,307.09a.745.745,0,0,1-.734-.622c-.137-.813-.239-1.645-.3-2.472a.746.746,0,0,1,.687-.8.72.72,0,0,1,.8.687c.061.782.157,1.567.287,2.337a.747.747,0,0,1-.612.86.722.722,0,0,1-.125.01m191.921-3.785a.746.746,0,0,1-.746-.746v-2.422a.746.746,0,0,1,1.492,0v2.422a.746.746,0,0,1-.746.746m-192.3-2.249a.747.747,0,0,1-.746-.746v-2.424a.746.746,0,1,1,1.492,0v2.424a.746.746,0,0,1-.746.746m192.3-3.807a.746.746,0,0,1-.746-.746V294.08a.746.746,0,1,1,1.492,0V296.5a.746.746,0,0,1-.746.746M138.912,295a.747.747,0,0,1-.746-.746v-2.424a.746.746,0,1,1,1.492,0v2.424a.746.746,0,0,1-.746.746m192.3-3.807a.746.746,0,0,1-.746-.746v-2.422a.746.746,0,1,1,1.492,0v2.422a.746.746,0,0,1-.746.746m-192.3-2.251a.746.746,0,0,1-.746-.746v-2.422a.746.746,0,0,1,1.492,0v2.422a.745.745,0,0,1-.746.746m192.3-3.8a.746.746,0,0,1-.746-.746v-2.424a.746.746,0,0,1,1.492,0v2.424a.746.746,0,0,1-.746.746m-192.3-2.252a.747.747,0,0,1-.746-.746v-2.422a.746.746,0,0,1,1.492,0v2.422a.746.746,0,0,1-.746.746m192.3-3.806a.747.747,0,0,1-.746-.746v-2.424a.746.746,0,1,1,1.492,0v2.424a.747.747,0,0,1-.746.746m-192.3-2.252a.746.746,0,0,1-.746-.746v-2.422a.746.746,0,0,1,1.492,0v2.422a.745.745,0,0,1-.746.746m192.3-3.806a.746.746,0,0,1-.746-.746v-2.422a.746.746,0,0,1,1.492,0v2.422a.746.746,0,0,1-.746.746m-192.3-2.249a.747.747,0,0,1-.746-.746V267.6a.746.746,0,0,1,1.492,0v2.424a.746.746,0,0,1-.746.746m192.3-3.807a.747.747,0,0,1-.746-.746v-2.422a.746.746,0,1,1,1.492,0v2.422a.747.747,0,0,1-.746.746m-192.3-2.251a.747.747,0,0,1-.746-.746v-2.424a.746.746,0,0,1,1.492,0v2.424a.746.746,0,0,1-.746.746m192.3-3.807a.746.746,0,0,1-.746-.746v-2.422a.746.746,0,1,1,1.492,0v2.422a.746.746,0,0,1-.746.746m-192.3-2.251a.746.746,0,0,1-.746-.746v-2.422a.746.746,0,0,1,1.492,0v2.422a.745.745,0,0,1-.746.746m192.3-3.8a.747.747,0,0,1-.746-.746V251.68a.746.746,0,0,1,1.492,0V254.1a.747.747,0,0,1-.746.746m-192.3-2.252a.747.747,0,0,1-.746-.746V249.43a.746.746,0,0,1,1.492,0v2.422a.746.746,0,0,1-.746.746m192.3-3.806a.746.746,0,0,1-.746-.746v-2.424a.746.746,0,0,1,1.492,0v2.424a.746.746,0,0,1-.746.746m-192.3-2.252a.746.746,0,0,1-.746-.746v-2.422a.746.746,0,0,1,1.492,0v2.422a.745.745,0,0,1-.746.746m192.3-3.806a.746.746,0,0,1-.746-.746v-2.422a.746.746,0,0,1,1.492,0v2.422a.746.746,0,0,1-.746.746m-192.3-2.249a.747.747,0,0,1-.746-.746v-2.424a.746.746,0,0,1,1.492,0v2.424a.746.746,0,0,1-.746.746m192.3-3.807a.747.747,0,0,1-.746-.746v-2.422a.746.746,0,0,1,1.492,0v2.422a.747.747,0,0,1-.746.746m-192.3-2.251a.747.747,0,0,1-.746-.746v-2.424a.746.746,0,0,1,1.492,0v2.424a.746.746,0,0,1-.746.746m192.3-3.807a.746.746,0,0,1-.746-.746v-2.422a.746.746,0,0,1,1.492,0v2.422a.746.746,0,0,1-.746.746m-192.3-2.251a.746.746,0,0,1-.746-.746V225.2a.746.746,0,0,1,1.492,0v2.422a.745.745,0,0,1-.746.746m192.3-3.8a.747.747,0,0,1-.746-.746V221.4a.746.746,0,0,1,1.492,0v2.424a.747.747,0,0,1-.746.746m-192.3-2.252a.746.746,0,0,1-.746-.746v-2.422a.746.746,0,0,1,1.492,0v2.422a.746.746,0,0,1-.746.746m192.3-3.806a.747.747,0,0,1-.746-.746v-2.424a.746.746,0,0,1,1.492,0v2.424a.747.747,0,0,1-.746.746m-192.3-2.252a.746.746,0,0,1-.746-.746v-2.422a.746.746,0,0,1,1.492,0v2.422a.745.745,0,0,1-.746.746m192.3-3.806a.746.746,0,0,1-.746-.746v-2.422a.746.746,0,0,1,1.492,0V211.7a.746.746,0,0,1-.746.746m-192.3-2.251a.747.747,0,0,1-.746-.746V207.03a.746.746,0,0,1,1.492,0v2.422a.746.746,0,0,1-.746.746m192.3-3.806a.747.747,0,0,1-.746-.746v-2.422a.746.746,0,1,1,1.492,0v2.422a.747.747,0,0,1-.746.746m-192.3-2.251a.747.747,0,0,1-.746-.746v-2.424a.746.746,0,0,1,1.492,0V203.4a.746.746,0,0,1-.746.746m192.3-3.807a.746.746,0,0,1-.746-.746v-2.422a.746.746,0,0,1,1.492,0v2.422a.746.746,0,0,1-.746.746m-192.3-2.251a.746.746,0,0,1-.746-.746v-2.422a.746.746,0,0,1,1.492,0v2.422a.745.745,0,0,1-.746.746m192.3-3.8a.747.747,0,0,1-.746-.746V191.11a.746.746,0,1,1,1.492,0v2.424a.747.747,0,0,1-.746.746m-192.3-2.252a.747.747,0,0,1-.746-.746v-2.422a.746.746,0,0,1,1.492,0v2.422a.746.746,0,0,1-.746.746m192.3-3.806a.747.747,0,0,1-.746-.746v-2.424a.746.746,0,1,1,1.492,0v2.424a.747.747,0,0,1-.746.746m-192.3-2.252a.746.746,0,0,1-.746-.746V182.8a.746.746,0,0,1,1.492,0v2.422a.745.745,0,0,1-.746.746m192.3-3.806a.746.746,0,0,1-.746-.746V179a.746.746,0,0,1,1.492,0v2.422a.746.746,0,0,1-.746.746m-192.3-2.251a.747.747,0,0,1-.746-.746v-2.422a.746.746,0,0,1,1.492,0v2.422a.746.746,0,0,1-.746.746m192.3-3.806a.747.747,0,0,1-.746-.746v-2.422a.746.746,0,1,1,1.492,0v2.422a.747.747,0,0,1-.746.746m-192.3-2.251a.747.747,0,0,1-.746-.746v-2.424a.746.746,0,0,1,1.492,0v2.424a.746.746,0,0,1-.746.746m192.3-3.807a.746.746,0,0,1-.746-.746v-2.422a.746.746,0,1,1,1.492,0V169.3a.746.746,0,0,1-.746.746m-192.3-2.251a.746.746,0,0,1-.746-.746V164.63a.746.746,0,0,1,1.492,0v2.422a.745.745,0,0,1-.746.746m192.3-3.806a.747.747,0,0,1-.746-.739c-.007-.8-.048-1.588-.121-2.355a.748.748,0,0,1,.673-.813.764.764,0,0,1,.813.673c.076.807.119,1.643.127,2.482a.745.745,0,0,1-.739.752Zm-192.188-2.246-.067,0a.748.748,0,0,1-.678-.81c.075-.83.187-1.66.334-2.466a.746.746,0,0,1,1.467.267c-.139.761-.245,1.546-.313,2.331a.747.747,0,0,1-.743.681M330.5,157.993a.745.745,0,0,1-.725-.576c-.181-.766-.4-1.528-.643-2.266a.747.747,0,0,1,1.418-.47c.258.779.487,1.584.678,2.394a.746.746,0,0,1-.554.9.773.773,0,0,1-.173.021M140.23,155.826a.771.771,0,0,1-.231-.036.748.748,0,0,1-.479-.942c.254-.781.549-1.564.878-2.33a.746.746,0,1,1,1.372.588c-.31.724-.59,1.466-.83,2.2a.747.747,0,0,1-.709.515m188.23-3.521a.749.749,0,0,1-.67-.418c-.343-.7-.724-1.392-1.131-2.064a.746.746,0,1,1,1.275-.776c.431.71.833,1.443,1.2,2.182a.748.748,0,0,1-.67,1.076m-185.723-1.979a.745.745,0,0,1-.64-1.13c.422-.7.885-1.4,1.375-2.073a.747.747,0,0,1,1.207.879c-.466.637-.9,1.3-1.3,1.963a.743.743,0,0,1-.639.361m182.468-3.112a.744.744,0,0,1-.581-.276c-.491-.606-1.018-1.2-1.563-1.761a.746.746,0,1,1,1.07-1.039c.576.593,1.133,1.219,1.652,1.86a.747.747,0,0,1-.11,1.051.738.738,0,0,1-.469.166m-178.8-1.69a.747.747,0,0,1-.54-1.263c.572-.6,1.178-1.175,1.8-1.718a.746.746,0,0,1,.981,1.125c-.59.513-1.163,1.06-1.7,1.624a.743.743,0,0,1-.539.231M320.9,142.974a.743.743,0,0,1-.46-.158c-.622-.487-1.267-.949-1.918-1.372a.746.746,0,0,1,.813-1.251c.687.446,1.367.933,2.022,1.446a.746.746,0,0,1-.458,1.334m-169.849-1.316a.746.746,0,0,1-.409-1.37c.69-.454,1.407-.882,2.134-1.275a.747.747,0,0,1,.709,1.315c-.69.37-1.37.776-2.025,1.206a.734.734,0,0,1-.409.124M315.758,139.8a.731.731,0,0,1-.318-.072c-.709-.336-1.44-.642-2.173-.909a.746.746,0,0,1,.512-1.4c.776.282,1.549.606,2.3.961a.746.746,0,0,1-.319,1.421m-159.324-.876a.746.746,0,0,1-.26-1.445c.776-.291,1.573-.548,2.369-.764a.74.74,0,0,1,.916.524.748.748,0,0,1-.524.916c-.752.2-1.506.446-2.24.722a.753.753,0,0,1-.261.046m153.6-1.072a.728.728,0,0,1-.16-.018c-.766-.166-1.545-.3-2.321-.4a.746.746,0,0,1,.187-1.481c.819.1,1.645.243,2.452.419a.747.747,0,0,1-.158,1.476M162.3,137.461a.746.746,0,0,1-.1-1.485c.815-.109,1.648-.181,2.478-.215a.707.707,0,0,1,.778.713.748.748,0,0,1-.713.778c-.785.033-1.576.1-2.346.2a.748.748,0,0,1-.1.006m141.726-.231H301.6a.746.746,0,0,1,0-1.492h2.422a.746.746,0,1,1,0,1.492m-6.057,0h-2.422a.746.746,0,1,1,0-1.492h2.422a.746.746,0,1,1,0,1.492m-6.058,0h-2.422a.746.746,0,1,1,0-1.492h2.422a.746.746,0,1,1,0,1.492m-6.058,0h-2.422a.746.746,0,1,1,0-1.492h2.422a.746.746,0,0,1,0,1.492m-6.055,0h-2.424a.746.746,0,1,1,0-1.492H279.8a.746.746,0,0,1,0,1.492m-6.058,0h-2.422a.746.746,0,0,1,0-1.492h2.422a.746.746,0,0,1,0,1.492m-6.056,0h-2.422a.746.746,0,0,1,0-1.492h2.422a.746.746,0,0,1,0,1.492m-6.058,0H259.2a.746.746,0,0,1,0-1.492h2.422a.746.746,0,0,1,0,1.492m-6.058,0h-2.422a.746.746,0,1,1,0-1.492h2.422a.746.746,0,0,1,0,1.492m-6.055,0h-2.424a.746.746,0,1,1,0-1.492h2.424a.746.746,0,0,1,0,1.492m-6.058,0h-2.422a.746.746,0,0,1,0-1.492h2.422a.746.746,0,0,1,0,1.492m-6.057,0h-2.422a.746.746,0,1,1,0-1.492H237.4a.746.746,0,0,1,0,1.492m-6.058,0h-2.422a.746.746,0,1,1,0-1.492h2.422a.746.746,0,0,1,0,1.492m-6.058,0h-2.422a.746.746,0,0,1,0-1.492h2.422a.746.746,0,0,1,0,1.492m-6.055,0H216.8a.746.746,0,0,1,0-1.492h2.424a.746.746,0,0,1,0,1.492m-6.058,0h-2.422a.746.746,0,0,1,0-1.492h2.422a.746.746,0,0,1,0,1.492m-6.056,0h-2.422a.746.746,0,1,1,0-1.492h2.422a.746.746,0,0,1,0,1.492m-6.058,0h-2.422a.746.746,0,1,1,0-1.492h2.422a.746.746,0,1,1,0,1.492m-6.058,0h-2.422a.746.746,0,0,1,0-1.492h2.422a.746.746,0,0,1,0,1.492m-6.055,0h-2.424a.746.746,0,1,1,0-1.492h2.424a.746.746,0,1,1,0,1.492m-6.058,0h-2.422a.746.746,0,1,1,0-1.492h2.422a.746.746,0,0,1,0,1.492m-6.057,0H174.4a.746.746,0,1,1,0-1.492h2.422a.746.746,0,0,1,0,1.492m-6.058,0h-2.422a.746.746,0,1,1,0-1.492h2.422a.746.746,0,0,1,0,1.492" transform="translate(68.044 66.848)" fill="#4f2f1f"/>
            <path id="Trazado_227332" data-name="Trazado 227332" d="M163.933,328.874H161.51a.746.746,0,0,1,0-1.492h2.422a.746.746,0,1,1,0,1.492m-6.056,0h-2.424a.746.746,0,0,1,0-1.492h2.424a.746.746,0,0,1,0,1.492m-6.058,0H149.4a.746.746,0,0,1,0-1.492h2.422a.746.746,0,0,1,0,1.492m-6.056,0h-2.422a.746.746,0,1,1,0-1.492h2.422a.746.746,0,0,1,0,1.492m-6.056,0h-2.424a.746.746,0,1,1,0-1.492h2.424a.746.746,0,0,1,0,1.492m-6.058,0h-2.422a.746.746,0,0,1,0-1.492h2.422a.746.746,0,0,1,0,1.492m-6.056,0h-2.424a.746.746,0,0,1,0-1.492h2.424a.746.746,0,0,1,0,1.492m-6.058,0H119.11a.746.746,0,0,1,0-1.492h2.422a.746.746,0,0,1,0,1.492m-6.056,0h-2.422a.746.746,0,0,1,0-1.492h2.422a.746.746,0,0,1,0,1.492m-6.056,0H107a.746.746,0,0,1,0-1.492h2.424a.746.746,0,0,1,0,1.492m-6.058,0H100.94a.746.746,0,0,1,0-1.492h2.422a.746.746,0,0,1,0,1.492m-6.056,0H94.882a.746.746,0,1,1,0-1.492h2.424a.746.746,0,0,1,0,1.492m-6.058,0H88.825a.746.746,0,1,1,0-1.492h2.422a.746.746,0,1,1,0,1.492m-6.056,0H82.769a.746.746,0,1,1,0-1.492h2.422a.746.746,0,1,1,0,1.492m-6.056,0H76.711a.746.746,0,0,1,0-1.492h2.424a.746.746,0,0,1,0,1.492m-6.058,0H70.654a.746.746,0,0,1,0-1.492h2.422a.746.746,0,0,1,0,1.492m-6.056,0H64.6a.746.746,0,0,1,0-1.492H67.02a.746.746,0,1,1,0,1.492m-6.058,0H58.54a.746.746,0,0,1,0-1.492h2.422a.746.746,0,0,1,0,1.492m-6.056,0H52.483a.746.746,0,0,1,0-1.492h2.422a.746.746,0,0,1,0,1.492m-6.056,0H46.425a.746.746,0,0,1,0-1.492h2.424a.746.746,0,0,1,0,1.492m-6.058,0H40.369a.746.746,0,0,1,0-1.492h2.422a.746.746,0,0,1,0,1.492m-6.056,0H34.311a.746.746,0,0,1,0-1.492h2.424a.746.746,0,0,1,0,1.492m-6.058,0H28.254a.746.746,0,0,1,0-1.492h2.422a.746.746,0,0,1,0,1.492m-6.056,0H22.2a.746.746,0,0,1,0-1.492H24.62a.746.746,0,0,1,0,1.492m-6.056,0H16.14a.746.746,0,0,1,0-1.492h2.424a.746.746,0,0,1,0,1.492m-6.058,0H12.5c-.888-.007-1.71-.043-2.473-.1a.746.746,0,0,1,.119-1.487c.73.058,1.516.091,2.366.1a.746.746,0,0,1-.006,1.492m155.06-.039a.746.746,0,0,1-.039-1.491c.778-.042,1.566-.119,2.345-.231a.755.755,0,0,1,.843.633.746.746,0,0,1-.633.845c-.821.118-1.654.2-2.476.243h-.04M6.518,328.158a.787.787,0,0,1-.21-.03,9.561,9.561,0,0,1-2.394-1.04.745.745,0,1,1,.785-1.267,8.224,8.224,0,0,0,2.03.876.746.746,0,0,1-.21,1.461m167.007-.321a.745.745,0,0,1-.2-1.463c.749-.215,1.5-.467,2.231-.749a.746.746,0,1,1,.539,1.391c-.775.3-1.569.567-2.361.793a.683.683,0,0,1-.2.028m5.586-2.306a.746.746,0,0,1-.361-1.4c.684-.378,1.358-.793,2.007-1.231a.746.746,0,1,1,.837,1.236c-.687.464-1.4.9-2.122,1.3a.754.754,0,0,1-.361.094M1.919,324.543a.744.744,0,0,1-.672-.419,10.266,10.266,0,0,1-.807-2.472.747.747,0,1,1,1.463-.3,8.814,8.814,0,0,0,.687,2.119.745.745,0,0,1-.67,1.072m182.122-2.509a.746.746,0,0,1-.5-1.3c.587-.524,1.154-1.078,1.685-1.646a.747.747,0,0,1,1.09,1.021c-.561.6-1.161,1.187-1.781,1.739a.743.743,0,0,1-.5.19M.785,318.639a.745.745,0,0,1-.745-.716c-.031-.773-.04-1.591-.04-2.452a.746.746,0,0,0,0-1.448V311.6a.746.746,0,0,1,1.492,0v2.422a.746.746,0,0,0,0,1.448c0,.842.009,1.639.039,2.394a.745.745,0,0,1-.716.775Zm187.286-1.109a.738.738,0,0,1-.431-.139.746.746,0,0,1-.176-1.04c.454-.639.884-1.3,1.278-1.978a.746.746,0,1,1,1.288.752c-.415.71-.87,1.415-1.349,2.091a.747.747,0,0,1-.609.313M191,312.247a.778.778,0,0,1-.287-.057.747.747,0,0,1-.4-.975c.3-.718.569-1.463.8-2.213a.747.747,0,0,1,1.425.446c-.248.793-.534,1.581-.849,2.339a.747.747,0,0,1-.69.46M.746,308.711A.746.746,0,0,1,0,307.965v-2.422a.746.746,0,1,1,1.492,0v2.422a.747.747,0,0,1-.746.746m191.921-2.27a.707.707,0,0,1-.124-.01.747.747,0,0,1-.612-.86c.128-.767.225-1.554.287-2.339a.746.746,0,0,1,1.488.116c-.066.828-.167,1.66-.3,2.47a.747.747,0,0,1-.736.622M.746,302.653A.745.745,0,0,1,0,301.907v-2.422a.746.746,0,1,1,1.492,0v2.422a.746.746,0,0,1-.746.746m192.3-2.248a.747.747,0,0,1-.746-.746v-2.422a.746.746,0,1,1,1.492,0v2.422a.747.747,0,0,1-.746.746M.746,296.6A.746.746,0,0,1,0,295.852v-2.424a.746.746,0,1,1,1.492,0v2.424a.747.747,0,0,1-.746.746m192.3-2.251a.746.746,0,0,1-.746-.746v-2.422a.746.746,0,1,1,1.492,0V293.6a.746.746,0,0,1-.746.746M.746,290.54A.745.745,0,0,1,0,289.794v-2.422a.746.746,0,1,1,1.492,0v2.422a.746.746,0,0,1-.746.746m192.3-2.249a.746.746,0,0,1-.746-.746v-2.424a.746.746,0,1,1,1.492,0v2.424a.746.746,0,0,1-.746.746M.746,284.483A.746.746,0,0,1,0,283.737v-2.422a.746.746,0,1,1,1.492,0v2.422a.747.747,0,0,1-.746.746m192.3-2.249a.746.746,0,0,1-.746-.746v-2.424a.746.746,0,0,1,1.492,0v2.424a.746.746,0,0,1-.746.746M.746,278.425A.746.746,0,0,1,0,277.679v-2.422a.746.746,0,0,1,1.492,0v2.422a.747.747,0,0,1-.746.746m192.3-2.249a.746.746,0,0,1-.746-.746v-2.422a.746.746,0,0,1,1.492,0v2.422a.746.746,0,0,1-.746.746M.746,272.367A.745.745,0,0,1,0,271.621V269.2a.746.746,0,1,1,1.492,0v2.422a.746.746,0,0,1-.746.746m192.3-2.248a.747.747,0,0,1-.746-.746v-2.422a.746.746,0,0,1,1.492,0v2.422a.747.747,0,0,1-.746.746M.746,266.312A.746.746,0,0,1,0,265.566v-2.424a.746.746,0,1,1,1.492,0v2.424a.747.747,0,0,1-.746.746m192.3-2.251a.747.747,0,0,1-.746-.746v-2.422a.746.746,0,1,1,1.492,0v2.422a.747.747,0,0,1-.746.746M.746,260.254A.745.745,0,0,1,0,259.508v-2.422a.746.746,0,1,1,1.492,0v2.422a.746.746,0,0,1-.746.746m192.3-2.249a.746.746,0,0,1-.746-.746v-2.424a.746.746,0,1,1,1.492,0v2.424a.746.746,0,0,1-.746.746M.746,254.2A.746.746,0,0,1,0,253.452v-2.422a.746.746,0,1,1,1.492,0v2.422a.747.747,0,0,1-.746.746m192.3-2.249a.747.747,0,0,1-.746-.746v-2.424a.746.746,0,1,1,1.492,0V251.2a.747.747,0,0,1-.746.746M.746,248.14A.746.746,0,0,1,0,247.394v-2.422a.746.746,0,1,1,1.492,0v2.422a.747.747,0,0,1-.746.746m192.3-2.249a.746.746,0,0,1-.746-.746v-2.422a.746.746,0,1,1,1.492,0v2.422a.746.746,0,0,1-.746.746M.746,242.082A.745.745,0,0,1,0,241.336v-2.422a.746.746,0,1,1,1.492,0v2.422a.746.746,0,0,1-.746.746m192.3-2.248a.747.747,0,0,1-.746-.746v-2.422a.746.746,0,1,1,1.492,0v2.422a.747.747,0,0,1-.746.746M.746,236.027A.746.746,0,0,1,0,235.281v-2.424a.746.746,0,1,1,1.492,0v2.424a.746.746,0,0,1-.746.746m192.3-2.251a.747.747,0,0,1-.746-.746v-2.422a.746.746,0,1,1,1.492,0v2.422a.747.747,0,0,1-.746.746M.746,229.969A.745.745,0,0,1,0,229.223V226.8a.746.746,0,1,1,1.492,0v2.422a.746.746,0,0,1-.746.746m192.3-2.249a.746.746,0,0,1-.746-.746V224.55a.746.746,0,1,1,1.492,0v2.424a.746.746,0,0,1-.746.746M.746,223.913A.746.746,0,0,1,0,223.166v-2.422a.746.746,0,1,1,1.492,0v2.422a.747.747,0,0,1-.746.746m192.3-2.249a.747.747,0,0,1-.746-.746v-2.424a.746.746,0,1,1,1.492,0v2.424a.747.747,0,0,1-.746.746M.746,217.855A.746.746,0,0,1,0,217.108v-2.422a.746.746,0,1,1,1.492,0v2.422a.747.747,0,0,1-.746.746m192.3-2.249a.746.746,0,0,1-.746-.746v-2.422a.746.746,0,1,1,1.492,0v2.422a.746.746,0,0,1-.746.746M.746,211.8A.745.745,0,0,1,0,211.05v-2.422a.746.746,0,1,1,1.492,0v2.422a.746.746,0,0,1-.746.746m192.3-2.248a.747.747,0,0,1-.746-.746V206.38a.746.746,0,1,1,1.492,0V208.8a.747.747,0,0,1-.746.746M.746,205.742A.746.746,0,0,1,0,205v-2.424a.746.746,0,1,1,1.492,0V205a.747.747,0,0,1-.746.746m192.3-2.251a.747.747,0,0,1-.746-.746v-2.422a.746.746,0,0,1,1.492,0v2.422a.747.747,0,0,1-.746.746M.746,199.684A.745.745,0,0,1,0,198.937v-2.422a.746.746,0,1,1,1.492,0v2.422a.746.746,0,0,1-.746.746m192.3-2.249a.746.746,0,0,1-.746-.746v-2.424a.746.746,0,1,1,1.492,0v2.424a.746.746,0,0,1-.746.746M.746,193.627A.746.746,0,0,1,0,192.881v-2.422a.746.746,0,1,1,1.492,0v2.422a.746.746,0,0,1-.746.746m192.3-2.249a.746.746,0,0,1-.746-.746v-2.424a.746.746,0,0,1,1.492,0v2.424a.746.746,0,0,1-.746.746M.746,187.569A.746.746,0,0,1,0,186.823V184.4a.746.746,0,0,1,1.492,0v2.422a.747.747,0,0,1-.746.746m192.3-2.249a.746.746,0,0,1-.746-.746v-2.422a.746.746,0,0,1,1.492,0v2.422a.746.746,0,0,1-.746.746M.746,181.511A.745.745,0,0,1,0,180.765v-2.422a.746.746,0,1,1,1.492,0v2.422a.746.746,0,0,1-.746.746m192.3-2.248a.747.747,0,0,1-.746-.746v-2.422a.746.746,0,0,1,1.492,0v2.422a.747.747,0,0,1-.746.746M.746,175.456A.746.746,0,0,1,0,174.71v-2.424a.746.746,0,1,1,1.492,0v2.424a.746.746,0,0,1-.746.746m192.3-2.251a.747.747,0,0,1-.746-.746v-2.422a.746.746,0,1,1,1.492,0v2.422a.747.747,0,0,1-.746.746M.746,169.4A.745.745,0,0,1,0,168.652V166.23a.746.746,0,1,1,1.492,0v2.422a.746.746,0,0,1-.746.746m192.3-2.251a.746.746,0,0,1-.746-.746v-2.422a.746.746,0,1,1,1.492,0V166.4a.746.746,0,0,1-.746.746M.748,163.34h0A.746.746,0,0,1,0,162.589c0-.825.046-1.661.125-2.484a.746.746,0,1,1,1.485.14c-.073.779-.113,1.572-.118,2.352a.747.747,0,0,1-.746.742M192.933,161.1a.746.746,0,0,1-.742-.679c-.07-.784-.176-1.569-.315-2.333a.747.747,0,0,1,1.47-.267c.146.81.257,1.64.331,2.467a.746.746,0,0,1-.678.809.5.5,0,0,1-.067,0M1.458,157.342a.76.76,0,0,1-.172-.021.745.745,0,0,1-.555-.9c.19-.807.418-1.612.678-2.394a.746.746,0,0,1,1.416.47c-.246.74-.461,1.5-.64,2.266a.749.749,0,0,1-.727.576m190.268-2.166a.747.747,0,0,1-.71-.516c-.242-.742-.521-1.484-.828-2.2a.746.746,0,1,1,1.372-.588c.327.76.621,1.545.876,2.331a.746.746,0,0,1-.479.94.768.768,0,0,1-.23.036M3.492,151.653a.759.759,0,0,1-.328-.076.747.747,0,0,1-.34-1c.364-.74.767-1.475,1.2-2.182a.747.747,0,1,1,1.275.778c-.406.669-.788,1.363-1.133,2.064a.744.744,0,0,1-.67.416m185.726-1.978a.743.743,0,0,1-.64-.361c-.4-.67-.84-1.33-1.3-1.963a.747.747,0,0,1,1.206-.881c.487.669.949,1.366,1.375,2.075a.745.745,0,0,1-.639,1.13M6.75,146.563a.745.745,0,0,1-.579-1.216c.519-.64,1.076-1.267,1.651-1.86a.746.746,0,1,1,1.072,1.039c-.545.563-1.072,1.155-1.564,1.761a.741.741,0,0,1-.579.276m178.8-1.689a.744.744,0,0,1-.537-.23c-.54-.563-1.113-1.109-1.706-1.625a.746.746,0,1,1,.982-1.124c.625.545,1.231,1.122,1.8,1.716a.745.745,0,0,1-.539,1.263M11.058,142.323a.747.747,0,0,1-.461-1.334c.652-.512,1.333-1,2.024-1.448a.747.747,0,0,1,.813,1.252c-.654.424-1.3.885-1.916,1.37a.739.739,0,0,1-.46.16m169.847-1.316a.742.742,0,0,1-.41-.124c-.654-.43-1.334-.836-2.021-1.2a.746.746,0,0,1,.7-1.315c.728.39,1.446.818,2.137,1.273a.746.746,0,0,1-.41,1.37M16.2,139.144a.746.746,0,0,1-.319-1.421c.748-.354,1.521-.676,2.3-.96a.746.746,0,0,1,.513,1.4c-.736.269-1.466.573-2.173.907a.736.736,0,0,1-.318.072m159.321-.873a.765.765,0,0,1-.261-.046c-.736-.275-1.489-.518-2.24-.722a.746.746,0,1,1,.393-1.44c.794.216,1.591.473,2.37.764a.746.746,0,0,1-.261,1.445M21.922,137.2a.747.747,0,0,1-.158-1.476c.809-.176,1.634-.318,2.452-.419a.746.746,0,0,1,.187,1.481c-.775.1-1.555.231-2.321.4a.738.738,0,0,1-.16.018m147.736-.387a.731.731,0,0,1-.1-.006c-.77-.1-1.56-.17-2.346-.2a.746.746,0,0,1,.063-1.491c.83.034,1.664.106,2.479.215a.746.746,0,0,1-.1,1.485m-6.046-.233h-2.424a.746.746,0,0,1,0-1.492h2.424a.746.746,0,1,1,0,1.492m-6.058,0h-2.422a.746.746,0,1,1,0-1.492h2.422a.746.746,0,1,1,0,1.492m-6.056,0h-2.424a.746.746,0,0,1,0-1.492H151.5a.746.746,0,1,1,0,1.492m-6.058,0h-2.422a.746.746,0,1,1,0-1.492h2.422a.746.746,0,0,1,0,1.492m-6.056,0h-2.422a.746.746,0,0,1,0-1.492h2.422a.746.746,0,0,1,0,1.492m-6.056,0H130.9a.746.746,0,0,1,0-1.492h2.424a.746.746,0,0,1,0,1.492m-6.058,0h-2.422a.746.746,0,0,1,0-1.492h2.422a.746.746,0,0,1,0,1.492m-6.057,0h-2.424a.746.746,0,0,1,0-1.492h2.424a.746.746,0,1,1,0,1.492m-6.058,0h-2.422a.746.746,0,0,1,0-1.492h2.422a.746.746,0,0,1,0,1.492m-6.056,0h-2.422a.746.746,0,0,1,0-1.492H109.1a.746.746,0,0,1,0,1.492m-6.056,0h-2.424a.746.746,0,1,1,0-1.492h2.424a.746.746,0,0,1,0,1.492m-6.058,0H94.561a.746.746,0,0,1,0-1.492h2.422a.746.746,0,1,1,0,1.492m-6.056,0H88.5a.746.746,0,0,1,0-1.492h2.424a.746.746,0,1,1,0,1.492m-6.058,0H82.446a.746.746,0,0,1,0-1.492h2.422a.746.746,0,0,1,0,1.492m-6.056,0H76.39a.746.746,0,0,1,0-1.492h2.422a.746.746,0,0,1,0,1.492m-6.056,0H70.332a.746.746,0,0,1,0-1.492h2.424a.746.746,0,0,1,0,1.492m-6.058,0H64.275a.746.746,0,0,1,0-1.492H66.7a.746.746,0,0,1,0,1.492m-6.056,0H58.217a.746.746,0,0,1,0-1.492h2.424a.746.746,0,0,1,0,1.492m-6.058,0H52.161a.746.746,0,0,1,0-1.492h2.422a.746.746,0,0,1,0,1.492m-6.056,0H46.1a.746.746,0,0,1,0-1.492h2.422a.746.746,0,0,1,0,1.492m-6.056,0H40.046a.746.746,0,0,1,0-1.492H42.47a.746.746,0,0,1,0,1.492m-6.058,0H33.99a.746.746,0,0,1,0-1.492h2.422a.746.746,0,0,1,0,1.492m-6.056,0H27.932a.746.746,0,0,1,0-1.492h2.424a.746.746,0,0,1,0,1.492" transform="translate(0 66.527)" fill="#4f2f1f"/>
            <path id="Trazado_227333" data-name="Trazado 227333" d="M316.789,299.751c0,7.45-.918,11.123-10.613,11.123H171.468A23.676,23.676,0,0,1,147.791,287.2V165.553a23.676,23.676,0,0,1,23.677-23.677H293.114a23.676,23.676,0,0,1,23.675,23.677Z" transform="translate(72.784 69.871)" fill="#d4bb88"/>
            <path id="Trazado_227334" data-name="Trazado 227334" d="M8.3,301.266c0,7.45.918,11.123,10.613,11.123h134.71A23.673,23.673,0,0,0,177.3,288.712V167.066a23.673,23.673,0,0,0-23.675-23.675H31.981A23.677,23.677,0,0,0,8.3,167.066Z" transform="translate(4.09 70.617)" fill="#ffc52b"/>
            <path id="Trazado_227335" data-name="Trazado 227335" d="M165.31,194.333h-2.422a.746.746,0,1,1,0-1.492h2.422a.746.746,0,1,1,0,1.492m-6.056,0H156.83a.746.746,0,1,1,0-1.492h2.424a.746.746,0,1,1,0,1.492m-6.058,0h-2.422a.746.746,0,1,1,0-1.492H153.2a.746.746,0,0,1,0,1.492m-6.056,0h-2.424a.746.746,0,0,1,0-1.492h2.424a.746.746,0,0,1,0,1.492m-6.058,0h-2.422a.746.746,0,0,1,0-1.492h2.422a.746.746,0,1,1,0,1.492m-6.056,0H132.6a.746.746,0,0,1,0-1.492h2.422a.746.746,0,1,1,0,1.492m-6.056,0h-2.424a.746.746,0,1,1,0-1.492h2.424a.746.746,0,1,1,0,1.492m-6.058,0h-2.422a.746.746,0,1,1,0-1.492h2.422a.746.746,0,1,1,0,1.492m-6.056,0H114.43a.746.746,0,1,1,0-1.492h2.424a.746.746,0,1,1,0,1.492m-6.058,0h-2.422a.746.746,0,1,1,0-1.492H110.8a.746.746,0,1,1,0,1.492m-6.056,0h-2.422a.746.746,0,1,1,0-1.492h2.422a.746.746,0,1,1,0,1.492m-6.056,0H96.259a.746.746,0,1,1,0-1.492h2.424a.746.746,0,1,1,0,1.492m-6.058,0H90.2a.746.746,0,1,1,0-1.492h2.422a.746.746,0,1,1,0,1.492m-6.056,0H84.145a.746.746,0,1,1,0-1.492h2.424a.746.746,0,1,1,0,1.492m-6.058,0H78.088a.746.746,0,1,1,0-1.492h2.422a.746.746,0,1,1,0,1.492m-6.056,0H72.032a.746.746,0,1,1,0-1.492h2.422a.746.746,0,1,1,0,1.492m-6.056,0H65.974a.746.746,0,1,1,0-1.492H68.4a.746.746,0,1,1,0,1.492m-6.058,0H59.917a.746.746,0,1,1,0-1.492H62.34a.746.746,0,1,1,0,1.492m-6.056,0H53.859a.746.746,0,1,1,0-1.492h2.424a.746.746,0,1,1,0,1.492m-6.058,0H47.8a.746.746,0,1,1,0-1.492h2.422a.746.746,0,1,1,0,1.492m-6.056,0H41.746a.746.746,0,1,1,0-1.492h2.422a.746.746,0,1,1,0,1.492m-6.056,0H35.688a.746.746,0,1,1,0-1.492h2.424a.746.746,0,1,1,0,1.492m-6.058,0H29.632a.746.746,0,1,1,0-1.492h2.422a.746.746,0,1,1,0,1.492M26,194.253l-.057,0c-.821-.063-1.652-.164-2.47-.3a.746.746,0,1,1,.248-1.472c.775.131,1.56.227,2.336.287A.747.747,0,0,1,26,194.253m142.938-.027a.746.746,0,0,1-.066-1.489c.782-.069,1.569-.175,2.334-.313a.746.746,0,1,1,.266,1.469c-.81.148-1.64.258-2.467.333h-.067M20.067,193.112a.726.726,0,0,1-.222-.034c-.793-.248-1.579-.531-2.339-.848a.746.746,0,0,1,.572-1.379c.719.3,1.463.569,2.213.8a.746.746,0,0,1-.224,1.458m154.794-.094a.747.747,0,0,1-.23-1.457c.742-.24,1.484-.519,2.2-.828a.746.746,0,1,1,.588,1.372c-.76.327-1.545.622-2.331.878a.769.769,0,0,1-.23.036M14.541,190.674a.75.75,0,0,1-.376-.1c-.709-.413-1.413-.869-2.091-1.351a.746.746,0,1,1,.866-1.215c.642.455,1.306.885,1.978,1.276a.746.746,0,0,1-.376,1.391m165.821-.163a.746.746,0,0,1-.385-1.385c.67-.4,1.331-.84,1.963-1.3a.747.747,0,0,1,.881,1.206c-.669.487-1.366.949-2.075,1.375a.748.748,0,0,1-.384.106M9.7,187.063a.744.744,0,0,1-.51-.2c-.6-.566-1.191-1.166-1.739-1.781a.746.746,0,0,1,1.113-.994c.519.582,1.073,1.149,1.645,1.684a.747.747,0,0,1-.509,1.292m175.465-.221a.746.746,0,0,1-.516-1.285c.564-.542,1.11-1.115,1.625-1.7a.747.747,0,0,1,1.125.982c-.543.622-1.121,1.227-1.718,1.8a.749.749,0,0,1-.516.207M5.773,182.467a.745.745,0,0,1-.618-.33c-.466-.688-.9-1.4-1.3-2.121a.746.746,0,1,1,1.306-.721c.376.681.79,1.355,1.23,2.007a.747.747,0,0,1-.618,1.164M189.03,182.2a.737.737,0,0,1-.409-.124.745.745,0,0,1-.213-1.033c.431-.654.836-1.334,1.206-2.022a.746.746,0,0,1,1.315.706c-.39.727-.819,1.446-1.275,2.137a.744.744,0,0,1-.624.336M2.97,177.11a.746.746,0,0,1-.7-.476c-.3-.767-.564-1.561-.793-2.361a.746.746,0,1,1,1.436-.409c.215.755.467,1.506.749,2.23a.749.749,0,0,1-.427.967.778.778,0,0,1-.27.049m188.8-.294a.734.734,0,0,1-.261-.048.746.746,0,0,1-.437-.96c.275-.734.518-1.488.722-2.24a.746.746,0,0,1,1.44.393c-.218.8-.475,1.594-.764,2.37a.748.748,0,0,1-.7.485M1.44,171.265a.747.747,0,0,1-.737-.64c-.118-.813-.2-1.646-.245-2.476a.75.75,0,0,1,.706-.787.738.738,0,0,1,.785.706c.042.785.119,1.575.23,2.343a.743.743,0,0,1-.631.845.653.653,0,0,1-.107.009m191.79-.312a.731.731,0,0,1-.1-.007.745.745,0,0,1-.642-.837c.1-.77.17-1.56.2-2.345a.758.758,0,0,1,.776-.715.747.747,0,0,1,.715.778c-.034.83-.107,1.664-.215,2.478a.746.746,0,0,1-.739.649M1.164,165.222a.747.747,0,0,1-.746-.746v-2.422a.746.746,0,0,1,1.492,0v2.422a.746.746,0,0,1-.746.746m192.3-.315a.746.746,0,0,1-.746-.746v-2.424a.746.746,0,1,1,1.492,0v2.424a.747.747,0,0,1-.746.746m-192.3-5.742a.747.747,0,0,1-.746-.746V156a.746.746,0,1,1,1.492,0v2.424a.746.746,0,0,1-.746.746m192.3-.316a.745.745,0,0,1-.746-.746v-2.422a.746.746,0,1,1,1.492,0V158.1a.746.746,0,0,1-.746.746m-192.3-5.742a.746.746,0,0,1-.746-.746v-2.422a.746.746,0,1,1,1.492,0v2.422a.745.745,0,0,1-.746.746m192.3-.315a.745.745,0,0,1-.746-.746v-2.422a.746.746,0,1,1,1.492,0v2.422a.746.746,0,0,1-.746.746m-192.3-5.742a.747.747,0,0,1-.746-.746v-2.422a.746.746,0,1,1,1.492,0v2.422a.746.746,0,0,1-.746.746m192.3-.315a.746.746,0,0,1-.746-.746v-2.422a.746.746,0,1,1,1.492,0v2.422a.747.747,0,0,1-.746.746m-192.3-5.743a.746.746,0,0,1-.746-.746v-2.422a.746.746,0,1,1,1.492,0v2.422a.745.745,0,0,1-.746.746m192.3-.313a.746.746,0,0,1-.746-.746V137.51a.746.746,0,1,1,1.492,0v2.424a.747.747,0,0,1-.746.746m-192.3-5.743a.747.747,0,0,1-.746-.746v-2.422a.746.746,0,1,1,1.492,0v2.422a.746.746,0,0,1-.746.746m192.3-.315a.746.746,0,0,1-.746-.746v-2.424a.746.746,0,0,1,1.492,0v2.424a.747.747,0,0,1-.746.746m-192.3-5.742a.747.747,0,0,1-.746-.746V125.71a.746.746,0,0,1,1.492,0v2.424a.746.746,0,0,1-.746.746m192.3-.316a.745.745,0,0,1-.746-.746V125.4a.746.746,0,1,1,1.492,0v2.422a.746.746,0,0,1-.746.746m-192.3-5.742a.746.746,0,0,1-.746-.746v-2.422a.746.746,0,0,1,1.492,0v2.422a.745.745,0,0,1-.746.746m192.3-.315a.745.745,0,0,1-.746-.746v-2.422a.746.746,0,1,1,1.492,0v2.422a.746.746,0,0,1-.746.746m-192.3-5.742a.747.747,0,0,1-.746-.746V113.6a.746.746,0,0,1,1.492,0v2.422a.746.746,0,0,1-.746.746m192.3-.315a.746.746,0,0,1-.746-.746v-2.422a.746.746,0,1,1,1.492,0V115.7a.747.747,0,0,1-.746.746M1.164,110.71a.747.747,0,0,1-.746-.746V107.54a.746.746,0,0,1,1.492,0v2.424a.746.746,0,0,1-.746.746m192.3-.315a.746.746,0,0,1-.746-.746v-2.424a.746.746,0,1,1,1.492,0v2.424a.747.747,0,0,1-.746.746m-192.3-5.743a.747.747,0,0,1-.746-.746v-2.422a.746.746,0,0,1,1.492,0v2.422a.746.746,0,0,1-.746.746m192.3-.315a.746.746,0,0,1-.746-.746v-2.424a.746.746,0,1,1,1.492,0v2.424a.747.747,0,0,1-.746.746M1.164,98.6a.747.747,0,0,1-.746-.746V95.425a.746.746,0,0,1,1.492,0v2.424a.746.746,0,0,1-.746.746m192.3-.316a.745.745,0,0,1-.746-.746V95.11a.746.746,0,1,1,1.492,0v2.422a.746.746,0,0,1-.746.746M1.164,92.537a.746.746,0,0,1-.746-.746V89.369a.746.746,0,0,1,1.492,0v2.422a.745.745,0,0,1-.746.746m192.3-.315a.745.745,0,0,1-.746-.746V89.054a.746.746,0,1,1,1.492,0v2.422a.746.746,0,0,1-.746.746M1.164,86.481a.747.747,0,0,1-.746-.746V83.312a.746.746,0,0,1,1.492,0v2.422a.746.746,0,0,1-.746.746m192.3-.315a.746.746,0,0,1-.746-.746V83a.746.746,0,1,1,1.492,0v2.422a.747.747,0,0,1-.746.746M1.164,80.424a.747.747,0,0,1-.746-.746V77.254a.746.746,0,1,1,1.492,0v2.424a.746.746,0,0,1-.746.746m192.3-.315a.746.746,0,0,1-.746-.746V76.939a.746.746,0,1,1,1.492,0v2.424a.747.747,0,0,1-.746.746M1.164,74.366a.747.747,0,0,1-.746-.746V71.2a.746.746,0,0,1,1.492,0V73.62a.746.746,0,0,1-.746.746m192.3-.315a.746.746,0,0,1-.746-.746V70.881a.746.746,0,1,1,1.492,0V73.3a.747.747,0,0,1-.746.746M1.164,68.31a.747.747,0,0,1-.746-.746V65.14a.746.746,0,0,1,1.492,0v2.424a.746.746,0,0,1-.746.746m192.3-.316a.745.745,0,0,1-.746-.746V64.825a.746.746,0,1,1,1.492,0v2.422a.746.746,0,0,1-.746.746M1.164,62.252a.746.746,0,0,1-.746-.746V59.083a.746.746,0,1,1,1.492,0v2.422a.745.745,0,0,1-.746.746m192.3-.315a.745.745,0,0,1-.746-.746V58.768a.746.746,0,1,1,1.492,0V61.19a.746.746,0,0,1-.746.746M1.164,56.2a.747.747,0,0,1-.746-.746V53.027a.746.746,0,1,1,1.492,0v2.422a.746.746,0,0,1-.746.746m192.3-.315a.746.746,0,0,1-.746-.746V52.712a.746.746,0,1,1,1.492,0v2.422a.747.747,0,0,1-.746.746M1.164,50.139a.747.747,0,0,1-.746-.746V46.969a.746.746,0,0,1,1.492,0v2.424a.746.746,0,0,1-.746.746m192.3-.315a.746.746,0,0,1-.746-.746V46.654a.746.746,0,1,1,1.492,0v2.424a.747.747,0,0,1-.746.746M1.164,44.081a.747.747,0,0,1-.746-.746V40.912a.746.746,0,0,1,1.492,0v2.422a.746.746,0,0,1-.746.746m192.3-.315a.746.746,0,0,1-.746-.746V40.6a.746.746,0,1,1,1.492,0V43.02a.747.747,0,0,1-.746.746M1.164,38.024a.747.747,0,0,1-.746-.746V34.854a.746.746,0,0,1,1.492,0v2.424a.746.746,0,0,1-.746.746m192.3-.316a.745.745,0,0,1-.746-.746V34.539a.746.746,0,1,1,1.492,0v2.422a.746.746,0,0,1-.746.746M1.164,31.966a.746.746,0,0,1-.746-.746V28.8a.746.746,0,0,1,1.492,0V31.22a.745.745,0,0,1-.746.746m192.3-.315a.745.745,0,0,1-.746-.746V28.483a.746.746,0,1,1,1.492,0v2.422a.746.746,0,0,1-.746.746M1.164,25.91a.747.747,0,0,1-.746-.746V22.741a.746.746,0,0,1,1.492,0v2.422a.746.746,0,0,1-.746.746m192.088-.3a.748.748,0,0,1-.74-.654c-.1-.781-.23-1.561-.4-2.321a.746.746,0,0,1,1.457-.319c.176.806.318,1.631.421,2.455a.748.748,0,0,1-.649.833.657.657,0,0,1-.093.006M1.164,19.853a.747.747,0,0,1-.746-.746V16.683a.746.746,0,0,1,1.492,0v2.424a.746.746,0,0,1-.746.746m190.668-.124a.745.745,0,0,1-.7-.491c-.269-.734-.575-1.466-.909-2.173a.746.746,0,0,1,1.349-.636c.354.748.678,1.521.961,2.3a.748.748,0,0,1-.7,1m-2.7-5.409a.748.748,0,0,1-.627-.339c-.427-.658-.888-1.3-1.369-1.915a.746.746,0,1,1,1.173-.922c.509.648,1,1.328,1.448,2.024a.746.746,0,0,1-.219,1.033.738.738,0,0,1-.406.119M1.167,13.8H1.161a.745.745,0,0,1-.74-.751c.006-.89.04-1.712.1-2.475a.755.755,0,0,1,.8-.684.745.745,0,0,1,.684.8c-.058.728-.091,1.513-.1,2.363a.747.747,0,0,1-.746.742M185.292,9.654a.741.741,0,0,1-.521-.212c-.558-.543-1.151-1.07-1.76-1.563a.746.746,0,0,1,.94-1.16c.643.521,1.269,1.078,1.861,1.652a.748.748,0,0,1-.521,1.282M1.879,7.806a.732.732,0,0,1-.21-.03.747.747,0,0,1-.5-.927A9.586,9.586,0,0,1,2.206,4.455a.746.746,0,1,1,1.267.787A8.226,8.226,0,0,0,2.6,7.272a.746.746,0,0,1-.716.534M180.514,5.954a.753.753,0,0,1-.388-.109c-.664-.406-1.36-.788-2.063-1.134a.746.746,0,0,1,.66-1.339c.743.366,1.476.769,2.181,1.2a.747.747,0,0,1-.39,1.385m-5.48-2.543a.763.763,0,0,1-.236-.037c-.745-.248-1.506-.466-2.264-.643a.746.746,0,1,1,.34-1.452c.8.188,1.609.416,2.4.678a.747.747,0,0,1-.236,1.455M5.5,3.208a.747.747,0,0,1-.327-1.419,10.424,10.424,0,0,1,2.472-.8.746.746,0,1,1,.3,1.461,8.993,8.993,0,0,0-2.119.687.734.734,0,0,1-.324.075M169.124,2.161l-.072,0c-.776-.075-1.567-.115-2.352-.121a.745.745,0,0,1-.742-.749.815.815,0,0,1,.751-.743c.828.006,1.664.049,2.485.127a.746.746,0,0,1-.07,1.489M11.4,2.078A.747.747,0,0,1,11.373.585c.775-.03,1.591-.04,2.452-.04a.746.746,0,0,1,.725.573.748.748,0,0,1,.727-.573H17.7a.746.746,0,0,1,0,1.492H15.277a.748.748,0,0,1-.727-.573.746.746,0,0,1-.725.573c-.84,0-1.639.01-2.394.039H11.4m151.669-.04h-2.422a.746.746,0,1,1,0-1.492h2.422a.746.746,0,0,1,0,1.492m-6.056,0H154.59a.746.746,0,1,1,0-1.492h2.424a.746.746,0,0,1,0,1.492m-6.058,0h-2.422a.746.746,0,0,1,0-1.492h2.422a.746.746,0,1,1,0,1.492m-6.056,0h-2.424a.746.746,0,1,1,0-1.492H144.9a.746.746,0,1,1,0,1.492m-6.058,0h-2.422a.746.746,0,1,1,0-1.492h2.422a.746.746,0,1,1,0,1.492m-6.056,0h-2.422a.746.746,0,1,1,0-1.492h2.422a.746.746,0,1,1,0,1.492m-6.056,0H124.3a.746.746,0,1,1,0-1.492h2.424a.746.746,0,0,1,0,1.492m-6.058,0h-2.422a.746.746,0,0,1,0-1.492h2.422a.746.746,0,0,1,0,1.492m-6.056,0H112.19a.746.746,0,0,1,0-1.492h2.424a.746.746,0,0,1,0,1.492m-6.058,0h-2.422a.746.746,0,0,1,0-1.492h2.422a.746.746,0,0,1,0,1.492m-6.056,0h-2.422a.746.746,0,0,1,0-1.492H102.5a.746.746,0,0,1,0,1.492m-6.056,0H94.019a.746.746,0,0,1,0-1.492h2.424a.746.746,0,0,1,0,1.492m-6.058,0H87.962a.746.746,0,0,1,0-1.492h2.422a.746.746,0,0,1,0,1.492m-6.056,0H81.9a.746.746,0,0,1,0-1.492h2.424a.746.746,0,0,1,0,1.492m-6.058,0H75.848a.746.746,0,0,1,0-1.492H78.27a.746.746,0,1,1,0,1.492m-6.056,0H69.792a.746.746,0,1,1,0-1.492h2.422a.746.746,0,0,1,0,1.492m-6.056,0H63.734a.746.746,0,1,1,0-1.492h2.424a.746.746,0,0,1,0,1.492m-6.058,0H57.677a.746.746,0,1,1,0-1.492H60.1a.746.746,0,0,1,0,1.492m-6.056,0H51.619a.746.746,0,0,1,0-1.492h2.424a.746.746,0,0,1,0,1.492m-6.058,0H45.563a.746.746,0,0,1,0-1.492h2.422a.746.746,0,1,1,0,1.492m-6.056,0H39.506a.746.746,0,0,1,0-1.492h2.422a.746.746,0,0,1,0,1.492m-6.056,0H33.448a.746.746,0,1,1,0-1.492h2.424a.746.746,0,0,1,0,1.492m-6.058,0H27.392a.746.746,0,0,1,0-1.492h2.422a.746.746,0,0,1,0,1.492m-6.056,0H21.334a.746.746,0,1,1,0-1.492h2.424a.746.746,0,0,1,0,1.492" transform="translate(0.206 0.268)" fill="#4f2f1f"/>
            <path id="Trazado_227336" data-name="Trazado 227336" d="M19.848,8.85c-7.449,0-11.125.919-11.125,10.613v134.71A23.676,23.676,0,0,0,32.4,177.848H154.046a23.676,23.676,0,0,0,23.677-23.675V32.527A23.678,23.678,0,0,0,154.046,8.85Z" transform="translate(4.296 4.358)" fill="#cf7650"/>
            <path id="Trazado_227337" data-name="Trazado 227337" d="M302.441,8.305c7.451,0,11.124.919,11.124,10.613v134.71A23.676,23.676,0,0,1,289.889,177.3H168.243a23.675,23.675,0,0,1-23.677-23.675V31.982A23.677,23.677,0,0,1,168.243,8.305Z" transform="translate(71.196 4.09)" fill="#d8a164"/>
          </g>
        </g>
        <g id="Grupo_143200" data-name="Grupo 143200" transform="translate(105.102 103.384)">
          <g id="Grupo_143199" data-name="Grupo 143199" clip-path="url(#clip-path-2)">
            <rect id="Rectángulo_47704" data-name="Rectángulo 47704" width="176.649" height="176.65" transform="translate(0 0)" fill="url(#radial-gradient)"/>
          </g>
        </g>
        <g id="Grupo_143202" data-name="Grupo 143202">
          <g id="Grupo_143201" data-name="Grupo 143201" clip-path="url(#clip-path)">
            <path id="Trazado_227339" data-name="Trazado 227339" d="M155.449,229.538a.746.746,0,0,1-.007-1.492c.8-.009,1.6-.03,2.394-.063a.757.757,0,0,1,.778.715.747.747,0,0,1-.715.778q-1.216.049-2.442.063Zm-3.633-.051h-.03q-1.225-.049-2.44-.13a.746.746,0,1,1,.1-1.49q1.2.081,2.4.127a.746.746,0,0,1-.027,1.492m9.676-.251a.746.746,0,0,1-.067-1.49q1.2-.107,2.385-.252a.746.746,0,0,1,.182,1.481q-1.211.148-2.433.258l-.067,0m-15.711-.216a.594.594,0,0,1-.088-.006c-.812-.094-1.619-.2-2.424-.325a.746.746,0,1,1,.222-1.475q1.182.177,2.376.319a.746.746,0,0,1-.087,1.487m21.713-.566a.746.746,0,0,1-.127-1.48c.791-.139,1.578-.285,2.358-.446a.747.747,0,0,1,.3,1.464q-1.193.244-2.4.451a.622.622,0,0,1-.128.012M139.8,228.07a.819.819,0,0,1-.146-.013q-1.2-.242-2.392-.522a.746.746,0,1,1,.343-1.452q1.164.273,2.342.51a.746.746,0,0,1-.146,1.478m33.611-.881a.746.746,0,0,1-.185-1.469c.778-.2,1.549-.409,2.315-.633a.747.747,0,1,1,.416,1.434q-1.173.34-2.361.645a.722.722,0,0,1-.185.022m-39.493-.549a.754.754,0,0,1-.206-.028q-1.178-.338-2.34-.71a.747.747,0,1,1,.455-1.422q1.142.367,2.3.7a.746.746,0,0,1-.2,1.463m45.3-1.188a.746.746,0,0,1-.243-1.451q1.133-.392,2.254-.818a.745.745,0,1,1,.531,1.392q-1.142.437-2.3.836a.736.736,0,0,1-.243.04m-51.052-.715a.741.741,0,0,1-.263-.048q-1.151-.434-2.282-.9a.746.746,0,0,1,.572-1.379q1.11.461,2.236.885a.746.746,0,0,1-.263,1.445m56.681-1.484a.746.746,0,0,1-.3-1.43q1.095-.481,2.173-1a.746.746,0,1,1,.645,1.346q-1.1.524-2.221,1.016a.744.744,0,0,1-.3.063m-62.269-.884a.746.746,0,0,1-.316-.072q-1.11-.522-2.2-1.084a.746.746,0,0,1,.684-1.327q1.068.548,2.154,1.061a.746.746,0,0,1-.319,1.421m67.7-1.761a.745.745,0,0,1-.352-1.4c.7-.378,1.4-.769,2.089-1.167a.746.746,0,1,1,.749,1.291q-1.057.611-2.134,1.191a.747.747,0,0,1-.352.088M117.2,219.559a.75.75,0,0,1-.372-.1q-1.063-.613-2.1-1.258a.747.747,0,0,1,.788-1.269c.681.424,1.367.833,2.061,1.233a.746.746,0,0,1-.373,1.392m78.278-2.024a.746.746,0,0,1-.4-1.373q1.005-.651,1.99-1.334a.747.747,0,0,1,.851,1.228q-1,.694-2.03,1.36a.76.76,0,0,1-.406.119m-83.406-1.207a.734.734,0,0,1-.421-.131c-.673-.461-1.339-.937-2-1.421a.746.746,0,1,1,.885-1.2q.967.714,1.955,1.392a.746.746,0,0,1-.424,1.361m88.349-2.277a.747.747,0,0,1-.454-1.339q.951-.73,1.879-1.488a.746.746,0,0,1,.945,1.155q-.945.772-1.918,1.516a.726.726,0,0,1-.452.155m-93.2-1.352a.748.748,0,0,1-.47-.169q-.949-.772-1.873-1.573a.745.745,0,1,1,.975-1.127c.606.521,1.219,1.037,1.84,1.543a.747.747,0,0,1-.472,1.325m97.852-2.518a.746.746,0,0,1-.5-1.3q.889-.8,1.754-1.636a.746.746,0,0,1,1.034,1.076q-.882.848-1.788,1.667a.749.749,0,0,1-.5.193m-102.392-1.49a.742.742,0,0,1-.516-.207c-.588-.564-1.17-1.134-1.74-1.716a.747.747,0,0,1,1.066-1.046q.84.855,1.707,1.685a.746.746,0,0,1-.516,1.285M209.4,205.95a.746.746,0,0,1-.542-1.26c.549-.579,1.088-1.17,1.618-1.767a.747.747,0,0,1,1.119.988q-.81.918-1.652,1.806a.752.752,0,0,1-.543.233M98.479,204.336a.749.749,0,0,1-.557-.249q-.815-.911-1.6-1.852a.747.747,0,0,1,1.146-.957q.768.922,1.566,1.815a.746.746,0,0,1-.557,1.243m114.9-2.952a.745.745,0,0,1-.581-1.213q.754-.936,1.473-1.9a.747.747,0,0,1,1.192.9q-.734.978-1.5,1.933a.744.744,0,0,1-.582.278M94.638,199.663a.742.742,0,0,1-.6-.3q-.739-.974-1.443-1.972a.747.747,0,1,1,1.218-.864q.692.981,1.415,1.934a.746.746,0,0,1-.594,1.2m122.349-3.148a.747.747,0,0,1-.616-1.167q.674-.992,1.316-2.007a.747.747,0,0,1,1.263.8q-.656,1.037-1.346,2.049a.741.741,0,0,1-.616.327M91.182,194.7a.746.746,0,0,1-.63-.346q-.656-1.028-1.279-2.081a.746.746,0,1,1,1.284-.761q.611,1.032,1.255,2.04a.746.746,0,0,1-.23,1.03.73.73,0,0,1-.4.118m129.006-3.333a.746.746,0,0,1-.649-1.115q.593-1.043,1.152-2.107a.746.746,0,1,1,1.321.694q-.569,1.086-1.176,2.151a.742.742,0,0,1-.648.378M88.139,189.476a.745.745,0,0,1-.66-.4q-.571-1.077-1.109-2.173a.747.747,0,0,1,1.342-.658q.526,1.077,1.087,2.134a.745.745,0,0,1-.31,1.007.738.738,0,0,1-.349.087m134.826-3.5a.747.747,0,0,1-.676-1.061q.506-1.088.978-2.2a.746.746,0,1,1,1.373.585q-.481,1.131-1,2.24a.744.744,0,0,1-.676.431m-137.44-1.948a.746.746,0,0,1-.685-.451q-.481-1.119-.928-2.255a.746.746,0,0,1,1.388-.546q.439,1.115.912,2.21a.747.747,0,0,1-.391.981.733.733,0,0,1-.3.061M225.3,180.376a.746.746,0,0,1-.7-1.006c.278-.749.543-1.507.8-2.269a.746.746,0,0,1,1.416.472q-.39,1.166-.815,2.316a.743.743,0,0,1-.7.487M83.36,178.383a.748.748,0,0,1-.707-.507q-.39-1.157-.745-2.33a.746.746,0,0,1,1.428-.431q.347,1.151.731,2.283a.746.746,0,0,1-.707.985m143.808-3.774a.727.727,0,0,1-.2-.027.746.746,0,0,1-.518-.919q.322-1.153.609-2.319a.746.746,0,1,1,1.449.355q-.291,1.189-.621,2.366a.745.745,0,0,1-.718.545M81.657,172.575a.747.747,0,0,1-.724-.566q-.3-1.184-.555-2.382a.747.747,0,0,1,1.46-.316q.253,1.175.543,2.337a.747.747,0,0,1-.724.927m146.906-3.855a.691.691,0,0,1-.145-.015.745.745,0,0,1-.59-.875q.228-1.173.419-2.361a.747.747,0,0,1,1.475.237q-.193,1.211-.43,2.409a.742.742,0,0,1-.73.6M80.428,166.648a.746.746,0,0,1-.734-.625q-.2-1.2-.361-2.418a.746.746,0,0,1,1.479-.2q.159,1.193.354,2.373a.746.746,0,0,1-.615.858.689.689,0,0,1-.122.01m149.051-3.913-.084,0a.748.748,0,0,1-.66-.825q.134-1.189.23-2.388a.746.746,0,1,1,1.487.118c-.064.816-.143,1.627-.231,2.436a.748.748,0,0,1-.742.663m-149.8-2.094a.747.747,0,0,1-.743-.685q-.1-1.216-.166-2.442a.749.749,0,0,1,.707-.784.771.771,0,0,1,.784.709q.063,1.2.161,2.392a.745.745,0,0,1-.681.806l-.063,0M229.91,156.7h-.024a.747.747,0,0,1-.722-.77q.036-1.193.037-2.4l0-.621a.745.745,0,0,1,.74-.751h.006a.746.746,0,0,1,.746.74l0,.631q0,1.227-.037,2.446a.748.748,0,0,1-.746.722M79.417,154.592a.747.747,0,0,1-.746-.742v-.321c0-.712.009-1.419.028-2.127a.747.747,0,0,1,1.492.042q-.029,1.039-.028,2.085v.31a.747.747,0,0,1-.742.752Zm150.412-4.574a.745.745,0,0,1-.745-.7c-.045-.8-.1-1.6-.172-2.392a.745.745,0,0,1,.678-.809.731.731,0,0,1,.809.679c.07.809.13,1.622.175,2.44a.745.745,0,0,1-.7.785h-.042m-150.2-1.475c-.019,0-.037,0-.057,0a.746.746,0,0,1-.688-.8q.092-1.225.222-2.437a.746.746,0,1,1,1.484.16q-.128,1.189-.218,2.388a.747.747,0,0,1-.743.691m149.617-4.552a.744.744,0,0,1-.737-.645q-.163-1.191-.363-2.37a.746.746,0,1,1,1.472-.249q.2,1.2.369,2.418a.747.747,0,0,1-.639.84.758.758,0,0,1-.1.006m-148.92-1.463a.763.763,0,0,1-.116-.009.748.748,0,0,1-.622-.854q.19-1.211.418-2.41a.747.747,0,0,1,1.467.281q-.224,1.173-.409,2.363a.749.749,0,0,1-.737.63m147.86-4.5a.748.748,0,0,1-.728-.585q-.26-1.175-.554-2.334a.746.746,0,1,1,1.446-.367q.3,1.18.564,2.379a.746.746,0,0,1-.566.89.786.786,0,0,1-.163.018M81.507,136.591a.8.8,0,0,1-.176-.019.749.749,0,0,1-.551-.9q.289-1.191.612-2.369a.746.746,0,1,1,1.439.4q-.318,1.153-.6,2.322a.747.747,0,0,1-.725.57m145.145-4.413a.748.748,0,0,1-.713-.527q-.356-1.148-.742-2.282a.746.746,0,0,1,1.412-.484q.394,1.153.755,2.325a.744.744,0,0,1-.493.933.7.7,0,0,1-.219.034M83.16,130.767a.735.735,0,0,1-.231-.037.746.746,0,0,1-.478-.942q.385-1.169.8-2.319a.746.746,0,1,1,1.4.513q-.412,1.126-.788,2.272a.743.743,0,0,1-.709.513m141.481-4.3a.748.748,0,0,1-.694-.47q-.443-1.113-.918-2.207a.746.746,0,1,1,1.367-.6q.488,1.115.939,2.251a.748.748,0,0,1-.416.97.762.762,0,0,1-.278.052M85.287,125.082a.759.759,0,0,1-.29-.058.747.747,0,0,1-.4-.978c.319-.755.648-1.5.988-2.245a.746.746,0,1,1,1.357.622q-.5,1.092-.969,2.2a.748.748,0,0,1-.688.457m136.9-4.133a.747.747,0,0,1-.67-.415q-.531-1.075-1.094-2.128a.746.746,0,1,1,1.315-.7q.578,1.075,1.118,2.172a.747.747,0,0,1-.669,1.076M87.865,119.593A.746.746,0,0,1,87.2,118.5q.566-1.088,1.166-2.155a.746.746,0,0,1,1.3.731q-.589,1.046-1.143,2.113a.746.746,0,0,1-.663.4m131.425-3.948a.739.739,0,0,1-.639-.364q-.618-1.028-1.264-2.033a.747.747,0,0,1,1.257-.807q.66,1.025,1.287,2.075a.746.746,0,0,1-.64,1.13M90.878,114.332a.737.737,0,0,1-.4-.115.745.745,0,0,1-.236-1.028q.649-1.039,1.334-2.054a.747.747,0,1,1,1.239.834q-.669,1-1.309,2.012a.745.745,0,0,1-.633.351m125.1-3.745a.749.749,0,0,1-.609-.313q-.694-.976-1.422-1.927a.746.746,0,1,1,1.187-.906q.741.969,1.452,1.966a.747.747,0,0,1-.607,1.181M94.3,109.332a.746.746,0,0,1-.6-1.192q.732-.981,1.494-1.939a.746.746,0,1,1,1.167.93q-.748.94-1.464,1.9a.746.746,0,0,1-.6.3m117.964-3.524a.745.745,0,0,1-.572-.267c-.512-.612-1.039-1.213-1.572-1.806a.747.747,0,0,1,1.11-1q.817.909,1.6,1.846a.745.745,0,0,1-.572,1.225M98.115,104.625a.746.746,0,0,1-.561-1.239q.808-.92,1.645-1.813a.746.746,0,1,1,1.088,1.022q-.819.873-1.61,1.775a.744.744,0,0,1-.561.255m110.071-3.286a.744.744,0,0,1-.531-.221q-.844-.853-1.713-1.678a.746.746,0,1,1,1.025-1.084q.889.842,1.749,1.712a.745.745,0,0,1-.53,1.27m-105.9-1.1a.745.745,0,0,1-.519-1.281q.878-.853,1.782-1.675a.746.746,0,0,1,1,1.1q-.889.808-1.748,1.642a.739.739,0,0,1-.519.21m101.469-3.03a.738.738,0,0,1-.487-.181c-.606-.522-1.222-1.034-1.843-1.536a.746.746,0,1,1,.934-1.163q.956.77,1.882,1.567a.746.746,0,0,1-.487,1.312M106.8,96.2a.745.745,0,0,1-.476-1.321q.943-.779,1.91-1.527a.746.746,0,1,1,.912,1.181q-.947.734-1.872,1.5a.744.744,0,0,1-.475.17m92.211-2.758a.756.756,0,0,1-.44-.143q-.967-.707-1.961-1.385a.746.746,0,0,1,.842-1.233q1.012.69,2,1.41a.747.747,0,0,1-.44,1.351m-87.4-.9a.747.747,0,0,1-.428-1.358q1-.7,2.025-1.369a.746.746,0,0,1,.815,1.251q-1,.656-1.985,1.34a.743.743,0,0,1-.427.136m82.363-2.473a.754.754,0,0,1-.39-.109q-1.021-.627-2.067-1.224a.746.746,0,1,1,.74-1.3q1.063.607,2.107,1.246a.746.746,0,0,1-.391,1.382m-77.272-.791a.746.746,0,0,1-.378-1.389q1.052-.616,2.127-1.2A.746.746,0,1,1,119.167,88q-1.052.571-2.085,1.176a.746.746,0,0,1-.376.1m71.982-2.167a.742.742,0,0,1-.337-.081q-1.072-.544-2.161-1.052a.747.747,0,1,1,.631-1.354q1.113.522,2.206,1.075a.746.746,0,0,1-.339,1.412m-66.648-.675a.746.746,0,0,1-.325-1.418q1.1-.528,2.215-1.024a.746.746,0,0,1,.6,1.364q-1.095.486-2.172,1a.735.735,0,0,1-.322.073M183.17,84.59a.727.727,0,0,1-.282-.057q-1.11-.454-2.24-.873a.747.747,0,0,1,.521-1.4q1.151.428,2.285.893a.747.747,0,0,1-.284,1.437m-55.59-.554a.746.746,0,0,1-.269-1.442q1.14-.439,2.3-.843a.746.746,0,0,1,.494,1.407q-1.135.4-2.252.828a.737.737,0,0,1-.269.049m49.885-1.516a.755.755,0,0,1-.227-.034q-1.14-.363-2.3-.688a.747.747,0,0,1,.406-1.437c.785.222,1.569.457,2.343.7a.746.746,0,0,1-.225,1.457m-44.154-.433a.746.746,0,0,1-.21-1.461q1.171-.345,2.357-.655a.746.746,0,0,1,.376,1.445q-1.162.3-2.31.642a.742.742,0,0,1-.212.03m38.316-1.163a.738.738,0,0,1-.169-.018q-1.164-.269-2.345-.5a.747.747,0,0,1,.287-1.466q1.2.237,2.394.51a.746.746,0,0,1-.167,1.473m-32.448-.316a.746.746,0,0,1-.151-1.476q1.193-.251,2.4-.463a.746.746,0,0,1,.258,1.47q-1.184.208-2.355.452a.674.674,0,0,1-.154.016m26.5-.8a.681.681,0,0,1-.109-.007q-1.182-.172-2.378-.307a.748.748,0,0,1-.658-.827.737.737,0,0,1,.825-.657q1.22.137,2.427.315a.746.746,0,0,1-.107,1.484m-20.526-.2a.746.746,0,0,1-.093-1.487q1.209-.152,2.431-.267a.747.747,0,0,1,.14,1.486q-1.2.112-2.385.261a.69.69,0,0,1-.094.006m14.507-.436h-.049q-1.193-.076-2.4-.118a.746.746,0,0,1-.721-.772.756.756,0,0,1,.77-.719q1.227.04,2.443.119a.746.746,0,0,1-.048,1.491m-8.476-.082a.747.747,0,0,1-.033-1.492c.81-.036,1.627-.061,2.445-.072a.746.746,0,1,1,.021,1.492q-1.2.016-2.4.072h-.034" transform="translate(38.744 38.18)" fill="#4f2f1f"/>
          </g>
        </g>
      </g>
      <path id="Trazado_227377" data-name="Trazado 227377" d="M51.887,4.781l3.174,9.893,3.164-9.893h4.512V19H59.3V15.68l.332-6.8L56.193,19H53.928L50.48,8.873l.332,6.807V19H47.385V4.781ZM70.715,19a3.716,3.716,0,0,1-.312-.947A3.06,3.06,0,0,1,67.863,19.2a3.749,3.749,0,0,1-2.539-.9,2.875,2.875,0,0,1-1.045-2.271,2.955,2.955,0,0,1,1.27-2.6,6.468,6.468,0,0,1,3.691-.879h1.016v-.559q0-1.462-1.26-1.462a1.03,1.03,0,0,0-1.172,1.158H64.533a2.95,2.95,0,0,1,1.3-2.487,5.479,5.479,0,0,1,3.325-.956,4.8,4.8,0,0,1,3.193.986,3.429,3.429,0,0,1,1.2,2.705v4.678a4.79,4.79,0,0,0,.449,2.227V19Zm-2.061-2.148a1.836,1.836,0,0,0,1.021-.264,1.653,1.653,0,0,0,.581-.6V14.3H69.3q-1.719,0-1.719,1.543a.942.942,0,0,0,.3.728A1.1,1.1,0,0,0,68.654,16.852ZM79.211,5.807V8.434h1.738v2.285H79.211v4.834a1.234,1.234,0,0,0,.215.83,1.152,1.152,0,0,0,.85.234,4.828,4.828,0,0,0,.82-.059v2.354a6.074,6.074,0,0,1-1.855.283,3.448,3.448,0,0,1-2.51-.8,3.282,3.282,0,0,1-.811-2.432V10.719H74.572V8.434H75.92V5.807Zm9.424,5.605-1.084-.078a1.947,1.947,0,0,0-1.992.977V19H82.268V8.434h3.086l.107,1.357a2.548,2.548,0,0,1,2.314-1.553,3.209,3.209,0,0,1,.918.117ZM93.293,19h-3.3V8.434h3.3ZM89.8,5.7A1.482,1.482,0,0,1,90.3,4.54a2.149,2.149,0,0,1,2.637,0A1.482,1.482,0,0,1,93.449,5.7a1.482,1.482,0,0,1-.508,1.159,2.149,2.149,0,0,1-2.637,0A1.482,1.482,0,0,1,89.8,5.7Zm9.4,10.762h4.814V19H95.041V17.164l4.688-6.191H95.246V8.434h8.662v1.777ZM51.862,43V28.781h4.58a6.737,6.737,0,0,1,3.389.854,6.006,6.006,0,0,1,2.349,2.412,7.283,7.283,0,0,1,.854,3.491v.654a7.325,7.325,0,0,1-.825,3.5,6.032,6.032,0,0,1-2.324,2.422A6.589,6.589,0,0,1,56.54,43ZM55.29,31.428v8.936h1.191a2.666,2.666,0,0,0,2.266-1.05,5.145,5.145,0,0,0,.791-3.12v-.615a5.1,5.1,0,0,0-.791-3.105,2.713,2.713,0,0,0-2.3-1.045Zm21.543,4.756a8.385,8.385,0,0,1-.771,3.682,5.7,5.7,0,0,1-2.192,2.466,6.1,6.1,0,0,1-3.237.864,6.191,6.191,0,0,1-3.223-.835,5.692,5.692,0,0,1-2.192-2.388,8.144,8.144,0,0,1-.825-3.564v-.8a8.422,8.422,0,0,1,.767-3.687,5.688,5.688,0,0,1,2.2-2.466,6.5,6.5,0,0,1,6.479-.01,5.79,5.79,0,0,1,2.2,2.446,8.18,8.18,0,0,1,.8,3.638Zm-3.486-.6a5.979,5.979,0,0,0-.708-3.218,2.271,2.271,0,0,0-2.026-1.1q-2.578,0-2.725,3.867l-.01,1.045a6.149,6.149,0,0,0,.693,3.213,2.268,2.268,0,0,0,2.061,1.123,2.24,2.24,0,0,0,2-1.1,5.982,5.982,0,0,0,.713-3.174Zm14.209,1.748H82.028V43H78.6V28.781h9.512v2.646H82.028V34.7h5.527Zm8.184,3.008h-4.7L90.222,43H86.56l5.215-14.219H95L100.251,43H96.569ZM91.862,37.7h3.057l-1.533-4.932Z" transform="translate(509.285 6787.5)" fill="#222"/>
      <g transform="matrix(1, 0, 0, 1, 390.29, 6619)" filter="url(#Trazado_227375)">
        <path id="Trazado_227375-2" data-name="Trazado 227375" d="M29.243,17V4.2h3.938a5.98,5.98,0,0,1,3.019.76,5.3,5.3,0,0,1,2.079,2.162,6.669,6.669,0,0,1,.747,3.186V10.9a6.688,6.688,0,0,1-.734,3.173,5.256,5.256,0,0,1-2.07,2.153A6.025,6.025,0,0,1,33.207,17ZM31.88,6.339v8.543h1.274a2.863,2.863,0,0,0,2.364-1.011,4.567,4.567,0,0,0,.835-2.892V10.3a4.64,4.64,0,0,0-.809-2.958,2.854,2.854,0,0,0-2.364-1.006ZM45.151,17.176a4.668,4.668,0,0,1-3.406-1.283,4.561,4.561,0,0,1-1.314-3.419v-.246a5.745,5.745,0,0,1,.554-2.562,4.064,4.064,0,0,1,1.569-1.74,4.4,4.4,0,0,1,2.316-.611,3.947,3.947,0,0,1,3.072,1.23,5,5,0,0,1,1.121,3.489v1.037H43.007a2.36,2.36,0,0,0,.743,1.494,2.245,2.245,0,0,0,1.569.563,2.742,2.742,0,0,0,2.294-1.063l1.248,1.4a3.813,3.813,0,0,1-1.547,1.261A5.075,5.075,0,0,1,45.151,17.176Zm-.29-7.813a1.587,1.587,0,0,0-1.226.512,2.651,2.651,0,0,0-.6,1.466h3.533v-.2a1.891,1.891,0,0,0-.457-1.311A1.638,1.638,0,0,0,44.861,9.362Zm14.212,2.971A5.758,5.758,0,0,1,58.1,15.9a3.231,3.231,0,0,1-2.725,1.279,2.969,2.969,0,0,1-2.47-1.187L52.789,17H50.5V3.5h2.54V8.343a2.893,2.893,0,0,1,2.312-1.028,3.258,3.258,0,0,1,2.729,1.279,5.767,5.767,0,0,1,.989,3.6Zm-2.54-.194a3.8,3.8,0,0,0-.457-2.111,1.544,1.544,0,0,0-1.362-.666,1.675,1.675,0,0,0-1.67,1v3.764a1.7,1.7,0,0,0,1.688,1,1.569,1.569,0,0,0,1.617-1.217A6.294,6.294,0,0,0,56.533,12.139ZM63.318,17H60.77V7.49h2.549ZM60.62,5.029A1.251,1.251,0,0,1,61,4.089a1.648,1.648,0,0,1,2.079,0,1.244,1.244,0,0,1,.387.94,1.247,1.247,0,0,1-.391.949,1.629,1.629,0,0,1-2.065,0A1.247,1.247,0,0,1,60.62,5.029ZM68.091,17H65.542V3.5h2.549Zm4.772,0H70.314V7.49h2.549Zm-2.7-11.971a1.251,1.251,0,0,1,.382-.94,1.648,1.648,0,0,1,2.079,0,1.244,1.244,0,0,1,.387.94,1.247,1.247,0,0,1-.391.949,1.629,1.629,0,0,1-2.065,0A1.247,1.247,0,0,1,70.165,5.029Zm4.395,7.146a5.731,5.731,0,0,1,1-3.542,3.237,3.237,0,0,1,2.729-1.318A2.913,2.913,0,0,1,80.58,8.352V3.5h2.549V17H80.835l-.123-1.011a2.989,2.989,0,0,1-2.443,1.187,3.228,3.228,0,0,1-2.694-1.323A5.916,5.916,0,0,1,74.56,12.175Zm2.54.181a3.775,3.775,0,0,0,.466,2.057,1.516,1.516,0,0,0,1.354.715,1.7,1.7,0,0,0,1.661-1V10.36a1.675,1.675,0,0,0-1.644-1Q77.1,9.362,77.1,12.356ZM90.608,17a2.821,2.821,0,0,1-.255-.853,3.073,3.073,0,0,1-2.4,1.028,3.376,3.376,0,0,1-2.316-.809,2.6,2.6,0,0,1-.918-2.039,2.687,2.687,0,0,1,1.121-2.32,5.529,5.529,0,0,1,3.239-.817h1.169v-.545a1.567,1.567,0,0,0-.338-1.055,1.331,1.331,0,0,0-1.068-.4,1.513,1.513,0,0,0-1.006.308,1.045,1.045,0,0,0-.365.844h-2.54a2.551,2.551,0,0,1,.51-1.529,3.37,3.37,0,0,1,1.441-1.1,5.253,5.253,0,0,1,2.092-.4,4.15,4.15,0,0,1,2.791.883A3.09,3.09,0,0,1,92.8,10.681V14.8a4.546,4.546,0,0,0,.378,2.048V17Zm-2.1-1.767a2.188,2.188,0,0,0,1.037-.25,1.645,1.645,0,0,0,.7-.672V12.676H89.3q-1.907,0-2.03,1.318l-.009.149a1.017,1.017,0,0,0,.334.782A1.3,1.3,0,0,0,88.508,15.233Zm5.845-3.059a5.731,5.731,0,0,1,1-3.542,3.237,3.237,0,0,1,2.729-1.318,2.913,2.913,0,0,1,2.294,1.037V3.5h2.549V17h-2.294l-.123-1.011a2.989,2.989,0,0,1-2.443,1.187,3.228,3.228,0,0,1-2.694-1.323A5.916,5.916,0,0,1,94.353,12.175Zm2.54.181a3.775,3.775,0,0,0,.466,2.057,1.516,1.516,0,0,0,1.354.715,1.7,1.7,0,0,0,1.661-1V10.36a1.675,1.675,0,0,0-1.644-1Q96.893,9.362,96.893,12.356Zm12.375,4.82a4.668,4.668,0,0,1-3.406-1.283,4.561,4.561,0,0,1-1.314-3.419v-.246a5.745,5.745,0,0,1,.554-2.562,4.064,4.064,0,0,1,1.569-1.74,4.4,4.4,0,0,1,2.316-.611,3.947,3.947,0,0,1,3.072,1.23,5,5,0,0,1,1.121,3.489v1.037h-6.056a2.36,2.36,0,0,0,.743,1.494,2.245,2.245,0,0,0,1.569.563,2.742,2.742,0,0,0,2.294-1.063l1.248,1.4a3.813,3.813,0,0,1-1.547,1.261A5.075,5.075,0,0,1,109.268,17.176Zm-.29-7.813a1.587,1.587,0,0,0-1.226.512,2.651,2.651,0,0,0-.6,1.466h3.533v-.2a1.891,1.891,0,0,0-.457-1.311A1.638,1.638,0,0,0,108.978,9.362Zm10.793,5.01a.818.818,0,0,0-.461-.734,5.241,5.241,0,0,0-1.481-.479q-3.393-.712-3.393-2.883a2.613,2.613,0,0,1,1.05-2.114,4.237,4.237,0,0,1,2.747-.848,4.56,4.56,0,0,1,2.9.853,2.687,2.687,0,0,1,1.085,2.215h-2.54a1.229,1.229,0,0,0-.352-.9,1.488,1.488,0,0,0-1.1-.356,1.52,1.52,0,0,0-.993.29.916.916,0,0,0-.352.738.783.783,0,0,0,.4.681,4.114,4.114,0,0,0,1.349.448,11.019,11.019,0,0,1,1.6.426,2.628,2.628,0,0,1,2.013,2.558,2.481,2.481,0,0,1-1.116,2.1,4.815,4.815,0,0,1-2.883.8,5.029,5.029,0,0,1-2.123-.426,3.561,3.561,0,0,1-1.455-1.169,2.716,2.716,0,0,1-.527-1.6h2.408a1.326,1.326,0,0,0,.5,1.037,1.987,1.987,0,0,0,1.248.36,1.839,1.839,0,0,0,1.1-.277A.861.861,0,0,0,119.771,14.372Z" transform="translate(18 83.5)" fill="#fff"/>
      </g>
      <g transform="matrix(1, 0, 0, 1, 390.29, 6619)" filter="url(#Trazado_227378)">
        <path id="Trazado_227378-2" data-name="Trazado 227378" d="M41.763,11.771H36.7V17H34.064V4.2H42.4V6.339H36.7v3.3h5.063Zm1.415.387a5.64,5.64,0,0,1,.545-2.522,3.989,3.989,0,0,1,1.569-1.714,4.577,4.577,0,0,1,2.377-.606,4.33,4.33,0,0,1,3.142,1.178,4.727,4.727,0,0,1,1.358,3.2l.018.65a4.97,4.97,0,0,1-1.222,3.511,4.735,4.735,0,0,1-6.561,0,5.058,5.058,0,0,1-1.226-3.586Zm2.54.18a3.555,3.555,0,0,0,.51,2.073,1.831,1.831,0,0,0,2.9.009,3.89,3.89,0,0,0,.519-2.267,3.519,3.519,0,0,0-.519-2.06,1.686,1.686,0,0,0-1.459-.731,1.658,1.658,0,0,0-1.441.726A3.955,3.955,0,0,0,45.718,12.338ZM59.1,9.872a6.9,6.9,0,0,0-.914-.07,1.86,1.86,0,0,0-1.89.976V17h-2.54V7.49h2.4l.07,1.134a2.354,2.354,0,0,1,2.118-1.31,2.662,2.662,0,0,1,.791.114Zm4.7-4.72V7.49h1.626V9.354H63.8V14.1a1.133,1.133,0,0,0,.2.756,1.015,1.015,0,0,0,.773.229,4.051,4.051,0,0,0,.747-.062v1.925a5.229,5.229,0,0,1-1.538.229,2.425,2.425,0,0,1-2.725-2.7V9.354H59.869V7.49h1.389V5.152ZM72.349,17a2.821,2.821,0,0,1-.255-.853,3.073,3.073,0,0,1-2.4,1.028,3.376,3.376,0,0,1-2.316-.809,2.6,2.6,0,0,1-.918-2.039,2.687,2.687,0,0,1,1.121-2.32,5.529,5.529,0,0,1,3.239-.817h1.169v-.545a1.567,1.567,0,0,0-.338-1.055,1.331,1.331,0,0,0-1.068-.4,1.513,1.513,0,0,0-1.006.308,1.045,1.045,0,0,0-.365.844h-2.54a2.551,2.551,0,0,1,.51-1.529,3.37,3.37,0,0,1,1.441-1.1,5.253,5.253,0,0,1,2.092-.4A4.15,4.15,0,0,1,73.5,8.2a3.09,3.09,0,0,1,1.033,2.483V14.8a4.546,4.546,0,0,0,.378,2.048V17Zm-2.1-1.767a2.188,2.188,0,0,0,1.037-.25,1.645,1.645,0,0,0,.7-.672V12.676H71.04q-1.907,0-2.03,1.318L69,14.144a1.017,1.017,0,0,0,.334.782A1.3,1.3,0,0,0,70.249,15.233ZM79.169,17H76.621V3.5h2.549Zm6.469.176a4.668,4.668,0,0,1-3.406-1.283,4.561,4.561,0,0,1-1.314-3.419v-.246a5.745,5.745,0,0,1,.554-2.562,4.064,4.064,0,0,1,1.569-1.74,4.4,4.4,0,0,1,2.316-.611,3.947,3.947,0,0,1,3.072,1.23,5,5,0,0,1,1.121,3.489v1.037H83.494a2.36,2.36,0,0,0,.743,1.494,2.245,2.245,0,0,0,1.569.563A2.742,2.742,0,0,0,88.1,14.064l1.248,1.4A3.813,3.813,0,0,1,87.8,16.723,5.075,5.075,0,0,1,85.638,17.176Zm-.29-7.813a1.587,1.587,0,0,0-1.226.512,2.651,2.651,0,0,0-.6,1.466h3.533v-.2A1.891,1.891,0,0,0,86.6,9.826,1.638,1.638,0,0,0,85.348,9.362Zm8.561,5.59h4.649V17H90.666V15.453l4.474-5.915H90.8V7.49h7.62v1.5ZM105.66,17a2.821,2.821,0,0,1-.255-.853,3.073,3.073,0,0,1-2.4,1.028,3.376,3.376,0,0,1-2.316-.809,2.6,2.6,0,0,1-.918-2.039,2.687,2.687,0,0,1,1.121-2.32,5.529,5.529,0,0,1,3.239-.817H105.3v-.545a1.567,1.567,0,0,0-.338-1.055,1.331,1.331,0,0,0-1.068-.4,1.513,1.513,0,0,0-1.006.308,1.045,1.045,0,0,0-.365.844h-2.54a2.551,2.551,0,0,1,.51-1.529,3.37,3.37,0,0,1,1.441-1.1,5.253,5.253,0,0,1,2.092-.4,4.15,4.15,0,0,1,2.791.883,3.09,3.09,0,0,1,1.033,2.483V14.8a4.546,4.546,0,0,0,.378,2.048V17Zm-2.1-1.767a2.188,2.188,0,0,0,1.037-.25,1.645,1.645,0,0,0,.7-.672V12.676h-.949q-1.907,0-2.03,1.318l-.009.149a1.017,1.017,0,0,0,.334.782A1.3,1.3,0,0,0,103.559,15.233Zm11.391-.861a.818.818,0,0,0-.461-.734,5.241,5.241,0,0,0-1.481-.479q-3.393-.712-3.393-2.883a2.613,2.613,0,0,1,1.05-2.114,4.237,4.237,0,0,1,2.747-.848,4.56,4.56,0,0,1,2.9.853,2.687,2.687,0,0,1,1.085,2.215h-2.54a1.229,1.229,0,0,0-.352-.9,1.488,1.488,0,0,0-1.1-.356,1.52,1.52,0,0,0-.993.29.916.916,0,0,0-.352.738.783.783,0,0,0,.4.681,4.114,4.114,0,0,0,1.349.448,11.019,11.019,0,0,1,1.6.426,2.628,2.628,0,0,1,2.013,2.558,2.481,2.481,0,0,1-1.116,2.1,4.815,4.815,0,0,1-2.883.8,5.029,5.029,0,0,1-2.123-.426,3.561,3.561,0,0,1-1.455-1.169,2.716,2.716,0,0,1-.527-1.6h2.408a1.326,1.326,0,0,0,.5,1.037,1.987,1.987,0,0,0,1.248.36,1.839,1.839,0,0,0,1.1-.277A.861.861,0,0,0,114.95,14.372Z" transform="translate(18 287.5)" fill="#fff"/>
      </g>
      <g transform="matrix(1, 0, 0, 1, 390.29, 6619)" filter="url(#Trazado_227376)">
        <path id="Trazado_227376-2" data-name="Trazado 227376" d="M31.318,10.892a7.725,7.725,0,0,1-.668,3.313,5.03,5.03,0,0,1-1.912,2.2,5.649,5.649,0,0,1-5.691.009,5.08,5.08,0,0,1-1.934-2.184,7.5,7.5,0,0,1-.694-3.265v-.633A7.685,7.685,0,0,1,21.1,7,5.072,5.072,0,0,1,23.026,4.8a5.64,5.64,0,0,1,5.687,0A5.072,5.072,0,0,1,30.637,7a7.663,7.663,0,0,1,.681,3.318Zm-2.672-.58a5.385,5.385,0,0,0-.721-3.059,2.546,2.546,0,0,0-4.1-.013,5.324,5.324,0,0,0-.729,3.028v.624a5.453,5.453,0,0,0,.721,3.041,2.524,2.524,0,0,0,4.113.04,5.421,5.421,0,0,0,.721-3.037Zm12.981,2.021a5.7,5.7,0,0,1-1,3.52,3.2,3.2,0,0,1-2.694,1.323,2.963,2.963,0,0,1-2.329-1v4.482h-2.54V7.49h2.355l.088.932a2.985,2.985,0,0,1,2.408-1.107,3.22,3.22,0,0,1,2.733,1.3,5.858,5.858,0,0,1,.976,3.586Zm-2.54-.194a3.763,3.763,0,0,0-.47-2.054,1.53,1.53,0,0,0-1.367-.723,1.662,1.662,0,0,0-1.644.917v3.906a1.691,1.691,0,0,0,1.661.943Q39.088,15.128,39.088,12.139Zm3.718.018a5.64,5.64,0,0,1,.545-2.522,3.989,3.989,0,0,1,1.569-1.714A4.577,4.577,0,0,1,47.3,7.314a4.33,4.33,0,0,1,3.142,1.178,4.727,4.727,0,0,1,1.358,3.2l.018.65a4.97,4.97,0,0,1-1.222,3.511,4.735,4.735,0,0,1-6.561,0,5.058,5.058,0,0,1-1.226-3.586Zm2.54.18a3.555,3.555,0,0,0,.51,2.073,1.831,1.831,0,0,0,2.9.009,3.89,3.89,0,0,0,.519-2.267,3.519,3.519,0,0,0-.519-2.06A1.686,1.686,0,0,0,47.3,9.362a1.658,1.658,0,0,0-1.441.726A3.955,3.955,0,0,0,45.346,12.338ZM58.723,9.872a6.9,6.9,0,0,0-.914-.07,1.86,1.86,0,0,0-1.89.976V17h-2.54V7.49h2.4l.07,1.134a2.354,2.354,0,0,1,2.118-1.31,2.662,2.662,0,0,1,.791.114Zm4.7-4.72V7.49h1.626V9.354H63.425V14.1a1.133,1.133,0,0,0,.2.756,1.015,1.015,0,0,0,.773.229,4.051,4.051,0,0,0,.747-.062v1.925a5.229,5.229,0,0,1-1.538.229,2.425,2.425,0,0,1-2.725-2.7V9.354H59.5V7.49h1.389V5.152Zm8.736,10.881a3.185,3.185,0,0,1-2.6,1.143,3,3,0,0,1-2.333-.879,3.752,3.752,0,0,1-.822-2.575V7.49h2.54v6.151q0,1.487,1.354,1.487a1.834,1.834,0,0,0,1.775-.9V7.49h2.549V17H72.231ZM78.876,7.49l.079,1.1a3.32,3.32,0,0,1,2.733-1.274,2.759,2.759,0,0,1,2.25.888,4.142,4.142,0,0,1,.756,2.654V17h-2.54V10.9A1.654,1.654,0,0,0,81.8,9.728a1.572,1.572,0,0,0-1.169-.366,1.747,1.747,0,0,0-1.608.916V17h-2.54V7.49ZM89.3,17H86.751V7.49H89.3ZM86.6,5.029a1.251,1.251,0,0,1,.382-.94,1.648,1.648,0,0,1,2.079,0,1.244,1.244,0,0,1,.387.94,1.247,1.247,0,0,1-.391.949,1.629,1.629,0,0,1-2.065,0A1.247,1.247,0,0,1,86.6,5.029ZM91,12.175a5.731,5.731,0,0,1,1-3.542,3.237,3.237,0,0,1,2.729-1.318,2.913,2.913,0,0,1,2.294,1.037V3.5h2.549V17H97.271l-.123-1.011a2.989,2.989,0,0,1-2.443,1.187,3.228,3.228,0,0,1-2.694-1.323A5.916,5.916,0,0,1,91,12.175Zm2.54.181A3.775,3.775,0,0,0,94,14.413a1.516,1.516,0,0,0,1.354.715,1.7,1.7,0,0,0,1.661-1V10.36a1.675,1.675,0,0,0-1.644-1Q93.536,9.362,93.536,12.356ZM107.045,17a2.821,2.821,0,0,1-.255-.853,3.073,3.073,0,0,1-2.4,1.028,3.376,3.376,0,0,1-2.316-.809,2.6,2.6,0,0,1-.918-2.039,2.687,2.687,0,0,1,1.121-2.32,5.529,5.529,0,0,1,3.239-.817h1.169v-.545a1.567,1.567,0,0,0-.338-1.055,1.331,1.331,0,0,0-1.068-.4,1.513,1.513,0,0,0-1.006.308,1.045,1.045,0,0,0-.365.844h-2.54a2.551,2.551,0,0,1,.51-1.529,3.37,3.37,0,0,1,1.441-1.1,5.253,5.253,0,0,1,2.092-.4A4.15,4.15,0,0,1,108.2,8.2a3.09,3.09,0,0,1,1.033,2.483V14.8a4.546,4.546,0,0,0,.378,2.048V17Zm-2.1-1.767a2.188,2.188,0,0,0,1.037-.25,1.645,1.645,0,0,0,.7-.672V12.676h-.949q-1.907,0-2.03,1.318l-.009.149a1.017,1.017,0,0,0,.334.782A1.3,1.3,0,0,0,104.944,15.233Zm5.845-3.059a5.731,5.731,0,0,1,1-3.542,3.237,3.237,0,0,1,2.729-1.318,2.913,2.913,0,0,1,2.294,1.037V3.5h2.549V17h-2.294l-.123-1.011a2.989,2.989,0,0,1-2.443,1.187,3.228,3.228,0,0,1-2.694-1.323A5.916,5.916,0,0,1,110.789,12.175Zm2.54.181a3.775,3.775,0,0,0,.466,2.057,1.516,1.516,0,0,0,1.354.715,1.7,1.7,0,0,0,1.661-1V10.36a1.675,1.675,0,0,0-1.644-1Q113.329,9.362,113.329,12.356Zm12.375,4.82a4.668,4.668,0,0,1-3.406-1.283,4.561,4.561,0,0,1-1.314-3.419v-.246a5.745,5.745,0,0,1,.554-2.562,4.064,4.064,0,0,1,1.569-1.74,4.4,4.4,0,0,1,2.316-.611,3.947,3.947,0,0,1,3.072,1.23,5,5,0,0,1,1.121,3.489v1.037H123.56a2.36,2.36,0,0,0,.743,1.494,2.245,2.245,0,0,0,1.569.563,2.742,2.742,0,0,0,2.294-1.063l1.248,1.4a3.813,3.813,0,0,1-1.547,1.261A5.075,5.075,0,0,1,125.7,17.176Zm-.29-7.813a1.587,1.587,0,0,0-1.226.512,2.651,2.651,0,0,0-.6,1.466h3.533v-.2a1.891,1.891,0,0,0-.457-1.311A1.638,1.638,0,0,0,125.414,9.362Zm10.793,5.01a.818.818,0,0,0-.461-.734,5.241,5.241,0,0,0-1.481-.479q-3.393-.712-3.393-2.883a2.613,2.613,0,0,1,1.05-2.114,4.237,4.237,0,0,1,2.747-.848,4.56,4.56,0,0,1,2.9.853,2.687,2.687,0,0,1,1.085,2.215h-2.54a1.229,1.229,0,0,0-.352-.9,1.488,1.488,0,0,0-1.1-.356,1.52,1.52,0,0,0-.993.29.916.916,0,0,0-.352.738.783.783,0,0,0,.4.681,4.114,4.114,0,0,0,1.349.448,11.019,11.019,0,0,1,1.6.426,2.628,2.628,0,0,1,2.013,2.558,2.481,2.481,0,0,1-1.116,2.1,4.815,4.815,0,0,1-2.883.8,5.029,5.029,0,0,1-2.123-.426,3.561,3.561,0,0,1-1.455-1.169,2.716,2.716,0,0,1-.527-1.6h2.408a1.326,1.326,0,0,0,.5,1.037,1.987,1.987,0,0,0,1.248.36,1.839,1.839,0,0,0,1.1-.277A.861.861,0,0,0,136.207,14.372Z" transform="translate(222 83.5)" fill="#fff"/>
      </g>
      <g transform="matrix(1, 0, 0, 1, 390.29, 6619)" filter="url(#Trazado_227379)">
        <path id="Trazado_227379-2" data-name="Trazado 227379" d="M45.469,14.363H40.846L39.967,17h-2.8L41.927,4.2H44.37L49.16,17h-2.8Zm-3.911-2.136h3.2l-1.608-4.79ZM52.148,7.49l.079,1.063a3.342,3.342,0,0,1,2.733-1.239,2.536,2.536,0,0,1,2.522,1.45,3.265,3.265,0,0,1,2.856-1.45,2.836,2.836,0,0,1,2.3.9,4.141,4.141,0,0,1,.756,2.711V17H60.85V10.922a1.818,1.818,0,0,0-.316-1.185,1.4,1.4,0,0,0-1.116-.374,1.585,1.585,0,0,0-1.582,1.092L57.844,17H55.3V10.93a1.8,1.8,0,0,0-.325-1.2,1.414,1.414,0,0,0-1.107-.37,1.645,1.645,0,0,0-1.564.9V17h-2.54V7.49Zm17.578,9.686a4.668,4.668,0,0,1-3.406-1.283,4.561,4.561,0,0,1-1.314-3.419v-.246a5.745,5.745,0,0,1,.554-2.562,4.064,4.064,0,0,1,1.569-1.74,4.4,4.4,0,0,1,2.316-.611,3.947,3.947,0,0,1,3.072,1.23,5,5,0,0,1,1.121,3.489v1.037H67.582a2.36,2.36,0,0,0,.743,1.494,2.245,2.245,0,0,0,1.569.563,2.742,2.742,0,0,0,2.294-1.063l1.248,1.4a3.813,3.813,0,0,1-1.547,1.261A5.075,5.075,0,0,1,69.727,17.176Zm-.29-7.813a1.587,1.587,0,0,0-1.226.512,2.651,2.651,0,0,0-.6,1.466h3.533v-.2a1.891,1.891,0,0,0-.457-1.311A1.638,1.638,0,0,0,69.437,9.362Zm7.98-1.872.079,1.1a3.32,3.32,0,0,1,2.733-1.274,2.759,2.759,0,0,1,2.25.888,4.142,4.142,0,0,1,.756,2.654V17H80.7V10.9a1.654,1.654,0,0,0-.352-1.176,1.572,1.572,0,0,0-1.169-.366,1.747,1.747,0,0,0-1.608.916V17h-2.54V7.49ZM90.671,17a2.821,2.821,0,0,1-.255-.853,3.073,3.073,0,0,1-2.4,1.028,3.376,3.376,0,0,1-2.316-.809,2.6,2.6,0,0,1-.918-2.039,2.687,2.687,0,0,1,1.121-2.32,5.529,5.529,0,0,1,3.239-.817h1.169v-.545a1.567,1.567,0,0,0-.338-1.055A1.331,1.331,0,0,0,88.9,9.2,1.513,1.513,0,0,0,87.9,9.5a1.045,1.045,0,0,0-.365.844h-2.54a2.551,2.551,0,0,1,.51-1.529,3.37,3.37,0,0,1,1.441-1.1,5.253,5.253,0,0,1,2.092-.4,4.15,4.15,0,0,1,2.791.883,3.09,3.09,0,0,1,1.033,2.483V14.8a4.546,4.546,0,0,0,.378,2.048V17Zm-2.1-1.767a2.188,2.188,0,0,0,1.037-.25,1.645,1.645,0,0,0,.7-.672V12.676h-.949q-1.907,0-2.03,1.318l-.009.149a1.017,1.017,0,0,0,.334.782A1.3,1.3,0,0,0,88.57,15.233Zm9.158-.281h4.649V17H94.485V15.453l4.474-5.915H94.617V7.49h7.62v1.5ZM109.479,17a2.821,2.821,0,0,1-.255-.853,3.073,3.073,0,0,1-2.4,1.028,3.376,3.376,0,0,1-2.316-.809,2.6,2.6,0,0,1-.918-2.039,2.687,2.687,0,0,1,1.121-2.32,5.529,5.529,0,0,1,3.239-.817h1.169v-.545a1.567,1.567,0,0,0-.338-1.055,1.331,1.331,0,0,0-1.068-.4,1.513,1.513,0,0,0-1.006.308,1.045,1.045,0,0,0-.365.844H103.8a2.551,2.551,0,0,1,.51-1.529,3.37,3.37,0,0,1,1.441-1.1,5.253,5.253,0,0,1,2.092-.4,4.15,4.15,0,0,1,2.791.883,3.09,3.09,0,0,1,1.033,2.483V14.8a4.546,4.546,0,0,0,.378,2.048V17Zm-2.1-1.767a2.188,2.188,0,0,0,1.037-.25,1.645,1.645,0,0,0,.7-.672V12.676h-.949q-1.907,0-2.03,1.318l-.009.149a1.017,1.017,0,0,0,.334.782A1.3,1.3,0,0,0,107.379,15.233Zm11.391-.861a.818.818,0,0,0-.461-.734,5.241,5.241,0,0,0-1.481-.479q-3.393-.712-3.393-2.883a2.613,2.613,0,0,1,1.05-2.114,4.237,4.237,0,0,1,2.747-.848,4.56,4.56,0,0,1,2.9.853,2.687,2.687,0,0,1,1.085,2.215h-2.54a1.229,1.229,0,0,0-.352-.9,1.488,1.488,0,0,0-1.1-.356,1.52,1.52,0,0,0-.993.29.916.916,0,0,0-.352.738.783.783,0,0,0,.4.681,4.114,4.114,0,0,0,1.349.448,11.019,11.019,0,0,1,1.6.426,2.628,2.628,0,0,1,2.013,2.558,2.481,2.481,0,0,1-1.116,2.1,4.815,4.815,0,0,1-2.883.8,5.029,5.029,0,0,1-2.123-.426,3.561,3.561,0,0,1-1.455-1.169,2.716,2.716,0,0,1-.527-1.6h2.408a1.326,1.326,0,0,0,.5,1.037,1.987,1.987,0,0,0,1.248.36,1.839,1.839,0,0,0,1.1-.277A.861.861,0,0,0,118.77,14.372Z" transform="translate(222 287.5)" fill="#fff"/>
      </g>
    </g>
  </g>
</svg>
