<svg xmlns="http://www.w3.org/2000/svg" xmlns:xlink="http://www.w3.org/1999/xlink" width="400" height="398.049" viewBox="0 0 400 398.049">
  <defs>
    <clipPath id="clip-path">
      <rect id="Rect치ngulo_47711" data-name="Rect치ngulo 47711" width="279.936" height="279.948" fill="none"/>
    </clipPath>
    <filter id="Trazado_227370" x="113.348" y="111.672" width="34.787" height="39.328" filterUnits="userSpaceOnUse">
      <feOffset dy="3" input="SourceAlpha"/>
      <feGaussianBlur stdDeviation="3" result="blur"/>
      <feFlood flood-opacity="0.161"/>
      <feComposite operator="in" in2="blur"/>
      <feComposite in="SourceGraphic"/>
    </filter>
    <filter id="Trazado_227372" x="111.239" y="256.672" width="38.537" height="39.328" filterUnits="userSpaceOnUse">
      <feOffset dy="3" input="SourceAlpha"/>
      <feGaussianBlur stdDeviation="3" result="blur-2"/>
      <feFlood flood-opacity="0.161"/>
      <feComposite operator="in" in2="blur-2"/>
      <feComposite in="SourceGraphic"/>
    </filter>
    <filter id="Trazado_227369" x="263.572" y="111.672" width="35.827" height="39.328" filterUnits="userSpaceOnUse">
      <feOffset dy="3" input="SourceAlpha"/>
      <feGaussianBlur stdDeviation="3" result="blur-3"/>
      <feFlood flood-opacity="0.161"/>
      <feComposite operator="in" in2="blur-3"/>
      <feComposite in="SourceGraphic"/>
    </filter>
    <filter id="Trazado_227373" x="247.546" y="256.672" width="37.922" height="39.328" filterUnits="userSpaceOnUse">
      <feOffset dy="3" input="SourceAlpha"/>
      <feGaussianBlur stdDeviation="3" result="blur-4"/>
      <feFlood flood-opacity="0.161"/>
      <feComposite operator="in" in2="blur-4"/>
      <feComposite in="SourceGraphic"/>
    </filter>
    <clipPath id="clip-path-2">
      <rect id="Rect치ngulo_47712" data-name="Rect치ngulo 47712" width="400" height="398.049" fill="none"/>
    </clipPath>
  </defs>
  <g id="Grupo_143279" data-name="Grupo 143279" transform="translate(-285 -7207)">
    <g id="Grupo_143206" data-name="Grupo 143206" transform="translate(-382.285 -421)">
      <g id="Grupo_143225" data-name="Grupo 143225" transform="translate(382.285 -232.5)">
        <path id="Trazado_227368" data-name="Trazado 227368" d="M35.915,14.176V19H32.487V4.781h5.674a6.608,6.608,0,0,1,2.886.6A4.526,4.526,0,0,1,42.99,7.091a4.667,4.667,0,0,1,.688,2.515,4.114,4.114,0,0,1-1.489,3.325A6.179,6.179,0,0,1,38.1,14.176Zm0-2.646h2.246a2.118,2.118,0,0,0,1.519-.5A1.85,1.85,0,0,0,40.2,9.625a2.287,2.287,0,0,0-.537-1.592A1.9,1.9,0,0,0,38.2,7.428H35.915ZM57.39,19H53.981V13.063H48.933V19H45.5V4.781h3.428v5.645h5.049V4.781H57.39Zm7.686-3.867L67.907,4.781h3.828L66.95,19H63.2L58.454,4.781h3.8Zm15.039,1.211h-4.7L74.6,19H70.935L76.149,4.781h3.223L84.626,19H80.944ZM76.237,13.7h3.057L77.761,8.766Z" transform="translate(426 8047.974)" fill="#222"/>
        <path id="Trazado_227366" data-name="Trazado 227366" d="M20.25,12.491V17H17.613V4.2H22.6a5.776,5.776,0,0,1,2.536.527,3.886,3.886,0,0,1,1.683,1.5,4.178,4.178,0,0,1,.589,2.21,3.674,3.674,0,0,1-1.288,2.966,5.363,5.363,0,0,1-3.564,1.085Zm0-2.136H22.6a2.316,2.316,0,0,0,1.6-.492,1.79,1.79,0,0,0,.549-1.406A2.111,2.111,0,0,0,24.2,6.937a2.068,2.068,0,0,0-1.529-.6H20.25ZM31.737,17H29.188V3.5h2.549Zm7.6,0a2.821,2.821,0,0,1-.255-.853,3.073,3.073,0,0,1-2.4,1.028,3.376,3.376,0,0,1-2.316-.809,2.6,2.6,0,0,1-.918-2.039,2.687,2.687,0,0,1,1.121-2.32,5.529,5.529,0,0,1,3.239-.817h1.169v-.545a1.567,1.567,0,0,0-.338-1.055,1.331,1.331,0,0,0-1.068-.4,1.513,1.513,0,0,0-1.006.308,1.045,1.045,0,0,0-.365.844h-2.54a2.551,2.551,0,0,1,.51-1.529,3.37,3.37,0,0,1,1.441-1.1,5.253,5.253,0,0,1,2.092-.4A4.15,4.15,0,0,1,40.5,8.2a3.09,3.09,0,0,1,1.033,2.483V14.8a4.546,4.546,0,0,0,.378,2.048V17Zm-2.1-1.767a2.188,2.188,0,0,0,1.037-.25,1.645,1.645,0,0,0,.7-.672V12.676H38.03q-1.907,0-2.03,1.318l-.009.149a1.017,1.017,0,0,0,.334.782A1.3,1.3,0,0,0,37.239,15.233ZM45.817,7.49l.079,1.1a3.32,3.32,0,0,1,2.733-1.274,2.759,2.759,0,0,1,2.25.888,4.142,4.142,0,0,1,.756,2.654V17H49.1V10.9a1.654,1.654,0,0,0-.352-1.176,1.572,1.572,0,0,0-1.169-.366,1.747,1.747,0,0,0-1.608.916V17h-2.54V7.49Zm12.12,9.686a4.668,4.668,0,0,1-3.406-1.283,4.561,4.561,0,0,1-1.314-3.419v-.246a5.745,5.745,0,0,1,.554-2.562,4.064,4.064,0,0,1,1.569-1.74,4.4,4.4,0,0,1,2.316-.611,3.947,3.947,0,0,1,3.072,1.23,5,5,0,0,1,1.121,3.489v1.037H55.792a2.36,2.36,0,0,0,.743,1.494,2.245,2.245,0,0,0,1.569.563A2.742,2.742,0,0,0,60.4,14.064l1.248,1.4A3.813,3.813,0,0,1,60.1,16.723,5.075,5.075,0,0,1,57.937,17.176Zm-.29-7.813a1.587,1.587,0,0,0-1.226.512,2.651,2.651,0,0,0-.6,1.466h3.533v-.2A1.891,1.891,0,0,0,58.9,9.826,1.638,1.638,0,0,0,57.647,9.362ZM68.8,17a2.821,2.821,0,0,1-.255-.853,3.073,3.073,0,0,1-2.4,1.028,3.376,3.376,0,0,1-2.316-.809,2.6,2.6,0,0,1-.918-2.039,2.687,2.687,0,0,1,1.121-2.32,5.529,5.529,0,0,1,3.239-.817H68.44v-.545A1.567,1.567,0,0,0,68.1,9.591a1.331,1.331,0,0,0-1.068-.4,1.513,1.513,0,0,0-1.006.308,1.045,1.045,0,0,0-.365.844h-2.54a2.551,2.551,0,0,1,.51-1.529,3.37,3.37,0,0,1,1.441-1.1,5.253,5.253,0,0,1,2.092-.4,4.15,4.15,0,0,1,2.791.883,3.09,3.09,0,0,1,1.033,2.483V14.8a4.546,4.546,0,0,0,.378,2.048V17Zm-2.1-1.767a2.188,2.188,0,0,0,1.037-.25,1.645,1.645,0,0,0,.7-.672V12.676h-.949q-1.907,0-2.03,1.318l-.009.149a1.017,1.017,0,0,0,.334.782A1.3,1.3,0,0,0,66.7,15.233ZM78.284,9.872a6.9,6.9,0,0,0-.914-.07,1.86,1.86,0,0,0-1.89.976V17H72.94V7.49h2.4l.07,1.134a2.354,2.354,0,0,1,2.118-1.31,2.662,2.662,0,0,1,.791.114Z" transform="translate(303 7910.5)" fill="#12263f"/>
        <path id="Trazado_227371" data-name="Trazado 227371" d="M28.933,14.363H24.31L23.431,17h-2.8L25.391,4.2h2.443L32.625,17h-2.8Zm-3.911-2.136h3.2l-1.608-4.79Zm12.586,2.9a1.666,1.666,0,0,0,1.143-.387,1.355,1.355,0,0,0,.457-1.028h2.382a3.258,3.258,0,0,1-.527,1.771,3.48,3.48,0,0,1-1.419,1.248,4.442,4.442,0,0,1-1.991.444,4.129,4.129,0,0,1-3.217-1.3A5.13,5.13,0,0,1,33.257,12.3v-.167a5.071,5.071,0,0,1,1.169-3.507,4.08,4.08,0,0,1,3.208-1.31A4,4,0,0,1,40.5,8.33a3.594,3.594,0,0,1,1.094,2.7H39.208a1.745,1.745,0,0,0-.457-1.206,1.7,1.7,0,0,0-2.5.183,3.749,3.749,0,0,0-.453,2.1v.264a3.8,3.8,0,0,0,.448,2.113A1.549,1.549,0,0,0,37.608,15.128Zm8.473-9.976V7.49h1.626V9.354H46.081V14.1a1.133,1.133,0,0,0,.2.756,1.015,1.015,0,0,0,.773.229,4.051,4.051,0,0,0,.747-.062v1.925a5.229,5.229,0,0,1-1.538.229,2.425,2.425,0,0,1-2.725-2.7V9.354H42.152V7.49h1.389V5.152Zm8.736,10.881a3.185,3.185,0,0,1-2.6,1.143,3,3,0,0,1-2.333-.879,3.752,3.752,0,0,1-.822-2.575V7.49H51.6v6.151q0,1.487,1.354,1.487a1.834,1.834,0,0,0,1.775-.9V7.49h2.549V17H54.887ZM64.7,17a2.821,2.821,0,0,1-.255-.853,3.073,3.073,0,0,1-2.4,1.028,3.376,3.376,0,0,1-2.316-.809,2.6,2.6,0,0,1-.918-2.039,2.687,2.687,0,0,1,1.121-2.32,5.529,5.529,0,0,1,3.239-.817h1.169v-.545a1.567,1.567,0,0,0-.338-1.055,1.331,1.331,0,0,0-1.068-.4,1.513,1.513,0,0,0-1.006.308,1.045,1.045,0,0,0-.365.844h-2.54a2.551,2.551,0,0,1,.51-1.529,3.37,3.37,0,0,1,1.441-1.1,5.253,5.253,0,0,1,2.092-.4A4.15,4.15,0,0,1,65.86,8.2a3.09,3.09,0,0,1,1.033,2.483V14.8a4.546,4.546,0,0,0,.378,2.048V17Zm-2.1-1.767a2.188,2.188,0,0,0,1.037-.25,1.645,1.645,0,0,0,.7-.672V12.676H63.4q-1.907,0-2.03,1.318l-.009.149a1.017,1.017,0,0,0,.334.782A1.3,1.3,0,0,0,62.6,15.233ZM74.188,9.872a6.9,6.9,0,0,0-.914-.07,1.86,1.86,0,0,0-1.89.976V17h-2.54V7.49h2.4l.07,1.134a2.354,2.354,0,0,1,2.118-1.31,2.662,2.662,0,0,1,.791.114Z" transform="translate(303 8187.5)" fill="#12263f"/>
        <path id="Trazado_227367" data-name="Trazado 227367" d="M33.318,17H30.681V11.516H25.54V17H22.9V4.2H25.54V9.389h5.142V4.2h2.637Zm7.646,0a2.821,2.821,0,0,1-.255-.853,3.073,3.073,0,0,1-2.4,1.028,3.376,3.376,0,0,1-2.316-.809,2.6,2.6,0,0,1-.918-2.039,2.687,2.687,0,0,1,1.121-2.32,5.529,5.529,0,0,1,3.239-.817H40.6v-.545a1.567,1.567,0,0,0-.338-1.055A1.331,1.331,0,0,0,39.2,9.2a1.513,1.513,0,0,0-1.006.308,1.045,1.045,0,0,0-.365.844h-2.54a2.551,2.551,0,0,1,.51-1.529,3.37,3.37,0,0,1,1.441-1.1,5.253,5.253,0,0,1,2.092-.4A4.15,4.15,0,0,1,42.12,8.2a3.09,3.09,0,0,1,1.033,2.483V14.8a4.546,4.546,0,0,0,.378,2.048V17Zm-2.1-1.767a2.188,2.188,0,0,0,1.037-.25,1.645,1.645,0,0,0,.7-.672V12.676h-.949q-1.907,0-2.03,1.318l-.009.149a1.017,1.017,0,0,0,.334.782A1.3,1.3,0,0,0,38.864,15.233Zm10.2-.105a1.666,1.666,0,0,0,1.143-.387,1.355,1.355,0,0,0,.457-1.028h2.382a3.258,3.258,0,0,1-.527,1.771,3.48,3.48,0,0,1-1.419,1.248,4.442,4.442,0,0,1-1.991.444,4.129,4.129,0,0,1-3.217-1.3A5.13,5.13,0,0,1,44.708,12.3v-.167a5.071,5.071,0,0,1,1.169-3.507,4.08,4.08,0,0,1,3.208-1.31A4,4,0,0,1,51.946,8.33a3.594,3.594,0,0,1,1.094,2.7H50.659A1.745,1.745,0,0,0,50.2,9.826a1.7,1.7,0,0,0-2.5.183,3.749,3.749,0,0,0-.453,2.1v.264a3.8,3.8,0,0,0,.448,2.113A1.549,1.549,0,0,0,49.059,15.128Zm9.809,2.048a4.668,4.668,0,0,1-3.406-1.283,4.561,4.561,0,0,1-1.314-3.419v-.246A5.745,5.745,0,0,1,54.7,9.666a4.064,4.064,0,0,1,1.569-1.74,4.4,4.4,0,0,1,2.316-.611,3.947,3.947,0,0,1,3.072,1.23,5,5,0,0,1,1.121,3.489v1.037H56.723a2.36,2.36,0,0,0,.743,1.494,2.245,2.245,0,0,0,1.569.563,2.742,2.742,0,0,0,2.294-1.063l1.248,1.4a3.813,3.813,0,0,1-1.547,1.261A5.075,5.075,0,0,1,58.868,17.176Zm-.29-7.813a1.587,1.587,0,0,0-1.226.512,2.651,2.651,0,0,0-.6,1.466h3.533v-.2a1.891,1.891,0,0,0-.457-1.311A1.638,1.638,0,0,0,58.578,9.362Zm10.986.51a6.9,6.9,0,0,0-.914-.07,1.86,1.86,0,0,0-1.89.976V17H64.22V7.49h2.4l.07,1.134a2.354,2.354,0,0,1,2.118-1.31,2.662,2.662,0,0,1,.791.114Z" transform="translate(575.715 7910.5)" fill="#12263f"/>
        <path id="Trazado_227374" data-name="Trazado 227374" d="M17.155,13.827l2.9-9.624h2.936L18.535,17H15.784L11.345,4.2h2.927Zm10.863,3.349a4.668,4.668,0,0,1-3.406-1.283A4.561,4.561,0,0,1,23.3,12.474v-.246a5.745,5.745,0,0,1,.554-2.562,4.064,4.064,0,0,1,1.569-1.74,4.4,4.4,0,0,1,2.316-.611,3.947,3.947,0,0,1,3.072,1.23,5,5,0,0,1,1.121,3.489v1.037H25.874a2.36,2.36,0,0,0,.743,1.494,2.245,2.245,0,0,0,1.569.563,2.742,2.742,0,0,0,2.294-1.063l1.248,1.4a3.813,3.813,0,0,1-1.547,1.261A5.075,5.075,0,0,1,28.018,17.176Zm-.29-7.813a1.587,1.587,0,0,0-1.226.512,2.651,2.651,0,0,0-.6,1.466h3.533v-.2a1.891,1.891,0,0,0-.457-1.311A1.638,1.638,0,0,0,27.728,9.362Zm10.986.51A6.9,6.9,0,0,0,37.8,9.8a1.86,1.86,0,0,0-1.89.976V17h-2.54V7.49h2.4l.07,1.134a2.354,2.354,0,0,1,2.118-1.31,2.662,2.662,0,0,1,.791.114ZM42.617,17H40.068V7.49h2.549Zm-2.7-11.971a1.251,1.251,0,0,1,.382-.94,1.648,1.648,0,0,1,2.079,0,1.244,1.244,0,0,1,.387.94,1.247,1.247,0,0,1-.391.949,1.629,1.629,0,0,1-2.065,0A1.247,1.247,0,0,1,39.918,5.029ZM45.324,17V9.354H43.909V7.49h1.415V7.051a3.566,3.566,0,0,1,1.1-2.764,4.438,4.438,0,0,1,3.063-.971,10.16,10.16,0,0,1,2.883.519L52,5.935a11.248,11.248,0,0,0-1.336-.33,6.564,6.564,0,0,0-1.02-.075q-1.775,0-1.775,1.573V7.49h1.872V9.354H47.873V17Zm8.235,0H51.01V7.49h2.549Zm6.056-1.872a1.666,1.666,0,0,0,1.143-.387,1.355,1.355,0,0,0,.457-1.028H63.6a3.258,3.258,0,0,1-.527,1.771,3.48,3.48,0,0,1-1.419,1.248,4.442,4.442,0,0,1-1.991.444,4.129,4.129,0,0,1-3.217-1.3A5.13,5.13,0,0,1,55.264,12.3v-.167a5.071,5.071,0,0,1,1.169-3.507,4.08,4.08,0,0,1,3.208-1.31A4,4,0,0,1,62.5,8.33a3.594,3.594,0,0,1,1.094,2.7H61.214a1.745,1.745,0,0,0-.457-1.206,1.7,1.7,0,0,0-2.5.183,3.749,3.749,0,0,0-.453,2.1v.264a3.8,3.8,0,0,0,.448,2.113A1.549,1.549,0,0,0,59.615,15.128ZM70.557,17a2.821,2.821,0,0,1-.255-.853,3.073,3.073,0,0,1-2.4,1.028,3.376,3.376,0,0,1-2.316-.809,2.6,2.6,0,0,1-.918-2.039,2.687,2.687,0,0,1,1.121-2.32,5.529,5.529,0,0,1,3.239-.817H70.2v-.545a1.567,1.567,0,0,0-.338-1.055,1.331,1.331,0,0,0-1.068-.4,1.513,1.513,0,0,0-1.006.308,1.045,1.045,0,0,0-.365.844h-2.54a2.551,2.551,0,0,1,.51-1.529,3.37,3.37,0,0,1,1.441-1.1,5.253,5.253,0,0,1,2.092-.4,4.15,4.15,0,0,1,2.791.883,3.09,3.09,0,0,1,1.033,2.483V14.8a4.546,4.546,0,0,0,.378,2.048V17Zm-2.1-1.767a2.188,2.188,0,0,0,1.037-.25,1.645,1.645,0,0,0,.7-.672V12.676h-.949q-1.907,0-2.03,1.318l-.009.149a1.017,1.017,0,0,0,.334.782A1.3,1.3,0,0,0,68.457,15.233ZM80.041,9.872a6.9,6.9,0,0,0-.914-.07,1.86,1.86,0,0,0-1.89.976V17H74.7V7.49h2.4l.07,1.134a2.354,2.354,0,0,1,2.118-1.31,2.662,2.662,0,0,1,.791.114Z" transform="translate(575.715 8187.5)" fill="#12263f"/>
        <g id="Grupo_143206-2" data-name="Grupo 143206" transform="translate(345.025 8200.941) rotate(-90)">
          <g id="Grupo_143221" data-name="Grupo 143221" clip-path="url(#clip-path)">
            <g id="Grupo_143220" data-name="Grupo 143220">
              <g id="Grupo_143223" data-name="Grupo 143223">
                <path id="Trazado_227341" data-name="Trazado 227341" d="M243.328,165.581a6.606,6.606,0,0,1-3.594-1.058l-29.592-19.191a70.462,70.462,0,0,1-67.695,64.077l-22.328,34.428a.6.6,0,0,0-.008.642l21.735,35.469A139.99,139.99,0,0,0,279.887,144.323l-33.108,20.288a6.587,6.587,0,0,1-3.451.97" fill="#d4bb88"/>
                <path id="Trazado_227342" data-name="Trazado 227342" d="M199.02,142.994a59.2,59.2,0,0,1-56.4,55.14v5.793a64.988,64.988,0,0,0,62.212-60.933Z" fill="#d4bb88"/>
                <path id="Trazado_227343" data-name="Trazado 227343" d="M199.118,136.994h5.793a64.985,64.985,0,0,0-61.949-62.925v5.793a59.2,59.2,0,0,1,56.156,57.132" fill="#d8a164"/>
                <path id="Trazado_227344" data-name="Trazado 227344" d="M210.425,138.363,243,159.49a.6.6,0,0,0,.643.007l36-22.061.291.476A139.99,139.99,0,0,0,144.768.062l19.81,32.251a6.629,6.629,0,0,1-.087,7.048L145.434,68.747a70.46,70.46,0,0,1,64.991,69.616" fill="#d8a164"/>
                <path id="Trazado_227345" data-name="Trazado 227345" d="M136.962,79.862V74.069A64.984,64.984,0,0,0,75,137.444h5.793a59.2,59.2,0,0,1,56.168-57.582" fill="#cf7650"/>
                <path id="Trazado_227346" data-name="Trazado 227346" d="M138.407,68.554,159.458,36.1a.607.607,0,0,0,.008-.642L137.687,0A139.994,139.994,0,0,0,.026,135.873L31.8,115.846a6.647,6.647,0,0,1,7.077.068l30.686,19.9a70.46,70.46,0,0,1,68.844-67.262" fill="#cf7650"/>
                <path id="Trazado_227347" data-name="Trazado 227347" d="M80.938,143.444H75.13a65,65,0,0,0,61.484,60.465V198.1a59.2,59.2,0,0,1-55.676-54.656" fill="#ffc52b"/>
                <path id="Trazado_227348" data-name="Trazado 227348" d="M69.6,142.993,35.612,120.949a.6.6,0,0,0-.641-.009L0,142.982A139.993,139.993,0,0,0,134.758,279.866L115,247.616a6.632,6.632,0,0,1,.088-7.045l20.276-31.265A70.467,70.467,0,0,1,69.6,142.993" fill="#ffc52b"/>
              </g>
            </g>
          </g>
        </g>
        <g transform="matrix(1, 0, 0, 1, 285, 7860.5)" filter="url(#Trazado_227370)">
          <path id="Trazado_227370-2" data-name="Trazado 227370" d="M24.99,21.764V29H19.848V7.672h8.511a9.913,9.913,0,0,1,4.329.9A6.789,6.789,0,0,1,35.6,11.136a7,7,0,0,1,1.033,3.772A6.171,6.171,0,0,1,34.4,19.9a9.269,9.269,0,0,1-6.13,1.868Zm0-3.97h3.369a3.177,3.177,0,0,0,2.278-.747,2.776,2.776,0,0,0,.784-2.109,3.431,3.431,0,0,0-.806-2.388,2.853,2.853,0,0,0-2.2-.908H24.99Z" transform="translate(102.5 110)" fill="#fff"/>
        </g>
        <g transform="matrix(1, 0, 0, 1, 285, 7860.5)" filter="url(#Trazado_227372)">
          <path id="Trazado_227372-2" data-name="Trazado 227372" d="M31.508,25.016H24.462L23.232,29H17.739L25.561,7.672H30.4L38.276,29H32.753Zm-5.815-3.97h4.585l-2.3-7.4Z" transform="translate(102.5 255)" fill="#fff"/>
        </g>
        <g transform="matrix(1, 0, 0, 1, 285, 7860.5)" filter="url(#Trazado_227369)">
          <path id="Trazado_227369-2" data-name="Trazado 227369" d="M31.9,29H26.787V20.094H19.213V29H14.072V7.672h5.142v8.467h7.573V7.672H31.9Z" transform="translate(258.5 110)" fill="#fff"/>
        </g>
        <g transform="matrix(1, 0, 0, 1, 285, 7860.5)" filter="url(#Trazado_227373)">
          <path id="Trazado_227373-2" data-name="Trazado 227373" d="M22.978,23.2,27.226,7.672h5.742L25.791,29H20.166L13.046,7.672h5.7Z" transform="translate(243.5 255)" fill="#fff"/>
        </g>
      </g>
      <g id="Grupo_143207" data-name="Grupo 143207" transform="translate(667.285 7628)">
        <g id="Grupo_143224" data-name="Grupo 143224" clip-path="url(#clip-path-2)">
          <path id="Trazado_227349" data-name="Trazado 227349" d="M369.622,398.049H367.19a.749.749,0,1,1,0-1.5h2.432a.749.749,0,0,1,0,1.5m-6.082,0h-2.432a.749.749,0,1,1,0-1.5h2.432a.749.749,0,1,1,0,1.5m-6.083,0h-2.432a.749.749,0,0,1,0-1.5h2.432a.749.749,0,1,1,0,1.5m-6.082,0h-2.434a.749.749,0,1,1,0-1.5h2.434a.749.749,0,1,1,0,1.5m-6.082,0h-2.434a.749.749,0,0,1,0-1.5h2.434a.749.749,0,1,1,0,1.5m-6.083,0h-2.432a.749.749,0,1,1,0-1.5h2.432a.749.749,0,0,1,0,1.5m-6.082,0H330.7a.749.749,0,1,1,0-1.5h2.432a.749.749,0,0,1,0,1.5m-6.083,0h-2.432a.749.749,0,0,1,0-1.5h2.432a.749.749,0,0,1,0,1.5m-6.082,0h-2.434a.749.749,0,0,1,0-1.5h2.434a.749.749,0,0,1,0,1.5m-6.082,0H312.45a.749.749,0,0,1,0-1.5h2.434a.749.749,0,1,1,0,1.5m-6.083,0h-2.432a.749.749,0,0,1,0-1.5H308.8a.749.749,0,1,1,0,1.5m-6.082,0h-2.432a.749.749,0,0,1,0-1.5h2.432a.749.749,0,0,1,0,1.5m-6.083,0H294.2a.749.749,0,0,1,0-1.5h2.432a.749.749,0,1,1,0,1.5m-6.082,0h-2.434a.749.749,0,1,1,0-1.5h2.434a.749.749,0,1,1,0,1.5m-6.082,0h-2.434a.749.749,0,1,1,0-1.5h2.434a.749.749,0,1,1,0,1.5m-6.083,0h-2.432a.749.749,0,1,1,0-1.5h2.432a.749.749,0,0,1,0,1.5m-6.082,0h-2.432a.749.749,0,1,1,0-1.5h2.432a.749.749,0,0,1,0,1.5m-6.083,0h-2.432a.749.749,0,0,1,0-1.5h2.432a.749.749,0,0,1,0,1.5m-6.083,0H257.71a.749.749,0,1,1,0-1.5h2.432a.749.749,0,0,1,0,1.5m-6.08,0h-2.434a.749.749,0,1,1,0-1.5h2.434a.749.749,0,0,1,0,1.5m-6.083,0h-2.434a.749.749,0,1,1,0-1.5h2.434a.749.749,0,0,1,0,1.5m-6.082,0h-2.432a.749.749,0,1,1,0-1.5H241.9a.749.749,0,0,1,0,1.5m-6.083,0h-2.432a.749.749,0,1,1,0-1.5h2.432a.749.749,0,1,1,0,1.5m-6.082,0H227.3a.749.749,0,0,1,0-1.5h2.434a.749.749,0,1,1,0,1.5m-6.082,0h-2.434a.749.749,0,1,1,0-1.5h2.434a.749.749,0,0,1,0,1.5m-6.083,0h-2.434a.749.749,0,1,1,0-1.5h2.434a.749.749,0,0,1,0,1.5m-6.082,0h-2.432a.749.749,0,1,1,0-1.5h2.432a.749.749,0,0,1,0,1.5m-6.083,0h-2.432a.749.749,0,1,1,0-1.5H205.4a.749.749,0,0,1,0,1.5m-6.082,0H196.89a.749.749,0,1,1,0-1.5h2.432a.749.749,0,0,1,0,1.5m-6.082,0h-2.434a.749.749,0,0,1,0-1.5h2.434a.749.749,0,0,1,0,1.5m-6.083,0h-2.434a.749.749,0,1,1,0-1.5h2.434a.749.749,0,0,1,0,1.5m-6.082,0h-2.432a.749.749,0,0,1,0-1.5h2.432a.749.749,0,1,1,0,1.5m-6.082,0h-2.432a.749.749,0,0,1,0-1.5h2.432a.749.749,0,1,1,0,1.5m-6.083,0H166.48a.749.749,0,1,1,0-1.5h2.432a.749.749,0,1,1,0,1.5m-6.082,0H160.4a.749.749,0,1,1,0-1.5h2.434a.749.749,0,0,1,0,1.5m-6.083,0h-2.434a.749.749,0,1,1,0-1.5h2.434a.749.749,0,0,1,0,1.5m-6.08,0h-2.434a.749.749,0,1,1,0-1.5h2.434a.749.749,0,0,1,0,1.5m-6.083,0h-2.432a.749.749,0,1,1,0-1.5h2.432a.749.749,0,0,1,0,1.5m-6.083,0h-2.432a.749.749,0,1,1,0-1.5H138.5a.749.749,0,0,1,0,1.5m-6.083,0h-2.432a.749.749,0,1,1,0-1.5h2.432a.749.749,0,0,1,0,1.5m-6.082,0H123.9a.749.749,0,1,1,0-1.5h2.434a.749.749,0,1,1,0,1.5m-6.08,0h-2.434a.749.749,0,1,1,0-1.5h2.434a.749.749,0,0,1,0,1.5m-6.085,0H111.74a.749.749,0,1,1,0-1.5h2.432a.749.749,0,0,1,0,1.5m-6.082,0h-2.434a.749.749,0,0,1,0-1.5h2.434a.749.749,0,0,1,0,1.5m-6.083,0H99.575a.749.749,0,1,1,0-1.5h2.432a.749.749,0,1,1,0,1.5m-6.082,0H93.492a.749.749,0,1,1,0-1.5h2.434a.749.749,0,0,1,0,1.5m-6.08,0H87.412a.749.749,0,1,1,0-1.5h2.434a.749.749,0,0,1,0,1.5m-6.085,0H81.329a.749.749,0,1,1,0-1.5h2.432a.749.749,0,0,1,0,1.5m-6.082,0H75.247a.749.749,0,1,1,0-1.5H77.68a.749.749,0,0,1,0,1.5m-6.083,0H69.166a.749.749,0,1,1,0-1.5H71.6a.749.749,0,0,1,0,1.5m-6.082,0H63.081a.749.749,0,0,1,0-1.5h2.434a.749.749,0,0,1,0,1.5m-6.082,0H57a.749.749,0,1,1,0-1.5h2.432a.749.749,0,0,1,0,1.5m-6.083,0H50.918a.749.749,0,1,1,0-1.5h2.432a.749.749,0,0,1,0,1.5m-6.082,0H44.837a.749.749,0,1,1,0-1.5h2.432a.749.749,0,0,1,0,1.5m-6.082,0H38.754a.749.749,0,1,1,0-1.5h2.434a.749.749,0,0,1,0,1.5m-6.083,0H32.671a.749.749,0,0,1,0-1.5H35.1a.749.749,0,0,1,0,1.5m-6.082,0H27.8c-.418,0-.832-.009-1.244-.027a.75.75,0,0,1,.066-1.5c.39.018.784.027,1.178.027h1.223a.749.749,0,0,1,0,1.5m344.25-.021a.75.75,0,0,1-.03-1.5c.776-.028,1.569-.1,2.359-.2a.75.75,0,0,1,.187,1.488c-.832.1-1.67.175-2.488.207Zm-350.3-.409a.822.822,0,0,1-.136-.012c-.821-.151-1.641-.337-2.435-.554a.75.75,0,1,1,.4-1.446c.752.208,1.529.384,2.309.526a.75.75,0,0,1-.135,1.487m356.3-.5a.749.749,0,0,1-.195-1.472c.758-.205,1.515-.447,2.251-.721a.749.749,0,0,1,.52,1.406c-.776.288-1.578.546-2.381.76a.727.727,0,0,1-.195.027M17.157,395.876a.718.718,0,0,1-.294-.061c-.767-.33-1.526-.7-2.251-1.087a.75.75,0,1,1,.71-1.32c.686.37,1.4.718,2.13,1.031a.749.749,0,0,1-.3,1.437m367.755-.994a.75.75,0,0,1-.352-1.412c.689-.367,1.374-.772,2.035-1.2a.749.749,0,1,1,.82,1.253c-.7.457-1.422.886-2.149,1.274a.75.75,0,0,1-.354.088m-373.026-2.01a.751.751,0,0,1-.441-.144c-.674-.492-1.332-1.018-1.953-1.562a.75.75,0,1,1,.991-1.127c.584.516,1.2,1.012,1.845,1.478a.75.75,0,0,1-.442,1.355m378.027-1.43a.749.749,0,0,1-.49-1.316c.587-.51,1.166-1.057,1.717-1.629a.749.749,0,1,1,1.076,1.042c-.58.6-1.191,1.181-1.813,1.72a.741.741,0,0,1-.49.183m-382.5-2.669a.75.75,0,0,1-.565-.256c-.543-.622-1.069-1.28-1.557-1.954a.748.748,0,1,1,1.209-.881c.466.638.962,1.26,1.475,1.848a.75.75,0,0,1-.562,1.244m386.613-1.792a.749.749,0,0,1-.6-1.193c.472-.641.913-1.3,1.31-1.966a.75.75,0,0,1,1.286.772c-.423.7-.889,1.4-1.386,2.082a.747.747,0,0,1-.605.306m-390.067-3.2a.748.748,0,0,1-.659-.393c-.393-.73-.757-1.487-1.085-2.255a.75.75,0,0,1,1.38-.589c.309.728.655,1.446,1.025,2.133a.75.75,0,0,1-.661,1.1m393.084-2.065a.742.742,0,0,1-.3-.061.751.751,0,0,1-.391-.986c.313-.724.6-1.466.838-2.208a.75.75,0,1,1,1.425.465c-.258.787-.556,1.572-.887,2.338a.749.749,0,0,1-.688.453M1.7,378.148a.747.747,0,0,1-.721-.551c-.219-.8-.4-1.62-.549-2.438a.748.748,0,0,1,.6-.869.762.762,0,0,1,.871.605c.138.775.313,1.551.519,2.306a.749.749,0,0,1-.526.92.741.741,0,0,1-.2.027m397.1-2.236a.838.838,0,0,1-.136-.01.751.751,0,0,1-.6-.872c.141-.778.25-1.565.322-2.344a.774.774,0,0,1,.815-.677.751.751,0,0,1,.677.815c-.076.823-.19,1.655-.34,2.474a.75.75,0,0,1-.736.614M.775,372.152a.749.749,0,0,1-.749-.718c-.018-.393-.025-.788-.025-1.185V368.97a.749.749,0,1,1,1.5,0v1.278c0,.376.007.751.025,1.121a.752.752,0,0,1-.718.782Zm398.476-2.291a.748.748,0,0,1-.749-.749v-2.434a.749.749,0,1,1,1.5,0v2.434a.749.749,0,0,1-.749.749M.749,366.069A.749.749,0,0,1,0,365.32v-2.432a.749.749,0,1,1,1.5,0v2.432a.749.749,0,0,1-.749.749m398.5-2.29a.749.749,0,0,1-.749-.749V360.6a.749.749,0,1,1,1.5,0v2.432a.75.75,0,0,1-.749.749M.749,359.987A.75.75,0,0,1,0,359.238V356.8a.749.749,0,1,1,1.5,0v2.434a.75.75,0,0,1-.749.749m398.5-2.291a.748.748,0,0,1-.749-.749v-2.432a.749.749,0,0,1,1.5,0v2.432a.749.749,0,0,1-.749.749m-398.5-3.79A.75.75,0,0,1,0,353.157v-2.434a.749.749,0,1,1,1.5,0v2.434a.75.75,0,0,1-.749.749m398.5-2.291a.749.749,0,0,1-.749-.749v-2.432a.749.749,0,0,1,1.5,0v2.432a.75.75,0,0,1-.749.749M.749,347.823A.749.749,0,0,1,0,347.073v-2.432a.749.749,0,1,1,1.5,0v2.432a.749.749,0,0,1-.749.749m398.5-2.291a.749.749,0,0,1-.749-.749V342.35a.749.749,0,0,1,1.5,0v2.432a.75.75,0,0,1-.749.749m-398.5-3.79A.75.75,0,0,1,0,340.992V338.56a.749.749,0,1,1,1.5,0v2.432a.75.75,0,0,1-.749.749m398.5-2.291a.748.748,0,0,1-.749-.749v-2.434a.749.749,0,0,1,1.5,0V338.7a.749.749,0,0,1-.749.749M.749,335.658A.749.749,0,0,1,0,334.909v-2.432a.749.749,0,1,1,1.5,0v2.432a.749.749,0,0,1-.749.749m398.5-2.29a.749.749,0,0,1-.749-.749v-2.432a.749.749,0,0,1,1.5,0v2.432a.75.75,0,0,1-.749.749M.749,329.577A.75.75,0,0,1,0,328.827V326.4a.749.749,0,1,1,1.5,0v2.432a.75.75,0,0,1-.749.749m398.5-2.291a.748.748,0,0,1-.749-.749V324.1a.749.749,0,0,1,1.5,0v2.432a.749.749,0,0,1-.749.749M.749,323.5A.75.75,0,0,1,0,322.746v-2.434a.749.749,0,1,1,1.5,0v2.434a.75.75,0,0,1-.749.749m398.5-2.291a.749.749,0,0,1-.749-.749v-2.432a.749.749,0,0,1,1.5,0v2.432a.75.75,0,0,1-.749.749M.749,317.412A.749.749,0,0,1,0,316.663v-2.434a.749.749,0,1,1,1.5,0v2.434a.749.749,0,0,1-.749.749m398.5-2.291a.749.749,0,0,1-.749-.749v-2.432a.749.749,0,0,1,1.5,0v2.432a.75.75,0,0,1-.749.749m-398.5-3.79A.75.75,0,0,1,0,310.581v-2.432a.749.749,0,1,1,1.5,0v2.432a.75.75,0,0,1-.749.749m398.5-2.291a.748.748,0,0,1-.749-.749v-2.434a.749.749,0,0,1,1.5,0v2.434a.749.749,0,0,1-.749.749M.749,305.248A.749.749,0,0,1,0,304.5v-2.432a.749.749,0,1,1,1.5,0V304.5a.749.749,0,0,1-.749.749m398.5-2.29a.749.749,0,0,1-.749-.749v-2.432a.749.749,0,0,1,1.5,0v2.432a.75.75,0,0,1-.749.749M.749,299.166A.75.75,0,0,1,0,298.417v-2.432a.749.749,0,1,1,1.5,0v2.432a.75.75,0,0,1-.749.749m398.5-2.291a.748.748,0,0,1-.749-.749v-2.432a.749.749,0,0,1,1.5,0v2.432a.749.749,0,0,1-.749.749m-398.5-3.79A.75.75,0,0,1,0,292.335V289.9a.749.749,0,1,1,1.5,0v2.434a.75.75,0,0,1-.749.749m398.5-2.291a.749.749,0,0,1-.749-.749v-2.432a.749.749,0,0,1,1.5,0v2.432a.75.75,0,0,1-.749.749M.749,287A.749.749,0,0,1,0,286.252v-2.434a.749.749,0,1,1,1.5,0v2.434A.749.749,0,0,1,.749,287m398.5-2.291a.749.749,0,0,1-.749-.749v-2.432a.749.749,0,0,1,1.5,0v2.432a.75.75,0,0,1-.749.749M.749,280.92A.75.75,0,0,1,0,280.171v-2.432a.749.749,0,1,1,1.5,0v2.432a.75.75,0,0,1-.749.749m398.5-2.291a.748.748,0,0,1-.749-.749v-2.434a.749.749,0,0,1,1.5,0v2.434a.749.749,0,0,1-.749.749M.749,274.837A.749.749,0,0,1,0,274.088v-2.432a.749.749,0,1,1,1.5,0v2.432a.749.749,0,0,1-.749.749m398.5-2.29a.749.749,0,0,1-.749-.749v-2.432a.749.749,0,0,1,1.5,0V271.8a.75.75,0,0,1-.749.749M.749,268.755A.75.75,0,0,1,0,268.006v-2.432a.749.749,0,1,1,1.5,0v2.432a.75.75,0,0,1-.749.749m398.5-2.291a.748.748,0,0,1-.749-.749v-2.432a.749.749,0,0,1,1.5,0v2.432a.749.749,0,0,1-.749.749M.749,262.672A.75.75,0,0,1,0,261.923v-2.432a.749.749,0,1,1,1.5,0v2.432a.75.75,0,0,1-.749.749m398.5-2.29a.749.749,0,0,1-.749-.749V257.2a.749.749,0,0,1,1.5,0v2.432a.75.75,0,0,1-.749.749M.749,256.591A.749.749,0,0,1,0,255.841v-2.434a.749.749,0,1,1,1.5,0v2.434a.749.749,0,0,1-.749.749m398.5-2.291a.749.749,0,0,1-.749-.749v-2.432a.749.749,0,1,1,1.5,0v2.432a.75.75,0,0,1-.749.749m-398.5-3.79A.75.75,0,0,1,0,249.76v-2.432a.749.749,0,1,1,1.5,0v2.432a.75.75,0,0,1-.749.749m398.5-2.291a.748.748,0,0,1-.749-.749v-2.434a.749.749,0,1,1,1.5,0v2.434a.749.749,0,0,1-.749.749M.749,244.426A.749.749,0,0,1,0,243.677v-2.432a.749.749,0,1,1,1.5,0v2.432a.749.749,0,0,1-.749.749m398.5-2.29a.749.749,0,0,1-.749-.749v-2.434a.749.749,0,1,1,1.5,0v2.434a.75.75,0,0,1-.749.749M.749,238.345A.75.75,0,0,1,0,237.6v-2.432a.749.749,0,1,1,1.5,0V237.6a.75.75,0,0,1-.749.749m398.5-2.291a.748.748,0,0,1-.749-.749v-2.432a.749.749,0,1,1,1.5,0V235.3a.749.749,0,0,1-.749.749M.749,232.262A.75.75,0,0,1,0,231.512V229.08a.749.749,0,1,1,1.5,0v2.432a.75.75,0,0,1-.749.749m398.5-2.29a.749.749,0,0,1-.749-.749V226.79a.749.749,0,1,1,1.5,0v2.432a.75.75,0,0,1-.749.749M.749,226.18A.749.749,0,0,1,0,225.431V223a.749.749,0,1,1,1.5,0v2.434a.749.749,0,0,1-.749.749m398.5-2.291a.749.749,0,0,1-.749-.749v-2.432a.749.749,0,1,1,1.5,0v2.432a.75.75,0,0,1-.749.749M.749,220.1A.75.75,0,0,1,0,219.349v-2.434a.749.749,0,1,1,1.5,0v2.434a.75.75,0,0,1-.749.749m398.5-2.291a.748.748,0,0,1-.749-.749v-2.434a.749.749,0,1,1,1.5,0v2.434a.749.749,0,0,1-.749.749M.749,214.015A.749.749,0,0,1,0,213.266v-2.432a.749.749,0,1,1,1.5,0v2.432a.749.749,0,0,1-.749.749m398.5-2.29a.749.749,0,0,1-.749-.749v-2.434a.749.749,0,1,1,1.5,0v2.434a.75.75,0,0,1-.749.749M.749,207.934A.75.75,0,0,1,0,207.185v-2.432a.749.749,0,1,1,1.5,0v2.432a.75.75,0,0,1-.749.749m398.5-2.291a.748.748,0,0,1-.749-.749v-2.432a.749.749,0,1,1,1.5,0v2.432a.749.749,0,0,1-.749.749M.749,201.851A.749.749,0,0,1,0,201.1v-2.432a.749.749,0,1,1,1.5,0V201.1a.749.749,0,0,1-.749.749m398.5-2.29a.749.749,0,0,1-.749-.749v-2.432a.749.749,0,1,1,1.5,0v2.432a.75.75,0,0,1-.749.749M.749,195.769A.75.75,0,0,1,0,195.02v-2.434a.749.749,0,1,1,1.5,0v2.434a.75.75,0,0,1-.749.749m398.5-2.29a.749.749,0,0,1-.749-.749V190.3a.749.749,0,1,1,1.5,0v2.434a.75.75,0,0,1-.749.749M.749,189.686A.749.749,0,0,1,0,188.937V186.5a.749.749,0,1,1,1.5,0v2.432a.749.749,0,0,1-.749.749m398.5-2.29a.749.749,0,0,1-.749-.749v-2.434a.749.749,0,1,1,1.5,0v2.434a.75.75,0,0,1-.749.749M.749,183.6A.749.749,0,0,1,0,182.855v-2.432a.749.749,0,1,1,1.5,0v2.432a.749.749,0,0,1-.749.749m398.5-2.29a.749.749,0,0,1-.749-.749v-2.434a.749.749,0,1,1,1.5,0v2.434a.75.75,0,0,1-.749.749M.749,177.523A.75.75,0,0,1,0,176.774v-2.432a.749.749,0,1,1,1.5,0v2.432a.75.75,0,0,1-.749.749m398.5-2.291a.748.748,0,0,1-.749-.749V172.05a.749.749,0,1,1,1.5,0v2.432a.749.749,0,0,1-.749.749M.749,171.44A.749.749,0,0,1,0,170.691v-2.432a.749.749,0,1,1,1.5,0v2.432a.749.749,0,0,1-.749.749m398.5-2.29a.749.749,0,0,1-.749-.749v-2.432a.749.749,0,1,1,1.5,0V168.4a.75.75,0,0,1-.749.749M.749,165.359A.75.75,0,0,1,0,164.609v-2.434a.749.749,0,1,1,1.5,0v2.434a.75.75,0,0,1-.749.749m398.5-2.29a.749.749,0,0,1-.749-.749v-2.434a.749.749,0,1,1,1.5,0v2.434a.75.75,0,0,1-.749.749M.749,159.276A.749.749,0,0,1,0,158.526v-2.432a.749.749,0,1,1,1.5,0v2.432a.749.749,0,0,1-.749.749m398.5-2.29a.749.749,0,0,1-.749-.749V153.8a.749.749,0,1,1,1.5,0v2.434a.75.75,0,0,1-.749.749M.749,153.194A.749.749,0,0,1,0,152.445v-2.432a.749.749,0,1,1,1.5,0v2.432a.749.749,0,0,1-.749.749m398.5-2.291a.748.748,0,0,1-.749-.749v-2.432a.749.749,0,1,1,1.5,0v2.432a.749.749,0,0,1-.749.749m-398.5-3.79A.75.75,0,0,1,0,146.363v-2.432a.749.749,0,0,1,1.5,0v2.432a.75.75,0,0,1-.749.749m398.5-2.291a.748.748,0,0,1-.749-.749v-2.432a.749.749,0,1,1,1.5,0v2.432a.749.749,0,0,1-.749.749M.749,141.029A.749.749,0,0,1,0,140.28v-2.432a.749.749,0,1,1,1.5,0v2.432a.749.749,0,0,1-.749.749m398.5-2.29a.749.749,0,0,1-.749-.749v-2.432a.749.749,0,1,1,1.5,0v2.432a.75.75,0,0,1-.749.749M.749,134.948A.75.75,0,0,1,0,134.2v-2.434a.749.749,0,1,1,1.5,0V134.2a.75.75,0,0,1-.749.749m398.5-2.29a.749.749,0,0,1-.749-.749v-2.434a.749.749,0,1,1,1.5,0v2.434a.75.75,0,0,1-.749.749M.749,128.865A.749.749,0,0,1,0,128.116v-2.432a.749.749,0,1,1,1.5,0v2.432a.749.749,0,0,1-.749.749m398.5-2.29a.749.749,0,0,1-.749-.749v-2.434a.749.749,0,0,1,1.5,0v2.434a.75.75,0,0,1-.749.749M.749,122.783A.749.749,0,0,1,0,122.034V119.6a.749.749,0,0,1,1.5,0v2.432a.749.749,0,0,1-.749.749m398.5-2.291a.748.748,0,0,1-.749-.749V117.31a.749.749,0,1,1,1.5,0v2.432a.749.749,0,0,1-.749.749M.749,116.7A.75.75,0,0,1,0,115.952V113.52a.749.749,0,1,1,1.5,0v2.432a.75.75,0,0,1-.749.749m398.5-2.291a.748.748,0,0,1-.749-.749v-2.432a.749.749,0,1,1,1.5,0v2.432a.749.749,0,0,1-.749.749M.749,110.62A.75.75,0,0,1,0,109.871v-2.434a.749.749,0,1,1,1.5,0v2.434a.75.75,0,0,1-.749.749m398.5-2.291a.749.749,0,0,1-.749-.749v-2.434a.749.749,0,1,1,1.5,0v2.434a.75.75,0,0,1-.749.749M.749,104.537A.75.75,0,0,1,0,103.788v-2.434a.749.749,0,1,1,1.5,0v2.434a.75.75,0,0,1-.749.749m398.5-2.291a.749.749,0,0,1-.749-.749V99.064a.749.749,0,1,1,1.5,0V101.5a.75.75,0,0,1-.749.749M.749,98.454A.749.749,0,0,1,0,97.7V95.272a.749.749,0,1,1,1.5,0V97.7a.749.749,0,0,1-.749.749m398.5-2.29a.749.749,0,0,1-.749-.749V92.981a.749.749,0,1,1,1.5,0v2.434a.75.75,0,0,1-.749.749M.749,92.373A.749.749,0,0,1,0,91.623V89.191a.749.749,0,0,1,1.5,0v2.432a.749.749,0,0,1-.749.749m398.5-2.291a.748.748,0,0,1-.749-.749V86.9a.749.749,0,0,1,1.5,0v2.432a.749.749,0,0,1-.749.749M.749,86.291A.75.75,0,0,1,0,85.542V83.108a.749.749,0,0,1,1.5,0v2.434a.75.75,0,0,1-.749.749M399.251,84a.748.748,0,0,1-.749-.749V80.818a.749.749,0,1,1,1.5,0V83.25a.749.749,0,0,1-.749.749M.749,80.21A.75.75,0,0,1,0,79.46V77.026a.749.749,0,1,1,1.5,0V79.46a.75.75,0,0,1-.749.749m398.5-2.291a.749.749,0,0,1-.749-.749V74.735a.749.749,0,1,1,1.5,0v2.434a.75.75,0,0,1-.749.749M.749,74.126A.75.75,0,0,1,0,73.377V70.943a.749.749,0,1,1,1.5,0v2.434a.75.75,0,0,1-.749.749m398.5-2.291a.749.749,0,0,1-.749-.749V68.653a.749.749,0,1,1,1.5,0v2.432a.75.75,0,0,1-.749.749M.749,68.043A.749.749,0,0,1,0,67.294V64.862a.749.749,0,1,1,1.5,0v2.432a.749.749,0,0,1-.749.749m398.5-2.29A.749.749,0,0,1,398.5,65V62.57a.749.749,0,0,1,1.5,0V65a.75.75,0,0,1-.749.749M.749,61.962A.749.749,0,0,1,0,61.213V58.78a.749.749,0,1,1,1.5,0v2.432a.749.749,0,0,1-.749.749m398.5-2.291a.748.748,0,0,1-.749-.749V56.489a.749.749,0,1,1,1.5,0v2.432a.749.749,0,0,1-.749.749M.749,55.88A.75.75,0,0,1,0,55.131V52.7a.749.749,0,0,1,1.5,0v2.434a.75.75,0,0,1-.749.749m398.5-2.291a.749.749,0,0,1-.749-.749V50.407a.749.749,0,0,1,1.5,0V52.84a.75.75,0,0,1-.749.749M.749,49.8A.75.75,0,0,1,0,49.049V46.616a.749.749,0,1,1,1.5,0v2.434a.75.75,0,0,1-.749.749m398.5-2.291a.749.749,0,0,1-.749-.749V44.324a.749.749,0,1,1,1.5,0v2.434a.75.75,0,0,1-.749.749M.749,43.716A.75.75,0,0,1,0,42.966V40.533a.749.749,0,0,1,1.5,0v2.434a.75.75,0,0,1-.749.749m398.5-2.291a.749.749,0,0,1-.749-.749V38.243a.749.749,0,0,1,1.5,0v2.432a.75.75,0,0,1-.749.749M.749,37.633A.749.749,0,0,1,0,36.883V34.451a.749.749,0,0,1,1.5,0v2.432a.749.749,0,0,1-.749.749m398.5-2.29a.749.749,0,0,1-.749-.749V32.16a.749.749,0,0,1,1.5,0v2.434a.75.75,0,0,1-.749.749M.749,31.551A.749.749,0,0,1,0,30.8V28.37a.749.749,0,1,1,1.5,0V30.8a.749.749,0,0,1-.749.749m398.5-2.291a.748.748,0,0,1-.749-.749V27.8q0-.843-.052-1.673a.75.75,0,0,1,.7-.8.782.782,0,0,1,.8.7q.056.879.055,1.77v.709a.749.749,0,0,1-.749.749M.749,25.47A.75.75,0,0,1,0,24.72V22.286a.749.749,0,1,1,1.5,0V24.72a.75.75,0,0,1-.749.749m397.974-2.255a.748.748,0,0,1-.733-.6c-.156-.775-.346-1.547-.568-2.293a.75.75,0,0,1,1.437-.429c.234.791.436,1.608.6,2.429a.748.748,0,0,1-.587.88.713.713,0,0,1-.148.015M.749,19.388A.75.75,0,0,1,0,18.639V16.2a.749.749,0,1,1,1.5,0v2.434a.75.75,0,0,1-.749.749m396.118-1.953a.75.75,0,0,1-.683-.441c-.324-.715-.683-1.425-1.07-2.109a.75.75,0,1,1,1.305-.739c.409.724.788,1.475,1.132,2.23a.749.749,0,0,1-.683,1.058M.749,13.305h0A.75.75,0,0,1,0,12.55c.007-.892.042-1.717.1-2.483A.757.757,0,0,1,.911,9.38a.751.751,0,0,1,.686.806c-.06.733-.091,1.523-.1,2.375a.749.749,0,0,1-.749.743M393.766,12.22a.754.754,0,0,1-.6-.3c-.471-.622-.98-1.235-1.512-1.818A.75.75,0,1,1,392.766,9.1c.56.616,1.1,1.263,1.6,1.921a.747.747,0,0,1-.145,1.049.735.735,0,0,1-.451.153m-4.183-4.4a.746.746,0,0,1-.483-.175c-.6-.507-1.235-.991-1.878-1.436a.75.75,0,0,1,.856-1.232c.68.474,1.347.983,1.986,1.52a.749.749,0,0,1-.481,1.323M1.467,7.291A.75.75,0,0,1,.749,6.33,9.7,9.7,0,0,1,1.8,3.925a.749.749,0,0,1,1.272.791,8.223,8.223,0,0,0-.88,2.037.753.753,0,0,1-.721.538M384.531,4.466a.738.738,0,0,1-.343-.082c-.694-.357-1.416-.686-2.149-.983a.749.749,0,1,1,.562-1.389c.773.313,1.539.662,2.272,1.04a.748.748,0,0,1-.342,1.415M5.1,2.674a.75.75,0,0,1-.325-1.425A10.486,10.486,0,0,1,7.253.442a.749.749,0,0,1,.3,1.467,8.953,8.953,0,0,0-2.13.689.76.76,0,0,1-.328.075m373.754-.351a.772.772,0,0,1-.183-.022c-.763-.193-1.542-.354-2.317-.477A.749.749,0,1,1,376.59.345c.818.129,1.641.3,2.447.5a.749.749,0,0,1-.183,1.476M11.029,1.539A.75.75,0,0,1,11,.04C11.776.01,12.6,0,13.462,0H14a.749.749,0,1,1,0,1.5h-.534c-.847,0-1.646.01-2.405.039h-.028m361.814-.033h-.018c-.208-.006-.417-.007-.626-.007h-1.788a.749.749,0,1,1,0-1.5H372.2c.22,0,.442,0,.661.007a.749.749,0,0,1-.017,1.5M366.76,1.5h-2.432a.749.749,0,1,1,0-1.5h2.432a.749.749,0,1,1,0,1.5m-6.082,0h-2.434a.749.749,0,1,1,0-1.5h2.434a.749.749,0,1,1,0,1.5m-6.082,0h-2.434a.749.749,0,1,1,0-1.5H354.6a.749.749,0,1,1,0,1.5m-6.083,0H346.08a.749.749,0,1,1,0-1.5h2.434a.749.749,0,1,1,0,1.5m-6.082,0H340A.749.749,0,1,1,340,0h2.432a.749.749,0,1,1,0,1.5m-6.083,0h-2.432a.749.749,0,1,1,0-1.5h2.432a.749.749,0,1,1,0,1.5m-6.082,0h-2.434a.749.749,0,1,1,0-1.5h2.434a.749.749,0,1,1,0,1.5m-6.082,0h-2.434a.749.749,0,1,1,0-1.5h2.434a.749.749,0,1,1,0,1.5m-6.083,0h-2.434a.749.749,0,1,1,0-1.5H318.1a.749.749,0,1,1,0,1.5m-6.082,0h-2.432a.749.749,0,1,1,0-1.5h2.432a.749.749,0,1,1,0,1.5m-6.083,0h-2.432a.749.749,0,1,1,0-1.5h2.432a.749.749,0,1,1,0,1.5m-6.082,0h-2.434a.749.749,0,1,1,0-1.5h2.434a.749.749,0,1,1,0,1.5m-6.082,0h-2.434a.749.749,0,1,1,0-1.5h2.434a.749.749,0,1,1,0,1.5m-6.083,0h-2.434a.749.749,0,1,1,0-1.5h2.434a.749.749,0,1,1,0,1.5m-6.082,0h-2.432a.749.749,0,1,1,0-1.5h2.432a.749.749,0,1,1,0,1.5m-6.083,0H273.1a.749.749,0,1,1,0-1.5h2.432a.749.749,0,1,1,0,1.5m-6.082,0h-2.434a.749.749,0,1,1,0-1.5h2.434a.749.749,0,1,1,0,1.5m-6.082,0h-2.434a.749.749,0,1,1,0-1.5h2.434a.749.749,0,1,1,0,1.5m-6.083,0h-2.434a.749.749,0,1,1,0-1.5h2.434a.749.749,0,1,1,0,1.5m-6.082,0h-2.432a.749.749,0,1,1,0-1.5H251.2a.749.749,0,1,1,0,1.5m-6.083,0h-2.432a.749.749,0,1,1,0-1.5h2.432a.749.749,0,1,1,0,1.5m-6.082,0H236.6a.749.749,0,0,1,0-1.5h2.434a.749.749,0,1,1,0,1.5m-6.083,0H230.52a.749.749,0,1,1,0-1.5h2.432a.749.749,0,1,1,0,1.5m-6.082,0h-2.434a.749.749,0,1,1,0-1.5h2.434a.749.749,0,1,1,0,1.5m-6.082,0h-2.432a.749.749,0,1,1,0-1.5h2.432a.749.749,0,1,1,0,1.5m-6.083,0h-2.432a.749.749,0,1,1,0-1.5h2.432a.749.749,0,1,1,0,1.5m-6.082,0h-2.432a.749.749,0,1,1,0-1.5h2.432a.749.749,0,0,1,0,1.5m-6.083,0h-2.432a.749.749,0,1,1,0-1.5h2.432a.749.749,0,1,1,0,1.5m-6.082,0h-2.434a.749.749,0,1,1,0-1.5h2.434a.749.749,0,0,1,0,1.5m-6.08,0h-2.434a.749.749,0,1,1,0-1.5h2.434a.749.749,0,1,1,0,1.5m-6.083,0h-2.432a.749.749,0,1,1,0-1.5H184.3a.749.749,0,1,1,0,1.5m-6.083,0h-2.431a.749.749,0,1,1,0-1.5h2.431a.749.749,0,1,1,0,1.5m-6.083,0H169.7a.749.749,0,1,1,0-1.5h2.432a.749.749,0,1,1,0,1.5m-6.082,0h-2.434a.749.749,0,1,1,0-1.5h2.434a.749.749,0,1,1,0,1.5m-6.08,0h-2.434a.749.749,0,1,1,0-1.5h2.434a.749.749,0,1,1,0,1.5m-6.083,0h-2.432a.749.749,0,1,1,0-1.5h2.432a.749.749,0,1,1,0,1.5m-6.083,0h-2.432a.749.749,0,1,1,0-1.5H147.8a.749.749,0,1,1,0,1.5m-6.083,0h-2.432a.749.749,0,1,1,0-1.5h2.432a.749.749,0,1,1,0,1.5m-6.082,0H133.2a.749.749,0,1,1,0-1.5h2.434a.749.749,0,1,1,0,1.5m-6.08,0h-2.434a.749.749,0,1,1,0-1.5h2.434a.749.749,0,1,1,0,1.5m-6.085,0h-2.431a.749.749,0,0,1,0-1.5h2.431a.749.749,0,1,1,0,1.5m-6.082,0H114.96a.749.749,0,0,1,0-1.5h2.432a.749.749,0,1,1,0,1.5m-6.083,0h-2.432a.749.749,0,1,1,0-1.5h2.432a.749.749,0,1,1,0,1.5m-6.082,0h-2.434a.749.749,0,1,1,0-1.5h2.434a.749.749,0,1,1,0,1.5m-6.082,0H96.714a.749.749,0,1,1,0-1.5h2.432a.749.749,0,1,1,0,1.5m-6.083,0H90.631a.749.749,0,1,1,0-1.5h2.432a.749.749,0,1,1,0,1.5m-6.08,0H84.55a.749.749,0,0,1,0-1.5h2.434a.749.749,0,0,1,0,1.5M80.9,1.5H78.467a.749.749,0,0,1,0-1.5H80.9a.749.749,0,0,1,0,1.5m-6.082,0H72.384a.749.749,0,1,1,0-1.5h2.434a.749.749,0,1,1,0,1.5m-6.082,0H66.3a.749.749,0,1,1,0-1.5h2.434a.749.749,0,1,1,0,1.5m-6.083,0H60.219a.749.749,0,1,1,0-1.5h2.434a.749.749,0,1,1,0,1.5m-6.082,0H54.139a.749.749,0,1,1,0-1.5h2.432a.749.749,0,1,1,0,1.5m-6.083,0H48.056a.749.749,0,1,1,0-1.5h2.432a.749.749,0,1,1,0,1.5m-6.083,0H41.973a.749.749,0,0,1,0-1.5h2.432a.749.749,0,1,1,0,1.5m-6.08,0H35.891a.749.749,0,0,1,0-1.5h2.434a.749.749,0,1,1,0,1.5m-6.083,0H29.808a.749.749,0,1,1,0-1.5h2.434a.749.749,0,1,1,0,1.5m-6.082,0H23.728a.749.749,0,1,1,0-1.5h2.432a.749.749,0,0,1,0,1.5m-6.082,0H17.645a.749.749,0,1,1,0-1.5h2.434a.749.749,0,0,1,0,1.5" transform="translate(0)" fill="#4f2f1f"/>
        </g>
      </g>
    </g>
  </g>
</svg>
