<svg xmlns="http://www.w3.org/2000/svg" xmlns:xlink="http://www.w3.org/1999/xlink" width="908.715" height="516.156" viewBox="0 0 908.715 516.156">
  <defs>
    <clipPath id="clip-path">
      <rect id="Rect치ngulo_45037" data-name="Rect치ngulo 45037" width="906" height="409.896" fill="#d5d5d5"/>
    </clipPath>
    <clipPath id="clip-path-2">
      <rect id="Rect치ngulo_45036" data-name="Rect치ngulo 45036" width="906" height="409.917" fill="none"/>
    </clipPath>
    <filter id="Elipse_5555" x="89.201" y="426.5" width="71.799" height="71.799" filterUnits="userSpaceOnUse">
      <feOffset dy="3" input="SourceAlpha"/>
      <feGaussianBlur stdDeviation="3" result="blur"/>
      <feFlood flood-opacity="0.161"/>
      <feComposite operator="in" in2="blur"/>
      <feComposite in="SourceGraphic"/>
    </filter>
    <filter id="Elipse_5555-2" x="254.201" y="37.004" width="71.799" height="71.799" filterUnits="userSpaceOnUse">
      <feOffset dy="3" input="SourceAlpha"/>
      <feGaussianBlur stdDeviation="3" result="blur-2"/>
      <feFlood flood-opacity="0.161"/>
      <feComposite operator="in" in2="blur-2"/>
      <feComposite in="SourceGraphic"/>
    </filter>
    <filter id="Elipse_5555-3" x="575.201" y="39.004" width="71.799" height="71.799" filterUnits="userSpaceOnUse">
      <feOffset dy="3" input="SourceAlpha"/>
      <feGaussianBlur stdDeviation="3" result="blur-3"/>
      <feFlood flood-opacity="0.161"/>
      <feComposite operator="in" in2="blur-3"/>
      <feComposite in="SourceGraphic"/>
    </filter>
    <filter id="Elipse_5555-4" x="409.201" y="426.5" width="71.799" height="71.799" filterUnits="userSpaceOnUse">
      <feOffset dy="3" input="SourceAlpha"/>
      <feGaussianBlur stdDeviation="3" result="blur-4"/>
      <feFlood flood-opacity="0.161"/>
      <feComposite operator="in" in2="blur-4"/>
      <feComposite in="SourceGraphic"/>
    </filter>
    <filter id="Elipse_5555-5" x="735.201" y="426.5" width="71.799" height="71.799" filterUnits="userSpaceOnUse">
      <feOffset dy="3" input="SourceAlpha"/>
      <feGaussianBlur stdDeviation="3" result="blur-5"/>
      <feFlood flood-opacity="0.161"/>
      <feComposite operator="in" in2="blur-5"/>
      <feComposite in="SourceGraphic"/>
    </filter>
  </defs>
  <g id="Grupo_143271" data-name="Grupo 143271" transform="translate(-346.285 -865.5)">
    <path id="Trazado_227352" data-name="Trazado 227352" d="M79.23,13.6a1.268,1.268,0,0,0-.479-1.055,5.954,5.954,0,0,0-1.683-.782,16.147,16.147,0,0,1-1.969-.782q-2.487-1.222-2.487-3.357a3.011,3.011,0,0,1,.62-1.876A4.008,4.008,0,0,1,74.985,4.48a6.823,6.823,0,0,1,2.549-.453,5.969,5.969,0,0,1,2.474.492,3.917,3.917,0,0,1,1.7,1.4A3.661,3.661,0,0,1,82.315,8H79.239a1.547,1.547,0,0,0-.479-1.213,1.867,1.867,0,0,0-1.3-.431,2.106,2.106,0,0,0-1.305.365,1.074,1.074,0,0,0,.048,1.819,6.65,6.65,0,0,0,1.854.826,11.36,11.36,0,0,1,2.18.918,3.663,3.663,0,0,1,2.074,3.3,3.125,3.125,0,0,1-1.266,2.637,5.629,5.629,0,0,1-3.472.958,6.888,6.888,0,0,1-2.817-.558,4.247,4.247,0,0,1-1.9-1.529,3.985,3.985,0,0,1-.637-2.237h3.094a1.963,1.963,0,0,0,.532,1.516,2.513,2.513,0,0,0,1.727.488,1.985,1.985,0,0,0,1.208-.33A1.088,1.088,0,0,0,79.23,13.6Zm10.2,2.373a3.054,3.054,0,0,1-2.54,1.2,3,3,0,0,1-2.369-.91,3.826,3.826,0,0,1-.8-2.615V7.49h2.962v6.179a1.065,1.065,0,0,0,1.187,1.222,1.548,1.548,0,0,0,1.45-.729V7.49h2.979V17H89.513Zm9.088,1.2a4.889,4.889,0,0,1-3.542-1.305,4.507,4.507,0,0,1-1.354-3.4v-.246a5.84,5.84,0,0,1,.541-2.575,3.955,3.955,0,0,1,1.578-1.727A4.763,4.763,0,0,1,98.2,7.314a4.117,4.117,0,0,1,3.164,1.244,4.887,4.887,0,0,1,1.16,3.467v1.151H96.632a2.135,2.135,0,0,0,.694,1.257,2.066,2.066,0,0,0,1.389.457,2.662,2.662,0,0,0,2.2-.984l1.354,1.6a3.784,3.784,0,0,1-1.569,1.217A5.3,5.3,0,0,1,98.513,17.176ZM98.179,9.6q-1.3,0-1.547,1.723h2.988v-.229a1.467,1.467,0,0,0-.36-1.1A1.434,1.434,0,0,0,98.179,9.6Zm8.657,7.4h-2.971V3.5h2.971Zm1.45-4.843a5.613,5.613,0,0,1,.554-2.536,3.96,3.96,0,0,1,1.591-1.709,4.791,4.791,0,0,1,2.435-.6,4.373,4.373,0,0,1,3.366,1.323,5.076,5.076,0,0,1,1.23,3.6v.105a4.925,4.925,0,0,1-1.235,3.529,4.384,4.384,0,0,1-3.344,1.305,4.434,4.434,0,0,1-3.261-1.217,4.761,4.761,0,0,1-1.327-3.3Zm2.962.185a3.538,3.538,0,0,0,.413,1.934,1.376,1.376,0,0,0,1.222.615q1.582,0,1.617-2.435v-.3q0-2.558-1.635-2.558-1.485,0-1.608,2.206Zm17.666,3.63a3.054,3.054,0,0,1-2.54,1.2,3,3,0,0,1-2.369-.91,3.826,3.826,0,0,1-.8-2.615V7.49h2.962v6.179a1.065,1.065,0,0,0,1.187,1.222,1.548,1.548,0,0,0,1.45-.729V7.49h2.979V17H129Zm10.239-5.8-.976-.07a1.752,1.752,0,0,0-1.793.879V17h-2.962V7.49H136.2l.1,1.222a2.294,2.294,0,0,1,2.083-1.4,2.888,2.888,0,0,1,.826.105Zm9.9,2.153a5.8,5.8,0,0,1-.967,3.595,3.238,3.238,0,0,1-2.725,1.257,2.81,2.81,0,0,1-2.338-1.151L142.9,17h-2.654V3.5h2.962V8.255a2.711,2.711,0,0,1,2.136-.94,3.239,3.239,0,0,1,2.742,1.274,5.826,5.826,0,0,1,.967,3.586Zm-2.971-.189a3.866,3.866,0,0,0-.365-1.952,1.229,1.229,0,0,0-1.121-.584,1.418,1.418,0,0,0-1.389.763v3.773a1.426,1.426,0,0,0,1.406.755,1.258,1.258,0,0,0,1.327-1.018A7.309,7.309,0,0,0,146.08,12.135ZM155.712,17a3.344,3.344,0,0,1-.281-.853,2.754,2.754,0,0,1-2.285,1.028,3.374,3.374,0,0,1-2.285-.813,2.588,2.588,0,0,1-.94-2.043,2.66,2.66,0,0,1,1.143-2.338,5.821,5.821,0,0,1,3.322-.791h.914v-.5q0-1.316-1.134-1.316a.927.927,0,0,0-1.055,1.042h-2.962a2.655,2.655,0,0,1,1.173-2.239,4.931,4.931,0,0,1,2.993-.86,4.323,4.323,0,0,1,2.874.888,3.086,3.086,0,0,1,1.081,2.435v4.21a4.311,4.311,0,0,0,.4,2V17Zm-1.854-1.934a1.652,1.652,0,0,0,.918-.237,1.487,1.487,0,0,0,.523-.536V12.772h-.861q-1.547,0-1.547,1.389a.848.848,0,0,0,.272.655A.986.986,0,0,0,153.858,15.066Zm8.771-7.576.1,1.116a3.225,3.225,0,0,1,2.716-1.292,2.713,2.713,0,0,1,2.219.888,4.226,4.226,0,0,1,.76,2.672V17h-2.971V11a1.6,1.6,0,0,0-.29-1.059,1.342,1.342,0,0,0-1.055-.338,1.413,1.413,0,0,0-1.292.686V17h-2.962V7.49Zm7.058,4.667a5.613,5.613,0,0,1,.554-2.536,3.96,3.96,0,0,1,1.591-1.709,4.791,4.791,0,0,1,2.435-.6,4.373,4.373,0,0,1,3.366,1.323,5.076,5.076,0,0,1,1.23,3.6v.105a4.925,4.925,0,0,1-1.235,3.529,4.384,4.384,0,0,1-3.344,1.305,4.434,4.434,0,0,1-3.261-1.217,4.761,4.761,0,0,1-1.327-3.3Zm2.962.185a3.538,3.538,0,0,0,.413,1.934,1.376,1.376,0,0,0,1.222.615q1.582,0,1.617-2.435v-.3q0-2.558-1.635-2.558-1.485,0-1.608,2.206Z" transform="translate(346.285 1361)" fill="#12263f"/>
    <path id="Trazado_227351" data-name="Trazado 227351" d="M88.674,13.6a1.268,1.268,0,0,0-.479-1.055,5.954,5.954,0,0,0-1.683-.782,16.147,16.147,0,0,1-1.969-.782q-2.487-1.222-2.487-3.357a3.011,3.011,0,0,1,.62-1.876A4.008,4.008,0,0,1,84.429,4.48a6.823,6.823,0,0,1,2.549-.453,5.969,5.969,0,0,1,2.474.492,3.917,3.917,0,0,1,1.7,1.4A3.661,3.661,0,0,1,91.759,8H88.683A1.547,1.547,0,0,0,88.2,6.787a1.867,1.867,0,0,0-1.3-.431,2.106,2.106,0,0,0-1.305.365,1.074,1.074,0,0,0,.048,1.819,6.65,6.65,0,0,0,1.854.826,11.36,11.36,0,0,1,2.18.918,3.663,3.663,0,0,1,2.074,3.3,3.125,3.125,0,0,1-1.266,2.637,5.629,5.629,0,0,1-3.472.958,6.888,6.888,0,0,1-2.817-.558,4.247,4.247,0,0,1-1.9-1.529,3.985,3.985,0,0,1-.637-2.237h3.094a1.963,1.963,0,0,0,.532,1.516,2.513,2.513,0,0,0,1.727.488,1.985,1.985,0,0,0,1.208-.33A1.088,1.088,0,0,0,88.674,13.6Zm10.2,2.373a3.054,3.054,0,0,1-2.54,1.2,3,3,0,0,1-2.369-.91,3.826,3.826,0,0,1-.8-2.615V7.49h2.962v6.179A1.065,1.065,0,0,0,97.3,14.891a1.548,1.548,0,0,0,1.45-.729V7.49h2.979V17H98.957Zm9.088,1.2a4.889,4.889,0,0,1-3.542-1.305,4.507,4.507,0,0,1-1.354-3.4v-.246a5.84,5.84,0,0,1,.541-2.575,3.955,3.955,0,0,1,1.578-1.727,4.763,4.763,0,0,1,2.461-.611A4.117,4.117,0,0,1,110.8,8.558a4.887,4.887,0,0,1,1.16,3.467v1.151h-5.889a2.135,2.135,0,0,0,.694,1.257,2.066,2.066,0,0,0,1.389.457,2.662,2.662,0,0,0,2.2-.984l1.354,1.6a3.784,3.784,0,0,1-1.569,1.217A5.3,5.3,0,0,1,107.957,17.176ZM107.623,9.6q-1.3,0-1.547,1.723h2.988v-.229a1.467,1.467,0,0,0-.36-1.1A1.434,1.434,0,0,0,107.623,9.6ZM116.28,17H113.31V3.5h2.971Zm1.45-4.843a5.613,5.613,0,0,1,.554-2.536,3.96,3.96,0,0,1,1.591-1.709,4.791,4.791,0,0,1,2.435-.6,4.373,4.373,0,0,1,3.366,1.323,5.076,5.076,0,0,1,1.23,3.6v.105a4.925,4.925,0,0,1-1.235,3.529,4.384,4.384,0,0,1-3.344,1.305,4.434,4.434,0,0,1-3.261-1.217,4.761,4.761,0,0,1-1.327-3.3Zm2.962.185a3.538,3.538,0,0,0,.413,1.934,1.376,1.376,0,0,0,1.222.615q1.582,0,1.617-2.435v-.3q0-2.558-1.635-2.558-1.485,0-1.608,2.206Zm17.754-2.171-.976-.07a1.752,1.752,0,0,0-1.793.879V17h-2.962V7.49h2.777l.1,1.222a2.294,2.294,0,0,1,2.083-1.4,2.888,2.888,0,0,1,.826.105Zm6.732,5.8a3.054,3.054,0,0,1-2.54,1.2,3,3,0,0,1-2.369-.91,3.826,3.826,0,0,1-.8-2.615V7.49h2.962v6.179a1.065,1.065,0,0,0,1.187,1.222,1.548,1.548,0,0,0,1.45-.729V7.49h2.979V17h-2.777Zm10.239-5.8-.976-.07a1.752,1.752,0,0,0-1.793.879V17h-2.962V7.49h2.777l.1,1.222a2.294,2.294,0,0,1,2.083-1.4,2.888,2.888,0,0,1,.826.105ZM161.579,17a3.344,3.344,0,0,1-.281-.853,2.754,2.754,0,0,1-2.285,1.028,3.374,3.374,0,0,1-2.285-.813,2.588,2.588,0,0,1-.94-2.043,2.66,2.66,0,0,1,1.143-2.338,5.821,5.821,0,0,1,3.322-.791h.914v-.5q0-1.316-1.134-1.316a.927.927,0,0,0-1.055,1.042h-2.962a2.655,2.655,0,0,1,1.173-2.239,4.931,4.931,0,0,1,2.993-.86,4.323,4.323,0,0,1,2.874.888,3.086,3.086,0,0,1,1.081,2.435v4.21a4.311,4.311,0,0,0,.4,2V17Zm-1.854-1.934a1.652,1.652,0,0,0,.918-.237,1.487,1.487,0,0,0,.523-.536V12.772H160.3q-1.547,0-1.547,1.389a.848.848,0,0,0,.272.655A.986.986,0,0,0,159.725,15.066ZM168.9,17H165.93V3.5H168.9Z" transform="translate(669.285 1361)" fill="#12263f"/>
    <path id="Trazado_227350" data-name="Trazado 227350" d="M52.168,13.6a1.268,1.268,0,0,0-.479-1.055,5.954,5.954,0,0,0-1.683-.782,16.147,16.147,0,0,1-1.969-.782Q45.55,9.758,45.55,7.622a3.011,3.011,0,0,1,.62-1.876A4.008,4.008,0,0,1,47.923,4.48a6.823,6.823,0,0,1,2.549-.453,5.969,5.969,0,0,1,2.474.492,3.917,3.917,0,0,1,1.7,1.4A3.661,3.661,0,0,1,55.253,8H52.177A1.547,1.547,0,0,0,51.7,6.787a1.867,1.867,0,0,0-1.3-.431,2.106,2.106,0,0,0-1.305.365,1.074,1.074,0,0,0,.048,1.819A6.65,6.65,0,0,0,51,9.367a11.36,11.36,0,0,1,2.18.918,3.663,3.663,0,0,1,2.074,3.3,3.125,3.125,0,0,1-1.266,2.637,5.629,5.629,0,0,1-3.472.958,6.888,6.888,0,0,1-2.817-.558,4.247,4.247,0,0,1-1.9-1.529,3.985,3.985,0,0,1-.637-2.237h3.094a1.963,1.963,0,0,0,.532,1.516,2.513,2.513,0,0,0,1.727.488,1.985,1.985,0,0,0,1.208-.33A1.088,1.088,0,0,0,52.168,13.6Zm10.2,2.373a3.054,3.054,0,0,1-2.54,1.2,3,3,0,0,1-2.369-.91,3.826,3.826,0,0,1-.8-2.615V7.49h2.962v6.179A1.065,1.065,0,0,0,60.8,14.891a1.548,1.548,0,0,0,1.45-.729V7.49h2.979V17H62.452Zm9.088,1.2a4.889,4.889,0,0,1-3.542-1.305,4.507,4.507,0,0,1-1.354-3.4v-.246A5.84,5.84,0,0,1,67.1,9.652a3.955,3.955,0,0,1,1.578-1.727,4.763,4.763,0,0,1,2.461-.611A4.117,4.117,0,0,1,74.3,8.558a4.887,4.887,0,0,1,1.16,3.467v1.151H69.571a2.135,2.135,0,0,0,.694,1.257,2.066,2.066,0,0,0,1.389.457,2.662,2.662,0,0,0,2.2-.984l1.354,1.6a3.784,3.784,0,0,1-1.569,1.217A5.3,5.3,0,0,1,71.452,17.176ZM71.118,9.6q-1.3,0-1.547,1.723h2.988v-.229a1.467,1.467,0,0,0-.36-1.1A1.434,1.434,0,0,0,71.118,9.6ZM79.775,17H76.8V3.5h2.971Zm1.45-4.843a5.613,5.613,0,0,1,.554-2.536A3.96,3.96,0,0,1,83.37,7.912a4.791,4.791,0,0,1,2.435-.6A4.373,4.373,0,0,1,89.17,8.637a5.076,5.076,0,0,1,1.23,3.6v.105a4.925,4.925,0,0,1-1.235,3.529,4.384,4.384,0,0,1-3.344,1.305,4.434,4.434,0,0,1-3.261-1.217,4.761,4.761,0,0,1-1.327-3.3Zm2.962.185a3.538,3.538,0,0,0,.413,1.934,1.376,1.376,0,0,0,1.222.615q1.582,0,1.617-2.435v-.3Q87.439,9.6,85.8,9.6q-1.485,0-1.608,2.206Zm11.628-.167a5.809,5.809,0,0,1,.976-3.56,3.211,3.211,0,0,1,2.725-1.3,2.731,2.731,0,0,1,2.145,1V3.5h2.971V17h-2.663l-.149-1.02a2.8,2.8,0,0,1-2.32,1.2,3.205,3.205,0,0,1-2.689-1.3A5.993,5.993,0,0,1,95.815,12.175Zm2.962.185q0,2.531,1.477,2.531a1.458,1.458,0,0,0,1.406-.826V10.443a1.419,1.419,0,0,0-1.389-.844q-1.371,0-1.485,2.215Zm12.138,4.816a4.889,4.889,0,0,1-3.542-1.305,4.507,4.507,0,0,1-1.354-3.4v-.246a5.84,5.84,0,0,1,.541-2.575,3.955,3.955,0,0,1,1.578-1.727,4.763,4.763,0,0,1,2.461-.611,4.117,4.117,0,0,1,3.164,1.244,4.887,4.887,0,0,1,1.16,3.467v1.151h-5.889a2.135,2.135,0,0,0,.694,1.257,2.066,2.066,0,0,0,1.389.457,2.662,2.662,0,0,0,2.2-.984l1.354,1.6a3.784,3.784,0,0,1-1.569,1.217A5.3,5.3,0,0,1,110.915,17.176ZM110.581,9.6q-1.3,0-1.547,1.723h2.988v-.229a1.467,1.467,0,0,0-.36-1.1A1.434,1.434,0,0,0,110.581,9.6Zm18.844,2.716a5.735,5.735,0,0,1-1,3.538,3.2,3.2,0,0,1-2.694,1.323,2.742,2.742,0,0,1-2.153-.958v4.438h-2.962V7.49h2.769l.088.879a2.742,2.742,0,0,1,2.241-1.055,3.224,3.224,0,0,1,2.733,1.3,5.805,5.805,0,0,1,.976,3.564Zm-2.962-.185q0-2.531-1.477-2.531a1.394,1.394,0,0,0-1.406.756V14.1a1.439,1.439,0,0,0,1.424.791q1.415,0,1.459-2.443Zm10.02-1.96-.976-.07a1.752,1.752,0,0,0-1.793.879V17h-2.962V7.49h2.777l.1,1.222a2.294,2.294,0,0,1,2.083-1.4,2.888,2.888,0,0,1,.826.105Zm.378,1.986a5.613,5.613,0,0,1,.554-2.536A3.96,3.96,0,0,1,139,7.912a4.791,4.791,0,0,1,2.435-.6,4.373,4.373,0,0,1,3.366,1.323,5.076,5.076,0,0,1,1.23,3.6v.105a4.925,4.925,0,0,1-1.235,3.529,4.384,4.384,0,0,1-3.344,1.305,4.434,4.434,0,0,1-3.261-1.217,4.761,4.761,0,0,1-1.327-3.3Zm2.962.185a3.538,3.538,0,0,0,.413,1.934,1.376,1.376,0,0,0,1.222.615q1.582,0,1.617-2.435v-.3q0-2.558-1.635-2.558-1.485,0-1.608,2.206Zm10.969-7.216V7.49h1.564V9.547h-1.564V13.9a1.111,1.111,0,0,0,.193.747,1.037,1.037,0,0,0,.765.211,4.345,4.345,0,0,0,.738-.053v2.118a5.466,5.466,0,0,1-1.67.255,3.1,3.1,0,0,1-2.259-.721,2.954,2.954,0,0,1-.729-2.188V9.547h-1.213V7.49h1.213V5.126Zm7.33,12.05a4.889,4.889,0,0,1-3.542-1.305,4.507,4.507,0,0,1-1.354-3.4v-.246a5.84,5.84,0,0,1,.541-2.575,3.955,3.955,0,0,1,1.578-1.727,4.763,4.763,0,0,1,2.461-.611,4.117,4.117,0,0,1,3.164,1.244,4.887,4.887,0,0,1,1.16,3.467v1.151H156.24a2.135,2.135,0,0,0,.694,1.257,2.066,2.066,0,0,0,1.389.457,2.662,2.662,0,0,0,2.2-.984l1.354,1.6a3.784,3.784,0,0,1-1.569,1.217A5.3,5.3,0,0,1,158.121,17.176ZM157.787,9.6q-1.3,0-1.547,1.723h2.988v-.229a1.467,1.467,0,0,0-.36-1.1A1.434,1.434,0,0,0,157.787,9.6Zm9.554,5.291a1.317,1.317,0,0,0,.967-.338,1.241,1.241,0,0,0,.334-.945h2.777a3.288,3.288,0,0,1-1.121,2.566,4.168,4.168,0,0,1-2.887,1,4.22,4.22,0,0,1-3.27-1.3,5.125,5.125,0,0,1-1.2-3.6v-.123a5.792,5.792,0,0,1,.532-2.544,3.872,3.872,0,0,1,1.534-1.7,4.573,4.573,0,0,1,2.373-.593,4.116,4.116,0,0,1,2.944,1.028,3.647,3.647,0,0,1,1.09,2.786h-2.777a1.626,1.626,0,0,0-.36-1.134,1.244,1.244,0,0,0-.967-.4q-1.151,0-1.345,1.468a10.357,10.357,0,0,0-.062,1.283,4.068,4.068,0,0,0,.343,1.986A1.187,1.187,0,0,0,167.34,14.891Zm9.352,0a1.317,1.317,0,0,0,.967-.338,1.241,1.241,0,0,0,.334-.945h2.777a3.288,3.288,0,0,1-1.121,2.566,4.168,4.168,0,0,1-2.887,1,4.22,4.22,0,0,1-3.27-1.3,5.125,5.125,0,0,1-1.2-3.6v-.123a5.792,5.792,0,0,1,.532-2.544,3.872,3.872,0,0,1,1.534-1.7,4.573,4.573,0,0,1,2.373-.593,4.116,4.116,0,0,1,2.944,1.028,3.647,3.647,0,0,1,1.09,2.786h-2.777a1.626,1.626,0,0,0-.36-1.134,1.244,1.244,0,0,0-.967-.4q-1.151,0-1.345,1.468a10.357,10.357,0,0,0-.062,1.283,4.068,4.068,0,0,0,.343,1.986A1.187,1.187,0,0,0,176.692,14.891ZM185.147,17h-2.971V7.49h2.971ZM182,5.029a1.334,1.334,0,0,1,.457-1.043,1.934,1.934,0,0,1,2.373,0,1.334,1.334,0,0,1,.457,1.043,1.334,1.334,0,0,1-.457,1.043,1.934,1.934,0,0,1-2.373,0A1.334,1.334,0,0,1,182,5.029Zm4.6,7.128a5.613,5.613,0,0,1,.554-2.536,3.96,3.96,0,0,1,1.591-1.709,4.791,4.791,0,0,1,2.435-.6,4.373,4.373,0,0,1,3.366,1.323,5.076,5.076,0,0,1,1.23,3.6v.105a4.925,4.925,0,0,1-1.235,3.529,4.384,4.384,0,0,1-3.344,1.305,4.434,4.434,0,0,1-3.261-1.217,4.761,4.761,0,0,1-1.327-3.3Zm2.962.185a3.538,3.538,0,0,0,.413,1.934,1.376,1.376,0,0,0,1.222.615q1.582,0,1.617-2.435v-.3q0-2.558-1.635-2.558-1.485,0-1.608,2.206ZM191.581,3.5h3.129l-2.443,2.76-2.417,0ZM199.8,7.49l.1,1.116a3.225,3.225,0,0,1,2.716-1.292,2.713,2.713,0,0,1,2.219.888,4.226,4.226,0,0,1,.76,2.672V17H202.62V11a1.6,1.6,0,0,0-.29-1.059,1.342,1.342,0,0,0-1.055-.338,1.413,1.413,0,0,0-1.292.686V17h-2.962V7.49Z" transform="translate(995.285 1361)" fill="#12263f"/>
    <path id="Trazado_227359" data-name="Trazado 227359" d="M97.727,13.6a1.268,1.268,0,0,0-.479-1.055,5.954,5.954,0,0,0-1.683-.782,16.147,16.147,0,0,1-1.969-.782q-2.487-1.222-2.487-3.357a3.011,3.011,0,0,1,.62-1.876A4.008,4.008,0,0,1,93.481,4.48a6.823,6.823,0,0,1,2.549-.453A5.969,5.969,0,0,1,98.5,4.52a3.917,3.917,0,0,1,1.7,1.4A3.661,3.661,0,0,1,100.812,8H97.735a1.547,1.547,0,0,0-.479-1.213,1.867,1.867,0,0,0-1.3-.431,2.106,2.106,0,0,0-1.305.365A1.074,1.074,0,0,0,94.7,8.541a6.65,6.65,0,0,0,1.854.826,11.36,11.36,0,0,1,2.18.918,3.663,3.663,0,0,1,2.074,3.3,3.125,3.125,0,0,1-1.266,2.637,5.629,5.629,0,0,1-3.472.958,6.888,6.888,0,0,1-2.817-.558,4.247,4.247,0,0,1-1.9-1.529,3.985,3.985,0,0,1-.637-2.237h3.094a1.963,1.963,0,0,0,.532,1.516,2.513,2.513,0,0,0,1.727.488,1.985,1.985,0,0,0,1.208-.33A1.088,1.088,0,0,0,97.727,13.6Zm10.2,2.373a3.054,3.054,0,0,1-2.54,1.2,3,3,0,0,1-2.369-.91,3.826,3.826,0,0,1-.8-2.615V7.49h2.962v6.179a1.065,1.065,0,0,0,1.187,1.222,1.548,1.548,0,0,0,1.45-.729V7.49h2.979V17H108.01Zm9.088,1.2a4.889,4.889,0,0,1-3.542-1.305,4.507,4.507,0,0,1-1.354-3.4v-.246a5.84,5.84,0,0,1,.541-2.575,3.955,3.955,0,0,1,1.578-1.727,4.763,4.763,0,0,1,2.461-.611,4.117,4.117,0,0,1,3.164,1.244,4.887,4.887,0,0,1,1.16,3.467v1.151h-5.889a2.135,2.135,0,0,0,.694,1.257,2.066,2.066,0,0,0,1.389.457,2.662,2.662,0,0,0,2.2-.984l1.354,1.6a3.784,3.784,0,0,1-1.569,1.217A5.3,5.3,0,0,1,117.01,17.176ZM116.676,9.6q-1.3,0-1.547,1.723h2.988v-.229a1.467,1.467,0,0,0-.36-1.1A1.434,1.434,0,0,0,116.676,9.6Zm8.657,7.4h-2.971V3.5h2.971Zm1.45-4.843a5.613,5.613,0,0,1,.554-2.536,3.96,3.96,0,0,1,1.591-1.709,4.791,4.791,0,0,1,2.435-.6,4.373,4.373,0,0,1,3.366,1.323,5.076,5.076,0,0,1,1.23,3.6v.105a4.925,4.925,0,0,1-1.235,3.529,4.384,4.384,0,0,1-3.344,1.305,4.434,4.434,0,0,1-3.261-1.217,4.761,4.761,0,0,1-1.327-3.3Zm2.962.185a3.538,3.538,0,0,0,.413,1.934,1.376,1.376,0,0,0,1.222.615q1.582,0,1.617-2.435v-.3Q133,9.6,131.362,9.6q-1.485,0-1.608,2.206Zm11.628-.167a5.809,5.809,0,0,1,.976-3.56,3.211,3.211,0,0,1,2.725-1.3,2.731,2.731,0,0,1,2.145,1V3.5h2.971V17h-2.663l-.149-1.02a2.8,2.8,0,0,1-2.32,1.2,3.205,3.205,0,0,1-2.689-1.3A5.993,5.993,0,0,1,141.373,12.175Zm2.962.185q0,2.531,1.477,2.531a1.458,1.458,0,0,0,1.406-.826V10.443a1.419,1.419,0,0,0-1.389-.844q-1.371,0-1.485,2.215Zm12.138,4.816a4.889,4.889,0,0,1-3.542-1.305,4.507,4.507,0,0,1-1.354-3.4v-.246a5.84,5.84,0,0,1,.541-2.575A3.955,3.955,0,0,1,153.7,7.925a4.763,4.763,0,0,1,2.461-.611,4.117,4.117,0,0,1,3.164,1.244,4.887,4.887,0,0,1,1.16,3.467v1.151h-5.889a2.135,2.135,0,0,0,.694,1.257,2.066,2.066,0,0,0,1.389.457,2.662,2.662,0,0,0,2.2-.984l1.354,1.6a3.784,3.784,0,0,1-1.569,1.217A5.3,5.3,0,0,1,156.473,17.176ZM156.139,9.6q-1.3,0-1.547,1.723h2.988v-.229a1.467,1.467,0,0,0-.36-1.1A1.434,1.434,0,0,0,156.139,9.6ZM58.844,39.176A4.889,4.889,0,0,1,55.3,37.871a4.507,4.507,0,0,1-1.354-3.4v-.246a5.84,5.84,0,0,1,.541-2.575,3.955,3.955,0,0,1,1.578-1.727,4.763,4.763,0,0,1,2.461-.611,4.117,4.117,0,0,1,3.164,1.244,4.887,4.887,0,0,1,1.16,3.467v1.151H56.963a2.135,2.135,0,0,0,.694,1.257,2.066,2.066,0,0,0,1.389.457,2.662,2.662,0,0,0,2.2-.984l1.354,1.6a3.784,3.784,0,0,1-1.569,1.217A5.3,5.3,0,0,1,58.844,39.176ZM58.51,31.6q-1.3,0-1.547,1.723h2.988v-.229a1.467,1.467,0,0,0-.36-1.1A1.434,1.434,0,0,0,58.51,31.6Zm9.387.51,1.38-2.619h3.076l-2.5,4.632L72.476,39H69.382l-1.494-2.812L66.42,39H63.309l2.637-4.878-2.5-4.632h3.111Zm14.238,2.206a5.735,5.735,0,0,1-1,3.538,3.2,3.2,0,0,1-2.694,1.323,2.742,2.742,0,0,1-2.153-.958v4.438H73.328V29.49H76.1l.088.879a2.742,2.742,0,0,1,2.241-1.055,3.224,3.224,0,0,1,2.733,1.3,5.805,5.805,0,0,1,.976,3.564Zm-2.962-.185q0-2.531-1.477-2.531a1.394,1.394,0,0,0-1.406.756V36.1a1.439,1.439,0,0,0,1.424.791q1.415,0,1.459-2.443ZM88.8,39a3.344,3.344,0,0,1-.281-.853,2.754,2.754,0,0,1-2.285,1.028,3.374,3.374,0,0,1-2.285-.813A2.588,2.588,0,0,1,83,36.319a2.66,2.66,0,0,1,1.143-2.338,5.821,5.821,0,0,1,3.322-.791h.914v-.5q0-1.316-1.134-1.316A.927.927,0,0,0,86.2,32.413H83.233a2.655,2.655,0,0,1,1.173-2.239,4.931,4.931,0,0,1,2.993-.86,4.323,4.323,0,0,1,2.874.888,3.086,3.086,0,0,1,1.081,2.435v4.21a4.311,4.311,0,0,0,.4,2V39Zm-1.854-1.934a1.652,1.652,0,0,0,.918-.237,1.487,1.487,0,0,0,.523-.536V34.772h-.861q-1.547,0-1.547,1.389a.848.848,0,0,0,.272.655A.986.986,0,0,0,86.942,37.066Zm8.771-7.576.1,1.116a3.225,3.225,0,0,1,2.716-1.292,2.713,2.713,0,0,1,2.219.888,4.226,4.226,0,0,1,.76,2.672V39H98.535V33a1.6,1.6,0,0,0-.29-1.059A1.342,1.342,0,0,0,97.19,31.6a1.413,1.413,0,0,0-1.292.686V39H92.937V29.49Zm12.41,6.838a.684.684,0,0,0-.4-.606,6.016,6.016,0,0,0-1.5-.475A6.853,6.853,0,0,1,104.4,34.6a3.062,3.062,0,0,1-1.1-.971,2.319,2.319,0,0,1-.378-1.31A2.628,2.628,0,0,1,104,30.163a4.453,4.453,0,0,1,2.83-.848,4.934,4.934,0,0,1,3.023.853A2.666,2.666,0,0,1,111,32.408h-2.971q0-1.143-1.2-1.143a1.194,1.194,0,0,0-.782.259.8.8,0,0,0-.316.646.737.737,0,0,0,.387.642,3.654,3.654,0,0,0,1.235.4,10.671,10.671,0,0,1,1.49.378,2.706,2.706,0,0,1,2.145,2.646,2.491,2.491,0,0,1-1.156,2.118,5.068,5.068,0,0,1-2.993.817,5.172,5.172,0,0,1-2.18-.439,3.645,3.645,0,0,1-1.494-1.2,2.707,2.707,0,0,1-.536-1.591h2.769a1.145,1.145,0,0,0,.439.962,1.808,1.808,0,0,0,1.081.3,1.422,1.422,0,0,0,.91-.246A.787.787,0,0,0,108.124,36.328ZM115.489,39h-2.971V29.49h2.971Zm-3.146-11.971a1.334,1.334,0,0,1,.457-1.043,1.934,1.934,0,0,1,2.373,0,1.42,1.42,0,0,1,0,2.087,1.934,1.934,0,0,1-2.373,0A1.334,1.334,0,0,1,112.343,27.029Zm4.6,7.128a5.613,5.613,0,0,1,.554-2.536,3.96,3.96,0,0,1,1.591-1.709,4.791,4.791,0,0,1,2.435-.6,4.373,4.373,0,0,1,3.366,1.323,5.076,5.076,0,0,1,1.23,3.6v.105a4.925,4.925,0,0,1-1.235,3.529,4.384,4.384,0,0,1-3.344,1.305,4.434,4.434,0,0,1-3.261-1.217,4.761,4.761,0,0,1-1.327-3.3Zm2.962.185a3.538,3.538,0,0,0,.413,1.934,1.376,1.376,0,0,0,1.222.615q1.582,0,1.617-2.435v-.3q0-2.558-1.635-2.558-1.485,0-1.608,2.206Zm2.021-8.842h3.129l-2.443,2.76-2.417,0Zm8.218,3.99.1,1.116a3.225,3.225,0,0,1,2.716-1.292,2.713,2.713,0,0,1,2.219.888,4.226,4.226,0,0,1,.76,2.672V39h-2.971V33a1.6,1.6,0,0,0-.29-1.059,1.342,1.342,0,0,0-1.055-.338,1.413,1.413,0,0,0-1.292.686V39h-2.962V29.49Zm17.578,8.481a3.054,3.054,0,0,1-2.54,1.2,3,3,0,0,1-2.369-.91,3.826,3.826,0,0,1-.8-2.615V29.49h2.962v6.179a1.065,1.065,0,0,0,1.187,1.222,1.548,1.548,0,0,0,1.45-.729V29.49h2.979V39h-2.777Zm10.239-5.8-.976-.07a1.752,1.752,0,0,0-1.793.879V39h-2.962V29.49H155l.1,1.222a2.294,2.294,0,0,1,2.083-1.4,2.888,2.888,0,0,1,.826.105Zm9.9,2.153a5.8,5.8,0,0,1-.967,3.595,3.238,3.238,0,0,1-2.725,1.257,2.81,2.81,0,0,1-2.338-1.151L161.7,39h-2.654V25.5h2.962v4.755a2.711,2.711,0,0,1,2.136-.94,3.239,3.239,0,0,1,2.742,1.274,5.826,5.826,0,0,1,.967,3.586Zm-2.971-.189a3.866,3.866,0,0,0-.365-1.952A1.229,1.229,0,0,0,163.4,31.6a1.418,1.418,0,0,0-1.389.763v3.773a1.426,1.426,0,0,0,1.406.755,1.258,1.258,0,0,0,1.327-1.018A7.309,7.309,0,0,0,164.884,34.135ZM174.517,39a3.344,3.344,0,0,1-.281-.853,2.754,2.754,0,0,1-2.285,1.028,3.374,3.374,0,0,1-2.285-.813,2.588,2.588,0,0,1-.94-2.043,2.66,2.66,0,0,1,1.143-2.338,5.821,5.821,0,0,1,3.322-.791h.914v-.5q0-1.316-1.134-1.316a.927.927,0,0,0-1.055,1.042h-2.962a2.655,2.655,0,0,1,1.173-2.239,4.931,4.931,0,0,1,2.993-.86,4.323,4.323,0,0,1,2.874.888,3.086,3.086,0,0,1,1.081,2.435v4.21a4.311,4.311,0,0,0,.4,2V39Zm-1.854-1.934a1.652,1.652,0,0,0,.918-.237,1.487,1.487,0,0,0,.523-.536V34.772h-.861q-1.547,0-1.547,1.389a.848.848,0,0,0,.272.655A.986.986,0,0,0,172.662,37.066Zm8.771-7.576.1,1.116a3.225,3.225,0,0,1,2.716-1.292,2.713,2.713,0,0,1,2.219.888,4.226,4.226,0,0,1,.76,2.672V39h-2.971V33a1.6,1.6,0,0,0-.29-1.059,1.342,1.342,0,0,0-1.055-.338,1.413,1.413,0,0,0-1.292.686V39h-2.962V29.49ZM194.222,39a3.344,3.344,0,0,1-.281-.853,2.754,2.754,0,0,1-2.285,1.028,3.374,3.374,0,0,1-2.285-.813,2.588,2.588,0,0,1-.94-2.043,2.66,2.66,0,0,1,1.143-2.338,5.821,5.821,0,0,1,3.322-.791h.914v-.5q0-1.316-1.134-1.316a.927.927,0,0,0-1.055,1.042h-2.962a2.655,2.655,0,0,1,1.173-2.239,4.931,4.931,0,0,1,2.993-.86,4.323,4.323,0,0,1,2.874.888,3.086,3.086,0,0,1,1.081,2.435v4.21a4.311,4.311,0,0,0,.4,2V39Zm-1.854-1.934a1.652,1.652,0,0,0,.918-.237,1.487,1.487,0,0,0,.523-.536V34.772h-.861q-1.547,0-1.547,1.389a.848.848,0,0,0,.272.655A.986.986,0,0,0,192.367,37.066Z" transform="translate(511.285 862)" fill="#12263f"/>
    <path id="Trazado_227358" data-name="Trazado 227358" d="M109.93,13.6a1.268,1.268,0,0,0-.479-1.055,5.954,5.954,0,0,0-1.683-.782,16.147,16.147,0,0,1-1.969-.782q-2.487-1.222-2.487-3.357a3.011,3.011,0,0,1,.62-1.876,4.008,4.008,0,0,1,1.753-1.266,6.823,6.823,0,0,1,2.549-.453,5.969,5.969,0,0,1,2.474.492,3.917,3.917,0,0,1,1.7,1.4A3.661,3.661,0,0,1,113.015,8h-3.076a1.547,1.547,0,0,0-.479-1.213,1.867,1.867,0,0,0-1.3-.431,2.106,2.106,0,0,0-1.305.365,1.074,1.074,0,0,0,.048,1.819,6.65,6.65,0,0,0,1.854.826,11.36,11.36,0,0,1,2.18.918,3.663,3.663,0,0,1,2.074,3.3,3.125,3.125,0,0,1-1.266,2.637,5.629,5.629,0,0,1-3.472.958,6.888,6.888,0,0,1-2.817-.558,4.247,4.247,0,0,1-1.9-1.529,3.985,3.985,0,0,1-.637-2.237h3.094a1.963,1.963,0,0,0,.532,1.516,2.513,2.513,0,0,0,1.727.488,1.985,1.985,0,0,0,1.208-.33A1.088,1.088,0,0,0,109.93,13.6Zm10.2,2.373a3.054,3.054,0,0,1-2.54,1.2,3,3,0,0,1-2.369-.91,3.826,3.826,0,0,1-.8-2.615V7.49h2.962v6.179a1.065,1.065,0,0,0,1.187,1.222,1.548,1.548,0,0,0,1.45-.729V7.49h2.979V17h-2.777Zm9.088,1.2a4.889,4.889,0,0,1-3.542-1.305,4.507,4.507,0,0,1-1.354-3.4v-.246a5.84,5.84,0,0,1,.541-2.575,3.955,3.955,0,0,1,1.578-1.727,4.763,4.763,0,0,1,2.461-.611,4.117,4.117,0,0,1,3.164,1.244,4.887,4.887,0,0,1,1.16,3.467v1.151h-5.889a2.135,2.135,0,0,0,.694,1.257,2.066,2.066,0,0,0,1.389.457,2.662,2.662,0,0,0,2.2-.984l1.354,1.6a3.784,3.784,0,0,1-1.569,1.217A5.3,5.3,0,0,1,129.213,17.176ZM128.879,9.6q-1.3,0-1.547,1.723h2.988v-.229a1.467,1.467,0,0,0-.36-1.1A1.434,1.434,0,0,0,128.879,9.6Zm8.657,7.4h-2.971V3.5h2.971Zm1.45-4.843a5.613,5.613,0,0,1,.554-2.536,3.96,3.96,0,0,1,1.591-1.709,4.791,4.791,0,0,1,2.435-.6,4.373,4.373,0,0,1,3.366,1.323,5.076,5.076,0,0,1,1.23,3.6v.105a4.925,4.925,0,0,1-1.235,3.529,4.384,4.384,0,0,1-3.344,1.305,4.434,4.434,0,0,1-3.261-1.217,4.761,4.761,0,0,1-1.327-3.3Zm2.962.185a3.538,3.538,0,0,0,.413,1.934,1.376,1.376,0,0,0,1.222.615q1.582,0,1.617-2.435v-.3q0-2.558-1.635-2.558-1.485,0-1.608,2.206ZM88.1,36.328a.684.684,0,0,0-.4-.606,6.016,6.016,0,0,0-1.5-.475,6.853,6.853,0,0,1-1.828-.646,3.062,3.062,0,0,1-1.1-.971,2.319,2.319,0,0,1-.378-1.31,2.628,2.628,0,0,1,1.081-2.158,4.453,4.453,0,0,1,2.83-.848,4.934,4.934,0,0,1,3.023.853,2.666,2.666,0,0,1,1.143,2.241H88q0-1.143-1.2-1.143a1.194,1.194,0,0,0-.782.259.8.8,0,0,0-.316.646.737.737,0,0,0,.387.642,3.654,3.654,0,0,0,1.235.4,10.671,10.671,0,0,1,1.49.378,2.706,2.706,0,0,1,2.145,2.646A2.491,2.491,0,0,1,89.8,38.358a5.068,5.068,0,0,1-2.993.817,5.172,5.172,0,0,1-2.18-.439,3.645,3.645,0,0,1-1.494-1.2A2.707,2.707,0,0,1,82.6,35.95h2.769a1.145,1.145,0,0,0,.439.962,1.808,1.808,0,0,0,1.081.3,1.422,1.422,0,0,0,.91-.246A.787.787,0,0,0,88.1,36.328ZM98,37.972a3.054,3.054,0,0,1-2.54,1.2,3,3,0,0,1-2.369-.91,3.826,3.826,0,0,1-.8-2.615V29.49h2.962v6.179a1.065,1.065,0,0,0,1.187,1.222,1.548,1.548,0,0,0,1.45-.729V29.49h2.979V39H98.091Zm13.315-3.647a5.8,5.8,0,0,1-.967,3.595,3.238,3.238,0,0,1-2.725,1.257,2.81,2.81,0,0,1-2.338-1.151l-.123.976h-2.654V25.5h2.962v4.755a2.711,2.711,0,0,1,2.136-.94,3.239,3.239,0,0,1,2.742,1.274,5.826,5.826,0,0,1,.967,3.586Zm-2.971-.189a3.866,3.866,0,0,0-.365-1.952,1.229,1.229,0,0,0-1.121-.584,1.418,1.418,0,0,0-1.389.763v3.773a1.426,1.426,0,0,0,1.406.755,1.258,1.258,0,0,0,1.327-1.018A7.309,7.309,0,0,0,108.348,34.135Zm9.94,3.836a3.054,3.054,0,0,1-2.54,1.2,3,3,0,0,1-2.369-.91,3.826,3.826,0,0,1-.8-2.615V29.49h2.962v6.179a1.065,1.065,0,0,0,1.187,1.222,1.548,1.548,0,0,0,1.45-.729V29.49h2.979V39h-2.777Zm10.239-5.8-.976-.07a1.752,1.752,0,0,0-1.793.879V39H122.8V29.49h2.777l.1,1.222a2.294,2.294,0,0,1,2.083-1.4,2.888,2.888,0,0,1,.826.105Zm9.9,2.153a5.8,5.8,0,0,1-.967,3.595,3.238,3.238,0,0,1-2.725,1.257,2.81,2.81,0,0,1-2.338-1.151l-.123.976h-2.654V25.5h2.962v4.755a2.711,2.711,0,0,1,2.136-.94,3.239,3.239,0,0,1,2.742,1.274,5.826,5.826,0,0,1,.967,3.586Zm-2.971-.189a3.866,3.866,0,0,0-.365-1.952,1.229,1.229,0,0,0-1.121-.584,1.418,1.418,0,0,0-1.389.763v3.773a1.426,1.426,0,0,0,1.406.755,1.258,1.258,0,0,0,1.327-1.018A7.309,7.309,0,0,0,135.454,34.135ZM145.086,39a3.344,3.344,0,0,1-.281-.853,2.754,2.754,0,0,1-2.285,1.028,3.374,3.374,0,0,1-2.285-.813,2.588,2.588,0,0,1-.94-2.043,2.66,2.66,0,0,1,1.143-2.338,5.821,5.821,0,0,1,3.322-.791h.914v-.5q0-1.316-1.134-1.316a.927.927,0,0,0-1.055,1.042h-2.962a2.655,2.655,0,0,1,1.173-2.239,4.931,4.931,0,0,1,2.993-.86,4.323,4.323,0,0,1,2.874.888,3.086,3.086,0,0,1,1.081,2.435v4.21a4.311,4.311,0,0,0,.4,2V39Zm-1.854-1.934a1.652,1.652,0,0,0,.918-.237,1.487,1.487,0,0,0,.523-.536V34.772h-.861q-1.547,0-1.547,1.389a.848.848,0,0,0,.272.655A.986.986,0,0,0,143.232,37.066ZM152,29.49l.1,1.116a3.225,3.225,0,0,1,2.716-1.292,2.713,2.713,0,0,1,2.219.888,4.226,4.226,0,0,1,.76,2.672V39h-2.971V33a1.6,1.6,0,0,0-.29-1.059,1.342,1.342,0,0,0-1.055-.338,1.413,1.413,0,0,0-1.292.686V39h-2.962V29.49Zm7.058,4.667a5.613,5.613,0,0,1,.554-2.536,3.96,3.96,0,0,1,1.591-1.709,4.791,4.791,0,0,1,2.435-.6,4.373,4.373,0,0,1,3.366,1.323,5.076,5.076,0,0,1,1.23,3.6v.105A4.925,4.925,0,0,1,167,37.871a4.384,4.384,0,0,1-3.344,1.305,4.434,4.434,0,0,1-3.261-1.217,4.761,4.761,0,0,1-1.327-3.3Zm2.962.185a3.538,3.538,0,0,0,.413,1.934,1.376,1.376,0,0,0,1.222.615q1.582,0,1.617-2.435v-.3q0-2.558-1.635-2.558-1.485,0-1.608,2.206Z" transform="translate(832.285 862)" fill="#12263f"/>
    <g id="Grupo_143270" data-name="Grupo 143270">
      <g id="Grupo_137769" data-name="Grupo 137769" transform="translate(0 -32)">
        <g id="Grupo_137768" data-name="Grupo 137768" opacity="0.85">
          <circle id="Elipse_5626" data-name="Elipse 5626" cx="103.5" cy="103.5" r="103.5" transform="translate(368.285 1130)" fill="#fff"/>
          <circle id="Elipse_5627" data-name="Elipse 5627" cx="103.5" cy="103.5" r="103.5" transform="translate(688.285 1136)" fill="#fff"/>
          <circle id="Elipse_5629" data-name="Elipse 5629" cx="103.5" cy="103.5" r="103.5" transform="translate(537.285 982)" fill="#fff"/>
          <circle id="Elipse_5630" data-name="Elipse 5630" cx="103.5" cy="103.5" r="103.5" transform="translate(851.285 997)" fill="#fff"/>
          <circle id="Elipse_5628" data-name="Elipse 5628" cx="103.5" cy="103.5" r="103.5" transform="translate(1021.285 1136)" fill="#fff"/>
        </g>
        <g id="Grupo_137763" data-name="Grupo 137763" transform="translate(349 964.551)">
          <g id="Grupo_137762" data-name="Grupo 137762" clip-path="url(#clip-path)">
            <path id="Trazado_218664" data-name="Trazado 218664" d="M872.552,365.582a127.472,127.472,0,0,0-134.939-206.8A127.207,127.207,0,0,0,523.948,45.5l-7.786-8.25-4.617,22.2a127.039,127.039,0,0,0-23.557,102.417A127.291,127.291,0,0,0,417.609,160,127.452,127.452,0,0,0,205.962,35.658l-6.213-6.119L197.07,45.288a127.356,127.356,0,0,0-27.889,104.84,127.472,127.472,0,0,0-145.69,194.2l2.476,17.913,6.875-6.361A127.474,127.474,0,0,0,252.688,247.3a128.01,128.01,0,0,0,74.526,2.883,127.324,127.324,0,0,0,199.3,134.465L550.14,381.3l-8.961-9.614a127.3,127.3,0,0,0,33.605-110.87c25.279,7.361,53.317,5.889,79.047-3.495A127.454,127.454,0,0,0,860.31,377.188l20.367-2.891Zm-683.894-25.92a92.72,92.72,0,0,1-130.24-7.448l7.765-7.185-16.051-3.5A92.753,92.753,0,0,1,66.1,201.214c38.21-33.809,96.589-30.554,130.445,7.586.2.243.389.5.593.737l.022-.019a92.727,92.727,0,0,1-8.505,130.143M229.1,192.3c-1.756-1.761-3.65-3.426-5.305-5.244-.259-.3-.5-.61-.765-.909a92.791,92.791,0,0,1-2.173-114.826l17.926-3.33L230.8,60.125A92.6,92.6,0,0,1,360.15,192.643c-36.206,35.763-95.1,35.742-131.046-.346m288.27,153.854-4.6-4.934-2.537,11.841a92.731,92.731,0,0,1-125.5-5.26c-36.045-36.184-35.675-94.893.508-130.935l-.019-.019q1.39-1.413,2.725-2.856a92.6,92.6,0,0,1,129.42,132.162m29.676-144.667c-.185-.185-.356-.381-.539-.568-1.742-2.051-3.532-4.073-5.424-6.034-.025-.027-.05-.053-.077-.078a92.77,92.77,0,0,1-.533-115.735L553.771,77.1l-5.906-6.257a92.721,92.721,0,0,1,130.246,1.431c32.058,32.419,34.676,82.558,9.043,118.493a128.474,128.474,0,0,0-9.982,11.79,92.721,92.721,0,0,1-130.121-1.072M713.88,343.973a92.755,92.755,0,0,1-10.2-118.54,129.582,129.582,0,0,0,10.877-12.806A92.573,92.573,0,0,1,848.67,339.964l-5.356-5.747-3.057,14.262a92.726,92.726,0,0,1-126.377-4.506" transform="translate(0 0.001)" fill="#d5d5d5"/>
            <path id="Trazado_218665" data-name="Trazado 218665" d="M49.2,212.182H61.426v-7.2h4.891v7.2H78.543v-43.2H49.2Zm17.117-36h4.89v4.8h-4.89Zm0,9.6h4.89v4.8h-4.89Zm0,9.6h4.89v4.8h-4.89Zm-9.781-19.2h4.89v4.8h-4.89Zm0,9.6h4.89v4.8h-4.89Zm0,9.6h4.89v4.8h-4.89Z" transform="translate(27.935 95.943)" fill="#d5d5d5"/>
            <path id="Trazado_218666" data-name="Trazado 218666" d="M71.036,208.7H83.262v-7.2h4.89v7.2h12.227V175.1H71.036Zm17.115-26.4h4.89v4.8h-4.89Zm0,9.6h4.89v4.8h-4.89Zm-9.78-9.6h4.89v4.8h-4.89Zm0,9.6h4.89v4.8h-4.89Z" transform="translate(40.333 99.42)" fill="#d5d5d5"/>
            <path id="Trazado_218667" data-name="Trazado 218667" d="M92.871,222.612H105.1v-7.2h4.891v7.2h12.226v-68.4l-29.343-3.6Zm17.117-63.6h4.89v4.8h-4.89Zm0,8.4h4.89v4.8h-4.89Zm0,9.6h4.89v4.8h-4.89Zm0,9.6h4.89v4.8h-4.89Zm0,9.6h4.89v4.8h-4.89Zm0,9.6h4.89v4.8h-4.89Zm-9.781-46.8h4.89v4.8h-4.89Zm0,8.4h4.89v4.8h-4.89Zm0,9.6h4.89v4.8h-4.89Zm0,9.6h4.89v4.8h-4.89Zm0,9.6h4.89v4.8h-4.89Zm0,9.6h4.89v4.8h-4.89Z" transform="translate(52.73 85.513)" fill="#d5d5d5"/>
            <path id="Trazado_218668" data-name="Trazado 218668" d="M77.235,185.08H89.461v-36H60.118v26.4H77.235Zm-4.891-14.4h-4.89v-4.8h4.89Zm0-9.6h-4.89v-4.8h4.89Zm4.891-4.8h4.89v4.8h-4.89Zm0,9.6h4.89v4.8h-4.89Z" transform="translate(34.134 84.644)" fill="#d5d5d5"/>
            <path id="Trazado_218669" data-name="Trazado 218669" d="M213.927,65.244a1.754,1.754,0,0,0,.182-2.612c-.041-.042-.085-.085-.129-.124l-3.752-3.468a2.23,2.23,0,0,0-2.977-.031l-.034.031-3.814,3.5,6.709,6.2Z" transform="translate(115.487 33.189)" fill="#d5d5d5"/>
            <path id="Trazado_218670" data-name="Trazado 218670" d="M202.428,98.342V95.37h-8.036v10.9h-1.607v2.973h20.894V74.567h-9.044l-3.214,2.971h9.045v8.916H193.853v2.972h16.611V95.37h-2.679v2.973h2.679v7.925H197.605V98.342Z" transform="translate(109.459 42.337)" fill="#d5d5d5"/>
            <path id="Trazado_218671" data-name="Trazado 218671" d="M232.072,75.569h7.971V124.11H177.335a8.312,8.312,0,0,0,.5-1.982l.064-.991V75.569h31.586l6.417-5.945h-38v-.991c0-4.924-4.318-8.916-9.643-8.916s-9.643,3.992-9.643,8.916v52.5l.063.991a9.366,9.366,0,0,0,9.107,7.9v.022h78.691V69.624H238.5ZM168.254,124.11a2.982,2.982,0,1,1,3.214-2.973,3.1,3.1,0,0,1-3.214,2.973m3.214-11.368a10.2,10.2,0,0,0-6.429,0V68.633a3.225,3.225,0,0,1,6.429,0Z" transform="translate(90.056 33.906)" fill="#d5d5d5"/>
            <path id="Trazado_218672" data-name="Trazado 218672" d="M188.75,77.539l3.208-2.973h-16.6v34.673h20.9v-2.971h-1.607v-10.9h-8.036v2.973h4.821v7.925H178.57V98.343h2.681V95.371H178.57V89.427h5.9l1.066-2.973h-6.97V77.539Z" transform="translate(99.562 42.337)" fill="#d5d5d5"/>
            <path id="Trazado_218673" data-name="Trazado 218673" d="M183.557,95.592l10.093-3.078,26.282-24.3-6.76-6.249L186.887,86.312Zm5.18-8.3a2.891,2.891,0,0,1,3.8.049,2.291,2.291,0,0,1,.055,3.418c-.019.017-.036.034-.055.05l-4.492,1.369-.792-.732Z" transform="translate(104.22 35.181)" fill="#d5d5d5"/>
            <path id="Trazado_218674" data-name="Trazado 218674" d="M337.132,190.269h-3.209v8.348c-5.893-.784-12.37-1.359-19.251-1.681v-8.944h-3.209v8.817q-4.7-.16-9.6-.166-4.92,0-9.656.169v-8.82H289v8.95c-6.884.323-13.361.9-19.252,1.687v-8.361h-3.208v8.819c-3.882.589-7.488,1.271-10.716,2.037V218.3h91.98V201.1c-3.225-.759-6.81-1.436-10.675-2.022Z" transform="translate(145.253 106.738)" fill="#d5d5d5"/>
            <path id="Trazado_218675" data-name="Trazado 218675" d="M265.888,171.978c-1.88,2.32-1.819,6.986-1.819,6.986s3.631.259,5.511-2.062,1.561-6.663,1.561-6.663-3.374-.58-5.254,1.739" transform="translate(149.932 96.622)" fill="#d5d5d5"/>
            <path id="Trazado_218676" data-name="Trazado 218676" d="M271.082,176.115s-3.368-.582-5.25,1.743-1.819,6.981-1.819,6.981,3.628.259,5.509-2.062,1.56-6.663,1.56-6.663" transform="translate(149.901 99.958)" fill="#d5d5d5"/>
            <path id="Trazado_218677" data-name="Trazado 218677" d="M265.78,178.912s.143-4.666-1.695-6.933-5.218-1.58-5.218-1.58-.4,4.355,1.438,6.619,5.475,1.894,5.475,1.894" transform="translate(146.958 96.694)" fill="#d5d5d5"/>
            <path id="Trazado_218678" data-name="Trazado 218678" d="M265.727,184.788s.143-4.666-1.695-6.933-5.216-1.58-5.216-1.58-.4,4.357,1.436,6.618,5.475,1.9,5.475,1.9" transform="translate(146.929 100.03)" fill="#d5d5d5"/>
            <path id="Trazado_218679" data-name="Trazado 218679" d="M269.526,188.642c1.88-2.32,1.56-6.663,1.56-6.663s-3.368-.582-5.247,1.739-1.819,6.986-1.819,6.986,3.626.254,5.506-2.062" transform="translate(149.905 103.287)" fill="#d5d5d5"/>
            <path id="Trazado_218680" data-name="Trazado 218680" d="M258.821,182.135s-.4,4.354,1.438,6.618,5.473,1.894,5.473,1.894.144-4.666-1.693-6.933-5.218-1.579-5.218-1.579" transform="translate(146.932 103.357)" fill="#d5d5d5"/>
            <path id="Trazado_218681" data-name="Trazado 218681" d="M265.835,176.184s.144-4.666-1.695-6.933a4.721,4.721,0,0,0-3.186-1.624l-.649-8.541a.2.2,0,0,0-.409-.008l-.972,8.595s-.4,4.354,1.438,6.618,5.473,1.894,5.473,1.894" transform="translate(146.99 90.208)" fill="#d5d5d5"/>
            <path id="Trazado_218682" data-name="Trazado 218682" d="M264.114,176.184s3.636.368,5.475-1.894,1.436-6.618,1.436-6.618l-.97-8.595a.21.21,0,0,0-.223-.2.214.214,0,0,0-.187.207L269,167.627a4.721,4.721,0,0,0-3.187,1.624c-1.839,2.264-1.695,6.933-1.695,6.933" transform="translate(149.957 90.208)" fill="#d5d5d5"/>
            <path id="Trazado_218683" data-name="Trazado 218683" d="M264.738,172.94a10.19,10.19,0,0,0,2.609-6.031,9.812,9.812,0,0,0-1.645-5.017l-.771-8.568a.2.2,0,0,0-.409,0l-.795,8.56A10.3,10.3,0,0,0,261.96,167c-.031,3.3,2.778,5.943,2.778,5.943" transform="translate(148.735 86.939)" fill="#d5d5d5"/>
            <path id="Trazado_218684" data-name="Trazado 218684" d="M280.214,170.526c-1.88,2.32-1.819,6.986-1.819,6.986s3.631.259,5.511-2.062,1.56-6.663,1.56-6.663-3.372-.58-5.252,1.739" transform="translate(158.066 95.797)" fill="#d5d5d5"/>
            <path id="Trazado_218685" data-name="Trazado 218685" d="M285.408,174.664s-3.368-.582-5.25,1.743-1.819,6.981-1.819,6.981,3.628.259,5.509-2.062,1.56-6.663,1.56-6.663" transform="translate(158.035 99.134)" fill="#d5d5d5"/>
            <path id="Trazado_218686" data-name="Trazado 218686" d="M280.106,177.461s.143-4.666-1.695-6.934-5.218-1.579-5.218-1.579-.4,4.355,1.438,6.618,5.475,1.9,5.475,1.9" transform="translate(155.092 95.869)" fill="#d5d5d5"/>
            <path id="Trazado_218687" data-name="Trazado 218687" d="M280.053,183.336s.144-4.666-1.695-6.933-5.216-1.579-5.216-1.579-.4,4.355,1.436,6.618,5.475,1.894,5.475,1.894" transform="translate(155.063 99.206)" fill="#d5d5d5"/>
            <path id="Trazado_218688" data-name="Trazado 218688" d="M283.852,187.19c1.88-2.32,1.56-6.663,1.56-6.663s-3.368-.582-5.247,1.739-1.819,6.986-1.819,6.986,3.626.254,5.506-2.062" transform="translate(158.039 102.462)" fill="#d5d5d5"/>
            <path id="Trazado_218689" data-name="Trazado 218689" d="M273.147,180.684s-.4,4.354,1.438,6.618,5.473,1.894,5.473,1.894.144-4.664-1.693-6.931-5.218-1.58-5.218-1.58" transform="translate(155.066 102.533)" fill="#d5d5d5"/>
            <path id="Trazado_218690" data-name="Trazado 218690" d="M280.163,174.733s.143-4.666-1.695-6.933a4.721,4.721,0,0,0-3.186-1.624l-.651-8.541a.2.2,0,0,0-.409-.008l-.972,8.595s-.4,4.354,1.438,6.618,5.475,1.894,5.475,1.894" transform="translate(155.125 89.384)" fill="#d5d5d5"/>
            <path id="Trazado_218691" data-name="Trazado 218691" d="M278.44,174.733s3.637.368,5.475-1.894,1.436-6.618,1.436-6.618l-.97-8.595a.21.21,0,0,0-.223-.2.214.214,0,0,0-.187.207l-.649,8.541a4.721,4.721,0,0,0-3.187,1.624c-1.839,2.264-1.695,6.933-1.695,6.933" transform="translate(158.091 89.384)" fill="#d5d5d5"/>
            <path id="Trazado_218692" data-name="Trazado 218692" d="M279.066,171.49a10.192,10.192,0,0,0,2.607-6.031,9.813,9.813,0,0,0-1.645-5.017l-.77-8.573a.2.2,0,0,0-.409,0l-.8,8.559a10.306,10.306,0,0,0-1.767,5.114c-.031,3.308,2.78,5.948,2.78,5.948" transform="translate(156.869 86.113)" fill="#d5d5d5"/>
            <path id="Trazado_218693" data-name="Trazado 218693" d="M294.54,170.526c-1.88,2.32-1.819,6.986-1.819,6.986s3.631.259,5.511-2.062,1.56-6.663,1.56-6.663-3.372-.58-5.252,1.739" transform="translate(166.2 95.797)" fill="#d5d5d5"/>
            <path id="Trazado_218694" data-name="Trazado 218694" d="M299.735,174.664s-3.369-.582-5.252,1.743-1.817,6.981-1.817,6.981,3.628.259,5.508-2.062,1.561-6.663,1.561-6.663" transform="translate(166.169 99.134)" fill="#d5d5d5"/>
            <path id="Trazado_218695" data-name="Trazado 218695" d="M294.431,177.461s.144-4.666-1.695-6.934-5.216-1.579-5.216-1.579-.4,4.355,1.436,6.618,5.475,1.9,5.475,1.9" transform="translate(163.227 95.869)" fill="#d5d5d5"/>
            <path id="Trazado_218696" data-name="Trazado 218696" d="M294.379,183.336s.144-4.666-1.695-6.933-5.216-1.579-5.216-1.579-.4,4.355,1.436,6.618,5.475,1.894,5.475,1.894" transform="translate(163.197 99.206)" fill="#d5d5d5"/>
            <path id="Trazado_218697" data-name="Trazado 218697" d="M298.178,187.19c1.88-2.32,1.562-6.663,1.562-6.663s-3.368-.582-5.249,1.739-1.819,6.986-1.819,6.986,3.626.254,5.506-2.062" transform="translate(166.173 102.462)" fill="#d5d5d5"/>
            <path id="Trazado_218698" data-name="Trazado 218698" d="M287.473,180.684s-.4,4.354,1.438,6.618,5.473,1.894,5.473,1.894.144-4.664-1.693-6.931-5.218-1.58-5.218-1.58" transform="translate(163.2 102.533)" fill="#d5d5d5"/>
            <path id="Trazado_218699" data-name="Trazado 218699" d="M294.49,174.733s.141-4.666-1.7-6.933a4.721,4.721,0,0,0-3.187-1.624l-.649-8.541a.2.2,0,0,0-.408-.008l-.974,8.595s-.4,4.354,1.438,6.618,5.476,1.894,5.476,1.894" transform="translate(163.259 89.384)" fill="#d5d5d5"/>
            <path id="Trazado_218700" data-name="Trazado 218700" d="M292.766,174.733s3.637.368,5.475-1.894,1.436-6.618,1.436-6.618l-.97-8.595a.21.21,0,0,0-.223-.2.214.214,0,0,0-.187.207l-.649,8.541a4.724,4.724,0,0,0-3.187,1.624c-1.839,2.264-1.695,6.933-1.695,6.933" transform="translate(166.225 89.384)" fill="#d5d5d5"/>
            <path id="Trazado_218701" data-name="Trazado 218701" d="M293.392,171.49A10.193,10.193,0,0,0,296,165.459a9.813,9.813,0,0,0-1.645-5.017l-.77-8.573a.2.2,0,0,0-.409,0l-.795,8.559a10.287,10.287,0,0,0-1.768,5.114c-.031,3.308,2.78,5.948,2.78,5.948" transform="translate(165.003 86.113)" fill="#d5d5d5"/>
            <path id="Trazado_218702" data-name="Trazado 218702" d="M308.867,171.978c-1.88,2.32-1.819,6.986-1.819,6.986s3.631.259,5.511-2.062,1.56-6.663,1.56-6.663-3.372-.58-5.252,1.739" transform="translate(174.335 96.622)" fill="#d5d5d5"/>
            <path id="Trazado_218703" data-name="Trazado 218703" d="M314.061,176.115s-3.369-.582-5.252,1.743-1.817,6.981-1.817,6.981,3.628.259,5.508-2.062,1.561-6.663,1.561-6.663" transform="translate(174.303 99.958)" fill="#d5d5d5"/>
            <path id="Trazado_218704" data-name="Trazado 218704" d="M308.757,178.912s.144-4.666-1.695-6.933-5.216-1.58-5.216-1.58-.4,4.355,1.436,6.619,5.475,1.894,5.475,1.894" transform="translate(171.361 96.694)" fill="#d5d5d5"/>
            <path id="Trazado_218705" data-name="Trazado 218705" d="M308.706,184.788s.144-4.666-1.695-6.933-5.216-1.58-5.216-1.58-.4,4.357,1.438,6.618,5.473,1.9,5.473,1.9" transform="translate(171.332 100.03)" fill="#d5d5d5"/>
            <path id="Trazado_218706" data-name="Trazado 218706" d="M312.505,188.642c1.881-2.32,1.561-6.663,1.561-6.663s-3.368-.582-5.249,1.739S307,190.7,307,190.7s3.626.254,5.506-2.062" transform="translate(174.307 103.287)" fill="#d5d5d5"/>
            <path id="Trazado_218707" data-name="Trazado 218707" d="M301.8,182.135s-.4,4.354,1.438,6.618,5.473,1.894,5.473,1.894.144-4.666-1.693-6.933-5.218-1.579-5.218-1.579" transform="translate(171.335 103.357)" fill="#d5d5d5"/>
            <path id="Trazado_218708" data-name="Trazado 218708" d="M308.816,176.184s.143-4.666-1.695-6.933a4.721,4.721,0,0,0-3.187-1.624l-.649-8.541a.209.209,0,0,0-.215-.207.214.214,0,0,0-.194.2l-.972,8.595s-.4,4.354,1.438,6.618,5.475,1.894,5.475,1.894" transform="translate(171.393 90.208)" fill="#d5d5d5"/>
            <path id="Trazado_218709" data-name="Trazado 218709" d="M307.092,176.189s3.636.368,5.475-1.894S314,167.678,314,167.678l-.97-8.595a.205.205,0,1,0-.409.008l-.649,8.541a4.727,4.727,0,0,0-3.187,1.624c-1.839,2.264-1.695,6.933-1.695,6.933" transform="translate(174.359 90.203)" fill="#d5d5d5"/>
            <path id="Trazado_218710" data-name="Trazado 218710" d="M307.718,172.942a10.2,10.2,0,0,0,2.609-6.031,9.815,9.815,0,0,0-1.646-5.017l-.77-8.573a.2.2,0,0,0-.409,0l-.795,8.559a10.308,10.308,0,0,0-1.768,5.114c-.03,3.308,2.78,5.948,2.78,5.948" transform="translate(173.137 86.937)" fill="#d5d5d5"/>
            <path id="Trazado_218711" data-name="Trazado 218711" d="M403.4,74.1l18.326,16.778a47.22,47.22,0,0,1,1.414-6.138L403.4,66.633,363.92,102.82l4.266,3.509Z" transform="translate(206.626 37.833)" fill="#d5d5d5"/>
            <path id="Trazado_218712" data-name="Trazado 218712" d="M443.069,131.984V110.653c6.58-1.141,11.515-7.292,11.515-16.051,0-9.72-10.418-29.816-13.709-29.816S427.167,84.861,427.167,94.6c0,8.759,4.99,14.91,11.515,16.051v21.331H434.3V112.606c-5.812-2.631-9.871-8.726-10.352-16.335L405.783,80.213,377.27,105.432v26.552h-6.58V130.41h1.853a1.6,1.6,0,0,0,1.568-1.257,7.534,7.534,0,0,1,1.974-3.56.318.318,0,0,0,.014-.462.348.348,0,0,0-.354-.088,10.61,10.61,0,0,0-5.055,2.715V124.8c4.89-.781,2.193-6.92,2.193-6.92a.348.348,0,0,0-.464-.124.336.336,0,0,0-.129.124l-1.174,1.924-1.173-1.924a.354.354,0,0,0-.6,0l-1.173,1.924-1.218-1.924a.359.359,0,0,0-.481-.118.335.335,0,0,0-.121.118s-2.731,6.128,2.193,6.92v2.9a10.727,10.727,0,0,0-5.034-2.662.342.342,0,0,0-.43.207.32.32,0,0,0,.089.342,7.467,7.467,0,0,1,1.974,3.56,1.6,1.6,0,0,0,1.568,1.257H368.5v1.585h-8.773v6.34h97.6v-6.34Zm-48.253-11.622H383.85V109.8h10.967Zm16.449,11.622H400.3V109.8h10.967Zm16.451-11.622H416.749V109.8h10.967Z" transform="translate(204.243 36.784)" fill="#d5d5d5"/>
            <path id="Trazado_218713" data-name="Trazado 218713" d="M531.332,213.91l-18.194-29.081a1.82,1.82,0,0,0-3.092,0l-5.3,8.554,11.406,18.5a5.471,5.471,0,0,1,.571,4.993h12.93a1.874,1.874,0,0,0,1.7-.963,1.915,1.915,0,0,0,0-1.95Z" transform="translate(286.585 104.454)" fill="#d5d5d5"/>
            <path id="Trazado_218714" data-name="Trazado 218714" d="M532.354,220.409l-29.029-47.154a1.931,1.931,0,0,0-2.7-.417,1.879,1.879,0,0,0-.417.417l-29.018,47.154a1.851,1.851,0,0,0,1.557,3H530.8a1.86,1.86,0,0,0,1.557-2.946ZM506.276,191l-4.507,4.009-4.5-4.009-5.548,3.385,10.045-16.43,10.045,16.43Z" transform="translate(267.304 97.922)" fill="#d5d5d5"/>
            <path id="Trazado_218715" data-name="Trazado 218715" d="M483.426,172.7a7.249,7.249,0,0,1,1.3-2.869,7.462,7.462,0,0,1,3.85-2.662,8.166,8.166,0,0,1,5.7-4.94,8.713,8.713,0,0,1,1.908-.263h.362a6,6,0,0,0-2.457-3.91,6.079,6.079,0,0,0-5.482-.767,7.25,7.25,0,0,0-13.7,3.286,6.054,6.054,0,1,0-1.207,12.048Z" transform="translate(265.862 87.072)" fill="#d5d5d5"/>
            <path id="Trazado_218716" data-name="Trazado 218716" d="M487.228,161.531a4.9,4.9,0,0,0-2.657,4.3,4.138,4.138,0,1,0-.8,8.237h15.836a3.286,3.286,0,1,0,0-6.572h-.274a4.094,4.094,0,0,0-5.484-3.857,4.916,4.916,0,0,0-6.619-2.107" transform="translate(272.548 91.403)" fill="#d5d5d5"/>
            <path id="Trazado_218717" data-name="Trazado 218717" d="M529.222,184.407a2.319,2.319,0,0,0-.331,0h-.208a3.114,3.114,0,0,0-3.11-3.115,3.166,3.166,0,0,0-1.046.179,3.741,3.741,0,0,0-7.074,1.687,3.138,3.138,0,1,0-.625,6.233h12.064a2.5,2.5,0,1,0,.331-4.984" transform="translate(291.747 101.875)" fill="#d5d5d5"/>
            <path id="Trazado_218718" data-name="Trazado 218718" d="M508.691,183.945h.428v2.19h-2.195v5.959A1.744,1.744,0,0,0,508.7,193.8h7.392a1.742,1.742,0,0,0,1.8-1.676v-5.992H515.7v-2.19h.428l.392-1.709c.549-3.835,11.243-13.3,11.243-19.716,0-7.787-6.34-13.144-15.353-13.144s-15.353,5.377-15.353,13.144c0,6.418,10.692,15.882,11.239,19.716Zm4.968-33.058c5.548.646,9.167,5.478,9.167,12.454,0,3.363-3.159,9.267-5.482,13.593-.724,1.381-1.372,2.629-1.931,3.725h-1.687l.406-1.392c1.314-4.446,3.76-12.727,3.76-16.057,0-6.649-1.588-11.161-4.231-12.213a.055.055,0,1,1,0-.11m-2.349,33.058H513.5v2.19h-2.193Zm-9.32-20.6c0-6.977,3.617-11.809,9.135-12.454a.055.055,0,1,1,0,.11c-2.643,1.1-4.235,5.476-4.235,12.213,0,3.286,2.446,11.611,3.774,16.068.13.483.263.931.393,1.381h-1.621c-.6-1.1-1.242-2.344-1.974-3.725h.008c-2.312-4.38-5.481-10.23-5.481-13.593" transform="translate(282.217 84.812)" fill="#d5d5d5"/>
          </g>
        </g>
        <g id="Grupo_137761" data-name="Grupo 137761" transform="translate(346.285 960.631)">
          <g id="Grupo_137760" data-name="Grupo 137760" clip-path="url(#clip-path-2)">
            <path id="Trazado_218591" data-name="Trazado 218591" d="M439.239,134.149l24.6,24.694a92.6,92.6,0,0,1,131.291.63l25.785-23.48a127.372,127.372,0,0,0-181.679-1.844" transform="translate(249.378 55.058)" fill="#a75532"/>
            <path id="Trazado_218592" data-name="Trazado 218592" d="M409.351,136.93a127.01,127.01,0,0,0-179.895-.292l24.214,24.65a92.727,92.727,0,0,1,131.385.6l25.758-23.452c-.484-.5-.967-1.008-1.463-1.5" transform="translate(130.274 56.46)" fill="#a75532"/>
            <path id="Trazado_218593" data-name="Trazado 218593" d="M66.111,149.4c38.247-33.841,96.7-30.551,130.545,7.695l26.3-22.8a127.482,127.482,0,1,0-190.95,168.95l26.1-23.1a92.726,92.726,0,0,1,8-130.744" transform="translate(0 51.828)" fill="#a75532"/>
            <path id="Trazado_218594" data-name="Trazado 218594" d="M132.974,149.51a127.483,127.483,0,0,0,180.285.343l-24.252-24.877c-36.182,36.046-95.293,36.113-131.337-.071-2.058-2.062-4.327-3.981-6.15-6.186l-25.694,23q3.386,4,7.147,7.792" transform="translate(71.438 67.403)" fill="#a75532"/>
            <path id="Trazado_218595" data-name="Trazado 218595" d="M162.652,172.91A92.746,92.746,0,0,1,168.71,48.334l-24.6-24.7a127.5,127.5,0,0,0-7.488,172.493Z" transform="translate(60.525 13.42)" fill="#623e2a"/>
            <path id="Trazado_218596" data-name="Trazado 218596" d="M423.362,303.143l-24.6-24.7a92.729,92.729,0,0,1-130.989-.245c-36.044-36.184-35.674-94.893.508-130.934L243.646,122.6c-49.876,49.693-50.259,130.327-.568,180.207a127.483,127.483,0,0,0,180.283.337" transform="translate(116.97 69.606)" fill="#cdb47a"/>
            <path id="Trazado_218597" data-name="Trazado 218597" d="M285.96,62.11a92.728,92.728,0,0,1-.249,130.989l24.6,24.7A127.483,127.483,0,1,0,130.37,37.169l24.6,24.694a92.731,92.731,0,0,1,130.989.248" transform="translate(74.018 0)" fill="#cdb47a"/>
            <path id="Trazado_218598" data-name="Trazado 218598" d="M335.7,155.446c44.066,54.91,130.406,50.033,180.285.343l-24.6-24.694a92.734,92.734,0,0,1-130.99-.248c-2.058-2.065-3.991-4.211-5.815-6.412L328.76,147.62c2.258,2.67,4.72,5.061,6.942,7.826" transform="translate(186.654 70.649)" fill="#a75532"/>
            <path id="Trazado_218599" data-name="Trazado 218599" d="M365.814,178.8a92.744,92.744,0,0,1,6.061-124.573l-24.6-24.7a126.93,126.93,0,0,0-7.737,172.042Z" transform="translate(175.793 16.769)" fill="#d2984d"/>
            <path id="Trazado_218600" data-name="Trazado 218600" d="M488.848,68.69c35.911,36.317,34.911,94.888-1.4,130.8l24.8,24.611c50.063-49.511,50.891-129.854,1.387-179.917a127.482,127.482,0,0,0-180.285-1.01L357.86,67.958a92.732,92.732,0,0,1,130.989.732" transform="translate(189.26 3.597)" fill="#ca6432"/>
            <path id="Trazado_218601" data-name="Trazado 218601" d="M211.241,118.53l-26.108,23.095A92.624,92.624,0,1,1,46.4,264.383l-26.108,23.1a127.482,127.482,0,1,0,190.95-168.95" transform="translate(11.52 67.295)" fill="#623e2a"/>
            <path id="Trazado_218602" data-name="Trazado 218602" d="M12.387,200.816l23.385,5.1,23.386,5.1-20.11,18.608-20.106,18.6-3.278-23.709Z" transform="translate(7.033 114.013)" fill="#623e2a"/>
            <path id="Trazado_218603" data-name="Trazado 218603" d="M122.294,66.045l4.013-23.6,4.013-23.595,19.517,19.219L169.358,57.3l-23.532,4.372Z" transform="translate(69.433 10.703)" fill="#cdb47a"/>
            <path id="Trazado_218604" data-name="Trazado 218604" d="M354.7,124.314l-25.758,23.452A92.756,92.756,0,0,1,328.3,278.4l24.6,24.7a127.476,127.476,0,0,0,1.8-178.782" transform="translate(186.39 70.579)" fill="#d2984d"/>
            <path id="Trazado_218605" data-name="Trazado 218605" d="M320.679,264.465l5.017-23.407,5.014-23.4,18.681,20.041,18.681,20.037-23.7,3.366Z" transform="translate(182.066 123.573)" fill="#d2984d"/>
            <path id="Trazado_218606" data-name="Trazado 218606" d="M633.342,300.735l-24.6-24.7A92.622,92.622,0,1,1,478,144.8l-24.6-24.7a127.482,127.482,0,1,0,179.942,180.63" transform="translate(236.122 68.19)" fill="#ca6432"/>
            <path id="Trazado_218607" data-name="Trazado 218607" d="M564.685,121.862,538.9,145.344a92.72,92.72,0,0,1-.616,130.6l24.6,24.7a127.475,127.475,0,0,0,1.8-178.782" transform="translate(305.611 69.187)" fill="#a75532"/>
            <path id="Trazado_218608" data-name="Trazado 218608" d="M531.511,260l5.015-23.4,5.015-23.4,18.683,20.041,18.681,20.037-23.7,3.366Z" transform="translate(301.766 121.038)" fill="#a75532"/>
            <path id="Trazado_218609" data-name="Trazado 218609" d="M323.021,70.64,327.895,47.2l4.873-23.435,18.8,19.923,18.805,19.926L346.7,67.127Z" transform="translate(183.395 13.495)" fill="#ca6432"/>
            <path id="Trazado_218610" data-name="Trazado 218610" d="M56.54,195.391h4.89v4.8H56.54Zm0-9.6h4.89v4.8H56.54Zm0-9.6h4.89v4.8H56.54Zm9.783,19.2h4.89v4.8h-4.89Zm0-9.6h4.89v4.8h-4.89Zm0-9.6h4.89v4.8h-4.89Zm-17.117,36H61.43v-7.2h4.893v7.2H78.548v-43.2H49.206Z" transform="translate(27.937 95.944)" fill="#623e2a"/>
            <path id="Trazado_218611" data-name="Trazado 218611" d="M78.377,191.914h4.89v4.8h-4.89Zm0-9.6h4.89v4.8h-4.89Zm9.781,9.6h4.89v4.8h-4.89Zm0-9.6h4.89v4.8h-4.89Zm-17.117,26.4H83.266v-7.2h4.891v7.2h12.225v-33.6H71.041Z" transform="translate(40.334 99.421)" fill="#623e2a"/>
            <path id="Trazado_218612" data-name="Trazado 218612" d="M114.883,163.82h-4.89v-4.8h4.89Zm0,8.4h-4.89v-4.8h4.89Zm0,9.6h-4.89v-4.8h4.89Zm0,9.6h-4.89v-4.8h4.89Zm0,9.6h-4.89v-4.8h4.89Zm0,9.6h-4.89v-4.8h4.89Zm-9.781-46.8h-4.89v-4.8h4.89Zm0,8.4h-4.89v-4.8h4.89Zm0,9.6h-4.89v-4.8h4.89Zm0,9.6h-4.89v-4.8h4.89Zm0,9.6h-4.89v-4.8h4.89Zm0,9.6h-4.89v-4.8h4.89Zm-12.225-60v72H105.1v-7.2h4.891v7.2h12.225v-68.4Z" transform="translate(52.73 85.515)" fill="#623e2a"/>
            <path id="Trazado_218613" data-name="Trazado 218613" d="M77.24,165.889h4.89v4.8H77.24Zm0-9.6h4.89v4.8H77.24Zm-4.89,4.8H67.46v-4.8h4.89Zm0,9.6H67.46v-4.8h4.89Zm4.89,14.4H89.465v-36H60.123v26.4H77.24Z" transform="translate(34.135 84.645)" fill="#623e2a"/>
            <path id="Trazado_218614" data-name="Trazado 218614" d="M210.117,68.756l3.816-3.5a1.755,1.755,0,0,0,.182-2.612c-.041-.042-.085-.085-.13-.124l-3.75-3.468a2.23,2.23,0,0,0-2.977-.031l-.035.031-3.816,3.5Z" transform="translate(115.484 33.193)" fill="#a75532"/>
            <path id="Trazado_218615" data-name="Trazado 218615" d="M202.433,98.351V95.379H194.4v10.9H192.79v2.972h20.893V74.576h-9.044l-3.214,2.971h9.044v8.916h-16.61v2.972h16.61v5.943H207.79v2.972h2.679v7.925H197.612V98.351Z" transform="translate(109.456 42.341)" fill="#a75532"/>
            <path id="Trazado_218616" data-name="Trazado 218616" d="M238.5,69.634l-6.429,5.945h7.97v48.541H177.339a8.392,8.392,0,0,0,.5-1.982l.064-.991V75.579h31.584l6.42-5.945h-38v-.991c0-4.924-4.319-8.916-9.643-8.916s-9.643,3.991-9.643,8.916v52.5l.061.991a9.366,9.366,0,0,0,9.107,7.9v.022h78.69V69.634ZM168.26,124.119a2.982,2.982,0,1,1,3.214-2.972,3.1,3.1,0,0,1-3.214,2.972m3.214-11.368a10.207,10.207,0,0,0-6.431,0V68.643a3.226,3.226,0,0,1,6.431,0Z" transform="translate(90.055 33.91)" fill="#a75532"/>
            <path id="Trazado_218617" data-name="Trazado 218617" d="M188.755,77.548l3.208-2.972h-16.6v34.672h20.9v-2.971H194.65V95.38h-8.036v2.972h4.821v7.925H178.576V98.352h2.681V95.38h-2.681V89.437h5.9l1.066-2.972h-6.97V77.548Z" transform="translate(99.561 42.341)" fill="#a75532"/>
            <path id="Trazado_218618" data-name="Trazado 218618" d="M213.177,61.973,186.892,86.322l-3.33,9.28,10.093-3.077,26.282-24.3Zm-20.63,28.843-4.492,1.369-.792-.732,1.478-4.153a2.889,2.889,0,0,1,3.8.049,2.291,2.291,0,0,1,.055,3.418c-.019.017-.036.034-.055.05" transform="translate(104.217 35.185)" fill="#a75532"/>
            <path id="Trazado_218619" data-name="Trazado 218619" d="M337.136,199.089v-8.809h-3.209v8.348c-5.893-.784-12.37-1.359-19.25-1.681V188h-3.209v8.817q-4.7-.16-9.6-.166-4.92,0-9.656.169V188h-3.208v8.95c-6.884.323-13.36.9-19.252,1.688v-8.362h-3.208v8.82c-3.882.589-7.488,1.27-10.716,2.035v17.179H347.81v-17.2c-3.225-.759-6.81-1.434-10.675-2.022" transform="translate(145.249 106.739)" fill="#cdb47a"/>
            <path id="Trazado_218620" data-name="Trazado 218620" d="M265.893,171.987c-1.88,2.32-1.819,6.986-1.819,6.986s3.631.259,5.511-2.062,1.561-6.663,1.561-6.663-3.374-.58-5.254,1.739" transform="translate(149.928 96.622)" fill="#cdb47a"/>
            <path id="Trazado_218621" data-name="Trazado 218621" d="M269.527,182.788c1.88-2.319,1.56-6.663,1.56-6.663s-3.368-.582-5.25,1.743-1.817,6.981-1.817,6.981,3.628.259,5.508-2.062" transform="translate(149.897 99.959)" fill="#cdb47a"/>
            <path id="Trazado_218622" data-name="Trazado 218622" d="M265.785,178.922s.143-4.666-1.695-6.933-5.217-1.58-5.217-1.58-.4,4.355,1.438,6.619,5.475,1.894,5.475,1.894" transform="translate(146.954 96.695)" fill="#cdb47a"/>
            <path id="Trazado_218623" data-name="Trazado 218623" d="M265.732,184.8s.143-4.666-1.695-6.933-5.216-1.58-5.216-1.58-.4,4.357,1.436,6.617,5.475,1.9,5.475,1.9" transform="translate(146.925 100.031)" fill="#cdb47a"/>
            <path id="Trazado_218624" data-name="Trazado 218624" d="M269.531,188.651c1.88-2.32,1.56-6.663,1.56-6.663s-3.368-.582-5.247,1.739-1.819,6.986-1.819,6.986,3.626.254,5.506-2.062" transform="translate(149.9 103.287)" fill="#cdb47a"/>
            <path id="Trazado_218625" data-name="Trazado 218625" d="M258.826,182.145s-.4,4.354,1.438,6.617,5.473,1.894,5.473,1.894.144-4.666-1.693-6.933-5.217-1.579-5.217-1.579" transform="translate(146.928 103.358)" fill="#cdb47a"/>
            <path id="Trazado_218626" data-name="Trazado 218626" d="M265.841,176.194s.144-4.666-1.695-6.933a4.72,4.72,0,0,0-3.186-1.624l-.649-8.541a.2.2,0,0,0-.409-.008l-.972,8.594s-.4,4.354,1.438,6.617,5.473,1.894,5.473,1.894" transform="translate(146.987 90.209)" fill="#cdb47a"/>
            <path id="Trazado_218627" data-name="Trazado 218627" d="M264.119,176.194s3.636.368,5.475-1.894,1.436-6.617,1.436-6.617l-.97-8.594a.21.21,0,0,0-.223-.2.214.214,0,0,0-.187.207L269,167.637a4.721,4.721,0,0,0-3.187,1.624c-1.839,2.264-1.695,6.933-1.695,6.933" transform="translate(149.952 90.209)" fill="#cdb47a"/>
            <path id="Trazado_218628" data-name="Trazado 218628" d="M264.743,172.949a10.191,10.191,0,0,0,2.609-6.031,9.813,9.813,0,0,0-1.645-5.017l-.771-8.568a.2.2,0,0,0-.409,0l-.795,8.56a10.3,10.3,0,0,0-1.767,5.112c-.031,3.3,2.778,5.943,2.778,5.943" transform="translate(148.731 86.94)" fill="#cdb47a"/>
            <path id="Trazado_218629" data-name="Trazado 218629" d="M280.219,170.536c-1.88,2.32-1.819,6.986-1.819,6.986s3.631.259,5.511-2.062,1.56-6.663,1.56-6.663-3.372-.58-5.252,1.739" transform="translate(158.062 95.798)" fill="#cdb47a"/>
            <path id="Trazado_218630" data-name="Trazado 218630" d="M283.853,181.336c1.88-2.319,1.56-6.663,1.56-6.663s-3.368-.582-5.25,1.743-1.817,6.981-1.817,6.981,3.628.259,5.508-2.062" transform="translate(158.031 99.134)" fill="#cdb47a"/>
            <path id="Trazado_218631" data-name="Trazado 218631" d="M280.111,177.47s.143-4.666-1.695-6.934-5.217-1.579-5.217-1.579-.4,4.355,1.438,6.617,5.475,1.9,5.475,1.9" transform="translate(155.088 95.87)" fill="#cdb47a"/>
            <path id="Trazado_218632" data-name="Trazado 218632" d="M280.058,183.346s.144-4.666-1.695-6.933-5.216-1.579-5.216-1.579-.4,4.355,1.436,6.617,5.475,1.894,5.475,1.894" transform="translate(155.059 99.207)" fill="#cdb47a"/>
            <path id="Trazado_218633" data-name="Trazado 218633" d="M283.857,187.2c1.88-2.32,1.56-6.663,1.56-6.663s-3.368-.582-5.247,1.739-1.819,6.986-1.819,6.986,3.626.254,5.506-2.062" transform="translate(158.034 102.463)" fill="#cdb47a"/>
            <path id="Trazado_218634" data-name="Trazado 218634" d="M273.152,180.693s-.4,4.354,1.438,6.617,5.473,1.894,5.473,1.894.144-4.664-1.693-6.931-5.217-1.58-5.217-1.58" transform="translate(155.062 102.533)" fill="#cdb47a"/>
            <path id="Trazado_218635" data-name="Trazado 218635" d="M280.167,174.742s.144-4.666-1.693-6.933a4.724,4.724,0,0,0-3.187-1.624l-.649-8.541a.2.2,0,0,0-.409-.008l-.972,8.594s-.4,4.354,1.436,6.617,5.475,1.894,5.475,1.894" transform="translate(155.12 89.385)" fill="#cdb47a"/>
            <path id="Trazado_218636" data-name="Trazado 218636" d="M278.445,174.742s3.637.368,5.475-1.894,1.436-6.617,1.436-6.617l-.97-8.594a.21.21,0,0,0-.223-.2.214.214,0,0,0-.187.207l-.649,8.541a4.721,4.721,0,0,0-3.187,1.624c-1.839,2.264-1.695,6.933-1.695,6.933" transform="translate(158.086 89.385)" fill="#cdb47a"/>
            <path id="Trazado_218637" data-name="Trazado 218637" d="M279.071,171.5a10.192,10.192,0,0,0,2.607-6.031,9.812,9.812,0,0,0-1.645-5.017l-.77-8.572a.2.2,0,0,0-.409,0l-.8,8.558a10.306,10.306,0,0,0-1.767,5.114c-.031,3.308,2.78,5.948,2.78,5.948" transform="translate(156.864 86.114)" fill="#cdb47a"/>
            <path id="Trazado_218638" data-name="Trazado 218638" d="M294.546,170.536c-1.88,2.32-1.819,6.986-1.819,6.986s3.631.259,5.511-2.062,1.56-6.663,1.56-6.663-3.372-.58-5.252,1.739" transform="translate(166.196 95.798)" fill="#cdb47a"/>
            <path id="Trazado_218639" data-name="Trazado 218639" d="M298.179,181.336c1.88-2.319,1.561-6.663,1.561-6.663s-3.369-.582-5.252,1.743-1.817,6.981-1.817,6.981,3.628.259,5.508-2.062" transform="translate(166.164 99.134)" fill="#cdb47a"/>
            <path id="Trazado_218640" data-name="Trazado 218640" d="M294.437,177.47s.144-4.666-1.695-6.934-5.216-1.579-5.216-1.579-.4,4.355,1.436,6.617,5.475,1.9,5.475,1.9" transform="translate(163.222 95.87)" fill="#cdb47a"/>
            <path id="Trazado_218641" data-name="Trazado 218641" d="M294.385,183.346s.144-4.666-1.695-6.933-5.216-1.579-5.216-1.579-.4,4.355,1.436,6.617,5.475,1.894,5.475,1.894" transform="translate(163.193 99.207)" fill="#cdb47a"/>
            <path id="Trazado_218642" data-name="Trazado 218642" d="M298.184,187.2c1.88-2.32,1.561-6.663,1.561-6.663s-3.368-.582-5.249,1.739-1.819,6.986-1.819,6.986,3.626.254,5.506-2.062" transform="translate(166.168 102.463)" fill="#cdb47a"/>
            <path id="Trazado_218643" data-name="Trazado 218643" d="M287.479,180.693s-.4,4.354,1.438,6.617,5.473,1.894,5.473,1.894.144-4.664-1.693-6.931-5.217-1.58-5.217-1.58" transform="translate(163.196 102.533)" fill="#cdb47a"/>
            <path id="Trazado_218644" data-name="Trazado 218644" d="M294.495,174.742s.143-4.666-1.695-6.933a4.721,4.721,0,0,0-3.187-1.624l-.649-8.541a.209.209,0,0,0-.215-.207.214.214,0,0,0-.194.2l-.972,8.594s-.4,4.354,1.438,6.617,5.475,1.894,5.475,1.894" transform="translate(163.254 89.385)" fill="#cdb47a"/>
            <path id="Trazado_218645" data-name="Trazado 218645" d="M292.772,174.742s3.636.368,5.475-1.894,1.436-6.617,1.436-6.617l-.97-8.594a.21.21,0,0,0-.223-.2.214.214,0,0,0-.187.207l-.649,8.541a4.721,4.721,0,0,0-3.187,1.624c-1.839,2.264-1.695,6.933-1.695,6.933" transform="translate(166.22 89.385)" fill="#cdb47a"/>
            <path id="Trazado_218646" data-name="Trazado 218646" d="M293.4,171.5A10.192,10.192,0,0,0,296,165.469a9.813,9.813,0,0,0-1.645-5.017l-.77-8.572a.2.2,0,0,0-.409,0l-.795,8.558a10.287,10.287,0,0,0-1.768,5.114c-.031,3.308,2.78,5.948,2.78,5.948" transform="translate(164.999 86.114)" fill="#cdb47a"/>
            <path id="Trazado_218647" data-name="Trazado 218647" d="M308.872,171.987c-1.88,2.32-1.819,6.986-1.819,6.986s3.631.259,5.511-2.062,1.56-6.663,1.56-6.663-3.372-.58-5.252,1.739" transform="translate(174.329 96.622)" fill="#cdb47a"/>
            <path id="Trazado_218648" data-name="Trazado 218648" d="M312.506,182.788c1.88-2.319,1.561-6.663,1.561-6.663s-3.369-.582-5.252,1.743S307,184.85,307,184.85s3.628.259,5.507-2.062" transform="translate(174.298 99.959)" fill="#cdb47a"/>
            <path id="Trazado_218649" data-name="Trazado 218649" d="M308.763,178.922s.144-4.666-1.695-6.933-5.216-1.58-5.216-1.58-.4,4.355,1.436,6.619,5.475,1.894,5.475,1.894" transform="translate(171.356 96.695)" fill="#cdb47a"/>
            <path id="Trazado_218650" data-name="Trazado 218650" d="M308.711,184.8s.144-4.666-1.695-6.933-5.216-1.58-5.216-1.58-.4,4.357,1.438,6.617,5.473,1.9,5.473,1.9" transform="translate(171.326 100.031)" fill="#cdb47a"/>
            <path id="Trazado_218651" data-name="Trazado 218651" d="M312.51,188.651c1.881-2.32,1.561-6.663,1.561-6.663s-3.368-.582-5.249,1.739S307,190.713,307,190.713s3.626.254,5.506-2.062" transform="translate(174.302 103.287)" fill="#cdb47a"/>
            <path id="Trazado_218652" data-name="Trazado 218652" d="M301.8,182.145s-.4,4.354,1.438,6.617,5.473,1.894,5.473,1.894.144-4.666-1.693-6.933-5.218-1.579-5.218-1.579" transform="translate(171.33 103.358)" fill="#cdb47a"/>
            <path id="Trazado_218653" data-name="Trazado 218653" d="M308.821,176.194s.143-4.666-1.695-6.933a4.721,4.721,0,0,0-3.187-1.624l-.649-8.541a.209.209,0,0,0-.215-.207.214.214,0,0,0-.194.2l-.972,8.594s-.4,4.354,1.438,6.617,5.475,1.894,5.475,1.894" transform="translate(171.388 90.209)" fill="#cdb47a"/>
            <path id="Trazado_218654" data-name="Trazado 218654" d="M307.1,176.2s3.636.368,5.475-1.894,1.436-6.617,1.436-6.617l-.97-8.594a.2.2,0,1,0-.409.008l-.649,8.541a4.727,4.727,0,0,0-3.187,1.624c-1.839,2.264-1.695,6.933-1.695,6.933" transform="translate(174.354 90.204)" fill="#cdb47a"/>
            <path id="Trazado_218655" data-name="Trazado 218655" d="M307.724,172.951a10.2,10.2,0,0,0,2.609-6.031,9.815,9.815,0,0,0-1.646-5.017l-.77-8.572a.2.2,0,0,0-.409,0l-.795,8.558A10.308,10.308,0,0,0,304.944,167c-.03,3.308,2.78,5.948,2.78,5.948" transform="translate(173.132 86.938)" fill="#cdb47a"/>
            <path id="Trazado_218656" data-name="Trazado 218656" d="M423.144,84.752,403.4,66.643,363.925,102.83l4.266,3.507L403.4,74.112l18.325,16.78a47.182,47.182,0,0,1,1.414-6.139" transform="translate(206.619 37.837)" fill="#d2984d"/>
            <path id="Trazado_218657" data-name="Trazado 218657" d="M443.073,131.993V110.661c6.58-1.141,11.515-7.29,11.515-16.049,0-9.72-10.418-29.815-13.708-29.815s-13.707,20.075-13.707,29.815c0,8.759,4.989,14.908,11.514,16.049v21.332H434.3V112.616c-5.812-2.631-9.869-8.728-10.352-16.334l-18.161-16.06-28.513,25.22v26.551h-6.58v-1.574h1.853a1.6,1.6,0,0,0,1.568-1.257,7.542,7.542,0,0,1,1.975-3.56.321.321,0,0,0,.014-.464.351.351,0,0,0-.354-.086,10.616,10.616,0,0,0-5.056,2.715v-2.958c4.891-.782,2.193-6.92,2.193-6.92a.346.346,0,0,0-.462-.124.33.33,0,0,0-.13.124l-1.173,1.922-1.174-1.922a.352.352,0,0,0-.6,0l-1.174,1.922-1.217-1.922a.359.359,0,0,0-.481-.118.338.338,0,0,0-.122.118s-2.731,6.128,2.193,6.92v2.9a10.73,10.73,0,0,0-5.034-2.664.345.345,0,0,0-.43.209.323.323,0,0,0,.089.342,7.47,7.47,0,0,1,1.975,3.56,1.6,1.6,0,0,0,1.568,1.257H368.5v1.585h-8.773v6.338h97.6v-6.338Zm-48.252-11.622H383.854V109.806h10.966Zm16.45,11.622H400.3V109.8h10.966Zm16.449-11.622H416.753V109.806H427.72Z" transform="translate(204.236 36.788)" fill="#d2984d"/>
            <path id="Trazado_218658" data-name="Trazado 218658" d="M531.338,213.919l-18.194-29.08a1.82,1.82,0,0,0-3.092,0l-5.3,8.554,11.405,18.5a5.47,5.47,0,0,1,.571,4.993H529.66a1.874,1.874,0,0,0,1.7-.963,1.914,1.914,0,0,0,0-1.95Z" transform="translate(286.575 104.455)" fill="#a75532"/>
            <path id="Trazado_218659" data-name="Trazado 218659" d="M532.359,220.418,503.33,173.265a1.931,1.931,0,0,0-2.7-.417,1.878,1.878,0,0,0-.417.417L471.2,220.418a1.851,1.851,0,0,0,1.557,3H530.8a1.86,1.86,0,0,0,1.557-2.946Zm-26.078-29.409-4.507,4.009-4.5-4.009-5.548,3.385,10.045-16.43,10.046,16.43Z" transform="translate(267.294 97.923)" fill="#a75532"/>
            <path id="Trazado_218660" data-name="Trazado 218660" d="M483.432,172.711a7.247,7.247,0,0,1,1.3-2.869,7.462,7.462,0,0,1,3.85-2.662,8.165,8.165,0,0,1,5.7-4.94,8.714,8.714,0,0,1,1.908-.263h.362a6,6,0,0,0-2.457-3.91,6.08,6.08,0,0,0-5.482-.767,7.25,7.25,0,0,0-13.7,3.286,6.054,6.054,0,1,0-1.207,12.048Z" transform="translate(265.853 87.073)" fill="#a75532"/>
            <path id="Trazado_218661" data-name="Trazado 218661" d="M499.61,167.505h-.274a4.089,4.089,0,0,0-5.482-3.855,4.914,4.914,0,0,0-9.278,2.19,4.138,4.138,0,1,0-.8,8.237H499.61a3.286,3.286,0,1,0,0-6.572" transform="translate(272.538 91.404)" fill="#a75532"/>
            <path id="Trazado_218662" data-name="Trazado 218662" d="M528.9,184.416h-.209a3.114,3.114,0,0,0-3.11-3.115,3.166,3.166,0,0,0-1.046.179,3.741,3.741,0,0,0-7.074,1.687,3.137,3.137,0,1,0-.626,6.233H528.9a2.5,2.5,0,1,0,.331-4.984,2.328,2.328,0,0,0-.331,0" transform="translate(291.736 101.876)" fill="#a75532"/>
            <path id="Trazado_218663" data-name="Trazado 218663" d="M515.7,183.952h.428l.394-1.707c.549-3.835,11.241-13.3,11.241-19.716,0-7.789-6.338-13.144-15.353-13.144s-15.353,5.377-15.353,13.144c0,6.418,10.692,15.881,11.241,19.716l.4,1.707h.428v2.192h-2.193V192.1a1.743,1.743,0,0,0,1.775,1.71H516.1a1.744,1.744,0,0,0,1.8-1.678v-5.99H515.7Zm7.129-20.6c0,3.363-3.159,9.267-5.484,13.592-.724,1.38-1.37,2.629-1.93,3.725H513.73l.4-1.392c1.317-4.446,3.763-12.727,3.763-16.057,0-6.649-1.591-11.161-4.233-12.213a.055.055,0,1,1,0-.11c5.548.646,9.168,5.476,9.168,12.454m-15.355,13.592c-2.314-4.38-5.482-10.23-5.482-13.592,0-6.978,3.618-11.808,9.135-12.454a.055.055,0,1,1,0,.11c-2.643,1.1-4.233,5.476-4.233,12.213,0,3.286,2.446,11.611,3.772,16.068.132.483.263.931.4,1.381h-1.623c-.6-1.1-1.24-2.345-1.975-3.725Zm3.839,7.009h2.193v2.19h-2.193Z" transform="translate(282.206 84.813)" fill="#a75532"/>
          </g>
        </g>
      </g>
      <g id="Grupo_131363" data-name="Grupo 131363" transform="translate(-213.799 -4887)">
        <g transform="matrix(1, 0, 0, 1, 560.08, 5752.5)" filter="url(#Elipse_5555)">
          <g id="Elipse_5555-6" data-name="Elipse 5555" transform="translate(101.2 435.5)" fill="#a75532" stroke="#fff" stroke-width="3">
            <circle cx="23.899" cy="23.899" r="23.899" stroke="none"/>
            <circle cx="23.899" cy="23.899" r="25.399" fill="none"/>
          </g>
        </g>
        <path id="Trazado_227355" data-name="Trazado 227355" d="M20.006,23H16.045V10.391l-3.891,1.137v-3l7.488-2.59h.363Z" transform="translate(668.639 6197.805)" fill="#fff"/>
      </g>
      <g id="Grupo_137764" data-name="Grupo 137764" transform="translate(-48.799 -5276.496)">
        <g transform="matrix(1, 0, 0, 1, 395.08, 6142)" filter="url(#Elipse_5555-2)">
          <g id="Elipse_5555-7" data-name="Elipse 5555" transform="translate(266.2 46)" fill="#623e2a" stroke="#fff" stroke-width="3">
            <circle cx="23.899" cy="23.899" r="23.899" stroke="none"/>
            <circle cx="23.899" cy="23.899" r="25.399" fill="none"/>
          </g>
        </g>
        <path id="Trazado_227356" data-name="Trazado 227356" d="M23.159,23H11.252V20.422l5.484-5.766q2.027-2.309,2.027-3.668a2.551,2.551,0,0,0-.48-1.676,1.715,1.715,0,0,0-1.395-.574,1.737,1.737,0,0,0-1.465.768,3.155,3.155,0,0,0-.562,1.916H10.9a5.6,5.6,0,0,1,.785-2.9,5.506,5.506,0,0,1,2.18-2.08,6.475,6.475,0,0,1,3.117-.75,6.369,6.369,0,0,1,4.26,1.277,4.56,4.56,0,0,1,1.494,3.668,5.326,5.326,0,0,1-.375,1.963,8.608,8.608,0,0,1-1.166,2,29.372,29.372,0,0,1-2.549,2.807l-2.2,2.543h6.715Z" transform="translate(668.639 6197.805)" fill="#fff"/>
      </g>
      <g id="Grupo_137766" data-name="Grupo 137766" transform="translate(272.201 -5274.496)">
        <g transform="matrix(1, 0, 0, 1, 74.08, 6140)" filter="url(#Elipse_5555-3)">
          <g id="Elipse_5555-8" data-name="Elipse 5555" transform="translate(587.2 48)" fill="#a75532" stroke="#fff" stroke-width="3">
            <circle cx="23.899" cy="23.899" r="23.899" stroke="none"/>
            <circle cx="23.899" cy="23.899" r="25.399" fill="none"/>
          </g>
        </g>
        <path id="Trazado_227357" data-name="Trazado 227357" d="M21.682,16.332h1.734v3.047H21.682V23H17.733V19.379h-6.6L10.9,16.965,17.733,5.973V5.938h3.949Zm-7.02,0h3.07v-5.25l-.246.4Z" transform="translate(666.639 6197.805)" fill="#fff"/>
      </g>
      <g id="Grupo_137765" data-name="Grupo 137765" transform="translate(106.201 -4887)">
        <g transform="matrix(1, 0, 0, 1, 240.08, 5752.5)" filter="url(#Elipse_5555-4)">
          <g id="Elipse_5555-9" data-name="Elipse 5555" transform="translate(421.2 435.5)" fill="#623e2a" stroke="#fff" stroke-width="3">
            <circle cx="23.899" cy="23.899" r="23.899" stroke="none"/>
            <circle cx="23.899" cy="23.899" r="25.399" fill="none"/>
          </g>
        </g>
        <path id="Trazado_227353" data-name="Trazado 227353" d="M14.862,12.816h1.863a1.937,1.937,0,0,0,2.215-2.168,1.875,1.875,0,0,0-.527-1.377,2,2,0,0,0-1.488-.533,2.141,2.141,0,0,0-1.365.457,1.394,1.394,0,0,0-.58,1.137H11.03a4.043,4.043,0,0,1,.75-2.4,4.953,4.953,0,0,1,2.08-1.646,7.112,7.112,0,0,1,2.924-.592,6.988,6.988,0,0,1,4.477,1.3,4.324,4.324,0,0,1,1.629,3.574,3.6,3.6,0,0,1-.674,2.08,4.8,4.8,0,0,1-1.963,1.588,4.587,4.587,0,0,1,2.133,1.494,3.935,3.935,0,0,1,.773,2.479A4.4,4.4,0,0,1,21.4,21.863a7.3,7.3,0,0,1-4.617,1.371,7.567,7.567,0,0,1-3.111-.639,4.875,4.875,0,0,1-2.174-1.77,4.6,4.6,0,0,1-.738-2.572h3.973a1.778,1.778,0,0,0,.633,1.359,2.234,2.234,0,0,0,1.559.574,2.34,2.34,0,0,0,1.664-.58,1.939,1.939,0,0,0,.621-1.482,2.267,2.267,0,0,0-.645-1.828,2.694,2.694,0,0,0-1.781-.539H14.862Z" transform="translate(668.639 6197.805)" fill="#fff"/>
      </g>
      <g id="Grupo_137767" data-name="Grupo 137767" transform="translate(432.201 -4887)">
        <g transform="matrix(1, 0, 0, 1, -85.92, 5752.5)" filter="url(#Elipse_5555-5)">
          <g id="Elipse_5555-10" data-name="Elipse 5555" transform="translate(747.2 435.5)" fill="#a75532" stroke="#fff" stroke-width="3">
            <circle cx="23.899" cy="23.899" r="23.899" stroke="none"/>
            <circle cx="23.899" cy="23.899" r="25.399" fill="none"/>
          </g>
        </g>
        <path id="Trazado_227354" data-name="Trazado 227354" d="M11.487,14.665,12.53,5.938H22.5V8.984H15.741L15.354,12.4a4.658,4.658,0,0,1,1.107-.436,5.053,5.053,0,0,1,1.342-.188,5.006,5.006,0,0,1,3.908,1.506A6.066,6.066,0,0,1,23.077,17.5a6.055,6.055,0,0,1-.732,2.971,5.034,5.034,0,0,1-2.057,2.045,6.493,6.493,0,0,1-3.129.715,6.987,6.987,0,0,1-3.012-.662,5.4,5.4,0,0,1-2.2-1.815,4.41,4.41,0,0,1-.785-2.605h3.961a2.24,2.24,0,0,0,.6,1.485,1.9,1.9,0,0,0,1.418.55q1.992,0,1.992-2.947,0-2.725-2.437-2.725a2.432,2.432,0,0,0-2.063.889Z" transform="translate(668.639 6197.805)" fill="#fff"/>
      </g>
    </g>
  </g>
</svg>
