<svg id="Grupo_137839" data-name="Grupo 137839" xmlns="http://www.w3.org/2000/svg" xmlns:xlink="http://www.w3.org/1999/xlink" width="93.228" height="80.065" viewBox="0 0 93.228 80.065">
  <defs>
    <clipPath id="clip-path">
      <rect id="Rectángulo_43084" data-name="Rectángulo 43084" width="93.228" height="80.065" fill="none"/>
    </clipPath>
  </defs>
  <g id="Grupo_132322" data-name="Grupo 132322" clip-path="url(#clip-path)">
    <path id="Trazado_212400" data-name="Trazado 212400" d="M19.624,84.352A12.4,12.4,0,0,1,9.108,65.38l32.9-52.639a12.4,12.4,0,0,1,21.031,0l32.9,52.639A12.4,12.4,0,0,1,85.422,84.352Z" transform="translate(-5.909 -5.654)" fill="#ffe17d"/>
    <path id="Trazado_212401" data-name="Trazado 212401" d="M12.424,77.963a12.405,12.405,0,0,1,.33-12.583l32.9-52.639a12.318,12.318,0,0,1,8.693-5.7,12.589,12.589,0,0,0-1.823-.132,12.329,12.329,0,0,0-10.515,5.828L9.109,65.38A12.4,12.4,0,0,0,19.624,84.352H23.27A12.406,12.406,0,0,1,12.424,77.963Z" transform="translate(-5.909 -5.654)" fill="#ffd164"/>
    <path id="Trazado_212402" data-name="Trazado 212402" d="M45.252,104.276a6.695,6.695,0,0,1-5.677-10.243l32.9-52.638a6.695,6.695,0,0,1,11.354,0l32.9,52.639a6.695,6.695,0,0,1-5.677,10.243Z" transform="translate(-31.537 -31.284)" fill="#ffc200"/>
    <path id="Trazado_212403" data-name="Trazado 212403" d="M232.04,154.557a2.717,2.717,0,0,1-2.7-2.408l-2.617-22.878a2.717,2.717,0,0,1,2.7-3.026h5.234a2.717,2.717,0,0,1,2.7,3.026l-2.617,22.878a2.717,2.717,0,0,1-2.7,2.408" transform="translate(-185.426 -103.258)" fill="#ca6432"/>
    <path id="Trazado_212404" data-name="Trazado 212404" d="M236.924,312.568a4.247,4.247,0,1,1-4.247,4.247,4.247,4.247,0,0,1,4.247-4.247" transform="translate(-190.31 -255.654)" fill="#ca6432"/>
    <path id="Trazado_212405" data-name="Trazado 212405" d="M232.986,152.149l-2.617-22.878a2.717,2.717,0,0,1,2.7-3.026h-3.646a2.717,2.717,0,0,0-2.7,3.026l2.617,22.878a2.717,2.717,0,0,0,4.522,1.706,2.711,2.711,0,0,1-.876-1.706" transform="translate(-185.426 -103.258)" fill="#a75532"/>
    <path id="Trazado_212406" data-name="Trazado 212406" d="M236.323,316.816a4.247,4.247,0,0,1,2.424-3.837,4.247,4.247,0,1,0,0,7.673A4.248,4.248,0,0,1,236.323,316.816Z" transform="translate(-190.31 -255.654)" fill="#a75532"/>
    <path id="Trazado_212407" data-name="Trazado 212407" d="M43.635,80.066H13.715C3.1,80.066-3.583,68,2.041,59l32.9-52.639a13.9,13.9,0,0,1,23.351,0L70.312,25.6a1.367,1.367,0,1,1-2.319,1.449L55.971,7.811a11.184,11.184,0,0,0-18.714,0L4.36,60.451a11.133,11.133,0,0,0,9.355,16.881H43.635a1.367,1.367,0,1,1,0,2.734Z" transform="translate(0 0)"/>
    <path id="Trazado_212408" data-name="Trazado 212408" d="M296.138,214.9H266.217a1.367,1.367,0,1,1,0-2.734h29.921a11.133,11.133,0,0,0,9.355-16.881l-17.711-28.34A1.367,1.367,0,0,1,290.1,165.5l17.711,28.34C313.436,202.838,306.75,214.9,296.138,214.9Z" transform="translate(-216.624 -134.838)"/>
    <path id="Trazado_212409" data-name="Trazado 212409" d="M105.115,99.916h-65.8A8.169,8.169,0,0,1,32.48,87.581L53,54.749A1.367,1.367,0,1,1,55.319,56.2L34.8,89.03a5.374,5.374,0,0,0,4.517,8.151h65.8a5.374,5.374,0,0,0,4.517-8.151l-32.9-52.639a5.372,5.372,0,0,0-9.034,0l-9.22,14.753a1.367,1.367,0,1,1-2.319-1.449l9.22-14.752a8.169,8.169,0,0,1,13.672,0l32.9,52.639A8.169,8.169,0,0,1,105.115,99.916Z" transform="translate(-25.602 -25.556)"/>
    <path id="Trazado_212410" data-name="Trazado 212410" d="M226.018,149.785a4.082,4.082,0,0,1-4.058-3.62l-2.617-22.878q-.009-4.092,4.058-4.548h5.234q4.066.456,4.058,4.548l-2.617,22.878a4.082,4.082,0,0,1-4.058,3.62M223.4,121.473a1.349,1.349,0,0,0-1.341,1.5l2.617,22.878a1.35,1.35,0,0,0,2.682,0l2.617-22.878a1.349,1.349,0,0,0-1.341-1.5Z" transform="translate(-179.404 -97.118)"/>
    <path id="Trazado_212411" data-name="Trazado 212411" d="M230.783,316.288a5.614,5.614,0,1,1,5.614-5.614,5.62,5.62,0,0,1-5.614,5.614m0-8.493a2.879,2.879,0,1,0,2.88,2.879,2.883,2.883,0,0,0-2.88-2.879" transform="translate(-184.169 -249.513)"/>
  </g>
</svg>
