<svg xmlns="http://www.w3.org/2000/svg" xmlns:xlink="http://www.w3.org/1999/xlink" width="144" height="145" viewBox="0 0 144 145">
  <defs>
    <filter id="Elipse_4259" x="0" y="0" width="144" height="145" filterUnits="userSpaceOnUse">
      <feOffset dx="-6" dy="6" input="SourceAlpha"/>
      <feGaussianBlur stdDeviation="3" result="blur"/>
      <feFlood flood-opacity="0.161"/>
      <feComposite operator="in" in2="blur"/>
      <feComposite in="SourceGraphic"/>
    </filter>
    <clipPath id="clip-path">
      <rect id="Rect치ngulo_46779" data-name="Rect치ngulo 46779" width="71.146" height="71.146" transform="translate(0 0)" fill="none"/>
    </clipPath>
    <clipPath id="clip-path-2">
      <rect id="Rect치ngulo_46780" data-name="Rect치ngulo 46780" width="71.147" height="71.147" transform="translate(0 -0.001)" fill="none"/>
    </clipPath>
  </defs>
  <g id="Grupo_143277" data-name="Grupo 143277" transform="translate(-1142.285 -5429)">
    <g id="Grupo_141446" data-name="Grupo 141446" transform="translate(402 -1177)">
      <g id="Grupo_131300" data-name="Grupo 131300" transform="translate(754.896 6609.5)">
        <g transform="matrix(1, 0, 0, 1, -14.61, -3.5)" filter="url(#Elipse_4259)">
          <g id="Elipse_4259-2" data-name="Elipse 4259" transform="translate(15 3)" fill="#fff" stroke="#cdb47a" stroke-width="4">
            <ellipse cx="63" cy="63.5" rx="63" ry="63.5" stroke="none"/>
            <ellipse cx="63" cy="63.5" rx="61" ry="61.5" fill="none"/>
          </g>
        </g>
      </g>
    </g>
    <g id="Grupo_141455" data-name="Grupo 141455" transform="translate(1184.285 5454)">
      <g id="Grupo_141452" data-name="Grupo 141452">
        <g id="Grupo_141451" data-name="Grupo 141451" clip-path="url(#clip-path)">
          <path id="Trazado_224447" data-name="Trazado 224447" d="M69.961,60.474c0,5.239-15.4,9.486-34.387,9.486S1.186,65.713,1.186,60.474s15.4-9.486,34.388-9.486,34.387,4.247,34.387,9.486" fill="#d9d9d7"/>
          <path id="Trazado_224448" data-name="Trazado 224448" d="M61.3,54.184A59.044,59.044,0,0,1,25.312,69.529c3.24.281,6.687.431,10.261.431,18.992,0,34.387-4.247,34.387-9.486,0-2.414-3.274-4.616-8.656-6.29" fill="#bfbfbd"/>
          <path id="Trazado_224449" data-name="Trazado 224449" d="M61.3,54.184A59.044,59.044,0,0,1,25.312,69.529c3.24.281,6.687.431,10.261.431,18.992,0,34.387-4.247,34.387-9.486,0-2.414-3.274-4.616-8.656-6.29" fill="#bfbfbd"/>
          <path id="Trazado_224450" data-name="Trazado 224450" d="M54.546,41.5v5.929l2.372,1.186V58.1h7.114V48.617L66.4,47.431V41.5a4.744,4.744,0,0,0-4.743-4.743H59.289A4.744,4.744,0,0,0,54.546,41.5" fill="#cdb47a"/>
          <path id="Trazado_224451" data-name="Trazado 224451" d="M56.917,58.132v.618h7.115V52.174a59.654,59.654,0,0,1-7.115,5.958" fill="#c1a774"/>
          <path id="Trazado_224452" data-name="Trazado 224452" d="M5.929,41.5v5.929L8.3,48.617V58.1h7.114V48.617l2.372-1.186V41.5a4.744,4.744,0,0,0-4.743-4.743H10.672A4.744,4.744,0,0,0,5.929,41.5" fill="#cdb47a"/>
          <path id="Trazado_224453" data-name="Trazado 224453" d="M15.415,33.2a3.557,3.557,0,1,1-3.557-3.557A3.557,3.557,0,0,1,15.415,33.2" fill="#cdb47a"/>
          <path id="Trazado_224454" data-name="Trazado 224454" d="M29.644,37.945v5.929l2.372,1.186v9.486H39.13V45.06L41.5,43.874V37.945A4.744,4.744,0,0,0,36.759,33.2H34.387a4.744,4.744,0,0,0-4.743,4.743" fill="#cdb47a"/>
          <path id="Trazado_224455" data-name="Trazado 224455" d="M39.131,29.644a3.558,3.558,0,1,1-3.558-3.557,3.558,3.558,0,0,1,3.558,3.557" fill="#cdb47a"/>
          <path id="Trazado_224456" data-name="Trazado 224456" d="M64.032,33.2a3.557,3.557,0,1,1-3.557-3.557A3.557,3.557,0,0,1,64.032,33.2" fill="#cdb47a"/>
          <path id="Trazado_224457" data-name="Trazado 224457" d="M43.3,2.119l-.865-.433a4.74,4.74,0,0,0-4.242,0L35.573,3v8.3l2.622-1.312a4.74,4.74,0,0,1,4.242,0l.908.454a4.74,4.74,0,0,0,3.543.284l1.728-.543V1.812l-1.692.564A4.746,4.746,0,0,1,43.3,2.119" fill="#ca6432"/>
          <path id="Trazado_224458" data-name="Trazado 224458" d="M37.945,8.3H35.573v3l2.622-1.312a4.742,4.742,0,0,1,4.243,0l.908.454a4.738,4.738,0,0,0,3.542.283l1.729-.542V3.461A14.181,14.181,0,0,1,37.945,8.3" fill="#bf5b34"/>
        </g>
      </g>
      <g id="Grupo_141454" data-name="Grupo 141454">
        <g id="Grupo_141453" data-name="Grupo 141453" clip-path="url(#clip-path-2)">
          <path id="Trazado_224459" data-name="Trazado 224459" d="M35.574,71.147c17.244,0,35.573-3.741,35.573-10.672,0-2.323-2.011-4.369-5.929-6.1V49.35l1.716-.859a1.183,1.183,0,0,0,.655-1.06V41.5a5.923,5.923,0,0,0-3.426-5.355A4.694,4.694,0,0,0,65.218,33.2a4.743,4.743,0,0,0-9.486,0,4.7,4.7,0,0,0,1.054,2.945A5.925,5.925,0,0,0,53.36,41.5v5.929a1.189,1.189,0,0,0,.656,1.062l1.716.857v2.238A101.072,101.072,0,0,0,40.317,49.9v-4.1l1.716-.858a1.185,1.185,0,0,0,.655-1.06V37.945a5.925,5.925,0,0,0-3.426-5.355,4.744,4.744,0,1,0-7.377,0,5.925,5.925,0,0,0-3.426,5.355v5.929a1.188,1.188,0,0,0,.655,1.061l1.716.857v4.1A104.584,104.584,0,0,0,16.6,51.364V49.35l1.716-.859a1.184,1.184,0,0,0,.656-1.06V41.5a5.925,5.925,0,0,0-3.426-5.355A4.7,4.7,0,0,0,16.6,33.2a4.743,4.743,0,0,0-9.486,0A4.694,4.694,0,0,0,8.17,36.147,5.924,5.924,0,0,0,4.743,41.5v5.929A1.189,1.189,0,0,0,5.4,48.493l1.716.857v4.541C2.412,55.7,0,57.911,0,60.475c0,6.931,18.329,10.672,35.574,10.672m24.9-40.317A2.372,2.372,0,1,1,58.1,33.2a2.374,2.374,0,0,1,2.372-2.372M55.732,41.5a3.561,3.561,0,0,1,3.557-3.557h2.372A3.561,3.561,0,0,1,65.218,41.5v5.2l-1.716.858a1.184,1.184,0,0,0-.656,1.06v8.3H58.1v-8.3a1.188,1.188,0,0,0-.655-1.061L55.732,46.7ZM35.574,27.273A2.371,2.371,0,1,1,33.2,29.645a2.374,2.374,0,0,1,2.372-2.372M30.83,37.945a3.561,3.561,0,0,1,3.558-3.557h2.371a3.561,3.561,0,0,1,3.558,3.557v5.2L38.6,44a1.185,1.185,0,0,0-.655,1.06v8.3H33.2v-8.3A1.19,1.19,0,0,0,32.547,44l-1.717-.857ZM11.858,30.83A2.372,2.372,0,1,1,9.487,33.2a2.375,2.375,0,0,1,2.371-2.372M7.115,41.5a3.561,3.561,0,0,1,3.557-3.557h2.372A3.561,3.561,0,0,1,16.6,41.5v5.2l-1.716.858a1.185,1.185,0,0,0-.655,1.06v8.3H9.487v-8.3a1.187,1.187,0,0,0-.656-1.061L7.115,46.7Zm0,14.936V58.1A1.185,1.185,0,0,0,8.3,59.289h7.114A1.185,1.185,0,0,0,16.6,58.1V53.778a101.1,101.1,0,0,1,14.229-1.51v2.278a1.187,1.187,0,0,0,1.186,1.186h7.115a1.187,1.187,0,0,0,1.186-1.186V52.268a97.589,97.589,0,0,1,15.415,1.741V58.1a1.185,1.185,0,0,0,1.186,1.186h7.114A1.186,1.186,0,0,0,65.218,58.1v-1.11c2.27,1.145,3.557,2.376,3.557,3.482,0,3.466-12.63,8.3-33.2,8.3s-33.2-4.834-33.2-8.3c0-1.293,1.749-2.757,4.743-4.037" fill="#2d1b12"/>
          <path id="Trazado_224460" data-name="Trazado 224460" d="M49.311.85A1.2,1.2,0,0,0,48.242.686l-1.693.565a3.545,3.545,0,0,1-2.717-.192L42.967.626a5.958,5.958,0,0,0-5.3,0l-2.622,1.31A1.19,1.19,0,0,0,34.387,3V22.53h2.372v-10.5l1.966-.983a3.575,3.575,0,0,1,3.182,0l.909.454a5.887,5.887,0,0,0,4.427.353l1.73-.543a1.185,1.185,0,0,0,.83-1.131V1.812A1.185,1.185,0,0,0,49.311.85m-1.88,8.461-.9.282a3.534,3.534,0,0,1-2.656-.212l-.909-.454a5.952,5.952,0,0,0-5.3,0l-.906.453V3.73l1.966-.982a3.569,3.569,0,0,1,3.182,0l.865.433A5.9,5.9,0,0,0,47.3,3.5l.131-.044Z" fill="#2d1b12"/>
        </g>
      </g>
    </g>
  </g>
</svg>
