<svg xmlns="http://www.w3.org/2000/svg" width="85.4" height="85.4" viewBox="0 0 85.4 85.4">
  <g id="paisaje-urbano" transform="translate(-1 -1)">
    <g id="Grupo_141482" data-name="Grupo 141482" transform="translate(2.377 7.887)">
      <g id="Grupo_141467" data-name="Grupo 141467" transform="translate(11.019 13.774)">
        <path id="Trazado_224479" data-name="Trazado 224479" d="M12.755,16V54.568H10V79.362h9.008a5.509,5.509,0,1,1,9.573-5.455l.7-.055a5.617,5.617,0,0,1,1.749.3,8.252,8.252,0,0,1,3.76-4.7V16Z" transform="translate(-10 -16)" fill="#ffeaa7"/>
      </g>
      <g id="Grupo_141468" data-name="Grupo 141468" transform="translate(35.813)">
        <path id="Trazado_224480" data-name="Trazado 224480" d="M55.549,6V36.3H47.284v5.51H44.529V75.05a5.038,5.038,0,0,0-1.377-.179,5.485,5.485,0,0,0-3.788,1.515A8.271,8.271,0,0,0,28,73.218V11.51l8.265-1.653,5.51-1.1,5.51-1.1Z" transform="translate(-28 -6)" fill="#dfb28b"/>
      </g>
      <g id="Grupo_141469" data-name="Grupo 141469" transform="translate(68.871 22.039)">
        <path id="Trazado_224481" data-name="Trazado 224481" d="M57.51,22v8.265H52V22h5.51Z" transform="translate(-52 -22)" fill="#fcd770"/>
      </g>
      <g id="Grupo_141470" data-name="Grupo 141470" transform="translate(55.097 30.303)">
        <path id="Trazado_224482" data-name="Trazado 224482" d="M64.039,28v5.51H42V28H64.039Z" transform="translate(-42 -28)" fill="#ccd1d9"/>
      </g>
      <g id="Grupo_141471" data-name="Grupo 141471" transform="translate(52.342 35.813)">
        <path id="Trazado_224483" data-name="Trazado 224483" d="M64.794,32H40V73.323H67.549V32Z" transform="translate(-40 -32)" fill="#e6e9ed"/>
      </g>
      <g id="Grupo_141472" data-name="Grupo 141472" transform="translate(57.852 41.323)">
        <path id="Trazado_224484" data-name="Trazado 224484" d="M52.265,36H44V61.909a8.1,8.1,0,0,1,4.132-1.116,8.283,8.283,0,0,1,7.851,5.7,8.491,8.491,0,0,1,1.791-.193,7.993,7.993,0,0,1,2.755.482V36Z" transform="translate(-44 -36)" fill="#aab2bd"/>
      </g>
      <g id="Grupo_141473" data-name="Grupo 141473" transform="translate(52.342 11.019)">
        <path id="Trazado_224485" data-name="Trazado 224485" d="M40,14h5.51v8.265H40Z" transform="translate(-40 -14)" fill="#69d6f4"/>
      </g>
      <g id="Grupo_141474" data-name="Grupo 141474" transform="translate(41.323 11.019)">
        <path id="Trazado_224486" data-name="Trazado 224486" d="M32,14h5.51v8.265H32Z" transform="translate(-32 -14)" fill="#69d6f4"/>
      </g>
      <g id="Grupo_141475" data-name="Grupo 141475" transform="translate(41.323 24.794)">
        <path id="Trazado_224487" data-name="Trazado 224487" d="M32,24h5.51v8.265H32Z" transform="translate(-32 -24)" fill="#69d6f4"/>
      </g>
      <g id="Grupo_141476" data-name="Grupo 141476" transform="translate(41.323 38.568)">
        <path id="Trazado_224488" data-name="Trazado 224488" d="M32,34h5.51v8.265H32Z" transform="translate(-32 -34)" fill="#69d6f4"/>
      </g>
      <g id="Grupo_141477" data-name="Grupo 141477" transform="translate(41.323 52.342)">
        <path id="Trazado_224489" data-name="Trazado 224489" d="M32,44h5.51v8.265H32Z" transform="translate(-32 -44)" fill="#69d6f4"/>
      </g>
      <g id="Grupo_141478" data-name="Grupo 141478" transform="translate(2.755 33.058)">
        <path id="Trazado_224490" data-name="Trazado 224490" d="M13.656,49.132a5.822,5.822,0,0,1-1.391.152C7.705,49.284,4,44.973,4,39.642S7.705,30,12.265,30a7.178,7.178,0,0,1,2.755.551,8.464,8.464,0,0,1,4.1,3.733,10.561,10.561,0,0,1,1.4,5.358C20.529,44.422,17.554,48.375,13.656,49.132Z" transform="translate(-4 -30)" fill="#b4dd7f"/>
      </g>
      <g id="Grupo_141479" data-name="Grupo 141479" transform="translate(12.411 37.19)">
        <path id="Trazado_224491" data-name="Trazado 224491" d="M22.512,34.639a10.18,10.18,0,0,1,3.636,8c0,5.331-3.705,9.642-8.265,9.642A8.018,8.018,0,0,1,11.01,48c3.9-.758,6.873-4.711,6.873-9.49a10.561,10.561,0,0,0-1.4-5.358h.014A6.623,6.623,0,0,1,17.883,33,7.5,7.5,0,0,1,22.512,34.639Z" transform="translate(-11.01 -33)" fill="#a0d468"/>
      </g>
      <g id="Grupo_141480" data-name="Grupo 141480" transform="translate(0 55.097)">
        <ellipse id="Elipse_5656" data-name="Elipse 5656" cx="5.5" cy="6.5" rx="5.5" ry="6.5" transform="translate(-0.377 0.416)" fill="#a0d468"/>
      </g>
      <g id="Grupo_141481" data-name="Grupo 141481" transform="translate(19.284 66.116)">
        <path id="Trazado_224492" data-name="Trazado 224492" d="M76.138,65.019H16.744a5.509,5.509,0,1,1,9.573-5.455l.7-.055a5.617,5.617,0,0,1,1.749.3,8.252,8.252,0,0,1,3.76-4.7V55.1A8.271,8.271,0,0,1,43.893,58.27a5.485,5.485,0,0,1,3.788-1.515,5.037,5.037,0,0,1,1.377.179,5.48,5.48,0,0,1,2.41,1.336,8.216,8.216,0,0,1,3.1-3.154A8.1,8.1,0,0,1,58.7,54a8.283,8.283,0,0,1,7.851,5.7,8.491,8.491,0,0,1,1.791-.193,7.993,7.993,0,0,1,2.755.482,8.322,8.322,0,0,1,5.041,5.028Z" transform="translate(-16 -54)" fill="#b4dd7f"/>
      </g>
    </g>
    <g id="Grupo_141483" data-name="Grupo 141483" transform="translate(1 1)">
      <path id="Trazado_224493" data-name="Trazado 224493" d="M83.646,83.646V42.323H80.891v-5.51H78.136V28.549H75.381v-5.51H72.626v5.51H69.871v8.265H67.116V6.207L58.852,7.86v-4.1H56.1V8.411l-2.755.551V1H50.587V9.512l-2.755.551V3.755H45.078v6.861l-8.265,1.653v8.015H12.019v2.755h2.755V39.693a8.452,8.452,0,0,0-1.377-.125c-5.315,0-9.642,4.944-9.642,11.019,0,5.54,3.6,10.125,8.265,10.894v1.795a6.142,6.142,0,0,0-4.132-1.669C4.09,61.607,1,65.313,1,69.871c0,3.992,2.371,7.329,5.51,8.1v5.676H1V86.4H86.4V83.646ZM23.039,82.268a4.134,4.134,0,0,1,7.734-2.029L31.2,81l1.481-.1a4.071,4.071,0,0,1,1.306.238l1.339.449.417-1.349a6.888,6.888,0,0,1,12.612-1.285l.861,1.559,1.292-1.226a4.192,4.192,0,0,1,5.668,0L57.468,80.5l.861-1.559a6.886,6.886,0,0,1,12.58,1.194l.387,1.189,1.222-.27a6.865,6.865,0,0,1,6.967,2.588H23.306a4.127,4.127,0,0,1-.267-1.377Zm57.852-37.19v36a9.725,9.725,0,0,0-2.755-1.985V47.832H58.852V74.375a9.662,9.662,0,0,0-2.069,1.934,6.33,6.33,0,0,0-.686-.337V45.078ZM64.362,72.626a9.594,9.594,0,0,0-2.755.419V50.587h5.51V73.026A9.676,9.676,0,0,0,64.362,72.626Zm5.51-22.039h5.51V78.265a9.449,9.449,0,0,0-2.288-.085,9.6,9.6,0,0,0-3.222-3.807ZM58.852,42.323V39.568H78.136v2.755ZM72.626,31.3h2.755v5.51H72.626ZM64.362,9.568V36.813H56.1v5.51H53.342V75.4a6.862,6.862,0,0,0-3.441.908,9.65,9.65,0,0,0-7.579-3.683,9.758,9.758,0,0,0-2.755.4v-58.5ZM17.529,23.039H36.813V74.363A9.564,9.564,0,0,0,33.575,78.2a6.976,6.976,0,0,0-.891-.065,6.864,6.864,0,0,0-12.245,5.506H14.774v-5L23.039,69v-3.39C27.7,64.845,31.3,60.26,31.3,54.72a11.35,11.35,0,0,0-4.985-9.642h2.23V42.323H25.794v2.456A8.589,8.589,0,0,0,21.661,43.7c-.237,0-.479.015-.725.039a10.022,10.022,0,0,0-3.408-3.092Zm5.51,27.549a12.326,12.326,0,0,0-.7-4.091c3.479.412,6.207,3.942,6.207,8.223,0,4.558-3.09,8.265-6.887,8.265a6.3,6.3,0,0,1-4.65-2.189A11.124,11.124,0,0,0,23.039,50.587Zm-8.265,11.82a9.234,9.234,0,0,0,5.51,3.211v2.368l-5.51,6.428ZM6.51,50.587c0-4.558,3.09-8.265,6.887-8.265s6.887,3.707,6.887,8.265c0,3.992-2.371,7.329-5.51,8.1V49.21H12.019v9.475C8.88,57.917,6.51,54.579,6.51,50.587ZM3.755,69.871c0-3.039,1.854-5.51,4.132-5.51s4.132,2.471,4.132,5.51-1.854,5.51-4.132,5.51S3.755,72.91,3.755,69.871Zm5.51,8.1a6.39,6.39,0,0,0,2.755-1.5v7.178H9.265Z" transform="translate(-1 -1)"/>
      <path id="Trazado_224494" data-name="Trazado 224494" d="M39.265,13H31V24.019h8.265ZM36.51,21.265H33.755v-5.51H36.51Z" transform="translate(10.323 3.529)"/>
      <path id="Trazado_224495" data-name="Trazado 224495" d="M39.265,23H31V34.019h8.265ZM36.51,31.265H33.755v-5.51H36.51Z" transform="translate(10.323 7.303)"/>
      <path id="Trazado_224496" data-name="Trazado 224496" d="M39.265,33H31V44.019h8.265ZM36.51,41.265H33.755v-5.51H36.51Z" transform="translate(10.323 11.078)"/>
      <path id="Trazado_224497" data-name="Trazado 224497" d="M39.265,43H31V54.019h8.265ZM36.51,51.265H33.755v-5.51H36.51Z" transform="translate(10.323 14.852)"/>
      <path id="Trazado_224498" data-name="Trazado 224498" d="M47.265,13H39V24.019h8.265ZM44.51,21.265H41.755v-5.51H44.51Z" transform="translate(13.342 3.529)"/>
      <path id="Trazado_224499" data-name="Trazado 224499" d="M19,19h2.755v2.755H19Z" transform="translate(5.794 5.794)"/>
      <path id="Trazado_224500" data-name="Trazado 224500" d="M23,19h2.755v2.755H23Z" transform="translate(7.303 5.794)"/>
      <path id="Trazado_224501" data-name="Trazado 224501" d="M15,19h2.755v2.755H15Z" transform="translate(4.284 5.794)"/>
      <path id="Trazado_224502" data-name="Trazado 224502" d="M19,23h2.755v2.755H19Z" transform="translate(5.794 7.303)"/>
      <path id="Trazado_224503" data-name="Trazado 224503" d="M15,23h2.755v2.755H15Z" transform="translate(4.284 7.303)"/>
      <path id="Trazado_224504" data-name="Trazado 224504" d="M23,23h2.755v2.755H23Z" transform="translate(7.303 7.303)"/>
      <path id="Trazado_224505" data-name="Trazado 224505" d="M15,27h2.755v2.755H15Z" transform="translate(4.284 8.813)"/>
      <path id="Trazado_224506" data-name="Trazado 224506" d="M19,27h2.755v2.755H19Z" transform="translate(5.794 8.813)"/>
      <path id="Trazado_224507" data-name="Trazado 224507" d="M23,27h2.755v2.755H23Z" transform="translate(7.303 8.813)"/>
      <path id="Trazado_224508" data-name="Trazado 224508" d="M23,31h2.755v2.755H23Z" transform="translate(7.303 10.323)"/>
    </g>
  </g>
</svg>
