<svg xmlns="http://www.w3.org/2000/svg" width="98.346" height="98.346" viewBox="0 0 98.346 98.346">
  <g id="sostenible" transform="translate(-1 -1)">
    <g id="Grupo_141503" data-name="Grupo 141503" transform="translate(1 2.586)">
      <g id="Grupo_141493" data-name="Grupo 141493" transform="translate(0 85.656)">
        <path id="Trazado_224513" data-name="Trazado 224513" d="M1,56H99.346v9.527H1Z" transform="translate(-1 -56)" fill="#aab2bd"/>
      </g>
      <g id="Grupo_141494" data-name="Grupo 141494" transform="translate(19.035 28.552)">
        <path id="Trazado_224514" data-name="Trazado 224514" d="M13,20V45.38H35.207V77.1h9.517V20Z" transform="translate(-13 -20)" fill="#ccd1d9"/>
      </g>
      <g id="Grupo_141495" data-name="Grupo 141495" transform="translate(15.862 53.932)">
        <path id="Trazado_224515" data-name="Trazado 224515" d="M36.38,36V67.724H11V36H36.38Z" transform="translate(-11 -36)" fill="#e6e9ed"/>
      </g>
      <g id="Grupo_141496" data-name="Grupo 141496" transform="translate(72.966 30.138)">
        <path id="Trazado_224516" data-name="Trazado 224516" d="M69.08,21a47.856,47.856,0,0,1,1.713,12.69A47.379,47.379,0,0,1,57.628,66.525l2.062,2.062L47,71.759l3.172-12.69,2.982,2.982a41.361,41.361,0,0,0,9.787-39.465L62.862,21Z" transform="translate(-47 -21)" fill="#ffeaa7"/>
      </g>
      <g id="Grupo_141497" data-name="Grupo 141497" transform="translate(36.483)">
        <path id="Trazado_224517" data-name="Trazado 224517" d="M71.587,13.1l3.172,12.69-12.69-3.172,2.982-2.982A41.361,41.361,0,0,0,25.586,9.852L24,9.931V3.713A47.857,47.857,0,0,1,36.69,2,47.379,47.379,0,0,1,69.525,15.166Z" transform="translate(-24 -2)" fill="#ffeaa7"/>
      </g>
      <g id="Grupo_141498" data-name="Grupo 141498" transform="translate(1.586 9.517)">
        <path id="Trazado_224518" data-name="Trazado 224518" d="M25.793,8,22.621,20.69l-2.982-2.982A41.361,41.361,0,0,0,9.852,57.173l.079,1.586H3.713A47.857,47.857,0,0,1,2,46.069,47.379,47.379,0,0,1,15.166,13.235L13.1,11.172Z" transform="translate(-2 -8)" fill="#ffeaa7"/>
      </g>
      <g id="Grupo_141499" data-name="Grupo 141499" transform="translate(66.621 53.932)">
        <path id="Trazado_224519" data-name="Trazado 224519" d="M52.517,36h6.345a9.525,9.525,0,0,1-9.517,9.517H43A9.525,9.525,0,0,1,52.517,36Z" transform="translate(-43 -36)" fill="#b4dd7f"/>
      </g>
      <g id="Grupo_141500" data-name="Grupo 141500" transform="translate(66.621 38.069)">
        <path id="Trazado_224520" data-name="Trazado 224520" d="M52.517,26h6.345a9.525,9.525,0,0,1-9.517,9.517H43A9.525,9.525,0,0,1,52.517,26Z" transform="translate(-43 -26)" fill="#b4dd7f"/>
      </g>
      <g id="Grupo_141501" data-name="Grupo 141501" transform="translate(50.759 47.587)">
        <path id="Trazado_224521" data-name="Trazado 224521" d="M39.345,32a9.525,9.525,0,0,1,9.517,9.517H42.517A9.525,9.525,0,0,1,33,32Z" transform="translate(-33 -32)" fill="#b4dd7f"/>
      </g>
      <g id="Grupo_141502" data-name="Grupo 141502" transform="translate(50.759 31.724)">
        <path id="Trazado_224522" data-name="Trazado 224522" d="M39.345,22a9.525,9.525,0,0,1,9.517,9.517H42.517A9.525,9.525,0,0,1,33,22Z" transform="translate(-33 -22)" fill="#b4dd7f"/>
      </g>
    </g>
    <g id="Grupo_141504" data-name="Grupo 141504" transform="translate(1 1)">
      <path id="Trazado_224523" data-name="Trazado 224523" d="M1,61H99.346v3.172H1Z" transform="translate(-1 34.173)"/>
      <path id="Trazado_224524" data-name="Trazado 224524" d="M26.6,11.97a39.732,39.732,0,0,1,36.737,8.313l-3.783,3.783,17.972,4.492L73.033,10.587l-2.96,2.96A49.239,49.239,0,0,0,24.164,2.767L23,3.087v9.091l3.247-.152Zm-.427-6.448A46.052,46.052,0,0,1,69.021,16.9l1.121,1.069,1.171-1.171L73.166,24.2l-7.408-1.853L67.906,20.2l-1.183-1.12A42.894,42.894,0,0,0,26.172,8.8Z" transform="translate(11.897 -1)"/>
      <path id="Trazado_224525" data-name="Trazado 224525" d="M2.767,59.986l.32,1.164h9.091L12.026,57.9l-.057-.352a39.747,39.747,0,0,1,8.315-36.738L24.067,24.6,28.559,6.626,10.587,11.118l2.96,2.96A49.239,49.239,0,0,0,2.767,59.986ZM16.9,15.13l1.069-1.121-1.171-1.171L24.2,10.985l-1.853,7.408L20.2,16.243l-1.12,1.183A42.9,42.9,0,0,0,8.8,57.978H5.522A46.052,46.052,0,0,1,16.9,15.13Z" transform="translate(-1 2.298)"/>
      <path id="Trazado_224526" data-name="Trazado 224526" d="M62.158,23.247l.057.352a39.808,39.808,0,0,1,1.453,10.677A39.481,39.481,0,0,1,53.9,60.338l-3.783-3.785L45.626,74.525,63.6,70.033l-2.96-2.96a48.934,48.934,0,0,0,12.547-32.8,49.354,49.354,0,0,0-1.767-13.112L71.1,20H62.007Zm6.505-.075a46.175,46.175,0,0,1,1.35,11.1A45.8,45.8,0,0,1,57.289,66.021L56.22,67.142l1.171,1.171-7.408,1.853,1.853-7.408,2.148,2.149,1.12-1.183A42.634,42.634,0,0,0,66.84,34.276a43.024,43.024,0,0,0-1.453-11.1Z" transform="translate(25.161 10.138)"/>
      <path id="Trazado_224527" data-name="Trazado 224527" d="M18,39h3.172v3.172H18Z" transform="translate(8.966 21.276)"/>
      <path id="Trazado_224528" data-name="Trazado 224528" d="M22,39h3.172v3.172H22Z" transform="translate(11.311 21.276)"/>
      <path id="Trazado_224529" data-name="Trazado 224529" d="M14,39h3.172v3.172H14Z" transform="translate(6.621 21.276)"/>
      <path id="Trazado_224530" data-name="Trazado 224530" d="M18,43h3.172v3.172H18Z" transform="translate(8.966 23.621)"/>
      <path id="Trazado_224531" data-name="Trazado 224531" d="M22,43h3.172v3.172H22Z" transform="translate(11.311 23.621)"/>
      <path id="Trazado_224532" data-name="Trazado 224532" d="M14,43h3.172v3.172H14Z" transform="translate(6.621 23.621)"/>
      <path id="Trazado_224533" data-name="Trazado 224533" d="M14,47h3.172v3.172H14Z" transform="translate(6.621 25.966)"/>
      <path id="Trazado_224534" data-name="Trazado 224534" d="M22,47h3.172v3.172H22Z" transform="translate(11.311 25.966)"/>
      <path id="Trazado_224535" data-name="Trazado 224535" d="M18,47h3.172v3.172H18Z" transform="translate(8.966 25.966)"/>
      <path id="Trazado_224536" data-name="Trazado 224536" d="M22,51h3.172v3.172H22Z" transform="translate(11.311 28.311)"/>
      <path id="Trazado_224537" data-name="Trazado 224537" d="M14,51h3.172v3.172H14Z" transform="translate(6.621 28.311)"/>
      <path id="Trazado_224538" data-name="Trazado 224538" d="M18,51h3.172v3.172H18Z" transform="translate(8.966 28.311)"/>
      <path id="Trazado_224539" data-name="Trazado 224539" d="M28,31h3.172v3.172H28Z" transform="translate(14.828 16.587)"/>
      <path id="Trazado_224540" data-name="Trazado 224540" d="M16,31h3.172v3.172H16Z" transform="translate(7.793 16.587)"/>
      <path id="Trazado_224541" data-name="Trazado 224541" d="M20,31h3.172v3.172H20Z" transform="translate(10.138 16.587)"/>
      <path id="Trazado_224542" data-name="Trazado 224542" d="M24,31h3.172v3.172H24Z" transform="translate(12.483 16.587)"/>
      <path id="Trazado_224543" data-name="Trazado 224543" d="M16,27h3.172v3.172H16Z" transform="translate(7.793 14.242)"/>
      <path id="Trazado_224544" data-name="Trazado 224544" d="M28,27h3.172v3.172H28Z" transform="translate(14.828 14.242)"/>
      <path id="Trazado_224545" data-name="Trazado 224545" d="M24,27h3.172v3.172H24Z" transform="translate(12.483 14.242)"/>
      <path id="Trazado_224546" data-name="Trazado 224546" d="M20,27h3.172v3.172H20Z" transform="translate(10.138 14.242)"/>
      <path id="Trazado_224547" data-name="Trazado 224547" d="M16,23h3.172v3.172H16Z" transform="translate(7.793 11.897)"/>
      <path id="Trazado_224548" data-name="Trazado 224548" d="M28,23h3.172v3.172H28Z" transform="translate(14.828 11.897)"/>
      <path id="Trazado_224549" data-name="Trazado 224549" d="M20,23h3.172v3.172H20Z" transform="translate(10.138 11.897)"/>
      <path id="Trazado_224550" data-name="Trazado 224550" d="M24,23h3.172v3.172H24Z" transform="translate(12.483 11.897)"/>
      <path id="Trazado_224551" data-name="Trazado 224551" d="M69.207,57.069h4.759a11.118,11.118,0,0,0,11.1-11.1V44.38H77.139a11.061,11.061,0,0,0-7.931,3.349V41.207h4.759a11.118,11.118,0,0,0,11.1-11.1V28.517H77.139a11.064,11.064,0,0,0-8.017,3.442A11.115,11.115,0,0,0,58.1,22.172H53.345V19h-34.9V44.38H15.276V76.1H1v3.172H99.346V76.1H69.207Zm7.931-9.517h4.6A7.945,7.945,0,0,1,73.966,53.9h-4.6A7.943,7.943,0,0,1,77.139,47.552Zm0-15.862h4.6a7.945,7.945,0,0,1-7.771,6.345h-4.6A7.943,7.943,0,0,1,77.139,31.69ZM66.035,76.1H53.345V47.376a11.061,11.061,0,0,0,7.931,3.349h4.759V76.1Zm-12.53-34.9h4.6a7.943,7.943,0,0,1,7.771,6.345h-4.6A7.943,7.943,0,0,1,53.505,41.207Zm4.6-15.862a7.943,7.943,0,0,1,7.771,6.345h-4.6a7.943,7.943,0,0,1-7.771-6.345Zm3.172,9.517h4.759v6.521A11.061,11.061,0,0,0,58.1,38.035H53.345V31.514A11.061,11.061,0,0,0,61.276,34.862ZM21.621,22.172H50.173V76.1H43.828V44.38H21.621Zm-3.172,25.38H40.656V76.1H18.448Z" transform="translate(-1 9.552)"/>
    </g>
  </g>
</svg>
