<svg xmlns="http://www.w3.org/2000/svg" xmlns:xlink="http://www.w3.org/1999/xlink" width="145" height="145" viewBox="0 0 145 145">
  <defs>
    <filter id="Elipse_4259" x="0" y="0" width="145" height="145" filterUnits="userSpaceOnUse">
      <feOffset dx="-6" dy="6" input="SourceAlpha"/>
      <feGaussianBlur stdDeviation="3" result="blur"/>
      <feFlood flood-opacity="0.161"/>
      <feComposite operator="in" in2="blur"/>
      <feComposite in="SourceGraphic"/>
    </filter>
  </defs>
  <g id="_50" data-name="50" transform="translate(-723.285 -6904)">
    <g id="Grupo_141447" data-name="Grupo 141447" transform="translate(244 298)">
      <g id="Grupo_131299" data-name="Grupo 131299" transform="translate(494.645 6609.5)">
        <g transform="matrix(1, 0, 0, 1, -15.36, -3.5)" filter="url(#Elipse_4259)">
          <g id="Elipse_4259-2" data-name="Elipse 4259" transform="translate(15 3)" fill="#fff" stroke="#d2984d" stroke-width="4">
            <circle cx="63.5" cy="63.5" r="63.5" stroke="none"/>
            <circle cx="63.5" cy="63.5" r="61.5" fill="none"/>
          </g>
        </g>
      </g>
    </g>
    <g id="presentacion" transform="translate(766.285 6935)">
      <g id="Grupo_142707" data-name="Grupo 142707" transform="translate(1.04 1.039)">
        <path id="Trazado_225890" data-name="Trazado 225890" d="M19.827,29.69H85.135V78.524H19.827Z" transform="translate(-18.17 -26.615)" fill="#f9f7f7"/>
        <path id="Trazado_225891" data-name="Trazado 225891" d="M85.135,35.537V29.69H19.827V78.525H85.135V73.513H30.183a2.73,2.73,0,0,1-2.73-2.73V38.267a2.73,2.73,0,0,1,2.73-2.73H85.135Z" transform="translate(-18.17 -26.615)" fill="#f2eae7"/>
        <g id="Grupo_142706" data-name="Grupo 142706">
          <path id="Trazado_225892" data-name="Trazado 225892" d="M74.836,13.65H9.529a1.657,1.657,0,0,1-1.657-1.657V9.157A1.657,1.657,0,0,1,9.529,7.5H74.836a1.657,1.657,0,0,1,1.657,1.657v2.837A1.657,1.657,0,0,1,74.836,13.65Z" transform="translate(-7.872 -7.5)" fill="#a59ca6"/>
          <path id="Trazado_225893" data-name="Trazado 225893" d="M74.836,370.4H9.529a1.657,1.657,0,0,1-1.657-1.657v-1.168a1.657,1.657,0,0,1,1.657-1.657H74.836a1.657,1.657,0,0,1,1.657,1.657v1.168A1.657,1.657,0,0,1,74.836,370.4Z" transform="translate(-7.872 -316.249)" fill="#a59ca6"/>
          <g id="Grupo_142705" data-name="Grupo 142705" transform="translate(46.192 18.43)">
            <path id="Trazado_225894" data-name="Trazado 225894" d="M341.2,140.495h0Z" transform="translate(-341.201 -140.495)" fill="#b3e5ee"/>
          </g>
          <path id="Trazado_225895" data-name="Trazado 225895" d="M170.2,126.33a15.191,15.191,0,1,1,4.826-6.425.927.927,0,0,1-1.417.4l-2.826-2.112a.921.921,0,0,1-.334-1A10,10,0,1,0,166.3,122.7a.938.938,0,0,1,1.069.044l2.817,2.1A.928.928,0,0,1,170.2,126.33Z" transform="translate(-126.558 -86.396)" fill="#e79098"/>
        </g>
      </g>
      <g id="Grupo_142708" data-name="Grupo 142708" transform="translate(0)">
        <path id="Trazado_225896" data-name="Trazado 225896" d="M71.072,5.533V2.7a2.7,2.7,0,0,0-2.7-2.7H3.068a2.7,2.7,0,0,0-2.7,2.7V5.533A2.7,2.7,0,0,0,2.029,8.02V49.878A2.7,2.7,0,0,0,.372,52.365v1.168a2.7,2.7,0,0,0,2.7,2.7H13.143a1.039,1.039,0,0,0,0-2.079H3.068a.618.618,0,0,1-.618-.617V52.365a.618.618,0,0,1,.617-.618H68.376a.618.618,0,0,1,.617.618v1.168a.618.618,0,0,1-.618.617H17.582a1.039,1.039,0,0,0,0,2.079h17.1v7.493H33.405a3.541,3.541,0,0,0,0,7.081h4.633a3.541,3.541,0,0,0,0-7.081H36.761V56.229H68.376a2.7,2.7,0,0,0,2.7-2.7V52.365a2.7,2.7,0,0,0-1.657-2.487V8.02a2.7,2.7,0,0,0,1.657-2.487ZM39.5,67.262a1.464,1.464,0,0,1-1.462,1.462H33.405a1.462,1.462,0,0,1,0-2.924h4.633A1.464,1.464,0,0,1,39.5,67.262ZM2.451,2.7a.618.618,0,0,1,.618-.617H68.376a.618.618,0,0,1,.618.617V5.533a.618.618,0,0,1-.618.617H58.93a1.039,1.039,0,0,0,0,2.079h8.406v41.44H4.107V8.229H54.491a1.039,1.039,0,1,0,0-2.079H3.068a.618.618,0,0,1-.618-.617V2.7Z" transform="translate(-0.372)"/>
        <path id="Trazado_225897" data-name="Trazado 225897" d="M96.408,90.14c-1.931,1.979-4.065,4.142-5.152,5.213q-.26-.283-.534-.555a16.158,16.158,0,0,0-11.3-4.726h-.132a16.222,16.222,0,0,0-13.3,25.565l-5.556,5.556H51.985a1.039,1.039,0,1,0,0,2.079h8.88a1.039,1.039,0,0,0,.735-.3l5.7-5.7a16.23,16.23,0,0,0,11.855,5.317h.134a16.088,16.088,0,0,0,9.962-3.412,1.967,1.967,0,0,0-.025-3.131l-2.817-2.1a1.984,1.984,0,0,0-2.257-.084,8.938,8.938,0,0,1-9.611.069,1.039,1.039,0,1,0-1.105,1.76,11.017,11.017,0,0,0,11.78-.042l2.647,1.977a14.026,14.026,0,0,1-8.575,2.888h-.117A14.241,14.241,0,0,1,65.11,106.459,14.178,14.178,0,0,1,79.287,92.15H79.4a14.261,14.261,0,0,1,14.061,13.943,14.11,14.11,0,0,1-.936,5.314l-2.644-1.975A11.044,11.044,0,1,0,69.946,112.2a1.039,1.039,0,1,0,1.757-1.111,8.9,8.9,0,0,1-1.358-4.167,8.962,8.962,0,1,1,17.524,1.991,1.966,1.966,0,0,0,.707,2.135l2.826,2.112a1.966,1.966,0,0,0,3.005-.852A16.225,16.225,0,0,0,92.57,96.978c.508-.491,1.249-1.241,2.382-2.388,1.064-1.078,2.13-2.166,2.637-2.685h8.549a1.039,1.039,0,1,0,0-2.079H97.151A1.039,1.039,0,0,0,96.408,90.14Z" transform="translate(-43.938 -77.379)"/>
        <path id="Trazado_225898" data-name="Trazado 225898" d="M401.047,133h-6.711a1.039,1.039,0,0,0,0,2.079h6.711a1.039,1.039,0,1,0,0-2.079Z" transform="translate(-338.846 -114.57)"/>
        <path id="Trazado_225899" data-name="Trazado 225899" d="M401.047,178.447h-6.711a1.039,1.039,0,0,0,0,2.079h6.711a1.039,1.039,0,0,0,0-2.079Z" transform="translate(-338.846 -153.718)"/>
        <path id="Trazado_225900" data-name="Trazado 225900" d="M401.047,223.893h-6.711a1.039,1.039,0,0,0,0,2.079h6.711a1.039,1.039,0,0,0,0-2.079Z" transform="translate(-338.846 -192.866)"/>
        <path id="Trazado_225901" data-name="Trazado 225901" d="M401.047,269.339h-6.711a1.039,1.039,0,1,0,0,2.079h6.711a1.039,1.039,0,1,0,0-2.079Z" transform="translate(-338.846 -232.014)"/>
        <path id="Trazado_225902" data-name="Trazado 225902" d="M51.985,275H59.67a1.039,1.039,0,1,0,0-2.079H51.985a1.039,1.039,0,1,0,0,2.079Z" transform="translate(-43.938 -235.101)"/>
        <path id="Trazado_225903" data-name="Trazado 225903" d="M51.985,230.855H59.67a1.039,1.039,0,1,0,0-2.079H51.985a1.039,1.039,0,1,0,0,2.079Z" transform="translate(-43.938 -197.073)"/>
        <path id="Trazado_225904" data-name="Trazado 225904" d="M51.985,186.71H59.67a1.039,1.039,0,1,0,0-2.079H51.985a1.039,1.039,0,1,0,0,2.079Z" transform="translate(-43.938 -159.045)"/>
        <path id="Trazado_225905" data-name="Trazado 225905" d="M51.985,142.564H59.67a1.039,1.039,0,1,0,0-2.079H51.985a1.039,1.039,0,1,0,0,2.079Z" transform="translate(-43.938 -121.017)"/>
      </g>
    </g>
  </g>
</svg>
