<svg xmlns="http://www.w3.org/2000/svg" width="103.333" height="103.333" viewBox="0 0 103.333 103.333">
  <g id="solucion" transform="translate(-1 -1)">
    <g id="Grupo_143191" data-name="Grupo 143191" transform="translate(2.667 2.664)">
      <g id="Grupo_143178" data-name="Grupo 143178" transform="translate(6.667 6.67)">
        <circle id="Elipse_5667" data-name="Elipse 5667" cx="43.5" cy="43.5" r="43.5" transform="translate(-0.333 -0.001)" fill="#e6e9ed"/>
      </g>
      <g id="Grupo_143179" data-name="Grupo 143179" transform="translate(26.667 0.003)">
        <path id="Trazado_227310" data-name="Trazado 227310" d="M24.667,11.983V28.667H18V2h6.667Z" transform="translate(-18 -2)" fill="#ff826e"/>
      </g>
      <g id="Grupo_143180" data-name="Grupo 143180" transform="translate(13.333 6.67)">
        <path id="Trazado_227311" data-name="Trazado 227311" d="M16.667,6V26H10V6Z" transform="translate(-10 -6)" fill="#ff826e"/>
      </g>
      <g id="Grupo_143181" data-name="Grupo 143181" transform="translate(0 13.336)">
        <path id="Trazado_227312" data-name="Trazado 227312" d="M2,10H8.667V23.333H2Z" transform="translate(-2 -10)" fill="#ff826e"/>
      </g>
      <g id="Grupo_143182" data-name="Grupo 143182" transform="translate(0 63.336)">
        <path id="Trazado_227313" data-name="Trazado 227313" d="M28.667,66.667v6.667a3.343,3.343,0,0,1-3.333,3.333h-20A3.343,3.343,0,0,1,2,73.333V66.667H3.667a5,5,0,1,0,0-10H2V50a3.343,3.343,0,0,1,3.333-3.333h5V45a4.935,4.935,0,0,1,1.083-3.1,4.746,4.746,0,0,1,.383-.433A5,5,0,0,1,20.333,45v1.667h5A3.343,3.343,0,0,1,28.667,50v6.667H27a5,5,0,0,0,0,10Z" transform="translate(-2 -40)" fill="#b4dd7f"/>
      </g>
      <g id="Grupo_143183" data-name="Grupo 143183" transform="translate(86.666 50.003)">
        <path id="Trazado_227314" data-name="Trazado 227314" d="M67.333,38.667V42H54V38.667A6.658,6.658,0,0,1,60.617,32h.05a6.665,6.665,0,0,1,6.667,6.667Z" transform="translate(-54 -32)" fill="#aab2bd"/>
      </g>
      <g id="Grupo_143184" data-name="Grupo 143184" transform="translate(86.666 90.003)">
        <path id="Trazado_227315" data-name="Trazado 227315" d="M67.333,56l-4.25,8.517a2.71,2.71,0,0,1-4.833,0L54,56H67.333Z" transform="translate(-54 -56)" fill="#aab2bd"/>
      </g>
      <g id="Grupo_143185" data-name="Grupo 143185" transform="translate(93.333 60.003)">
        <path id="Trazado_227316" data-name="Trazado 227316" d="M58,38h6.667V68H58Z" transform="translate(-58 -38)" fill="#ff826e"/>
      </g>
      <g id="Grupo_143186" data-name="Grupo 143186" transform="translate(86.666 60.003)">
        <path id="Trazado_227317" data-name="Trazado 227317" d="M60.667,38V68H54V38Z" transform="translate(-54 -38)" fill="#b4dd7f"/>
      </g>
      <g id="Grupo_143187" data-name="Grupo 143187" transform="translate(80 30.003)">
        <path id="Trazado_227318" data-name="Trazado 227318" d="M60,20v3.333a3.343,3.343,0,0,1-3.333,3.333H53.333A3.343,3.343,0,0,1,50,23.333V20H60Z" transform="translate(-50 -20)" fill="#aab2bd"/>
      </g>
      <g id="Grupo_143188" data-name="Grupo 143188" transform="translate(71.67)">
        <path id="Trazado_227319" data-name="Trazado 227319" d="M63.332,30.684V32h-10v-1.25a4.935,4.935,0,0,0-2.167-4.183,13.255,13.255,0,0,1-6.133-12.117c.017-.283.05-.567.083-.867A13.332,13.332,0,1,1,65.532,26.551a4.878,4.878,0,0,0-2.2,4.133Z" transform="translate(-45.002 -1.998)" fill="#ffeaa7"/>
      </g>
      <g id="Grupo_143189" data-name="Grupo 143189" transform="translate(81.666 10.003)">
        <circle id="Elipse_5668" data-name="Elipse 5668" cx="3.5" cy="3.5" r="3.5" transform="translate(-0.333 -0.334)" fill="#fcd770"/>
      </g>
      <g id="Grupo_143190" data-name="Grupo 143190" transform="translate(30 30.003)">
        <path id="Trazado_227320" data-name="Trazado 227320" d="M60,40v5l-2.667.95a19.3,19.3,0,0,1-.883,2.1l1.233,2.55L50.6,57.683,48.05,56.45a19.3,19.3,0,0,1-2.1.883L45,60H35l-.95-2.667a19.3,19.3,0,0,1-2.1-.883L29.4,57.683,22.317,50.6l1.233-2.55a19.3,19.3,0,0,1-.883-2.1L20,45V35l2.667-.95a19.3,19.3,0,0,1,.883-2.1L22.317,29.4,29.4,22.317l2.55,1.233a19.3,19.3,0,0,1,2.1-.883L35,20H45l.95,2.667a19.3,19.3,0,0,1,2.1.883l2.55-1.233L57.683,29.4,56.45,31.95a19.294,19.294,0,0,1,.883,2.1L60,35Zm-8.333,0A11.667,11.667,0,1,0,40,51.667,11.658,11.658,0,0,0,51.667,40Z" transform="translate(-20 -20)" fill="#fcd770"/>
      </g>
    </g>
    <g id="Grupo_143192" data-name="Grupo 143192" transform="translate(1 1)">
      <path id="Trazado_227321" data-name="Trazado 227321" d="M50.667,37.333A13.333,13.333,0,1,0,37.333,50.667,13.349,13.349,0,0,0,50.667,37.333Zm-13.333,10a10,10,0,1,1,10-10A10.01,10.01,0,0,1,37.333,47.333Z" transform="translate(14.333 14.333)"/>
      <path id="Trazado_227322" data-name="Trazado 227322" d="M97.63,51.165a44.687,44.687,0,0,0-3.3-15.507V31.347a3.254,3.254,0,0,1,1.435-2.732A15,15,0,0,0,85.925,1.1,15.1,15.1,0,0,0,73.066,12.563a45.014,45.014,0,0,0-35.4-2.33V1h-10V27.667H24.333v-20h-10v20H11V14.333H1V31H13.227A44.868,44.868,0,0,0,10.26,67.666,6.6,6.6,0,0,0,9.333,71H6a5.006,5.006,0,0,0-5,5v8.333H4.333a3.333,3.333,0,0,1,0,6.667H1v8.333a5.006,5.006,0,0,0,5,5H26a5.006,5.006,0,0,0,5-5V91H27.667a3.333,3.333,0,1,1,0-6.667H31V76a5.006,5.006,0,0,0-5-5H22.667A6.673,6.673,0,0,0,16,64.333a6.575,6.575,0,0,0-3.067.783,41.428,41.428,0,0,1-1.86-10.783H31v4.513l3.043,1.075q.155.393.327.785L32.977,63.62l8.74,8.74,2.913-1.393c.26.115.522.225.785.327l1.072,3.04H51V94.288a41.227,41.227,0,0,1-15.9-3.83L33.69,93.48A45.021,45.021,0,0,0,87.666,80.941V93.06l4.43,8.86a4.364,4.364,0,0,0,7.807,0l4.43-8.862V59.333a8.343,8.343,0,0,0-6.7-8.168ZM7.667,27.667H4.333v-10H7.667ZM101,59.333V61H91V59.333a5,5,0,0,1,10,0ZM97.666,91V64.333H101V91ZM91,91V64.333h3.333V91ZM71.29,45.413q-.155-.392-.327-.785l1.393-2.913-8.74-8.74L60.7,34.368c-.26-.115-.522-.225-.785-.327L58.846,31H54.333V11.055A41.621,41.621,0,0,1,72.671,16.13,14.888,14.888,0,0,0,79.6,28.638,3.274,3.274,0,0,1,81,31.417V36a5.006,5.006,0,0,0,5,5h3.333a4.951,4.951,0,0,0,3.018-1.04A41.389,41.389,0,0,1,94.291,51H74.333V46.487ZM91,34.333V36a1.669,1.669,0,0,1-1.667,1.667H86A1.669,1.669,0,0,1,84.333,36V34.333ZM86,16a1.667,1.667,0,1,1,1.667,1.667A1.669,1.669,0,0,1,86,16Zm-9.9-1.542A11.712,11.712,0,0,1,86.3,4.41a12.449,12.449,0,0,1,1.382-.077A11.529,11.529,0,0,1,95.435,7.3a11.658,11.658,0,0,1-1.468,18.515A6.5,6.5,0,0,0,91.021,31H89.333V20.693a5,5,0,1,0-3.333,0V31H84.308a6.5,6.5,0,0,0-2.913-5.17A11.619,11.619,0,0,1,76.1,14.458ZM31,4.333h3.333V27.667H31ZM17.667,11H21V27.667H17.667Zm1.667,60v3.333H26A1.669,1.669,0,0,1,27.667,76v5a6.667,6.667,0,1,0,0,13.333v5A1.669,1.669,0,0,1,26,101H6a1.669,1.669,0,0,1-1.667-1.667v-5A6.667,6.667,0,1,0,4.333,81V76A1.669,1.669,0,0,1,6,74.333h6.667V71a3.333,3.333,0,0,1,6.667,0ZM31,46.487V51H11.058a41.474,41.474,0,0,1,6.037-20H37.667v-17.2A41.29,41.29,0,0,1,51,11.042V31H46.487l-1.075,3.043q-.392.155-.785.327l-2.913-1.393-8.74,8.74,1.393,2.913c-.115.26-.225.522-.327.785ZM48.028,68.68l-.763-.262a16.3,16.3,0,0,1-1.912-.8l-.725-.355L42.4,68.33l-5.4-5.4L38.065,60.7l-.355-.725a16.584,16.584,0,0,1-.8-1.912l-.262-.763-2.318-.817V48.845l2.32-.818.262-.763a16.3,16.3,0,0,1,.8-1.912l.355-.725L37,42.4l5.4-5.4,2.223,1.063.725-.355a16.584,16.584,0,0,1,1.912-.8l.763-.262.817-2.317h7.642l.818,2.32.763.262a16.3,16.3,0,0,1,1.912.8l.725.355L62.93,37l5.4,5.4L67.27,44.63l.355.725a16.584,16.584,0,0,1,.8,1.912l.262.763L71,48.847v7.642l-2.32.818-.262.763a16.3,16.3,0,0,1-.8,1.912l-.355.725L68.33,62.93l-5.4,5.4L60.7,67.27l-.725.355a16.586,16.586,0,0,1-1.912.8l-.763.262L56.487,71H48.845Zm6.3,25.6V74.333h4.513l1.075-3.043q.393-.155.785-.327l2.913,1.393,8.74-8.74L70.966,60.7c.115-.26.225-.522.327-.785l3.04-1.072V54.333H89.376a8.247,8.247,0,0,0-1.71,5V75.261A41.451,41.451,0,0,1,54.333,94.28Zm42.588,6.152a1.069,1.069,0,0,1-1.842,0l-3.05-6.1h7.94Z" transform="translate(-1 -1)"/>
      <path id="Trazado_227323" data-name="Trazado 227323" d="M34.865,57.132l.452,3.3A38.385,38.385,0,0,0,58.132,48.592l-2.438-2.273A35.054,35.054,0,0,1,34.865,57.132Z" transform="translate(21.576 29.212)"/>
      <path id="Trazado_227324" data-name="Trazado 227324" d="M48.943,45.682l2.688,1.972a38.574,38.574,0,0,0,2.277-3.485L51.023,42.5A35.2,35.2,0,0,1,48.943,45.682Z" transform="translate(30.962 26.666)"/>
    </g>
  </g>
</svg>
